<svg width="22" height="22" viewBox="0 0 22 22" fill="none" xmlns="http://www.w3.org/2000/svg">
<path fill-rule="evenodd" clip-rule="evenodd" d="M0.767442 20.4651C0.343595 20.4651 0 20.8087 0 21.2326C0 21.6564 0.343595 22 0.767442 22H2.30233L19.6977 22H21.2326C21.6564 22 22 21.6564 22 21.2326C22 20.8087 21.6564 20.4651 21.2326 20.4651H20.4651V18.1628C20.4651 17.7389 20.1215 17.3953 19.6977 17.3953H18.9302L18.9302 6.65116H19.186C19.6099 6.65116 19.9535 6.30757 19.9535 5.88372V3.00019C19.9535 2.65411 19.7219 2.35086 19.388 2.25979L11.2019 0.027046C11.0697 -0.00901534 10.9303 -0.00901534 10.7981 0.027046L2.61201 2.25979C2.27813 2.35086 2.04651 2.65411 2.04651 3.00019L2.04651 5.88372C2.04651 6.30757 2.39011 6.65116 2.81395 6.65116H3.06977L3.06977 17.3953H2.30233C1.87848 17.3953 1.53488 17.7389 1.53488 18.1628L1.53488 20.4651H0.767442ZM3.5814 3.58634L3.5814 5.11628L18.4186 5.11628V3.58634L11 1.56292L3.5814 3.58634ZM3.06977 18.9302L3.06977 20.4651L18.9302 20.4651V18.9302L3.06977 18.9302ZM15.3488 17.3953H17.3953L17.3953 6.65116L15.3488 6.65116L15.3488 17.3953ZM11.7674 17.3953H13.814L13.814 6.65116L11.7674 6.65116L11.7674 17.3953ZM8.18605 17.3953H10.2326L10.2326 6.65116L8.18605 6.65116L8.18605 17.3953ZM6.65116 17.3953H4.60465L4.60465 6.65116L6.65116 6.65116L6.65116 17.3953Z" fill="black"/>
</svg>
