<svg width="201" height="175" viewBox="0 0 201 175" fill="none" xmlns="http://www.w3.org/2000/svg">
<g clip-path="url(#clip0_1949_7)">
<circle cx="151.926" cy="48.7388" r="48.7388" fill="url(#paint0_linear_1949_7)"/>
<path d="M139.516 55.3346C138.638 55.3346 137.881 55.1675 137.245 54.8334C136.618 54.4992 136.138 54.0555 135.804 53.502C135.469 52.9382 135.302 52.3117 135.302 51.6225H137.448C137.448 52.1759 137.631 52.6249 137.996 52.9695C138.372 53.3037 138.879 53.4707 139.516 53.4707C139.944 53.4707 140.309 53.3924 140.612 53.2358C140.925 53.0687 141.165 52.8442 141.332 52.5623C141.5 52.2699 141.583 51.9358 141.583 51.5599C141.583 50.996 141.4 50.5366 141.035 50.1816C140.669 49.8161 140.168 49.6334 139.531 49.6334C139.218 49.6334 138.941 49.6751 138.701 49.7587C138.471 49.8422 138.268 49.9519 138.09 50.0876L137.072 48.3334L140.831 45.7647L140.69 45.4984H135.772V43.6033H143.243V45.89L139.375 48.4587L138.169 48.2394C138.367 48.1768 138.581 48.1298 138.811 48.0984C139.04 48.0567 139.291 48.0358 139.563 48.0358C140.429 48.0358 141.171 48.1872 141.787 48.49C142.413 48.7824 142.893 49.1896 143.228 49.7117C143.562 50.2338 143.729 50.8342 143.729 51.5129V51.7165C143.729 52.3743 143.562 52.98 143.228 53.5334C142.893 54.0763 142.413 54.5149 141.787 54.849C141.16 55.1727 140.403 55.3346 139.516 55.3346ZM150.463 55.3346C149.565 55.3346 148.803 55.1884 148.177 54.896C147.55 54.5932 147.039 54.186 146.642 53.6743C146.245 53.1523 145.953 52.5571 145.765 51.8888C145.587 51.2101 145.498 50.5 145.498 49.7587L145.498 48.8816C145.498 47.827 145.676 46.8768 146.031 46.031C146.386 45.1852 146.929 44.5169 147.66 44.0262C148.391 43.525 149.325 43.2744 150.463 43.2744C151.591 43.2744 152.52 43.525 153.251 44.0262C153.982 44.5169 154.52 45.1852 154.865 46.031C155.22 46.8768 155.397 47.827 155.397 48.8816V49.7587C155.397 50.5 155.303 51.2101 155.115 51.8888C154.938 52.5571 154.651 53.1523 154.254 53.6743C153.867 54.186 153.361 54.5932 152.734 54.896C152.108 55.1884 151.351 55.3346 150.463 55.3346ZM150.463 53.2984C151.393 53.2984 152.077 52.98 152.515 52.343C152.954 51.6956 153.173 50.6932 153.173 49.3358C153.173 47.8948 152.949 46.8663 152.5 46.2503C152.051 45.6237 151.372 45.3105 150.463 45.3105C149.545 45.3105 148.855 45.6237 148.396 46.2503C147.947 46.8663 147.722 47.8844 147.722 49.3045C147.722 50.6723 147.947 51.68 148.396 52.3274C148.845 52.9747 149.534 53.2984 150.463 53.2984ZM160.266 55.037L164.479 43.6033H166.28L162.067 55.037H160.266ZM159.452 49.837C158.846 49.837 158.345 49.7013 157.948 49.4298C157.551 49.1478 157.254 48.7772 157.055 48.3177C156.867 47.8583 156.773 47.3571 156.773 46.8141V46.4069C156.773 45.8117 156.872 45.2896 157.071 44.8406C157.269 44.3812 157.567 44.0262 157.964 43.7756C158.371 43.5145 158.867 43.384 159.452 43.384C160.057 43.384 160.558 43.5145 160.955 43.7756C161.352 44.0262 161.65 44.3812 161.848 44.8406C162.046 45.2896 162.146 45.8117 162.146 46.4069V46.8141C162.146 47.3571 162.046 47.8583 161.848 48.3177C161.66 48.7772 161.368 49.1478 160.971 49.4298C160.584 49.7013 160.078 49.837 159.452 49.837ZM159.452 48.3804C159.827 48.3804 160.104 48.2446 160.282 47.9731C160.47 47.6912 160.564 47.2422 160.564 46.6262C160.564 45.9579 160.47 45.4932 160.282 45.2322C160.094 44.9711 159.817 44.8406 159.452 44.8406C159.086 44.8406 158.809 44.9711 158.621 45.2322C158.444 45.4932 158.355 45.9527 158.355 46.6105C158.355 47.2266 158.444 47.6756 158.621 47.9575C158.809 48.2394 159.086 48.3804 159.452 48.3804ZM167.017 55.2719C166.411 55.2719 165.91 55.1362 165.513 54.8647C165.116 54.5828 164.819 54.2121 164.62 53.7527C164.432 53.2932 164.338 52.792 164.338 52.249V51.8418C164.338 51.2466 164.437 50.7245 164.636 50.2755C164.834 49.8161 165.132 49.4611 165.529 49.2105C165.936 48.9494 166.432 48.8189 167.017 48.8189C167.622 48.8189 168.123 48.9494 168.52 49.2105C168.917 49.4611 169.215 49.8161 169.413 50.2755C169.611 50.7245 169.711 51.2466 169.711 51.8418V52.249C169.711 52.792 169.611 53.2932 169.413 53.7527C169.225 54.2121 168.933 54.5828 168.536 54.8647C168.15 55.1362 167.643 55.2719 167.017 55.2719ZM167.017 53.8153C167.392 53.8153 167.669 53.6796 167.847 53.4081C168.035 53.1261 168.129 52.6772 168.129 52.0611C168.129 51.3928 168.035 50.9282 167.847 50.6671C167.659 50.4061 167.382 50.2755 167.017 50.2755C166.651 50.2755 166.374 50.4061 166.186 50.6671C166.009 50.9282 165.92 51.3876 165.92 52.0454C165.92 52.6615 166.009 53.1105 166.186 53.3924C166.374 53.6743 166.651 53.8153 167.017 53.8153Z" fill="white"/>
<circle cx="97.1124" cy="114.844" r="59.8953" fill="url(#paint1_linear_1949_7)"/>
<path d="M83.648 120.878C82.6682 120.878 81.8252 120.684 81.1188 120.297C80.4239 119.909 79.8884 119.397 79.5124 118.759C79.1479 118.109 78.9656 117.403 78.9656 116.64H81.3068C81.3068 117.073 81.4036 117.454 81.5973 117.785C81.8024 118.115 82.0815 118.377 82.4347 118.571C82.7879 118.753 83.198 118.844 83.6651 118.844C84.155 118.844 84.5765 118.742 84.9297 118.537C85.2829 118.332 85.5506 118.052 85.7329 117.699C85.9266 117.346 86.0234 116.942 86.0234 116.486C86.0234 116.042 85.9266 115.643 85.7329 115.29C85.5506 114.925 85.2829 114.64 84.9297 114.435C84.5879 114.219 84.1721 114.11 83.6822 114.11C83.2721 114.11 82.8847 114.19 82.5201 114.35C82.1556 114.509 81.8707 114.72 81.6657 114.982H79.427L80.0593 108.078H87.288V110.146H81.1188L81.9733 109.479L81.5631 113.786L80.9821 113.615C81.3125 113.239 81.7169 112.926 82.1954 112.675C82.6739 112.424 83.2777 112.299 84.0069 112.299C84.9297 112.299 85.7158 112.487 86.3652 112.863C87.0146 113.239 87.5102 113.74 87.852 114.367C88.1937 114.982 88.3646 115.654 88.3646 116.383V116.605C88.3646 117.346 88.1824 118.041 87.8178 118.69C87.4532 119.34 86.9178 119.87 86.2114 120.28C85.5164 120.678 84.662 120.878 83.648 120.878ZM90.12 120.553V118.161C90.12 117.637 90.1998 117.181 90.3593 116.793C90.5302 116.406 90.8036 116.064 91.1796 115.768C91.5669 115.461 92.0739 115.17 92.7005 114.897L94.8196 113.957C95.3436 113.717 95.7424 113.427 96.0158 113.085C96.3006 112.732 96.443 112.282 96.443 111.735C96.443 111.131 96.2607 110.653 95.8962 110.3C95.543 109.935 95.036 109.753 94.3752 109.753C93.7145 109.753 93.2018 109.935 92.8372 110.3C92.484 110.664 92.3074 111.171 92.3074 111.821H89.9662C89.9662 111.046 90.1314 110.351 90.4618 109.736C90.7922 109.109 91.2821 108.619 91.9315 108.266C92.5809 107.901 93.3955 107.719 94.3752 107.719C95.355 107.719 96.1696 107.896 96.819 108.249C97.4684 108.602 97.9583 109.075 98.2887 109.667C98.6191 110.248 98.7843 110.898 98.7843 111.615V111.838C98.7843 112.772 98.5222 113.552 97.9982 114.179C97.4741 114.794 96.7051 115.329 95.6911 115.785L93.572 116.725C93.1733 116.896 92.8942 117.078 92.7347 117.272C92.5752 117.454 92.4954 117.705 92.4954 118.024V119.118L91.9144 118.485H98.8355V120.553H90.12ZM103.979 120.553L108.576 108.078H110.541L105.944 120.553H103.979ZM103.09 114.879C102.429 114.879 101.882 114.731 101.449 114.435C101.016 114.128 100.692 113.723 100.475 113.222C100.27 112.721 100.168 112.174 100.168 111.581V111.137C100.168 110.488 100.276 109.918 100.492 109.428C100.709 108.927 101.034 108.539 101.466 108.266C101.911 107.981 102.452 107.839 103.09 107.839C103.751 107.839 104.298 107.981 104.731 108.266C105.163 108.539 105.488 108.927 105.705 109.428C105.921 109.918 106.029 110.488 106.029 111.137V111.581C106.029 112.174 105.921 112.721 105.705 113.222C105.5 113.723 105.181 114.128 104.748 114.435C104.326 114.731 103.774 114.879 103.09 114.879ZM103.09 113.29C103.5 113.29 103.802 113.142 103.996 112.846C104.201 112.538 104.303 112.048 104.303 111.376C104.303 110.647 104.201 110.14 103.996 109.855C103.791 109.57 103.489 109.428 103.09 109.428C102.691 109.428 102.389 109.57 102.184 109.855C101.991 110.14 101.894 110.641 101.894 111.359C101.894 112.031 101.991 112.521 102.184 112.829C102.389 113.136 102.691 113.29 103.09 113.29ZM111.344 120.809C110.683 120.809 110.136 120.661 109.703 120.365C109.271 120.058 108.946 119.653 108.729 119.152C108.524 118.651 108.422 118.104 108.422 117.511V117.067C108.422 116.418 108.53 115.848 108.746 115.358C108.963 114.857 109.288 114.469 109.721 114.196C110.165 113.911 110.706 113.769 111.344 113.769C112.005 113.769 112.552 113.911 112.985 114.196C113.418 114.469 113.742 114.857 113.959 115.358C114.175 115.848 114.283 116.418 114.283 117.067V117.511C114.283 118.104 114.175 118.651 113.959 119.152C113.754 119.653 113.435 120.058 113.002 120.365C112.58 120.661 112.028 120.809 111.344 120.809ZM111.344 119.22C111.754 119.22 112.056 119.072 112.25 118.776C112.455 118.468 112.557 117.978 112.557 117.306C112.557 116.577 112.455 116.07 112.25 115.785C112.045 115.5 111.743 115.358 111.344 115.358C110.945 115.358 110.643 115.5 110.438 115.785C110.245 116.07 110.148 116.571 110.148 117.289C110.148 117.961 110.245 118.451 110.438 118.759C110.643 119.066 110.945 119.22 111.344 119.22Z" fill="white"/>
<circle cx="34.122" cy="63.6596" r="34.1222" fill="url(#paint2_linear_1949_7)"/>
<path d="M22.797 70.0316L22.797 59.9762L23.4862 60.5087H20.4633L20.4633 58.5979H25.0055L25.0055 70.0316H22.797ZM31.6903 70.3449C30.8132 70.3449 30.0405 70.2039 29.3723 69.922C28.704 69.6401 28.1819 69.238 27.806 68.716C27.4301 68.1939 27.2422 67.5726 27.2422 66.8521C27.2422 66.3718 27.3257 65.9489 27.4928 65.5834C27.6598 65.2075 27.8895 64.8891 28.1819 64.628C28.4743 64.3565 28.8189 64.1529 29.2156 64.0172L29.2156 63.8292C28.9128 63.6935 28.6361 63.516 28.3855 63.2967C28.1454 63.0774 27.9522 62.8111 27.806 62.4979C27.6703 62.1846 27.6024 61.8244 27.6024 61.4172C27.6024 60.728 27.7799 60.1537 28.1349 59.6943C28.5004 59.2244 28.9912 58.8746 29.6072 58.6449C30.2337 58.4047 30.9281 58.2846 31.6903 58.2846C32.463 58.2846 33.1574 58.4047 33.7735 58.6449C34.4 58.8746 34.8907 59.2244 35.2458 59.6943C35.6112 60.1537 35.794 60.728 35.794 61.4172C35.794 61.8244 35.7209 62.1846 35.5747 62.4979C35.4389 62.8111 35.251 63.0774 35.0108 63.2967C34.7707 63.516 34.494 63.6935 34.1807 63.8292V64.0172C34.5775 64.1529 34.9221 64.3565 35.2144 64.628C35.5172 64.8995 35.747 65.2232 35.9036 65.5991C36.0707 65.9646 36.1542 66.3822 36.1542 66.8521C36.1542 67.5726 35.9662 68.1939 35.5903 68.716C35.2249 69.238 34.708 69.6401 34.0397 69.922C33.3715 70.2039 32.5883 70.3449 31.6903 70.3449ZM31.6903 68.5123C32.1707 68.5123 32.5831 68.4392 32.9277 68.2931C33.2723 68.1469 33.5385 67.9328 33.7265 67.6509C33.9144 67.369 34.0084 67.0296 34.0084 66.6328C34.0084 66.236 33.9144 65.9019 33.7265 65.6304C33.549 65.3485 33.2827 65.1344 32.9277 64.9883C32.5831 64.8421 32.1707 64.769 31.6903 64.769C31.2205 64.769 30.8132 64.8421 30.4687 64.9883C30.1241 65.1344 29.8578 65.3485 29.6699 65.6304C29.4819 65.9019 29.3879 66.236 29.3879 66.6328C29.3879 67.0296 29.4819 67.369 29.6699 67.6509C29.8578 67.9328 30.1241 68.1469 30.4687 68.2931C30.8132 68.4392 31.2205 68.5123 31.6903 68.5123ZM31.6903 63.1087C32.296 63.1087 32.7711 62.9834 33.1156 62.7328C33.4707 62.4718 33.6482 62.0959 33.6482 61.6051C33.6482 61.0935 33.4707 60.7176 33.1156 60.4774C32.7606 60.2373 32.2855 60.1172 31.6903 60.1172C31.0952 60.1172 30.6201 60.2425 30.265 60.4931C29.9205 60.7332 29.7482 61.1039 29.7482 61.6051C29.7482 62.0959 29.9257 62.4718 30.2807 62.7328C30.6357 62.9834 31.1056 63.1087 31.6903 63.1087ZM40.7469 70.0316L44.9601 58.5979H46.7613L42.5481 70.0316H40.7469ZM39.9324 64.8316C39.3268 64.8316 38.8256 64.6959 38.4288 64.4244C38.032 64.1425 37.7344 63.7718 37.5361 63.3123C37.3481 62.8529 37.2541 62.3517 37.2541 61.8087V61.4015C37.2541 60.8063 37.3533 60.2842 37.5517 59.8352C37.7501 59.3758 38.0477 59.0208 38.4445 58.7702C38.8517 58.5091 39.3477 58.3786 39.9324 58.3786C40.5381 58.3786 41.0393 58.5091 41.436 58.7702C41.8328 59.0208 42.1304 59.3758 42.3288 59.8352C42.5272 60.2842 42.6264 60.8063 42.6264 61.4015V61.8087C42.6264 62.3517 42.5272 62.8529 42.3288 63.3123C42.1409 63.7718 41.8485 64.1425 41.4517 64.4244C41.0654 64.6959 40.5589 64.8316 39.9324 64.8316ZM39.9324 63.375C40.3083 63.375 40.585 63.2393 40.7626 62.9678C40.9505 62.6858 41.0445 62.2368 41.0445 61.6208C41.0445 60.9525 40.9505 60.4879 40.7626 60.2268C40.5746 59.9658 40.2979 59.8352 39.9324 59.8352C39.567 59.8352 39.2903 59.9658 39.1023 60.2268C38.9248 60.4879 38.8361 60.9473 38.8361 61.6051C38.8361 62.2212 38.9248 62.6702 39.1023 62.9521C39.2903 63.234 39.567 63.375 39.9324 63.375ZM47.4975 70.2666C46.8919 70.2666 46.3907 70.1308 45.9939 69.8593C45.5971 69.5774 45.2995 69.2067 45.1011 68.7473C44.9131 68.2878 44.8192 67.7866 44.8192 67.2437V66.8364C44.8192 66.2413 44.9184 65.7192 45.1168 65.2702C45.3152 64.8107 45.6127 64.4557 46.0095 64.2051C46.4168 63.9441 46.9127 63.8136 47.4975 63.8136C48.1031 63.8136 48.6043 63.9441 49.0011 64.2051C49.3979 64.4557 49.6955 64.8107 49.8939 65.2702C50.0923 65.7192 50.1915 66.2413 50.1915 66.8364V67.2437C50.1915 67.7866 50.0923 68.2878 49.8939 68.7473C49.7059 69.2067 49.4135 69.5774 49.0168 69.8593C48.6304 70.1308 48.124 70.2666 47.4975 70.2666ZM47.4975 68.8099C47.8734 68.8099 48.1501 68.6742 48.3276 68.4027C48.5156 68.1208 48.6095 67.6718 48.6095 67.0557C48.6095 66.3874 48.5156 65.9228 48.3276 65.6617C48.1397 65.4007 47.8629 65.2702 47.4975 65.2702C47.132 65.2702 46.8553 65.4007 46.6674 65.6617C46.4899 65.9228 46.4011 66.3822 46.4011 67.0401C46.4011 67.6561 46.4899 68.1051 46.6674 68.387C46.8553 68.669 47.132 68.8099 47.4975 68.8099Z" fill="white"/>
</g>
<defs>
<linearGradient id="paint0_linear_1949_7" x1="201.143" y1="0.0613774" x2="102.586" y2="97.1901" gradientUnits="userSpaceOnUse">
<stop stop-color="#FF742C"/>
<stop offset="1" stop-color="#FF742C" stop-opacity="0.5"/>
</linearGradient>
<linearGradient id="paint1_linear_1949_7" x1="97.1124" y1="54.9482" x2="37.217" y2="175.059" gradientUnits="userSpaceOnUse">
<stop stop-color="#6C50FC"/>
<stop offset="1" stop-color="#6C50FC" stop-opacity="0.5"/>
</linearGradient>
<linearGradient id="paint2_linear_1949_7" x1="34.122" y1="29.5375" x2="0.212882" y2="97.9119" gradientUnits="userSpaceOnUse">
<stop stop-color="#02AF72"/>
<stop offset="1" stop-color="#02AF72" stop-opacity="0.5"/>
</linearGradient>
<clipPath id="clip0_1949_7">
<rect width="200.665" height="174.739" fill="white"/>
</clipPath>
</defs>
</svg>
