<svg width="201" height="175" viewBox="0 0 201 175" fill="none" xmlns="http://www.w3.org/2000/svg">
<g clip-path="url(#clip0_1949_6)">
<g filter="url(#filter0_d_1949_6)">
<circle cx="166.543" cy="111.079" r="34.1222" fill="url(#paint0_linear_1949_6)"/>
</g>
<path d="M154.445 117.451V107.396L155.134 107.928H152.111V106.017H156.654V117.451H154.445ZM164.137 117.749C163.239 117.749 162.477 117.603 161.851 117.31C161.224 117.007 160.712 116.6 160.316 116.088C159.919 115.566 159.626 114.971 159.439 114.303C159.261 113.624 159.172 112.914 159.172 112.173V111.296C159.172 110.241 159.35 109.291 159.705 108.445C160.06 107.599 160.603 106.931 161.334 106.44C162.065 105.939 162.999 105.688 164.137 105.688C165.265 105.688 166.194 105.939 166.925 106.44C167.656 106.931 168.194 107.599 168.539 108.445C168.894 109.291 169.071 110.241 169.071 111.296V112.173C169.071 112.914 168.977 113.624 168.789 114.303C168.612 114.971 168.324 115.566 167.928 116.088C167.541 116.6 167.035 117.007 166.408 117.31C165.782 117.603 165.025 117.749 164.137 117.749ZM164.137 115.713C165.067 115.713 165.751 115.394 166.189 114.757C166.628 114.11 166.847 113.107 166.847 111.75C166.847 110.309 166.622 109.28 166.173 108.664C165.724 108.038 165.046 107.725 164.137 107.725C163.218 107.725 162.529 108.038 162.07 108.664C161.621 109.28 161.396 110.299 161.396 111.719C161.396 113.086 161.621 114.094 162.07 114.741C162.519 115.389 163.208 115.713 164.137 115.713ZM173.94 117.451L178.153 106.017H179.954L175.741 117.451H173.94ZM173.125 112.251C172.52 112.251 172.019 112.115 171.622 111.844C171.225 111.562 170.927 111.191 170.729 110.732C170.541 110.272 170.447 109.771 170.447 109.228V108.821C170.447 108.226 170.546 107.704 170.745 107.255C170.943 106.795 171.241 106.44 171.638 106.19C172.045 105.929 172.541 105.798 173.125 105.798C173.731 105.798 174.232 105.929 174.629 106.19C175.026 106.44 175.323 106.795 175.522 107.255C175.72 107.704 175.819 108.226 175.819 108.821V109.228C175.819 109.771 175.72 110.272 175.522 110.732C175.334 111.191 175.042 111.562 174.645 111.844C174.258 112.115 173.752 112.251 173.125 112.251ZM173.125 110.794C173.501 110.794 173.778 110.659 173.956 110.387C174.144 110.105 174.237 109.656 174.237 109.04C174.237 108.372 174.144 107.907 173.956 107.646C173.768 107.385 173.491 107.255 173.125 107.255C172.76 107.255 172.483 107.385 172.295 107.646C172.118 107.907 172.029 108.367 172.029 109.025C172.029 109.641 172.118 110.09 172.295 110.372C172.483 110.654 172.76 110.794 173.125 110.794ZM180.69 117.686C180.085 117.686 179.584 117.55 179.187 117.279C178.79 116.997 178.493 116.626 178.294 116.167C178.106 115.707 178.012 115.206 178.012 114.663V114.256C178.012 113.661 178.111 113.139 178.31 112.69C178.508 112.23 178.806 111.875 179.203 111.625C179.61 111.364 180.106 111.233 180.69 111.233C181.296 111.233 181.797 111.364 182.194 111.625C182.591 111.875 182.888 112.23 183.087 112.69C183.285 113.139 183.384 113.661 183.384 114.256V114.663C183.384 115.206 183.285 115.707 183.087 116.167C182.899 116.626 182.607 116.997 182.21 117.279C181.823 117.55 181.317 117.686 180.69 117.686ZM180.69 116.229C181.066 116.229 181.343 116.094 181.521 115.822C181.709 115.54 181.803 115.091 181.803 114.475C181.803 113.807 181.709 113.342 181.521 113.081C181.333 112.82 181.056 112.69 180.69 112.69C180.325 112.69 180.048 112.82 179.86 113.081C179.683 113.342 179.594 113.802 179.594 114.46C179.594 115.076 179.683 115.525 179.86 115.807C180.048 116.088 180.325 116.229 180.69 116.229Z" fill="white"/>
<g filter="url(#filter1_d_1949_6)">
<circle cx="103.553" cy="59.8953" r="59.8953" fill="url(#paint1_linear_1949_6)"/>
</g>
<path d="M89.2002 65.9637C88.2774 65.9637 87.4913 65.8099 86.8419 65.5023C86.2039 65.1833 85.6855 64.7504 85.2868 64.2035C84.8881 63.6567 84.5975 63.0244 84.4152 62.3066C84.233 61.5775 84.1418 60.8085 84.1418 59.9996V59.2477C84.1418 57.2084 84.6545 55.6646 85.6799 54.6165C86.7166 53.557 88.2318 53.0272 90.2256 53.0272C90.6585 53.0272 91.063 53.0386 91.4389 53.0614C91.8149 53.0842 92.1908 53.1183 92.5668 53.1639V55.1975C92.1908 55.152 91.8035 55.1178 91.4047 55.095C91.0174 55.0722 90.5958 55.0608 90.1401 55.0608C89.1831 55.0608 88.4312 55.226 87.8844 55.5564C87.3375 55.8868 86.9445 56.371 86.7052 57.009C86.4773 57.647 86.3634 58.4388 86.3634 59.3844V60.4952L85.8166 61.2813C85.828 60.404 85.9988 59.6806 86.3292 59.111C86.671 58.5299 87.1381 58.097 87.7306 57.8122C88.323 57.516 89.0009 57.3679 89.7642 57.3679C90.6528 57.3679 91.4104 57.5444 92.037 57.8976C92.6636 58.2508 93.1421 58.7407 93.4725 59.3673C93.8143 59.9939 93.9852 60.723 93.9852 61.5547C93.9852 62.4206 93.7915 63.1896 93.4042 63.8618C93.0168 64.5225 92.4643 65.0409 91.7465 65.4169C91.0402 65.7814 90.1914 65.9637 89.2002 65.9637ZM89.149 63.9301C89.6844 63.9301 90.1401 63.8333 90.5161 63.6396C90.8921 63.4345 91.1769 63.1554 91.3706 62.8022C91.5642 62.449 91.6611 62.0446 91.6611 61.5889C91.6611 61.1218 91.5642 60.7116 91.3706 60.3585C91.1883 60.0053 90.9148 59.7319 90.5503 59.5382C90.1857 59.3445 89.7471 59.2477 89.2344 59.2477C88.7445 59.2477 88.2945 59.3388 87.8844 59.5211C87.4856 59.692 87.1666 59.954 86.9274 60.3072C86.6995 60.649 86.5856 61.0762 86.5856 61.5889C86.5856 62.0332 86.6767 62.432 86.859 62.7851C87.0527 63.1383 87.3375 63.4174 87.7135 63.6225C88.1008 63.8276 88.5793 63.9301 89.149 63.9301ZM101.175 65.9296C100.195 65.9296 99.3638 65.7701 98.6802 65.4511C97.9966 65.1207 97.4384 64.6763 97.0055 64.1181C96.5725 63.5485 96.2535 62.8991 96.0485 62.1699C95.8548 61.4294 95.7579 60.6547 95.7579 59.8458V58.8888C95.7579 57.7381 95.9516 56.7014 96.339 55.7786C96.7263 54.8557 97.3188 54.1266 98.1163 53.5911C98.9138 53.0443 99.9334 52.7709 101.175 52.7709C102.406 52.7709 103.42 53.0443 104.217 53.5911C105.015 54.1266 105.601 54.8557 105.977 55.7786C106.365 56.7014 106.558 57.7381 106.558 58.8888V59.8458C106.558 60.6547 106.456 61.4294 106.251 62.1699C106.057 62.8991 105.744 63.5485 105.311 64.1181C104.889 64.6763 104.337 65.1207 103.653 65.4511C102.97 65.7701 102.144 65.9296 101.175 65.9296ZM101.175 63.708C102.189 63.708 102.935 63.3605 103.414 62.6655C103.892 61.9592 104.132 60.8654 104.132 59.3844C104.132 57.8122 103.887 56.69 103.397 56.0178C102.907 55.3342 102.166 54.9925 101.175 54.9925C100.173 54.9925 99.4207 55.3342 98.9195 56.0178C98.4296 56.69 98.1846 57.8008 98.1846 59.3502C98.1846 60.8427 98.4296 61.9421 98.9195 62.6484C99.4093 63.3548 100.161 63.708 101.175 63.708ZM111.871 65.6049L116.468 53.1297H118.433L113.836 65.6049H111.871ZM110.982 59.9312C110.321 59.9312 109.774 59.7831 109.341 59.4869C108.909 59.1793 108.584 58.7749 108.367 58.2736C108.162 57.7723 108.06 57.2254 108.06 56.633V56.1887C108.06 55.5393 108.168 54.9697 108.384 54.4798C108.601 53.9785 108.926 53.5911 109.359 53.3177C109.803 53.0329 110.344 52.8905 110.982 52.8905C111.643 52.8905 112.19 53.0329 112.623 53.3177C113.056 53.5911 113.38 53.9785 113.597 54.4798C113.813 54.9697 113.921 55.5393 113.921 56.1887V56.633C113.921 57.2254 113.813 57.7723 113.597 58.2736C113.392 58.7749 113.073 59.1793 112.64 59.4869C112.218 59.7831 111.666 59.9312 110.982 59.9312ZM110.982 58.3419C111.392 58.3419 111.694 58.1938 111.888 57.8976C112.093 57.59 112.195 57.1001 112.195 56.4279C112.195 55.6988 112.093 55.1918 111.888 54.907C111.683 54.6222 111.381 54.4798 110.982 54.4798C110.583 54.4798 110.281 54.6222 110.076 54.907C109.883 55.1918 109.786 55.6931 109.786 56.4109C109.786 57.083 109.883 57.5729 110.076 57.8805C110.281 58.1881 110.583 58.3419 110.982 58.3419ZM119.236 65.8612C118.575 65.8612 118.028 65.7131 117.596 65.4169C117.163 65.1093 116.838 64.7048 116.621 64.2035C116.416 63.7023 116.314 63.1554 116.314 62.563V62.1187C116.314 61.4693 116.422 60.8996 116.639 60.4097C116.855 59.9085 117.18 59.5211 117.613 59.2477C118.057 58.9628 118.598 58.8204 119.236 58.8204C119.897 58.8204 120.444 58.9628 120.877 59.2477C121.31 59.5211 121.634 59.9085 121.851 60.4097C122.067 60.8996 122.175 61.4693 122.175 62.1187V62.563C122.175 63.1554 122.067 63.7023 121.851 64.2035C121.646 64.7048 121.327 65.1093 120.894 65.4169C120.472 65.7131 119.92 65.8612 119.236 65.8612ZM119.236 64.2719C119.646 64.2719 119.948 64.1238 120.142 63.8276C120.347 63.52 120.449 63.0301 120.449 62.3579C120.449 61.6288 120.347 61.1218 120.142 60.837C119.937 60.5521 119.635 60.4097 119.236 60.4097C118.837 60.4097 118.535 60.5521 118.33 60.837C118.137 61.1218 118.04 61.6231 118.04 62.3408C118.04 63.013 118.137 63.5029 118.33 63.8105C118.535 64.1181 118.837 64.2719 119.236 64.2719Z" fill="white"/>
<g filter="url(#filter2_d_1949_6)">
<circle cx="48.7388" cy="126" r="48.7388" fill="url(#paint2_linear_1949_6)"/>
</g>
<path d="M36.3288 132.596C35.4517 132.596 34.6947 132.429 34.0577 132.095C33.4312 131.76 32.9509 131.317 32.6168 130.763C32.2826 130.199 32.1156 129.573 32.1156 128.884H34.2614C34.2614 129.437 34.4441 129.886 34.8095 130.231C35.1854 130.565 35.6919 130.732 36.3288 130.732C36.7569 130.732 37.1224 130.654 37.4252 130.497C37.7385 130.33 37.9786 130.105 38.1457 129.823C38.3128 129.531 38.3963 129.197 38.3963 128.821C38.3963 128.257 38.2136 127.798 37.8481 127.443C37.4826 127.077 36.9814 126.895 36.3445 126.895C36.0312 126.895 35.7545 126.936 35.5144 127.02C35.2846 127.103 35.081 127.213 34.9035 127.349L33.8855 125.595L37.6445 123.026L37.5035 122.76H32.5855V120.864H40.0565V123.151L36.1879 125.72L34.9818 125.501C35.1802 125.438 35.3943 125.391 35.624 125.36C35.8537 125.318 36.1043 125.297 36.3758 125.297C37.2425 125.297 37.9838 125.448 38.5999 125.751C39.2264 126.044 39.7067 126.451 40.0409 126.973C40.375 127.495 40.5421 128.095 40.5421 128.774V128.978C40.5421 129.636 40.375 130.241 40.0409 130.795C39.7067 131.338 39.2264 131.776 38.5999 132.11C37.9734 132.434 37.2164 132.596 36.3288 132.596ZM47.2766 132.596C46.3786 132.596 45.6164 132.45 44.9899 132.157C44.3634 131.854 43.8517 131.447 43.4549 130.936C43.0582 130.413 42.7658 129.818 42.5778 129.15C42.4003 128.471 42.3116 127.761 42.3116 127.02V126.143C42.3116 125.088 42.4891 124.138 42.8441 123.292C43.1991 122.446 43.7421 121.778 44.473 121.287C45.2039 120.786 46.1385 120.536 47.2766 120.536C48.4043 120.536 49.3337 120.786 50.0646 121.287C50.7955 121.778 51.3332 122.446 51.6778 123.292C52.0328 124.138 52.2104 125.088 52.2104 126.143V127.02C52.2104 127.761 52.1164 128.471 51.9284 129.15C51.7509 129.818 51.4638 130.413 51.067 130.936C50.6806 131.447 50.1742 131.854 49.5477 132.157C48.9212 132.45 48.1642 132.596 47.2766 132.596ZM47.2766 130.56C48.2059 130.56 48.8899 130.241 49.3284 129.604C49.767 128.957 49.9863 127.954 49.9863 126.597C49.9863 125.156 49.7618 124.127 49.3128 123.511C48.8638 122.885 48.1851 122.572 47.2766 122.572C46.3578 122.572 45.6686 122.885 45.2092 123.511C44.7602 124.127 44.5357 125.146 44.5357 126.566C44.5357 127.934 44.7602 128.941 45.2092 129.589C45.6582 130.236 46.3473 130.56 47.2766 130.56ZM57.0792 132.298L61.2925 120.864L63.0937 120.864L58.8804 132.298H57.0792ZM56.2648 127.098C55.6592 127.098 55.1579 126.962 54.7612 126.691C54.3644 126.409 54.0668 126.038 53.8684 125.579C53.6804 125.119 53.5865 124.618 53.5865 124.075V123.668C53.5865 123.073 53.6857 122.551 53.8841 122.102C54.0824 121.642 54.38 121.287 54.7768 121.037C55.1841 120.776 55.68 120.645 56.2648 120.645C56.8704 120.645 57.3716 120.776 57.7684 121.037C58.1652 121.287 58.4628 121.642 58.6612 122.102C58.8595 122.551 58.9587 123.073 58.9587 123.668V124.075C58.9587 124.618 58.8595 125.119 58.6612 125.579C58.4732 126.038 58.1808 126.409 57.784 126.691C57.3977 126.962 56.8913 127.098 56.2648 127.098ZM56.2648 125.642C56.6407 125.642 56.9174 125.506 57.0949 125.234C57.2828 124.952 57.3768 124.503 57.3768 123.887C57.3768 123.219 57.2828 122.754 57.0949 122.493C56.9069 122.232 56.6302 122.102 56.2648 122.102C55.8993 122.102 55.6226 122.232 55.4347 122.493C55.2571 122.754 55.1684 123.214 55.1684 123.872C55.1684 124.488 55.2571 124.937 55.4347 125.219C55.6226 125.501 55.8993 125.642 56.2648 125.642ZM63.8298 132.533C63.2242 132.533 62.723 132.397 62.3262 132.126C61.9294 131.844 61.6318 131.473 61.4334 131.014C61.2455 130.554 61.1515 130.053 61.1515 129.51V129.103C61.1515 128.508 61.2507 127.986 61.4491 127.537C61.6475 127.077 61.9451 126.722 62.3419 126.472C62.7491 126.211 63.2451 126.08 63.8298 126.08C64.4354 126.08 64.9366 126.211 65.3334 126.472C65.7302 126.722 66.0278 127.077 66.2262 127.537C66.4246 127.986 66.5238 128.508 66.5238 129.103V129.51C66.5238 130.053 66.4246 130.554 66.2262 131.014C66.0383 131.473 65.7459 131.844 65.3491 132.126C64.9628 132.397 64.4563 132.533 63.8298 132.533ZM63.8298 131.076C64.2057 131.076 64.4824 130.941 64.6599 130.669C64.8479 130.387 64.9419 129.938 64.9419 129.322C64.9419 128.654 64.8479 128.189 64.6599 127.928C64.472 127.667 64.1953 127.537 63.8298 127.537C63.4644 127.537 63.1877 127.667 62.9997 127.928C62.8222 128.189 62.7334 128.649 62.7334 129.307C62.7334 129.923 62.8222 130.372 62.9997 130.654C63.1877 130.936 63.4644 131.076 63.8298 131.076Z" fill="white"/>
</g>
<defs>
<filter id="filter0_d_1949_6" x="98.7898" y="55.9379" width="135.505" height="135.505" filterUnits="userSpaceOnUse" color-interpolation-filters="sRGB">
<feFlood flood-opacity="0" result="BackgroundImageFix"/>
<feColorMatrix in="SourceAlpha" type="matrix" values="0 0 0 0 0 0 0 0 0 0 0 0 0 0 0 0 0 0 127 0" result="hardAlpha"/>
<feOffset dy="12.6115"/>
<feGaussianBlur stdDeviation="16.8153"/>
<feColorMatrix type="matrix" values="0 0 0 0 1 0 0 0 0 0.454902 0 0 0 0 0.172549 0 0 0 0.24 0"/>
<feBlend mode="normal" in2="BackgroundImageFix" result="effect1_dropShadow_1949_6"/>
<feBlend mode="normal" in="SourceGraphic" in2="effect1_dropShadow_1949_6" result="shape"/>
</filter>
<filter id="filter1_d_1949_6" x="6.9635" y="-22.9336" width="193.178" height="193.178" filterUnits="userSpaceOnUse" color-interpolation-filters="sRGB">
<feFlood flood-opacity="0" result="BackgroundImageFix"/>
<feColorMatrix in="SourceAlpha" type="matrix" values="0 0 0 0 0 0 0 0 0 0 0 0 0 0 0 0 0 0 127 0" result="hardAlpha"/>
<feOffset dy="13.7601"/>
<feGaussianBlur stdDeviation="18.3469"/>
<feColorMatrix type="matrix" values="0 0 0 0 0.00784314 0 0 0 0 0.686275 0 0 0 0 0.447059 0 0 0 0.24 0"/>
<feBlend mode="normal" in2="BackgroundImageFix" result="effect1_dropShadow_1949_6"/>
<feBlend mode="normal" in="SourceGraphic" in2="effect1_dropShadow_1949_6" result="shape"/>
</filter>
<filter id="filter2_d_1949_6" x="-33.6306" y="56.242" width="164.739" height="164.739" filterUnits="userSpaceOnUse" color-interpolation-filters="sRGB">
<feFlood flood-opacity="0" result="BackgroundImageFix"/>
<feColorMatrix in="SourceAlpha" type="matrix" values="0 0 0 0 0 0 0 0 0 0 0 0 0 0 0 0 0 0 127 0" result="hardAlpha"/>
<feOffset dy="12.6115"/>
<feGaussianBlur stdDeviation="16.8153"/>
<feColorMatrix type="matrix" values="0 0 0 0 0.423529 0 0 0 0 0.313726 0 0 0 0 0.988235 0 0 0 0.24 0"/>
<feBlend mode="normal" in2="BackgroundImageFix" result="effect1_dropShadow_1949_6"/>
<feBlend mode="normal" in="SourceGraphic" in2="effect1_dropShadow_1949_6" result="shape"/>
</filter>
<linearGradient id="paint0_linear_1949_6" x1="201" y1="77" x2="132" y2="145" gradientUnits="userSpaceOnUse">
<stop stop-color="#FF742C"/>
<stop offset="1" stop-color="#FF742C" stop-opacity="0.5"/>
</linearGradient>
<linearGradient id="paint1_linear_1949_6" x1="103.553" y1="1.77387e-06" x2="44.0312" y2="120.019" gradientUnits="userSpaceOnUse">
<stop stop-color="#02AF72"/>
<stop offset="1" stop-color="#02AF72" stop-opacity="0.5"/>
</linearGradient>
<linearGradient id="paint2_linear_1949_6" x1="48.7388" y1="77.2611" x2="8.11482e-07" y2="174.999" gradientUnits="userSpaceOnUse">
<stop stop-color="#6C50FC"/>
<stop offset="1" stop-color="#6C50FC" stop-opacity="0.5"/>
</linearGradient>
<clipPath id="clip0_1949_6">
<rect width="200.665" height="174.739" fill="white"/>
</clipPath>
</defs>
</svg>
