<svg width="28" height="28" viewBox="0 0 28 28" fill="none" xmlns="http://www.w3.org/2000/svg">
<g clip-path="url(#clip0_1816_808)">
<rect width="28" height="28" rx="14" fill="white"/>
<path d="M-14.0374 0H42.1119V28.0747H-14.0374V0Z" fill="#012169"/>
<path d="M-14.0374 0V3.13647L35.8335 28.0747H42.1119V24.9382L-7.75903 0H-14.0374ZM42.1119 0V3.13647L-7.75903 28.0747H-14.0374V24.9382L35.8335 0H42.1119Z" fill="white"/>
<path d="M9.35993 0V28.0747H18.7145V0H9.35993ZM-14.0374 9.36005V18.7146H42.1119V9.36005H-14.0374Z" fill="white"/>
<path d="M-14.0374 11.2299V16.8448H42.1119V11.2299H-14.0374ZM11.2297 0V28.0747H16.8447V0H11.2297ZM-14.0374 28.0747L4.67717 18.7146H8.86643L-9.85366 28.0747H-14.0374ZM-14.0374 0L4.67717 9.36005H0.493385L-14.0374 2.09463V0ZM19.2135 9.36005L37.9281 0H42.1119L23.3973 9.36005H19.2135ZM42.1119 28.0747L23.3973 18.7146H27.581L42.1119 25.98V28.0747Z" fill="#C8102E"/>
</g>
<defs>
<clipPath id="clip0_1816_808">
<rect width="28" height="28" rx="14" fill="white"/>
</clipPath>
</defs>
</svg>
