<svg width="18" height="19" viewBox="0 0 18 19" fill="none" xmlns="http://www.w3.org/2000/svg">
<path d="M7.54952 0.516489C8.38743 -0.172164 9.61258 -0.172163 10.4505 0.51649L17.2005 6.0641C17.7074 6.48076 18 7.09417 18 7.7405V17.2944C18 18.2364 17.2165 19 16.25 19H12.75C11.7835 19 11 18.2364 11 17.2944V11.934C11 11.7995 10.8881 11.6904 10.75 11.6904H7.25C7.11193 11.6904 7 11.7995 7 11.934V17.2944C7 18.2364 6.2165 19 5.25 19H1.75C0.783502 19 0 18.2364 0 17.2944V7.7405C0 7.09417 0.292551 6.48076 0.799517 6.0641L7.54952 0.516489ZM9.4835 1.63409C9.20419 1.40453 8.79581 1.40453 8.51651 1.63409L1.76651 7.1817C1.59752 7.32059 1.5 7.52506 1.5 7.7405V17.2944C1.5 17.429 1.61193 17.5381 1.75 17.5381H5.25C5.38807 17.5381 5.5 17.429 5.5 17.2944V11.934C5.5 10.9921 6.2835 10.2285 7.25 10.2285H10.75C11.7165 10.2285 12.5 10.9921 12.5 11.934V17.2944C12.5 17.429 12.6119 17.5381 12.75 17.5381H16.25C16.3881 17.5381 16.5 17.429 16.5 17.2944V7.7405C16.5 7.52506 16.4025 7.32059 16.2335 7.1817L9.4835 1.63409Z" fill="black"/>
</svg>
