<svg width="34" height="34" viewBox="0 0 34 34" fill="none" xmlns="http://www.w3.org/2000/svg">
<path d="M16 6C11.0295 6 7.00001 10.0294 7.00001 15V19.8028L5.07141 24.6289C4.94829 24.937 4.98599 25.2861 5.17203 25.5608C5.35807 25.8355 5.66824 26 6 26H12C12 28.2167 13.7833 30 16 30C18.2167 30 20 28.2167 20 26H26C26.3318 26 26.6419 25.8355 26.828 25.5608C27.014 25.2861 27.0517 24.937 26.9286 24.6289L25 19.8028V15C25 10.0294 20.9706 6 16 6ZM18 26C18 27.1121 17.1121 28 16 28C14.8879 28 14 27.1121 14 26H18ZM9.00001 15C9.00001 11.134 12.134 8 16 8C19.866 8 23 11.134 23 15V19.9952C23 20.1223 23.0242 20.2483 23.0714 20.3663L24.5235 24H7.47651L8.92861 20.3663C8.97578 20.2483 9.00001 20.1223 9.00001 19.9952V15Z" fill="#212121"/>
<path d="M26 15C29.866 15 33 11.866 33 8C33 4.13401 29.866 1 26 1C22.134 1 19 4.13401 19 8C19 11.866 22.134 15 26 15Z" fill="#DE1C22" stroke="#FAF9FF" stroke-width="2"/>
</svg>
