<svg width="32" height="32" viewBox="0 0 32 32" fill="none" xmlns="http://www.w3.org/2000/svg">
<path fill-rule="evenodd" clip-rule="evenodd" d="M26 12C29.3137 12 32 9.31371 32 6C32 2.68629 29.3137 0 26 0C22.6863 0 20 2.68629 20 6C20 9.31371 22.6863 12 26 12Z" fill="#DE1C22"/>
<path fill-rule="evenodd" clip-rule="evenodd" d="M18.188 4.26783C17.4876 4.09288 16.7546 4 16 4C11.0295 4 7.00001 8.02944 7.00001 13V17.8028L5.07141 22.6289C4.94829 22.937 4.98599 23.2861 5.17203 23.5608C5.35807 23.8355 5.66824 24 6 24H12C12 26.2167 13.7833 28 16 28C18.2167 28 20 26.2167 20 24H26C26.3318 24 26.6419 23.8355 26.828 23.5608C27.014 23.2861 27.0517 22.937 26.9286 22.6289L25 17.8028V13.9381C24.3014 13.851 23.6307 13.6738 23 13.4185V17.9952C23 18.1223 23.0242 18.2483 23.0714 18.3663L24.5235 22H7.47651L8.92861 18.3663C8.97578 18.2483 9.00001 18.1223 9.00001 17.9952V13C9.00001 9.13401 12.134 6 16 6C16.6969 6 17.37 6.10183 18.0052 6.29143C18.0017 6.19471 18 6.09756 18 6C18 5.40522 18.0649 4.82559 18.188 4.26783ZM16 26C17.1121 26 18 25.1121 18 24H14C14 25.1121 14.8879 26 16 26Z" fill="#212121"/>
</svg>
