<svg width="20" height="20" viewBox="0 0 20 20" fill="none" xmlns="http://www.w3.org/2000/svg">
<path d="M10 0C15.5228 0 20 4.47677 20 9.99914C20 15.5215 15.5228 19.9983 10 19.9983C8.38171 19.9983 6.81782 19.6129 5.41286 18.8864L1.58704 19.9536C0.922123 20.1393 0.232581 19.7508 0.0469058 19.086C-0.0145358 18.8659 -0.014506 18.6333 0.046948 18.4135L1.11461 14.591C0.386366 13.1848 0 11.6193 0 9.99914C0 4.47677 4.47715 0 10 0ZM10 1.49987C5.30558 1.49987 1.5 5.30512 1.5 9.99914C1.5 11.4686 1.87277 12.8823 2.57303 14.1362L2.72368 14.406L1.61096 18.3898L5.59755 17.2777L5.86709 17.428C7.12006 18.1266 8.53218 18.4984 10 18.4984C14.6944 18.4984 18.5 14.6932 18.5 9.99914C18.5 5.30512 14.6944 1.49987 10 1.49987ZM10 13.4988C10.5523 13.4988 11 13.9465 11 14.4988C11 15.051 10.5523 15.4987 10 15.4987C9.44772 15.4987 9 15.051 9 14.4988C9 13.9465 9.44772 13.4988 10 13.4988ZM10 4.74959C11.5188 4.74959 12.75 5.9807 12.75 7.49936C12.75 8.51002 12.4525 9.07326 11.6989 9.85774L11.5303 10.0295C10.9084 10.6513 10.75 10.9153 10.75 11.499C10.75 11.9132 10.4142 12.249 10 12.249C9.58579 12.249 9.25 11.9132 9.25 11.499C9.25 10.4883 9.54754 9.92511 10.3011 9.14063L10.4697 8.9689C11.0916 8.34706 11.25 8.08303 11.25 7.49936C11.25 6.80906 10.6904 6.24946 10 6.24946C9.35279 6.24946 8.82047 6.7413 8.75645 7.37156L8.75 7.49936C8.75 7.91354 8.41421 8.24929 8 8.24929C7.58579 8.24929 7.25 7.91354 7.25 7.49936C7.25 5.9807 8.48122 4.74959 10 4.74959Z" fill="black"/>
</svg>
