<svg width="402" height="582" viewBox="0 0 402 582" fill="none" xmlns="http://www.w3.org/2000/svg">
<g clip-path="url(#clip0_1816_825)">
<g clip-path="url(#clip1_1816_825)">
<rect x="74" y="-93" width="321" height="256" rx="24" fill="#D7E1FE"/>
<g opacity="0.15">
<rect x="-812" y="578" width="1398" height="10" transform="rotate(-50 -812 578)" fill="white"/>
<rect x="-140" y="578" width="1398" height="10" transform="rotate(-50 -140 578)" fill="white"/>
<rect x="-476" y="578" width="1398" height="10" transform="rotate(-50 -476 578)" fill="white"/>
<rect x="196" y="578" width="1398" height="10" transform="rotate(-50 196 578)" fill="white"/>
<rect x="-644" y="578" width="1398" height="10" transform="rotate(-50 -644 578)" fill="white"/>
<rect x="28" y="578" width="1398" height="10" transform="rotate(-50 28 578)" fill="white"/>
<rect x="-308" y="578" width="1398" height="10" transform="rotate(-50 -308 578)" fill="white"/>
<rect x="364" y="578" width="1398" height="10" transform="rotate(-50 364 578)" fill="white"/>
<rect x="-728" y="578" width="1398" height="10" transform="rotate(-50 -728 578)" fill="white"/>
<rect x="-56" y="578" width="1398" height="10" transform="rotate(-50 -56 578)" fill="white"/>
<rect x="-392" y="578" width="1398" height="10" transform="rotate(-50 -392 578)" fill="white"/>
<rect x="280" y="578" width="1398" height="10" transform="rotate(-50 280 578)" fill="white"/>
<rect x="-560" y="578" width="1398" height="10" transform="rotate(-50 -560 578)" fill="white"/>
<rect x="112" y="578" width="1398" height="10" transform="rotate(-50 112 578)" fill="white"/>
<rect x="-224" y="578" width="1398" height="10" transform="rotate(-50 -224 578)" fill="white"/>
<rect x="-784" y="578" width="1398" height="10" transform="rotate(-50 -784 578)" fill="white"/>
<rect x="-112" y="578" width="1398" height="10" transform="rotate(-50 -112 578)" fill="white"/>
<rect x="-448" y="578" width="1398" height="10" transform="rotate(-50 -448 578)" fill="white"/>
<rect x="224" y="578" width="1398" height="10" transform="rotate(-50 224 578)" fill="white"/>
<rect x="-616" y="578" width="1398" height="10" transform="rotate(-50 -616 578)" fill="white"/>
<rect x="56" y="578" width="1398" height="10" transform="rotate(-50 56 578)" fill="white"/>
<rect x="-280" y="578" width="1398" height="10" transform="rotate(-50 -280 578)" fill="white"/>
<rect x="392" y="578" width="1398" height="10" transform="rotate(-50 392 578)" fill="white"/>
<rect x="-700" y="578" width="1398" height="10" transform="rotate(-50 -700 578)" fill="white"/>
<rect x="-28" y="578" width="1398" height="10" transform="rotate(-50 -28 578)" fill="white"/>
<rect x="-364" y="578" width="1398" height="10" transform="rotate(-50 -364 578)" fill="white"/>
<rect x="308" y="578" width="1398" height="10" transform="rotate(-50 308 578)" fill="white"/>
<rect x="-532" y="578" width="1398" height="10" transform="rotate(-50 -532 578)" fill="white"/>
<rect x="140" y="578" width="1398" height="10" transform="rotate(-50 140 578)" fill="white"/>
<rect x="-196" y="578" width="1398" height="10" transform="rotate(-50 -196 578)" fill="white"/>
<rect x="-756" y="578" width="1398" height="10" transform="rotate(-50 -756 578)" fill="white"/>
<rect x="-84" y="578" width="1398" height="10" transform="rotate(-50 -84 578)" fill="white"/>
<rect x="-420" y="578" width="1398" height="10" transform="rotate(-50 -420 578)" fill="white"/>
<rect x="252" y="578" width="1398" height="10" transform="rotate(-50 252 578)" fill="white"/>
<rect x="-588" y="578" width="1398" height="10" transform="rotate(-50 -588 578)" fill="white"/>
<rect x="84" y="578" width="1398" height="10" transform="rotate(-50 84 578)" fill="white"/>
<rect x="-252" y="578" width="1398" height="10" transform="rotate(-50 -252 578)" fill="white"/>
<rect x="-672" y="578" width="1398" height="10" transform="rotate(-50 -672 578)" fill="white"/>
<rect y="578" width="1398" height="10" transform="rotate(-50 0 578)" fill="white"/>
<rect x="-336" y="578" width="1398" height="10" transform="rotate(-50 -336 578)" fill="white"/>
<rect x="336" y="578" width="1398" height="10" transform="rotate(-50 336 578)" fill="white"/>
<rect x="-504" y="578" width="1398" height="10" transform="rotate(-50 -504 578)" fill="white"/>
<rect x="168" y="578" width="1398" height="10" transform="rotate(-50 168 578)" fill="white"/>
<rect x="-168" y="578" width="1398" height="10" transform="rotate(-50 -168 578)" fill="white"/>
</g>
</g>
<path d="M2.73 46V36.732L3.346 37.208H0.546V35.78H4.382V46H2.73ZM7.93592 46L12.0099 37.32L11.8979 37.166H6.52192V35.78H13.6759V37.348L9.67192 46H7.93592ZM6.52192 38.804V35.78H7.89392V38.804H6.52192ZM15.0194 46V44.026H16.9234V46H15.0194ZM15.0194 40.988V39.014H16.9234V40.988H15.0194ZM22.0701 46.252C21.2955 46.252 20.6328 46.1073 20.0821 45.818C19.5315 45.5193 19.1115 45.1227 18.8221 44.628C18.5421 44.124 18.4021 43.5733 18.4021 42.976H20.0121C20.0121 43.5453 20.1941 43.998 20.5581 44.334C20.9315 44.67 21.4355 44.838 22.0701 44.838C22.4901 44.838 22.8495 44.7633 23.1481 44.614C23.4561 44.4553 23.6941 44.236 23.8621 43.956C24.0301 43.6667 24.1141 43.3307 24.1141 42.948C24.1141 42.3787 23.9321 41.9167 23.5681 41.562C23.2041 41.198 22.7048 41.016 22.0701 41.016C21.7901 41.016 21.5428 41.0533 21.3281 41.128C21.1228 41.2027 20.9408 41.296 20.7821 41.408L19.9841 40.022L23.6241 37.446L23.4841 37.194H18.8081V35.78H25.2621V37.726L21.9161 40.05L20.8801 39.98C21.0481 39.924 21.2301 39.8773 21.4261 39.84C21.6315 39.8027 21.8601 39.784 22.1121 39.784C22.8775 39.784 23.5261 39.924 24.0581 40.204C24.5995 40.4747 25.0148 40.8433 25.3041 41.31C25.5935 41.7767 25.7381 42.2993 25.7381 42.878V43.06C25.7381 43.6293 25.5935 44.1567 25.3041 44.642C25.0148 45.1273 24.5995 45.5193 24.0581 45.818C23.5168 46.1073 22.8541 46.252 22.0701 46.252ZM31.7598 46.252C30.9851 46.252 30.3224 46.1213 29.7718 45.86C29.2211 45.5893 28.7731 45.2253 28.4278 44.768C28.0918 44.3107 27.8444 43.7833 27.6858 43.186C27.5271 42.5793 27.4478 41.94 27.4478 41.268V40.498C27.4478 39.5647 27.5971 38.72 27.8958 37.964C28.2038 37.208 28.6751 36.606 29.3098 36.158C29.9538 35.71 30.7704 35.486 31.7598 35.486C32.7584 35.486 33.5704 35.71 34.1958 36.158C34.8304 36.606 35.3018 37.208 35.6098 37.964C35.9178 38.72 36.0718 39.5647 36.0718 40.498V41.268C36.0718 41.94 35.9924 42.5793 35.8338 43.186C35.6751 43.7833 35.4231 44.3107 35.0778 44.768C34.7418 45.2253 34.2984 45.5893 33.7478 45.86C33.2064 46.1213 32.5438 46.252 31.7598 46.252ZM31.7598 44.726C32.6651 44.726 33.3278 44.4227 33.7478 43.816C34.1771 43.2 34.3918 42.2293 34.3918 40.904C34.3918 39.5133 34.1724 38.5193 33.7338 37.922C33.3044 37.3153 32.6464 37.012 31.7598 37.012C30.8731 37.012 30.2104 37.3153 29.7718 37.922C29.3424 38.5193 29.1278 39.504 29.1278 40.876C29.1278 42.2107 29.3424 43.186 29.7718 43.802C30.2011 44.418 30.8638 44.726 31.7598 44.726Z" fill="#9AA2AC"/>
<line opacity="0.15" x1="403" y1="41.5" x2="66" y2="41.5" stroke="#27292C"/>
<path d="M2.73 158V148.732L3.346 149.208H0.546V147.78H4.382V158H2.73ZM10.4419 158.266C9.68592 158.266 9.01392 158.14 8.42592 157.888C7.84726 157.627 7.39459 157.263 7.06792 156.796C6.74126 156.329 6.57792 155.779 6.57792 155.144C6.57792 154.733 6.65259 154.365 6.80192 154.038C6.96059 153.702 7.17526 153.413 7.44592 153.17C7.71659 152.927 8.02926 152.741 8.38392 152.61V152.456C8.10392 152.344 7.85192 152.19 7.62792 151.994C7.40392 151.789 7.22659 151.546 7.09592 151.266C6.96526 150.986 6.89992 150.664 6.89992 150.3C6.89992 149.693 7.05859 149.185 7.37592 148.774C7.70259 148.363 8.13192 148.051 8.66392 147.836C9.20526 147.621 9.79792 147.514 10.4419 147.514C11.1046 147.514 11.7019 147.621 12.2339 147.836C12.7659 148.051 13.1906 148.363 13.5079 148.774C13.8253 149.185 13.9839 149.693 13.9839 150.3C13.9839 150.664 13.9186 150.986 13.7879 151.266C13.6666 151.546 13.4939 151.789 13.2699 151.994C13.0459 152.19 12.7893 152.344 12.4999 152.456V152.61C12.8639 152.741 13.1813 152.927 13.4519 153.17C13.7226 153.413 13.9326 153.702 14.0819 154.038C14.2406 154.365 14.3199 154.733 14.3199 155.144C14.3199 155.779 14.1566 156.329 13.8299 156.796C13.5033 157.263 13.0459 157.627 12.4579 157.888C11.8793 158.14 11.2073 158.266 10.4419 158.266ZM10.4419 156.866C10.9086 156.866 11.3099 156.796 11.6459 156.656C11.9819 156.507 12.2433 156.292 12.4299 156.012C12.6166 155.732 12.7099 155.401 12.7099 155.018C12.7099 154.635 12.6166 154.309 12.4299 154.038C12.2526 153.767 11.9959 153.557 11.6599 153.408C11.3239 153.259 10.9179 153.184 10.4419 153.184C9.97526 153.184 9.57392 153.259 9.23792 153.408C8.90192 153.557 8.64526 153.767 8.46792 154.038C8.29059 154.309 8.20192 154.635 8.20192 155.018C8.20192 155.401 8.29059 155.732 8.46792 156.012C8.64526 156.292 8.90192 156.507 9.23792 156.656C9.57392 156.796 9.97526 156.866 10.4419 156.866ZM10.4419 151.91C11.0299 151.91 11.4966 151.789 11.8419 151.546C12.1873 151.294 12.3599 150.911 12.3599 150.398C12.3599 149.885 12.1826 149.507 11.8279 149.264C11.4826 149.021 11.0206 148.9 10.4419 148.9C9.86326 148.9 9.39659 149.026 9.04192 149.278C8.69659 149.521 8.52392 149.894 8.52392 150.398C8.52392 150.911 8.69659 151.294 9.04192 151.546C9.39659 151.789 9.86326 151.91 10.4419 151.91ZM15.8944 158V156.026H17.7984V158H15.8944ZM15.8944 152.988V151.014H17.7984V152.988H15.8944ZM23.9531 158.252C23.1785 158.252 22.5158 158.121 21.9651 157.86C21.4145 157.589 20.9665 157.225 20.6211 156.768C20.2851 156.311 20.0378 155.783 19.8791 155.186C19.7205 154.579 19.6411 153.94 19.6411 153.268V152.498C19.6411 151.565 19.7905 150.72 20.0891 149.964C20.3971 149.208 20.8685 148.606 21.5031 148.158C22.1471 147.71 22.9638 147.486 23.9531 147.486C24.9518 147.486 25.7638 147.71 26.3891 148.158C27.0238 148.606 27.4951 149.208 27.8031 149.964C28.1111 150.72 28.2651 151.565 28.2651 152.498V153.268C28.2651 153.94 28.1858 154.579 28.0271 155.186C27.8685 155.783 27.6165 156.311 27.2711 156.768C26.9351 157.225 26.4918 157.589 25.9411 157.86C25.3998 158.121 24.7371 158.252 23.9531 158.252ZM23.9531 156.726C24.8585 156.726 25.5211 156.423 25.9411 155.816C26.3705 155.2 26.5851 154.229 26.5851 152.904C26.5851 151.513 26.3658 150.519 25.9271 149.922C25.4978 149.315 24.8398 149.012 23.9531 149.012C23.0665 149.012 22.4038 149.315 21.9651 149.922C21.5358 150.519 21.3211 151.504 21.3211 152.876C21.3211 154.211 21.5358 155.186 21.9651 155.802C22.3945 156.418 23.0571 156.726 23.9531 156.726ZM34.4531 158.252C33.6785 158.252 33.0158 158.121 32.4651 157.86C31.9145 157.589 31.4665 157.225 31.1211 156.768C30.7851 156.311 30.5378 155.783 30.3791 155.186C30.2205 154.579 30.1411 153.94 30.1411 153.268V152.498C30.1411 151.565 30.2905 150.72 30.5891 149.964C30.8971 149.208 31.3685 148.606 32.0031 148.158C32.6471 147.71 33.4638 147.486 34.4531 147.486C35.4518 147.486 36.2638 147.71 36.8891 148.158C37.5238 148.606 37.9951 149.208 38.3031 149.964C38.6111 150.72 38.7651 151.565 38.7651 152.498V153.268C38.7651 153.94 38.6858 154.579 38.5271 155.186C38.3685 155.783 38.1165 156.311 37.7711 156.768C37.4351 157.225 36.9918 157.589 36.4411 157.86C35.8998 158.121 35.2371 158.252 34.4531 158.252ZM34.4531 156.726C35.3585 156.726 36.0211 156.423 36.4411 155.816C36.8705 155.2 37.0851 154.229 37.0851 152.904C37.0851 151.513 36.8658 150.519 36.4271 149.922C35.9978 149.315 35.3398 149.012 34.4531 149.012C33.5665 149.012 32.9038 149.315 32.4651 149.922C32.0358 150.519 31.8211 151.504 31.8211 152.876C31.8211 154.211 32.0358 155.186 32.4651 155.802C32.8945 156.418 33.5571 156.726 34.4531 156.726Z" fill="#9AA2AC"/>
<line opacity="0.15" x1="403" y1="153.5" x2="66" y2="153.5" stroke="#27292C"/>
<path d="M2.73 265V255.732L3.346 256.208H0.546V254.78H4.382V265H2.73ZM10.4419 265.266C9.68592 265.266 9.01392 265.14 8.42592 264.888C7.84726 264.627 7.39459 264.263 7.06792 263.796C6.74126 263.329 6.57792 262.779 6.57792 262.144C6.57792 261.733 6.65259 261.365 6.80192 261.038C6.96059 260.702 7.17526 260.413 7.44592 260.17C7.71659 259.927 8.02926 259.741 8.38392 259.61V259.456C8.10392 259.344 7.85192 259.19 7.62792 258.994C7.40392 258.789 7.22659 258.546 7.09592 258.266C6.96526 257.986 6.89992 257.664 6.89992 257.3C6.89992 256.693 7.05859 256.185 7.37592 255.774C7.70259 255.363 8.13192 255.051 8.66392 254.836C9.20526 254.621 9.79792 254.514 10.4419 254.514C11.1046 254.514 11.7019 254.621 12.2339 254.836C12.7659 255.051 13.1906 255.363 13.5079 255.774C13.8253 256.185 13.9839 256.693 13.9839 257.3C13.9839 257.664 13.9186 257.986 13.7879 258.266C13.6666 258.546 13.4939 258.789 13.2699 258.994C13.0459 259.19 12.7893 259.344 12.4999 259.456V259.61C12.8639 259.741 13.1813 259.927 13.4519 260.17C13.7226 260.413 13.9326 260.702 14.0819 261.038C14.2406 261.365 14.3199 261.733 14.3199 262.144C14.3199 262.779 14.1566 263.329 13.8299 263.796C13.5033 264.263 13.0459 264.627 12.4579 264.888C11.8793 265.14 11.2073 265.266 10.4419 265.266ZM10.4419 263.866C10.9086 263.866 11.3099 263.796 11.6459 263.656C11.9819 263.507 12.2433 263.292 12.4299 263.012C12.6166 262.732 12.7099 262.401 12.7099 262.018C12.7099 261.635 12.6166 261.309 12.4299 261.038C12.2526 260.767 11.9959 260.557 11.6599 260.408C11.3239 260.259 10.9179 260.184 10.4419 260.184C9.97526 260.184 9.57392 260.259 9.23792 260.408C8.90192 260.557 8.64526 260.767 8.46792 261.038C8.29059 261.309 8.20192 261.635 8.20192 262.018C8.20192 262.401 8.29059 262.732 8.46792 263.012C8.64526 263.292 8.90192 263.507 9.23792 263.656C9.57392 263.796 9.97526 263.866 10.4419 263.866ZM10.4419 258.91C11.0299 258.91 11.4966 258.789 11.8419 258.546C12.1873 258.294 12.3599 257.911 12.3599 257.398C12.3599 256.885 12.1826 256.507 11.8279 256.264C11.4826 256.021 11.0206 255.9 10.4419 255.9C9.86326 255.9 9.39659 256.026 9.04192 256.278C8.69659 256.521 8.52392 256.894 8.52392 257.398C8.52392 257.911 8.69659 258.294 9.04192 258.546C9.39659 258.789 9.86326 258.91 10.4419 258.91ZM15.8944 265V263.026H17.7984V265H15.8944ZM15.8944 259.988V258.014H17.7984V259.988H15.8944ZM22.9451 265.252C22.1705 265.252 21.5078 265.107 20.9571 264.818C20.4065 264.519 19.9865 264.123 19.6971 263.628C19.4171 263.124 19.2771 262.573 19.2771 261.976H20.8871C20.8871 262.545 21.0691 262.998 21.4331 263.334C21.8065 263.67 22.3105 263.838 22.9451 263.838C23.3651 263.838 23.7245 263.763 24.0231 263.614C24.3311 263.455 24.5691 263.236 24.7371 262.956C24.9051 262.667 24.9891 262.331 24.9891 261.948C24.9891 261.379 24.8071 260.917 24.4431 260.562C24.0791 260.198 23.5798 260.016 22.9451 260.016C22.6651 260.016 22.4178 260.053 22.2031 260.128C21.9978 260.203 21.8158 260.296 21.6571 260.408L20.8591 259.022L24.4991 256.446L24.3591 256.194H19.6831V254.78H26.1371V256.726L22.7911 259.05L21.7551 258.98C21.9231 258.924 22.1051 258.877 22.3011 258.84C22.5065 258.803 22.7351 258.784 22.9871 258.784C23.7525 258.784 24.4011 258.924 24.9331 259.204C25.4745 259.475 25.8898 259.843 26.1791 260.31C26.4685 260.777 26.6131 261.299 26.6131 261.878V262.06C26.6131 262.629 26.4685 263.157 26.1791 263.642C25.8898 264.127 25.4745 264.519 24.9331 264.818C24.3918 265.107 23.7291 265.252 22.9451 265.252ZM32.6348 265.252C31.8601 265.252 31.1974 265.121 30.6468 264.86C30.0961 264.589 29.6481 264.225 29.3028 263.768C28.9668 263.311 28.7194 262.783 28.5608 262.186C28.4021 261.579 28.3228 260.94 28.3228 260.268V259.498C28.3228 258.565 28.4721 257.72 28.7708 256.964C29.0788 256.208 29.5501 255.606 30.1848 255.158C30.8288 254.71 31.6454 254.486 32.6348 254.486C33.6334 254.486 34.4454 254.71 35.0708 255.158C35.7054 255.606 36.1768 256.208 36.4848 256.964C36.7928 257.72 36.9468 258.565 36.9468 259.498V260.268C36.9468 260.94 36.8674 261.579 36.7088 262.186C36.5501 262.783 36.2981 263.311 35.9528 263.768C35.6168 264.225 35.1734 264.589 34.6228 264.86C34.0814 265.121 33.4188 265.252 32.6348 265.252ZM32.6348 263.726C33.5401 263.726 34.2028 263.423 34.6228 262.816C35.0521 262.2 35.2668 261.229 35.2668 259.904C35.2668 258.513 35.0474 257.519 34.6088 256.922C34.1794 256.315 33.5214 256.012 32.6348 256.012C31.7481 256.012 31.0854 256.315 30.6468 256.922C30.2174 257.519 30.0028 258.504 30.0028 259.876C30.0028 261.211 30.2174 262.186 30.6468 262.802C31.0761 263.418 31.7388 263.726 32.6348 263.726Z" fill="#9AA2AC"/>
<line opacity="0.15" x1="403" y1="265.5" x2="66" y2="265.5" stroke="#27292C"/>
<rect x="74" y="273" width="321" height="96" rx="24" fill="#008556" fill-opacity="0.1"/>
<rect x="98" y="301" width="40" height="40" rx="20" fill="#02AF72" fill-opacity="0.15"/>
<path d="M121.796 312C123.287 312 124.586 312.987 124.948 314.394L125.333 315.893H126.246C126.626 315.893 126.939 316.167 126.989 316.523L126.996 316.622C126.996 316.992 126.714 317.297 126.348 317.346L126.246 317.352H125.71L125.918 318.157C126.567 318.541 127 319.235 127 320.028V328.297C127 329.238 126.217 330 125.25 330H123.747C122.78 330 121.997 329.238 121.997 328.297L121.996 327.084H114.003L114.003 328.297C114.003 329.238 113.22 330 112.253 330H110.75C109.783 330 109 329.238 109 328.297V320.028C109 319.235 109.433 318.541 110.082 318.157L110.289 317.352H109.75C109.37 317.352 109.056 317.078 109.007 316.721L109 316.622C109 316.253 109.282 315.948 109.648 315.899L109.75 315.893H110.663L111.049 314.396C111.41 312.988 112.71 312 114.201 312H121.796ZM112.503 327.084H110.499L110.5 328.297C110.5 328.431 110.612 328.54 110.75 328.54H112.253C112.391 328.54 112.503 328.431 112.503 328.297L112.503 327.084ZM125.5 327.084H123.496L123.497 328.297C123.497 328.431 123.609 328.54 123.747 328.54H125.25C125.388 328.54 125.5 328.431 125.5 328.297L125.5 327.084ZM119.748 322.705H116.247L116.146 322.711C115.78 322.76 115.498 323.065 115.498 323.434C115.498 323.804 115.78 324.109 116.146 324.158L116.247 324.164H119.748L119.85 324.158C120.216 324.109 120.498 323.804 120.498 323.434C120.498 323.031 120.162 322.705 119.748 322.705ZM122.997 320.758C122.445 320.758 121.997 321.194 121.997 321.731C121.997 322.269 122.445 322.705 122.997 322.705C123.549 322.705 123.997 322.269 123.997 321.731C123.997 321.194 123.549 320.758 122.997 320.758ZM112.999 320.758C112.447 320.758 111.999 321.194 111.999 321.731C111.999 322.269 112.447 322.705 112.999 322.705C113.551 322.705 113.999 322.269 113.999 321.731C113.999 321.194 113.551 320.758 112.999 320.758ZM121.796 313.46H114.201C113.398 313.46 112.698 313.992 112.503 314.75L111.71 317.839H124.289L123.494 314.749C123.298 313.991 122.599 313.46 121.796 313.46Z" fill="#02AF72"/>
<path d="M157.744 316V306H160.016V316H157.744ZM154.368 306.32V304.32H163.392V306.32H154.368ZM169.716 316V313.424H169.348V310.56C169.348 310.059 169.225 309.685 168.98 309.44C168.734 309.195 168.356 309.072 167.844 309.072C167.577 309.072 167.257 309.077 166.884 309.088C166.51 309.099 166.132 309.115 165.748 309.136C165.374 309.147 165.038 309.163 164.74 309.184V307.296C164.985 307.275 165.262 307.253 165.572 307.232C165.881 307.211 166.196 307.2 166.516 307.2C166.846 307.189 167.156 307.184 167.444 307.184C168.34 307.184 169.081 307.301 169.668 307.536C170.265 307.771 170.713 308.139 171.012 308.64C171.321 309.141 171.476 309.797 171.476 310.608V316H169.716ZM166.916 316.224C166.286 316.224 165.732 316.112 165.252 315.888C164.782 315.664 164.414 315.344 164.148 314.928C163.892 314.512 163.764 314.011 163.764 313.424C163.764 312.784 163.918 312.261 164.228 311.856C164.548 311.451 164.99 311.147 165.556 310.944C166.132 310.741 166.804 310.64 167.572 310.64H169.588V311.968H167.54C167.028 311.968 166.633 312.096 166.356 312.352C166.089 312.597 165.956 312.917 165.956 313.312C165.956 313.707 166.089 314.027 166.356 314.272C166.633 314.517 167.028 314.64 167.54 314.64C167.849 314.64 168.132 314.587 168.388 314.48C168.654 314.363 168.873 314.171 169.044 313.904C169.225 313.627 169.326 313.253 169.348 312.784L169.892 313.408C169.838 314.016 169.689 314.528 169.444 314.944C169.209 315.36 168.878 315.68 168.452 315.904C168.036 316.117 167.524 316.224 166.916 316.224ZM172.866 316L175.698 311.36L175.65 311.728L172.978 307.312H175.394L177.138 310.368H177.378L179.026 307.312H181.298L178.77 311.712L178.818 311.392L181.81 316H179.394L177.33 312.72H177.09L175.138 316H172.866ZM183.664 316V307.312H185.888V316H183.664ZM182.448 308.976V307.312H185.888V308.976H182.448ZM184.48 306.272C184.043 306.272 183.718 306.16 183.504 305.936C183.302 305.701 183.2 305.408 183.2 305.056C183.2 304.704 183.302 304.416 183.504 304.192C183.718 303.968 184.043 303.856 184.48 303.856C184.918 303.856 185.238 303.968 185.44 304.192C185.643 304.416 185.744 304.704 185.744 305.056C185.744 305.408 185.643 305.701 185.44 305.936C185.238 306.16 184.918 306.272 184.48 306.272ZM195.681 316.112C194.881 316.112 194.219 316.011 193.697 315.808C193.185 315.595 192.801 315.243 192.545 314.752C192.289 314.251 192.161 313.579 192.161 312.736L192.177 304.864H194.257L194.241 312.88C194.241 313.307 194.353 313.637 194.577 313.872C194.811 314.096 195.142 314.208 195.569 314.208H196.929V316.112H195.681ZM190.785 308.944V307.312H196.929V308.944H190.785ZM198.795 316V307.312H200.555V310.992H200.507C200.507 309.744 200.774 308.8 201.307 308.16C201.841 307.52 202.625 307.2 203.659 307.2H203.979V309.136H203.371C202.625 309.136 202.043 309.339 201.627 309.744C201.222 310.139 201.019 310.715 201.019 311.472V316H198.795ZM210.684 316V313.424H210.316V310.56C210.316 310.059 210.194 309.685 209.948 309.44C209.703 309.195 209.324 309.072 208.812 309.072C208.546 309.072 208.226 309.077 207.852 309.088C207.479 309.099 207.1 309.115 206.716 309.136C206.343 309.147 206.007 309.163 205.708 309.184V307.296C205.954 307.275 206.231 307.253 206.54 307.232C206.85 307.211 207.164 307.2 207.484 307.2C207.815 307.189 208.124 307.184 208.412 307.184C209.308 307.184 210.05 307.301 210.636 307.536C211.234 307.771 211.682 308.139 211.98 308.64C212.29 309.141 212.444 309.797 212.444 310.608V316H210.684ZM207.884 316.224C207.255 316.224 206.7 316.112 206.22 315.888C205.751 315.664 205.383 315.344 205.116 314.928C204.86 314.512 204.732 314.011 204.732 313.424C204.732 312.784 204.887 312.261 205.196 311.856C205.516 311.451 205.959 311.147 206.524 310.944C207.1 310.741 207.772 310.64 208.54 310.64H210.556V311.968H208.508C207.996 311.968 207.602 312.096 207.324 312.352C207.058 312.597 206.924 312.917 206.924 313.312C206.924 313.707 207.058 314.027 207.324 314.272C207.602 314.517 207.996 314.64 208.508 314.64C208.818 314.64 209.1 314.587 209.356 314.48C209.623 314.363 209.842 314.171 210.012 313.904C210.194 313.627 210.295 313.253 210.316 312.784L210.86 313.408C210.807 314.016 210.658 314.528 210.412 314.944C210.178 315.36 209.847 315.68 209.42 315.904C209.004 316.117 208.492 316.224 207.884 316.224ZM214.827 316V307.312H216.587V311.04H216.427C216.427 310.155 216.544 309.419 216.779 308.832C217.013 308.235 217.36 307.787 217.819 307.488C218.288 307.189 218.869 307.04 219.563 307.04H219.659C220.693 307.04 221.477 307.376 222.01 308.048C222.544 308.709 222.811 309.701 222.811 311.024V316H220.587V310.832C220.587 310.299 220.432 309.867 220.123 309.536C219.824 309.205 219.408 309.04 218.875 309.04C218.331 309.04 217.888 309.211 217.547 309.552C217.216 309.883 217.051 310.331 217.051 310.896V316H214.827ZM228.354 316.272C227.159 316.272 226.22 316.021 225.538 315.52C224.866 315.008 224.514 314.304 224.482 313.408H226.482C226.514 313.707 226.679 313.979 226.978 314.224C227.276 314.469 227.746 314.592 228.386 314.592C228.919 314.592 229.34 314.496 229.65 314.304C229.97 314.112 230.13 313.851 230.13 313.52C230.13 313.232 230.007 313.003 229.762 312.832C229.527 312.661 229.122 312.549 228.546 312.496L227.778 312.416C226.807 312.309 226.06 312.032 225.538 311.584C225.015 311.136 224.754 310.539 224.754 309.792C224.754 309.195 224.903 308.693 225.202 308.288C225.5 307.883 225.911 307.579 226.434 307.376C226.967 307.163 227.575 307.056 228.258 307.056C229.324 307.056 230.188 307.291 230.85 307.76C231.511 308.229 231.858 308.917 231.89 309.824H229.89C229.868 309.525 229.719 309.269 229.442 309.056C229.164 308.843 228.764 308.736 228.242 308.736C227.772 308.736 227.41 308.827 227.154 309.008C226.898 309.189 226.77 309.424 226.77 309.712C226.77 309.989 226.871 310.203 227.074 310.352C227.287 310.501 227.628 310.603 228.098 310.656L228.866 310.736C229.89 310.843 230.69 311.125 231.266 311.584C231.852 312.043 232.146 312.661 232.146 313.44C232.146 314.016 231.986 314.517 231.666 314.944C231.356 315.36 230.919 315.685 230.354 315.92C229.788 316.155 229.122 316.272 228.354 316.272ZM234.191 316V307.104C234.191 306.112 234.463 305.381 235.007 304.912C235.561 304.432 236.377 304.192 237.455 304.192H238.543V305.904H237.295C236.964 305.904 236.708 305.995 236.527 306.176C236.356 306.347 236.271 306.592 236.271 306.912V316H234.191ZM233.103 309.088V307.456H238.687V309.088H233.103ZM243.918 316.304C243.171 316.304 242.515 316.176 241.95 315.92C241.395 315.664 240.931 315.323 240.558 314.896C240.195 314.459 239.918 313.973 239.726 313.44C239.544 312.907 239.454 312.363 239.454 311.808V311.504C239.454 310.928 239.544 310.373 239.726 309.84C239.918 309.296 240.195 308.816 240.558 308.4C240.931 307.973 241.39 307.637 241.934 307.392C242.478 307.136 243.107 307.008 243.822 307.008C244.76 307.008 245.544 307.216 246.174 307.632C246.814 308.037 247.294 308.576 247.614 309.248C247.934 309.909 248.094 310.624 248.094 311.392V312.192H240.398V310.832H246.702L246.014 311.504C246.014 310.949 245.934 310.475 245.774 310.08C245.614 309.685 245.368 309.381 245.038 309.168C244.718 308.955 244.312 308.848 243.822 308.848C243.331 308.848 242.915 308.96 242.574 309.184C242.232 309.408 241.971 309.733 241.79 310.16C241.619 310.576 241.534 311.077 241.534 311.664C241.534 312.208 241.619 312.693 241.79 313.12C241.96 313.536 242.222 313.867 242.574 314.112C242.926 314.347 243.374 314.464 243.918 314.464C244.462 314.464 244.904 314.357 245.246 314.144C245.587 313.92 245.806 313.648 245.902 313.328H247.95C247.822 313.925 247.576 314.448 247.214 314.896C246.851 315.344 246.387 315.691 245.822 315.936C245.267 316.181 244.632 316.304 243.918 316.304ZM249.952 316V307.312H251.712V310.992H251.664C251.664 309.744 251.93 308.8 252.464 308.16C252.997 307.52 253.781 307.2 254.816 307.2H255.136V309.136H254.528C253.781 309.136 253.2 309.339 252.784 309.744C252.378 310.139 252.176 310.715 252.176 311.472V316H249.952Z" fill="#02AF72"/>
<g opacity="0.64">
<path d="M156.59 338V329.012L157.206 329.488H154.504V327.78H158.564V338H156.59ZM164.539 338.28C163.755 338.28 163.065 338.154 162.467 337.902C161.87 337.65 161.403 337.291 161.067 336.824C160.731 336.357 160.563 335.802 160.563 335.158C160.563 334.729 160.638 334.351 160.787 334.024C160.937 333.688 161.142 333.403 161.403 333.17C161.665 332.927 161.973 332.745 162.327 332.624V332.456C162.057 332.335 161.809 332.176 161.585 331.98C161.371 331.784 161.198 331.546 161.067 331.266C160.946 330.986 160.885 330.664 160.885 330.3C160.885 329.684 161.044 329.171 161.361 328.76C161.688 328.34 162.127 328.027 162.677 327.822C163.237 327.607 163.858 327.5 164.539 327.5C165.23 327.5 165.851 327.607 166.401 327.822C166.961 328.027 167.4 328.34 167.717 328.76C168.044 329.171 168.207 329.684 168.207 330.3C168.207 330.664 168.142 330.986 168.011 331.266C167.89 331.546 167.722 331.784 167.507 331.98C167.293 332.176 167.045 332.335 166.765 332.456V332.624C167.12 332.745 167.428 332.927 167.689 333.17C167.96 333.413 168.165 333.702 168.305 334.038C168.455 334.365 168.529 334.738 168.529 335.158C168.529 335.802 168.361 336.357 168.025 336.824C167.699 337.291 167.237 337.65 166.639 337.902C166.042 338.154 165.342 338.28 164.539 338.28ZM164.539 336.642C164.969 336.642 165.337 336.577 165.645 336.446C165.953 336.315 166.191 336.124 166.359 335.872C166.527 335.62 166.611 335.317 166.611 334.962C166.611 334.607 166.527 334.309 166.359 334.066C166.201 333.814 165.963 333.623 165.645 333.492C165.337 333.361 164.969 333.296 164.539 333.296C164.119 333.296 163.755 333.361 163.447 333.492C163.139 333.623 162.901 333.814 162.733 334.066C162.565 334.309 162.481 334.607 162.481 334.962C162.481 335.317 162.565 335.62 162.733 335.872C162.901 336.124 163.139 336.315 163.447 336.446C163.755 336.577 164.119 336.642 164.539 336.642ZM164.539 331.812C165.081 331.812 165.505 331.7 165.813 331.476C166.131 331.243 166.289 330.907 166.289 330.468C166.289 330.011 166.131 329.675 165.813 329.46C165.496 329.245 165.071 329.138 164.539 329.138C164.007 329.138 163.583 329.25 163.265 329.474C162.957 329.689 162.803 330.02 162.803 330.468C162.803 330.907 162.962 331.243 163.279 331.476C163.597 331.7 164.017 331.812 164.539 331.812ZM169.946 338V335.76H172.13V338H169.946ZM169.946 333.17V330.93H172.13V333.17H169.946ZM177.192 338.266C176.408 338.266 175.732 338.117 175.162 337.818C174.602 337.519 174.173 337.123 173.874 336.628C173.576 336.124 173.426 335.564 173.426 334.948H175.344C175.344 335.443 175.508 335.844 175.834 336.152C176.17 336.451 176.623 336.6 177.192 336.6C177.575 336.6 177.902 336.53 178.172 336.39C178.452 336.241 178.667 336.04 178.816 335.788C178.966 335.527 179.04 335.228 179.04 334.892C179.04 334.388 178.877 333.977 178.55 333.66C178.224 333.333 177.776 333.17 177.206 333.17C176.926 333.17 176.679 333.207 176.464 333.282C176.259 333.357 176.077 333.455 175.918 333.576L175.008 332.008L178.368 329.712L178.242 329.474H173.846V327.78H180.524V329.824L177.066 332.12L175.988 331.924C176.166 331.868 176.357 331.826 176.562 331.798C176.768 331.761 176.992 331.742 177.234 331.742C178.009 331.742 178.672 331.877 179.222 332.148C179.782 332.409 180.212 332.773 180.51 333.24C180.809 333.707 180.958 334.243 180.958 334.85V335.032C180.958 335.62 180.809 336.161 180.51 336.656C180.212 337.141 179.782 337.533 179.222 337.832C178.662 338.121 177.986 338.266 177.192 338.266ZM186.978 338.266C186.175 338.266 185.494 338.135 184.934 337.874C184.374 337.603 183.917 337.239 183.562 336.782C183.207 336.315 182.946 335.783 182.778 335.186C182.619 334.579 182.54 333.945 182.54 333.282V332.498C182.54 331.555 182.699 330.706 183.016 329.95C183.333 329.194 183.819 328.597 184.472 328.158C185.125 327.71 185.961 327.486 186.978 327.486C187.986 327.486 188.817 327.71 189.47 328.158C190.123 328.597 190.604 329.194 190.912 329.95C191.229 330.706 191.388 331.555 191.388 332.498V333.282C191.388 333.945 191.304 334.579 191.136 335.186C190.977 335.783 190.721 336.315 190.366 336.782C190.021 337.239 189.568 337.603 189.008 337.874C188.448 338.135 187.771 338.266 186.978 338.266ZM186.978 336.446C187.809 336.446 188.42 336.161 188.812 335.592C189.204 335.013 189.4 334.117 189.4 332.904C189.4 331.616 189.199 330.697 188.798 330.146C188.397 329.586 187.79 329.306 186.978 329.306C186.157 329.306 185.541 329.586 185.13 330.146C184.729 330.697 184.528 331.607 184.528 332.876C184.528 334.099 184.729 334.999 185.13 335.578C185.531 336.157 186.147 336.446 186.978 336.446Z" fill="#02AF72"/>
<path d="M202.218 335.858V332.064H205.858V335.858H202.218Z" fill="#02AF72"/>
<path d="M218.59 338V329.012L219.206 329.488H216.504V327.78H220.564V338H218.59ZM226.455 327.486C227.211 327.486 227.851 327.617 228.373 327.878C228.905 328.13 229.335 328.48 229.661 328.928C229.988 329.376 230.226 329.899 230.375 330.496C230.525 331.084 230.599 331.709 230.599 332.372V332.988C230.599 334.659 230.175 335.928 229.325 336.796C228.485 337.655 227.249 338.084 225.615 338.084C225.261 338.084 224.929 338.075 224.621 338.056C224.313 338.037 224.005 338.009 223.697 337.972V336.306C224.005 336.343 224.318 336.371 224.635 336.39C224.962 336.409 225.312 336.418 225.685 336.418C226.469 336.418 227.085 336.283 227.533 336.012C227.981 335.741 228.299 335.345 228.485 334.822C228.681 334.299 228.779 333.651 228.779 332.876V331.966L229.227 331.322C229.218 332.041 229.073 332.638 228.793 333.114C228.523 333.581 228.145 333.935 227.659 334.178C227.174 334.411 226.619 334.528 225.993 334.528C225.265 334.528 224.645 334.383 224.131 334.094C223.618 333.805 223.221 333.403 222.941 332.89C222.671 332.377 222.535 331.779 222.535 331.098C222.535 330.389 222.694 329.763 223.011 329.222C223.329 328.671 223.777 328.247 224.355 327.948C224.943 327.64 225.643 327.486 226.455 327.486ZM226.497 329.152C226.059 329.152 225.685 329.236 225.377 329.404C225.069 329.563 224.836 329.787 224.677 330.076C224.519 330.365 224.439 330.697 224.439 331.07C224.439 331.453 224.514 331.789 224.663 332.078C224.822 332.367 225.051 332.591 225.349 332.75C225.648 332.909 226.007 332.988 226.427 332.988C226.829 332.988 227.193 332.918 227.519 332.778C227.855 332.629 228.117 332.414 228.303 332.134C228.499 331.845 228.597 331.49 228.597 331.07C228.597 330.706 228.518 330.379 228.359 330.09C228.21 329.801 227.977 329.572 227.659 329.404C227.351 329.236 226.964 329.152 226.497 329.152ZM232.234 338V335.76H234.418V338H232.234ZM232.234 333.17V330.93H234.418V333.17H232.234ZM240.501 338.266C239.699 338.266 239.017 338.135 238.457 337.874C237.897 337.603 237.44 337.239 237.085 336.782C236.731 336.315 236.469 335.783 236.301 335.186C236.143 334.579 236.063 333.945 236.063 333.282V332.498C236.063 331.555 236.222 330.706 236.539 329.95C236.857 329.194 237.342 328.597 237.995 328.158C238.649 327.71 239.484 327.486 240.501 327.486C241.509 327.486 242.34 327.71 242.993 328.158C243.647 328.597 244.127 329.194 244.435 329.95C244.753 330.706 244.911 331.555 244.911 332.498V333.282C244.911 333.945 244.827 334.579 244.659 335.186C244.501 335.783 244.244 336.315 243.889 336.782C243.544 337.239 243.091 337.603 242.531 337.874C241.971 338.135 241.295 338.266 240.501 338.266ZM240.501 336.446C241.332 336.446 241.943 336.161 242.335 335.592C242.727 335.013 242.923 334.117 242.923 332.904C242.923 331.616 242.723 330.697 242.321 330.146C241.92 329.586 241.313 329.306 240.501 329.306C239.68 329.306 239.064 329.586 238.653 330.146C238.252 330.697 238.051 331.607 238.051 332.876C238.051 334.099 238.252 334.999 238.653 335.578C239.055 336.157 239.671 336.446 240.501 336.446ZM251.083 338.266C250.281 338.266 249.599 338.135 249.039 337.874C248.479 337.603 248.022 337.239 247.667 336.782C247.313 336.315 247.051 335.783 246.883 335.186C246.725 334.579 246.645 333.945 246.645 333.282V332.498C246.645 331.555 246.804 330.706 247.121 329.95C247.439 329.194 247.924 328.597 248.577 328.158C249.231 327.71 250.066 327.486 251.083 327.486C252.091 327.486 252.922 327.71 253.575 328.158C254.229 328.597 254.709 329.194 255.017 329.95C255.335 330.706 255.493 331.555 255.493 332.498V333.282C255.493 333.945 255.409 334.579 255.241 335.186C255.083 335.783 254.826 336.315 254.471 336.782C254.126 337.239 253.673 337.603 253.113 337.874C252.553 338.135 251.877 338.266 251.083 338.266ZM251.083 336.446C251.914 336.446 252.525 336.161 252.917 335.592C253.309 335.013 253.505 334.117 253.505 332.904C253.505 331.616 253.305 330.697 252.903 330.146C252.502 329.586 251.895 329.306 251.083 329.306C250.262 329.306 249.646 329.586 249.235 330.146C248.834 330.697 248.633 331.607 248.633 332.876C248.633 334.099 248.834 334.999 249.235 335.578C249.637 336.157 250.253 336.446 251.083 336.446Z" fill="#02AF72"/>
</g>
<path fill-rule="evenodd" clip-rule="evenodd" d="M359 326C360.105 326 361 326.895 361 328C361 329.105 360.105 330 359 330C357.895 330 357 329.105 357 328C357 326.895 357.895 326 359 326ZM359 319C360.105 319 361 319.895 361 321C361 322.105 360.105 323 359 323C357.895 323 357 322.105 357 321C357 319.895 357.895 319 359 319ZM359 312C360.105 312 361 312.895 361 314C361 315.105 360.105 316 359 316C357.895 316 357 315.105 357 314C357 312.895 357.895 312 359 312Z" fill="#02AF72"/>
<path d="M2.73 377V367.732L3.346 368.208H0.546V366.78H4.382V377H2.73ZM10.3439 366.5C11.0906 366.5 11.7206 366.631 12.2339 366.892C12.7473 367.144 13.1579 367.499 13.4659 367.956C13.7739 368.404 13.9979 368.922 14.1379 369.51C14.2779 370.098 14.3479 370.719 14.3479 371.372V372.016C14.3479 373.659 13.9326 374.914 13.1019 375.782C12.2806 376.65 11.0813 377.084 9.50392 377.084C9.14926 377.084 8.83192 377.075 8.55192 377.056C8.27192 377.037 7.97792 377.009 7.66992 376.972V375.572C7.97792 375.6 8.27659 375.628 8.56592 375.656C8.86459 375.675 9.20059 375.684 9.57392 375.684C10.3859 375.684 11.0299 375.539 11.5059 375.25C11.9819 374.951 12.3179 374.522 12.5139 373.962C12.7193 373.402 12.8219 372.721 12.8219 371.918V371.134L13.2139 370.196C13.2046 370.924 13.0599 371.531 12.7799 372.016C12.5093 372.492 12.1313 372.851 11.6459 373.094C11.1699 373.327 10.6146 373.444 9.97992 373.444C9.26126 373.444 8.64526 373.299 8.13192 373.01C7.61859 372.721 7.23126 372.319 6.96992 371.806C6.70859 371.293 6.57792 370.7 6.57792 370.028C6.57792 369.337 6.72259 368.726 7.01192 368.194C7.30126 367.662 7.72592 367.247 8.28592 366.948C8.85526 366.649 9.54126 366.5 10.3439 366.5ZM10.3579 367.914C9.88192 367.914 9.48059 368.007 9.15392 368.194C8.82726 368.371 8.57992 368.619 8.41192 368.936C8.25326 369.244 8.17392 369.603 8.17392 370.014C8.17392 370.434 8.25326 370.803 8.41192 371.12C8.57059 371.428 8.80392 371.671 9.11192 371.848C9.42926 372.025 9.81659 372.114 10.2739 372.114C10.7126 372.114 11.1093 372.035 11.4639 371.876C11.8186 371.717 12.0939 371.484 12.2899 371.176C12.4953 370.859 12.5979 370.467 12.5979 370C12.5979 369.617 12.5186 369.267 12.3599 368.95C12.2013 368.633 11.9539 368.381 11.6179 368.194C11.2913 368.007 10.8713 367.914 10.3579 367.914ZM16.1815 377V375.026H18.0855V377H16.1815ZM16.1815 371.988V370.014H18.0855V371.988H16.1815ZM24.2402 377.252C23.4656 377.252 22.8029 377.121 22.2522 376.86C21.7016 376.589 21.2536 376.225 20.9082 375.768C20.5722 375.311 20.3249 374.783 20.1662 374.186C20.0076 373.579 19.9282 372.94 19.9282 372.268V371.498C19.9282 370.565 20.0776 369.72 20.3762 368.964C20.6842 368.208 21.1556 367.606 21.7902 367.158C22.4342 366.71 23.2509 366.486 24.2402 366.486C25.2389 366.486 26.0509 366.71 26.6762 367.158C27.3109 367.606 27.7822 368.208 28.0902 368.964C28.3982 369.72 28.5522 370.565 28.5522 371.498V372.268C28.5522 372.94 28.4729 373.579 28.3142 374.186C28.1556 374.783 27.9036 375.311 27.5582 375.768C27.2222 376.225 26.7789 376.589 26.2282 376.86C25.6869 377.121 25.0242 377.252 24.2402 377.252ZM24.2402 375.726C25.1456 375.726 25.8082 375.423 26.2282 374.816C26.6576 374.2 26.8722 373.229 26.8722 371.904C26.8722 370.513 26.6529 369.519 26.2142 368.922C25.7849 368.315 25.1269 368.012 24.2402 368.012C23.3536 368.012 22.6909 368.315 22.2522 368.922C21.8229 369.519 21.6082 370.504 21.6082 371.876C21.6082 373.211 21.8229 374.186 22.2522 374.802C22.6816 375.418 23.3442 375.726 24.2402 375.726ZM34.7402 377.252C33.9656 377.252 33.3029 377.121 32.7522 376.86C32.2016 376.589 31.7536 376.225 31.4082 375.768C31.0722 375.311 30.8249 374.783 30.6662 374.186C30.5076 373.579 30.4282 372.94 30.4282 372.268V371.498C30.4282 370.565 30.5776 369.72 30.8762 368.964C31.1842 368.208 31.6556 367.606 32.2902 367.158C32.9342 366.71 33.7509 366.486 34.7402 366.486C35.7389 366.486 36.5509 366.71 37.1762 367.158C37.8109 367.606 38.2822 368.208 38.5902 368.964C38.8982 369.72 39.0522 370.565 39.0522 371.498V372.268C39.0522 372.94 38.9729 373.579 38.8142 374.186C38.6556 374.783 38.4036 375.311 38.0582 375.768C37.7222 376.225 37.2789 376.589 36.7282 376.86C36.1869 377.121 35.5242 377.252 34.7402 377.252ZM34.7402 375.726C35.6456 375.726 36.3082 375.423 36.7282 374.816C37.1576 374.2 37.3722 373.229 37.3722 371.904C37.3722 370.513 37.1529 369.519 36.7142 368.922C36.2849 368.315 35.6269 368.012 34.7402 368.012C33.8536 368.012 33.1909 368.315 32.7522 368.922C32.3229 369.519 32.1082 370.504 32.1082 371.876C32.1082 373.211 32.3229 374.186 32.7522 374.802C33.1816 375.418 33.8442 375.726 34.7402 375.726Z" fill="#9AA2AC"/>
<line opacity="0.15" x1="403" y1="377.5" x2="66" y2="377.5" stroke="#27292C"/>
<path d="M2.73 489V479.732L3.346 480.208H0.546V478.78H4.382V489H2.73ZM10.3439 478.5C11.0906 478.5 11.7206 478.631 12.2339 478.892C12.7473 479.144 13.1579 479.499 13.4659 479.956C13.7739 480.404 13.9979 480.922 14.1379 481.51C14.2779 482.098 14.3479 482.719 14.3479 483.372V484.016C14.3479 485.659 13.9326 486.914 13.1019 487.782C12.2806 488.65 11.0813 489.084 9.50392 489.084C9.14926 489.084 8.83192 489.075 8.55192 489.056C8.27192 489.037 7.97792 489.009 7.66992 488.972V487.572C7.97792 487.6 8.27659 487.628 8.56592 487.656C8.86459 487.675 9.20059 487.684 9.57392 487.684C10.3859 487.684 11.0299 487.539 11.5059 487.25C11.9819 486.951 12.3179 486.522 12.5139 485.962C12.7193 485.402 12.8219 484.721 12.8219 483.918V483.134L13.2139 482.196C13.2046 482.924 13.0599 483.531 12.7799 484.016C12.5093 484.492 12.1313 484.851 11.6459 485.094C11.1699 485.327 10.6146 485.444 9.97992 485.444C9.26126 485.444 8.64526 485.299 8.13192 485.01C7.61859 484.721 7.23126 484.319 6.96992 483.806C6.70859 483.293 6.57792 482.7 6.57792 482.028C6.57792 481.337 6.72259 480.726 7.01192 480.194C7.30126 479.662 7.72592 479.247 8.28592 478.948C8.85526 478.649 9.54126 478.5 10.3439 478.5ZM10.3579 479.914C9.88192 479.914 9.48059 480.007 9.15392 480.194C8.82726 480.371 8.57992 480.619 8.41192 480.936C8.25326 481.244 8.17392 481.603 8.17392 482.014C8.17392 482.434 8.25326 482.803 8.41192 483.12C8.57059 483.428 8.80392 483.671 9.11192 483.848C9.42926 484.025 9.81659 484.114 10.2739 484.114C10.7126 484.114 11.1093 484.035 11.4639 483.876C11.8186 483.717 12.0939 483.484 12.2899 483.176C12.4953 482.859 12.5979 482.467 12.5979 482C12.5979 481.617 12.5186 481.267 12.3599 480.95C12.2013 480.633 11.9539 480.381 11.6179 480.194C11.2913 480.007 10.8713 479.914 10.3579 479.914ZM16.1815 489V487.026H18.0855V489H16.1815ZM16.1815 483.988V482.014H18.0855V483.988H16.1815ZM23.2322 489.252C22.4576 489.252 21.7949 489.107 21.2442 488.818C20.6936 488.519 20.2736 488.123 19.9842 487.628C19.7042 487.124 19.5642 486.573 19.5642 485.976H21.1742C21.1742 486.545 21.3562 486.998 21.7202 487.334C22.0936 487.67 22.5976 487.838 23.2322 487.838C23.6522 487.838 24.0116 487.763 24.3102 487.614C24.6182 487.455 24.8562 487.236 25.0242 486.956C25.1922 486.667 25.2762 486.331 25.2762 485.948C25.2762 485.379 25.0942 484.917 24.7302 484.562C24.3662 484.198 23.8669 484.016 23.2322 484.016C22.9522 484.016 22.7049 484.053 22.4902 484.128C22.2849 484.203 22.1029 484.296 21.9442 484.408L21.1462 483.022L24.7862 480.446L24.6462 480.194H19.9702V478.78H26.4242V480.726L23.0782 483.05L22.0422 482.98C22.2102 482.924 22.3922 482.877 22.5882 482.84C22.7936 482.803 23.0222 482.784 23.2742 482.784C24.0396 482.784 24.6882 482.924 25.2202 483.204C25.7616 483.475 26.1769 483.843 26.4662 484.31C26.7556 484.777 26.9002 485.299 26.9002 485.878V486.06C26.9002 486.629 26.7556 487.157 26.4662 487.642C26.1769 488.127 25.7616 488.519 25.2202 488.818C24.6789 489.107 24.0162 489.252 23.2322 489.252ZM32.9219 489.252C32.1472 489.252 31.4845 489.121 30.9339 488.86C30.3832 488.589 29.9352 488.225 29.5899 487.768C29.2539 487.311 29.0065 486.783 28.8479 486.186C28.6892 485.579 28.6099 484.94 28.6099 484.268V483.498C28.6099 482.565 28.7592 481.72 29.0579 480.964C29.3659 480.208 29.8372 479.606 30.4719 479.158C31.1159 478.71 31.9325 478.486 32.9219 478.486C33.9205 478.486 34.7325 478.71 35.3579 479.158C35.9925 479.606 36.4639 480.208 36.7719 480.964C37.0799 481.72 37.2339 482.565 37.2339 483.498V484.268C37.2339 484.94 37.1545 485.579 36.9959 486.186C36.8372 486.783 36.5852 487.311 36.2399 487.768C35.9039 488.225 35.4605 488.589 34.9099 488.86C34.3685 489.121 33.7059 489.252 32.9219 489.252ZM32.9219 487.726C33.8272 487.726 34.4899 487.423 34.9099 486.816C35.3392 486.2 35.5539 485.229 35.5539 483.904C35.5539 482.513 35.3345 481.519 34.8959 480.922C34.4665 480.315 33.8085 480.012 32.9219 480.012C32.0352 480.012 31.3725 480.315 30.9339 480.922C30.5045 481.519 30.2899 482.504 30.2899 483.876C30.2899 485.211 30.5045 486.186 30.9339 486.802C31.3632 487.418 32.0259 487.726 32.9219 487.726Z" fill="#9AA2AC"/>
<line opacity="0.15" x1="403" y1="489.5" x2="66" y2="489.5" stroke="#27292C"/>
<rect x="74" y="385" width="321" height="208" rx="24" fill="#FF742C" fill-opacity="0.1"/>
<rect x="98" y="413" width="40" height="40" rx="20" fill="#FF742C" fill-opacity="0.15"/>
<path d="M123.5 432C124.825 432 125.91 433.032 125.995 434.336L126 434.5V439.5C126 439.776 125.776 440 125.5 440C125.255 440 125.05 439.823 125.008 439.59L125 439.5V437H111V439.5C111 439.776 110.776 440 110.5 440C110.255 440 110.05 439.823 110.008 439.59L110 439.5V434.5C110 433.175 111.032 432.09 112.336 432.005L112.5 432H123.5ZM114.5 426H121.5C122.825 426 123.91 427.032 123.995 428.336L124 428.5V431H122V430.5C122 430.255 121.823 430.05 121.59 430.008L121.5 430H119C118.755 430 118.55 430.177 118.508 430.41L118.5 430.5V431H117.5V430.5C117.5 430.255 117.323 430.05 117.09 430.008L117 430H114.5C114.255 430 114.05 430.177 114.008 430.41L114 430.5V431H112V428.5C112 427.175 113.032 426.09 114.336 426.005L114.5 426Z" fill="#FF742C"/>
<path d="M160.704 428.304C159.648 428.304 158.741 428.117 157.984 427.744C157.227 427.371 156.608 426.885 156.128 426.288C155.659 425.691 155.312 425.04 155.088 424.336C154.864 423.632 154.752 422.955 154.752 422.304V421.952C154.752 421.227 154.864 420.512 155.088 419.808C155.323 419.104 155.68 418.464 156.16 417.888C156.64 417.312 157.248 416.853 157.984 416.512C158.731 416.16 159.611 415.984 160.624 415.984C161.68 415.984 162.597 416.176 163.376 416.56C164.165 416.933 164.795 417.467 165.264 418.16C165.733 418.843 166.016 419.643 166.112 420.56H163.824C163.739 420.027 163.547 419.579 163.248 419.216C162.96 418.843 162.592 418.565 162.144 418.384C161.696 418.192 161.189 418.096 160.624 418.096C160.048 418.096 159.536 418.197 159.088 418.4C158.64 418.592 158.267 418.869 157.968 419.232C157.669 419.595 157.44 420.021 157.28 420.512C157.131 421.003 157.056 421.547 157.056 422.144C157.056 422.72 157.131 423.253 157.28 423.744C157.44 424.235 157.675 424.667 157.984 425.04C158.293 425.403 158.672 425.685 159.12 425.888C159.579 426.091 160.107 426.192 160.704 426.192C161.579 426.192 162.315 425.979 162.912 425.552C163.52 425.115 163.888 424.507 164.016 423.728H166.304C166.197 424.56 165.915 425.323 165.456 426.016C164.997 426.709 164.368 427.264 163.568 427.68C162.768 428.096 161.813 428.304 160.704 428.304ZM168.045 428V416.32H170.269V423.136H169.885C169.885 422.261 169.997 421.52 170.221 420.912C170.445 420.304 170.776 419.84 171.213 419.52C171.661 419.2 172.227 419.04 172.909 419.04H173.005C173.997 419.04 174.749 419.381 175.261 420.064C175.773 420.747 176.029 421.739 176.029 423.04V428H173.805V422.832C173.805 422.277 173.645 421.84 173.325 421.52C173.016 421.2 172.605 421.04 172.093 421.04C171.549 421.04 171.107 421.221 170.765 421.584C170.435 421.936 170.269 422.4 170.269 422.976V428H168.045ZM182.308 428.304C181.562 428.304 180.906 428.176 180.34 427.92C179.786 427.664 179.322 427.323 178.948 426.896C178.586 426.459 178.308 425.973 178.116 425.44C177.935 424.907 177.844 424.363 177.844 423.808V423.504C177.844 422.928 177.935 422.373 178.116 421.84C178.308 421.296 178.586 420.816 178.948 420.4C179.322 419.973 179.78 419.637 180.324 419.392C180.868 419.136 181.498 419.008 182.212 419.008C183.151 419.008 183.935 419.216 184.564 419.632C185.204 420.037 185.684 420.576 186.004 421.248C186.324 421.909 186.484 422.624 186.484 423.392V424.192H178.788V422.832H185.092L184.404 423.504C184.404 422.949 184.324 422.475 184.164 422.08C184.004 421.685 183.759 421.381 183.428 421.168C183.108 420.955 182.703 420.848 182.212 420.848C181.722 420.848 181.306 420.96 180.964 421.184C180.623 421.408 180.362 421.733 180.18 422.16C180.01 422.576 179.924 423.077 179.924 423.664C179.924 424.208 180.01 424.693 180.18 425.12C180.351 425.536 180.612 425.867 180.964 426.112C181.316 426.347 181.764 426.464 182.308 426.464C182.852 426.464 183.295 426.357 183.636 426.144C183.978 425.92 184.196 425.648 184.292 425.328H186.34C186.212 425.925 185.967 426.448 185.604 426.896C185.242 427.344 184.778 427.691 184.212 427.936C183.658 428.181 183.023 428.304 182.308 428.304ZM192.198 428.304C191.441 428.304 190.785 428.176 190.23 427.92C189.686 427.664 189.227 427.323 188.854 426.896C188.491 426.469 188.219 425.989 188.038 425.456C187.857 424.923 187.766 424.379 187.766 423.824V423.52C187.766 422.933 187.857 422.373 188.038 421.84C188.23 421.296 188.513 420.816 188.886 420.4C189.259 419.973 189.718 419.637 190.262 419.392C190.817 419.136 191.457 419.008 192.182 419.008C192.939 419.008 193.617 419.157 194.214 419.456C194.811 419.744 195.286 420.149 195.638 420.672C196.001 421.195 196.203 421.803 196.246 422.496H194.086C194.033 422.048 193.841 421.675 193.51 421.376C193.19 421.077 192.747 420.928 192.182 420.928C191.691 420.928 191.281 421.045 190.95 421.28C190.63 421.515 190.39 421.84 190.23 422.256C190.07 422.661 189.99 423.131 189.99 423.664C189.99 424.176 190.065 424.64 190.214 425.056C190.374 425.472 190.614 425.797 190.934 426.032C191.265 426.267 191.686 426.384 192.198 426.384C192.582 426.384 192.913 426.315 193.19 426.176C193.467 426.037 193.686 425.845 193.846 425.6C194.017 425.355 194.123 425.077 194.166 424.768H196.326C196.283 425.472 196.075 426.091 195.702 426.624C195.339 427.147 194.854 427.557 194.246 427.856C193.649 428.155 192.966 428.304 192.198 428.304ZM204.188 428L201.276 423.936H199.98L203.676 419.312H205.996L202.588 423.584L202.636 422.464L206.7 428H204.188ZM198.108 428V416.32H200.332V428H198.108ZM211.852 428V419.312H214.076V428H211.852ZM210.636 420.976V419.312H214.076V420.976H210.636ZM212.668 418.272C212.231 418.272 211.905 418.16 211.692 417.936C211.489 417.701 211.388 417.408 211.388 417.056C211.388 416.704 211.489 416.416 211.692 416.192C211.905 415.968 212.231 415.856 212.668 415.856C213.105 415.856 213.425 415.968 213.628 416.192C213.831 416.416 213.932 416.704 213.932 417.056C213.932 417.408 213.831 417.701 213.628 417.936C213.425 418.16 213.105 418.272 212.668 418.272ZM216.639 428V419.312H218.399V423.04H218.239C218.239 422.155 218.356 421.419 218.591 420.832C218.826 420.235 219.172 419.787 219.631 419.488C220.1 419.189 220.682 419.04 221.375 419.04H221.471C222.506 419.04 223.29 419.376 223.823 420.048C224.356 420.709 224.623 421.701 224.623 423.024V428H222.399V422.832C222.399 422.299 222.244 421.867 221.935 421.536C221.636 421.205 221.22 421.04 220.687 421.04C220.143 421.04 219.7 421.211 219.359 421.552C219.028 421.883 218.863 422.331 218.863 422.896V428H216.639ZM230.79 428.112C229.99 428.112 229.329 428.011 228.806 427.808C228.294 427.595 227.91 427.243 227.654 426.752C227.398 426.251 227.27 425.579 227.27 424.736L227.286 416.864H229.366L229.35 424.88C229.35 425.307 229.462 425.637 229.686 425.872C229.921 426.096 230.251 426.208 230.678 426.208H232.038V428.112H230.79ZM225.894 420.944V419.312H232.038V420.944H225.894ZM238.034 428.304C237.266 428.304 236.588 428.181 236.002 427.936C235.415 427.691 234.919 427.36 234.514 426.944C234.108 426.517 233.799 426.037 233.586 425.504C233.383 424.971 233.282 424.416 233.282 423.84V423.504C233.282 422.907 233.388 422.341 233.602 421.808C233.826 421.264 234.14 420.784 234.546 420.368C234.962 419.941 235.463 419.611 236.05 419.376C236.636 419.131 237.298 419.008 238.034 419.008C238.77 419.008 239.431 419.131 240.018 419.376C240.604 419.611 241.1 419.941 241.506 420.368C241.922 420.784 242.236 421.264 242.45 421.808C242.663 422.341 242.77 422.907 242.77 423.504V423.84C242.77 424.416 242.663 424.971 242.45 425.504C242.247 426.037 241.943 426.517 241.538 426.944C241.132 427.36 240.636 427.691 240.05 427.936C239.463 428.181 238.791 428.304 238.034 428.304ZM238.034 426.4C238.578 426.4 239.036 426.283 239.41 426.048C239.783 425.803 240.066 425.477 240.258 425.072C240.45 424.656 240.546 424.187 240.546 423.664C240.546 423.131 240.444 422.661 240.242 422.256C240.05 421.84 239.762 421.515 239.378 421.28C239.004 421.035 238.556 420.912 238.034 420.912C237.511 420.912 237.058 421.035 236.674 421.28C236.3 421.515 236.012 421.84 235.81 422.256C235.607 422.661 235.506 423.131 235.506 423.664C235.506 424.187 235.602 424.656 235.794 425.072C235.996 425.477 236.284 425.803 236.658 426.048C237.031 426.283 237.49 426.4 238.034 426.4ZM253.434 428V425.424H253.066V422.56C253.066 422.059 252.944 421.685 252.698 421.44C252.453 421.195 252.074 421.072 251.562 421.072C251.296 421.072 250.976 421.077 250.602 421.088C250.229 421.099 249.85 421.115 249.466 421.136C249.093 421.147 248.757 421.163 248.458 421.184V419.296C248.704 419.275 248.981 419.253 249.29 419.232C249.6 419.211 249.914 419.2 250.234 419.2C250.565 419.189 250.874 419.184 251.162 419.184C252.058 419.184 252.8 419.301 253.386 419.536C253.984 419.771 254.432 420.139 254.73 420.64C255.04 421.141 255.194 421.797 255.194 422.608V428H253.434ZM250.634 428.224C250.005 428.224 249.45 428.112 248.97 427.888C248.501 427.664 248.133 427.344 247.866 426.928C247.61 426.512 247.482 426.011 247.482 425.424C247.482 424.784 247.637 424.261 247.946 423.856C248.266 423.451 248.709 423.147 249.274 422.944C249.85 422.741 250.522 422.64 251.29 422.64H253.306V423.968H251.258C250.746 423.968 250.352 424.096 250.074 424.352C249.808 424.597 249.674 424.917 249.674 425.312C249.674 425.707 249.808 426.027 250.074 426.272C250.352 426.517 250.746 426.64 251.258 426.64C251.568 426.64 251.85 426.587 252.106 426.48C252.373 426.363 252.592 426.171 252.762 425.904C252.944 425.627 253.045 425.253 253.066 424.784L253.61 425.408C253.557 426.016 253.408 426.528 253.162 426.944C252.928 427.36 252.597 427.68 252.17 427.904C251.754 428.117 251.242 428.224 250.634 428.224ZM261.03 428V416.32H263.254V423.136H262.87C262.87 422.261 262.982 421.52 263.206 420.912C263.43 420.304 263.76 419.84 264.198 419.52C264.646 419.2 265.211 419.04 265.894 419.04H265.99C266.982 419.04 267.734 419.381 268.246 420.064C268.758 420.747 269.014 421.739 269.014 423.04V428H266.79V422.832C266.79 422.277 266.63 421.84 266.31 421.52C266 421.2 265.59 421.04 265.078 421.04C264.534 421.04 264.091 421.221 263.75 421.584C263.419 421.936 263.254 422.4 263.254 422.976V428H261.03ZM275.581 428.304C274.813 428.304 274.135 428.181 273.549 427.936C272.962 427.691 272.466 427.36 272.061 426.944C271.655 426.517 271.346 426.037 271.133 425.504C270.93 424.971 270.829 424.416 270.829 423.84V423.504C270.829 422.907 270.935 422.341 271.149 421.808C271.373 421.264 271.687 420.784 272.093 420.368C272.509 419.941 273.01 419.611 273.597 419.376C274.183 419.131 274.845 419.008 275.581 419.008C276.317 419.008 276.978 419.131 277.565 419.376C278.151 419.611 278.647 419.941 279.053 420.368C279.469 420.784 279.783 421.264 279.997 421.808C280.21 422.341 280.317 422.907 280.317 423.504V423.84C280.317 424.416 280.21 424.971 279.997 425.504C279.794 426.037 279.49 426.517 279.085 426.944C278.679 427.36 278.183 427.691 277.597 427.936C277.01 428.181 276.338 428.304 275.581 428.304ZM275.581 426.4C276.125 426.4 276.583 426.283 276.957 426.048C277.33 425.803 277.613 425.477 277.805 425.072C277.997 424.656 278.093 424.187 278.093 423.664C278.093 423.131 277.991 422.661 277.789 422.256C277.597 421.84 277.309 421.515 276.925 421.28C276.551 421.035 276.103 420.912 275.581 420.912C275.058 420.912 274.605 421.035 274.221 421.28C273.847 421.515 273.559 421.84 273.357 422.256C273.154 422.661 273.053 423.131 273.053 423.664C273.053 424.187 273.149 424.656 273.341 425.072C273.543 425.477 273.831 425.803 274.205 426.048C274.578 426.283 275.037 426.4 275.581 426.4ZM286.04 428.112C285.24 428.112 284.579 428.011 284.056 427.808C283.544 427.595 283.16 427.243 282.904 426.752C282.648 426.251 282.52 425.579 282.52 424.736L282.536 416.864H284.616L284.6 424.88C284.6 425.307 284.712 425.637 284.936 425.872C285.171 426.096 285.501 426.208 285.928 426.208H287.288V428.112H286.04ZM281.144 420.944V419.312H287.288V420.944H281.144ZM292.996 428.304C292.249 428.304 291.593 428.176 291.028 427.92C290.473 427.664 290.009 427.323 289.636 426.896C289.273 426.459 288.996 425.973 288.804 425.44C288.622 424.907 288.532 424.363 288.532 423.808V423.504C288.532 422.928 288.622 422.373 288.804 421.84C288.996 421.296 289.273 420.816 289.636 420.4C290.009 419.973 290.468 419.637 291.012 419.392C291.556 419.136 292.185 419.008 292.9 419.008C293.838 419.008 294.622 419.216 295.252 419.632C295.892 420.037 296.372 420.576 296.692 421.248C297.012 421.909 297.172 422.624 297.172 423.392V424.192H289.476V422.832H295.78L295.092 423.504C295.092 422.949 295.012 422.475 294.852 422.08C294.692 421.685 294.446 421.381 294.116 421.168C293.796 420.955 293.39 420.848 292.9 420.848C292.409 420.848 291.993 420.96 291.652 421.184C291.31 421.408 291.049 421.733 290.868 422.16C290.697 422.576 290.612 423.077 290.612 423.664C290.612 424.208 290.697 424.693 290.868 425.12C291.038 425.536 291.3 425.867 291.652 426.112C292.004 426.347 292.452 426.464 292.996 426.464C293.54 426.464 293.982 426.357 294.324 426.144C294.665 425.92 294.884 425.648 294.98 425.328H297.028C296.9 425.925 296.654 426.448 296.292 426.896C295.929 427.344 295.465 427.691 294.9 427.936C294.345 428.181 293.71 428.304 292.996 428.304ZM299.142 428V416.32H301.366V428H299.142ZM298.054 417.984V416.32H301.366V417.984H298.054Z" fill="#FF742C"/>
<g opacity="0.64">
<path d="M156.59 450V441.012L157.206 441.488H154.504V439.78H158.564V450H156.59ZM164.455 439.486C165.211 439.486 165.851 439.617 166.373 439.878C166.905 440.13 167.335 440.48 167.661 440.928C167.988 441.376 168.226 441.899 168.375 442.496C168.525 443.084 168.599 443.709 168.599 444.372V444.988C168.599 446.659 168.175 447.928 167.325 448.796C166.485 449.655 165.249 450.084 163.615 450.084C163.261 450.084 162.929 450.075 162.621 450.056C162.313 450.037 162.005 450.009 161.697 449.972V448.306C162.005 448.343 162.318 448.371 162.635 448.39C162.962 448.409 163.312 448.418 163.685 448.418C164.469 448.418 165.085 448.283 165.533 448.012C165.981 447.741 166.299 447.345 166.485 446.822C166.681 446.299 166.779 445.651 166.779 444.876V443.966L167.227 443.322C167.218 444.041 167.073 444.638 166.793 445.114C166.523 445.581 166.145 445.935 165.659 446.178C165.174 446.411 164.619 446.528 163.993 446.528C163.265 446.528 162.645 446.383 162.131 446.094C161.618 445.805 161.221 445.403 160.941 444.89C160.671 444.377 160.535 443.779 160.535 443.098C160.535 442.389 160.694 441.763 161.011 441.222C161.329 440.671 161.777 440.247 162.355 439.948C162.943 439.64 163.643 439.486 164.455 439.486ZM164.497 441.152C164.059 441.152 163.685 441.236 163.377 441.404C163.069 441.563 162.836 441.787 162.677 442.076C162.519 442.365 162.439 442.697 162.439 443.07C162.439 443.453 162.514 443.789 162.663 444.078C162.822 444.367 163.051 444.591 163.349 444.75C163.648 444.909 164.007 444.988 164.427 444.988C164.829 444.988 165.193 444.918 165.519 444.778C165.855 444.629 166.117 444.414 166.303 444.134C166.499 443.845 166.597 443.49 166.597 443.07C166.597 442.706 166.518 442.379 166.359 442.09C166.21 441.801 165.977 441.572 165.659 441.404C165.351 441.236 164.964 441.152 164.497 441.152ZM170.234 450V447.76H172.418V450H170.234ZM170.234 445.17V442.93H172.418V445.17H170.234ZM178.501 450.266C177.699 450.266 177.017 450.135 176.457 449.874C175.897 449.603 175.44 449.239 175.085 448.782C174.731 448.315 174.469 447.783 174.301 447.186C174.143 446.579 174.063 445.945 174.063 445.282V444.498C174.063 443.555 174.222 442.706 174.539 441.95C174.857 441.194 175.342 440.597 175.995 440.158C176.649 439.71 177.484 439.486 178.501 439.486C179.509 439.486 180.34 439.71 180.993 440.158C181.647 440.597 182.127 441.194 182.435 441.95C182.753 442.706 182.911 443.555 182.911 444.498V445.282C182.911 445.945 182.827 446.579 182.659 447.186C182.501 447.783 182.244 448.315 181.889 448.782C181.544 449.239 181.091 449.603 180.531 449.874C179.971 450.135 179.295 450.266 178.501 450.266ZM178.501 448.446C179.332 448.446 179.943 448.161 180.335 447.592C180.727 447.013 180.923 446.117 180.923 444.904C180.923 443.616 180.723 442.697 180.321 442.146C179.92 441.586 179.313 441.306 178.501 441.306C177.68 441.306 177.064 441.586 176.653 442.146C176.252 442.697 176.051 443.607 176.051 444.876C176.051 446.099 176.252 446.999 176.653 447.578C177.055 448.157 177.671 448.446 178.501 448.446ZM189.083 450.266C188.281 450.266 187.599 450.135 187.039 449.874C186.479 449.603 186.022 449.239 185.667 448.782C185.313 448.315 185.051 447.783 184.883 447.186C184.725 446.579 184.645 445.945 184.645 445.282V444.498C184.645 443.555 184.804 442.706 185.121 441.95C185.439 441.194 185.924 440.597 186.577 440.158C187.231 439.71 188.066 439.486 189.083 439.486C190.091 439.486 190.922 439.71 191.575 440.158C192.229 440.597 192.709 441.194 193.017 441.95C193.335 442.706 193.493 443.555 193.493 444.498V445.282C193.493 445.945 193.409 446.579 193.241 447.186C193.083 447.783 192.826 448.315 192.471 448.782C192.126 449.239 191.673 449.603 191.113 449.874C190.553 450.135 189.877 450.266 189.083 450.266ZM189.083 448.446C189.914 448.446 190.525 448.161 190.917 447.592C191.309 447.013 191.505 446.117 191.505 444.904C191.505 443.616 191.305 442.697 190.903 442.146C190.502 441.586 189.895 441.306 189.083 441.306C188.262 441.306 187.646 441.586 187.235 442.146C186.834 442.697 186.633 443.607 186.633 444.876C186.633 446.099 186.834 446.999 187.235 447.578C187.637 448.157 188.253 448.446 189.083 448.446Z" fill="#FF742C"/>
<path d="M204.218 447.858V444.064H207.858V447.858H204.218Z" fill="#FF742C"/>
<path d="M218.91 450V448.04C218.91 447.611 218.975 447.237 219.106 446.92C219.246 446.603 219.47 446.323 219.778 446.08C220.095 445.828 220.511 445.59 221.024 445.366L222.76 444.596C223.189 444.4 223.516 444.162 223.74 443.882C223.973 443.593 224.09 443.224 224.09 442.776C224.09 442.281 223.941 441.889 223.642 441.6C223.353 441.301 222.937 441.152 222.396 441.152C221.855 441.152 221.435 441.301 221.136 441.6C220.847 441.899 220.702 442.314 220.702 442.846H218.784C218.784 442.211 218.919 441.642 219.19 441.138C219.461 440.625 219.862 440.223 220.394 439.934C220.926 439.635 221.593 439.486 222.396 439.486C223.199 439.486 223.866 439.631 224.398 439.92C224.93 440.209 225.331 440.597 225.602 441.082C225.873 441.558 226.008 442.09 226.008 442.678V442.86C226.008 443.625 225.793 444.265 225.364 444.778C224.935 445.282 224.305 445.721 223.474 446.094L221.738 446.864C221.411 447.004 221.183 447.153 221.052 447.312C220.921 447.461 220.856 447.667 220.856 447.928V448.824L220.38 448.306H226.05V450H218.91ZM232.083 450.266C231.281 450.266 230.599 450.135 230.039 449.874C229.479 449.603 229.022 449.239 228.667 448.782C228.313 448.315 228.051 447.783 227.883 447.186C227.725 446.579 227.645 445.945 227.645 445.282V444.498C227.645 443.555 227.804 442.706 228.121 441.95C228.439 441.194 228.924 440.597 229.577 440.158C230.231 439.71 231.066 439.486 232.083 439.486C233.091 439.486 233.922 439.71 234.575 440.158C235.229 440.597 235.709 441.194 236.017 441.95C236.335 442.706 236.493 443.555 236.493 444.498V445.282C236.493 445.945 236.409 446.579 236.241 447.186C236.083 447.783 235.826 448.315 235.471 448.782C235.126 449.239 234.673 449.603 234.113 449.874C233.553 450.135 232.877 450.266 232.083 450.266ZM232.083 448.446C232.914 448.446 233.525 448.161 233.917 447.592C234.309 447.013 234.505 446.117 234.505 444.904C234.505 443.616 234.305 442.697 233.903 442.146C233.502 441.586 232.895 441.306 232.083 441.306C231.262 441.306 230.646 441.586 230.235 442.146C229.834 442.697 229.633 443.607 229.633 444.876C229.633 446.099 229.834 446.999 230.235 447.578C230.637 448.157 231.253 448.446 232.083 448.446ZM238.157 450V447.76H240.341V450H238.157ZM238.157 445.17V442.93H240.341V445.17H238.157ZM246.425 450.266C245.622 450.266 244.941 450.135 244.381 449.874C243.821 449.603 243.364 449.239 243.009 448.782C242.654 448.315 242.393 447.783 242.225 447.186C242.066 446.579 241.987 445.945 241.987 445.282V444.498C241.987 443.555 242.146 442.706 242.463 441.95C242.78 441.194 243.266 440.597 243.919 440.158C244.572 439.71 245.408 439.486 246.425 439.486C247.433 439.486 248.264 439.71 248.917 440.158C249.57 440.597 250.051 441.194 250.359 441.95C250.676 442.706 250.835 443.555 250.835 444.498V445.282C250.835 445.945 250.751 446.579 250.583 447.186C250.424 447.783 250.168 448.315 249.813 448.782C249.468 449.239 249.015 449.603 248.455 449.874C247.895 450.135 247.218 450.266 246.425 450.266ZM246.425 448.446C247.256 448.446 247.867 448.161 248.259 447.592C248.651 447.013 248.847 446.117 248.847 444.904C248.847 443.616 248.646 442.697 248.245 442.146C247.844 441.586 247.237 441.306 246.425 441.306C245.604 441.306 244.988 441.586 244.577 442.146C244.176 442.697 243.975 443.607 243.975 444.876C243.975 446.099 244.176 446.999 244.577 447.578C244.978 448.157 245.594 448.446 246.425 448.446ZM257.007 450.266C256.205 450.266 255.523 450.135 254.963 449.874C254.403 449.603 253.946 449.239 253.591 448.782C253.237 448.315 252.975 447.783 252.807 447.186C252.649 446.579 252.569 445.945 252.569 445.282V444.498C252.569 443.555 252.728 442.706 253.045 441.95C253.363 441.194 253.848 440.597 254.501 440.158C255.155 439.71 255.99 439.486 257.007 439.486C258.015 439.486 258.846 439.71 259.499 440.158C260.153 440.597 260.633 441.194 260.941 441.95C261.259 442.706 261.417 443.555 261.417 444.498V445.282C261.417 445.945 261.333 446.579 261.165 447.186C261.007 447.783 260.75 448.315 260.395 448.782C260.05 449.239 259.597 449.603 259.037 449.874C258.477 450.135 257.801 450.266 257.007 450.266ZM257.007 448.446C257.838 448.446 258.449 448.161 258.841 447.592C259.233 447.013 259.429 446.117 259.429 444.904C259.429 443.616 259.229 442.697 258.827 442.146C258.426 441.586 257.819 441.306 257.007 441.306C256.186 441.306 255.57 441.586 255.159 442.146C254.758 442.697 254.557 443.607 254.557 444.876C254.557 446.099 254.758 446.999 255.159 447.578C255.561 448.157 256.177 448.446 257.007 448.446Z" fill="#FF742C"/>
</g>
<path fill-rule="evenodd" clip-rule="evenodd" d="M359 438C360.105 438 361 438.895 361 440C361 441.105 360.105 442 359 442C357.895 442 357 441.105 357 440C357 438.895 357.895 438 359 438ZM359 431C360.105 431 361 431.895 361 433C361 434.105 360.105 435 359 435C357.895 435 357 434.105 357 433C357 431.895 357.895 431 359 431ZM359 424C360.105 424 361 424.895 361 426C361 427.105 360.105 428 359 428C357.895 428 357 427.105 357 426C357 424.895 357.895 424 359 424Z" fill="#FF742C"/>
<rect y="277" width="60" height="28" rx="14" fill="#346AFF"/>
<path d="M17.8181 295V287.056L18.3461 287.464H15.9461V286.24H19.2341V295H17.8181ZM24.8283 295.228C24.1803 295.228 23.6043 295.12 23.1003 294.904C22.6043 294.68 22.2163 294.368 21.9363 293.968C21.6563 293.568 21.5163 293.096 21.5163 292.552C21.5163 292.2 21.5803 291.884 21.7083 291.604C21.8443 291.316 22.0283 291.068 22.2603 290.86C22.4923 290.652 22.7603 290.492 23.0643 290.38V290.248C22.8243 290.152 22.6083 290.02 22.4163 289.852C22.2243 289.676 22.0723 289.468 21.9603 289.228C21.8483 288.988 21.7923 288.712 21.7923 288.4C21.7923 287.88 21.9283 287.444 22.2003 287.092C22.4803 286.74 22.8483 286.472 23.3043 286.288C23.7683 286.104 24.2763 286.012 24.8283 286.012C25.3963 286.012 25.9083 286.104 26.3643 286.288C26.8203 286.472 27.1843 286.74 27.4563 287.092C27.7283 287.444 27.8643 287.88 27.8643 288.4C27.8643 288.712 27.8083 288.988 27.6963 289.228C27.5923 289.468 27.4443 289.676 27.2523 289.852C27.0603 290.02 26.8403 290.152 26.5923 290.248V290.38C26.9043 290.492 27.1763 290.652 27.4083 290.86C27.6403 291.068 27.8203 291.316 27.9483 291.604C28.0843 291.884 28.1523 292.2 28.1523 292.552C28.1523 293.096 28.0123 293.568 27.7323 293.968C27.4523 294.368 27.0603 294.68 26.5563 294.904C26.0603 295.12 25.4843 295.228 24.8283 295.228ZM24.8283 294.028C25.2283 294.028 25.5723 293.968 25.8603 293.848C26.1483 293.72 26.3723 293.536 26.5323 293.296C26.6923 293.056 26.7723 292.772 26.7723 292.444C26.7723 292.116 26.6923 291.836 26.5323 291.604C26.3803 291.372 26.1603 291.192 25.8723 291.064C25.5843 290.936 25.2363 290.872 24.8283 290.872C24.4283 290.872 24.0843 290.936 23.7963 291.064C23.5083 291.192 23.2883 291.372 23.1363 291.604C22.9843 291.836 22.9083 292.116 22.9083 292.444C22.9083 292.772 22.9843 293.056 23.1363 293.296C23.2883 293.536 23.5083 293.72 23.7963 293.848C24.0843 293.968 24.4283 294.028 24.8283 294.028ZM24.8283 289.78C25.3323 289.78 25.7323 289.676 26.0283 289.468C26.3243 289.252 26.4723 288.924 26.4723 288.484C26.4723 288.044 26.3203 287.72 26.0163 287.512C25.7203 287.304 25.3243 287.2 24.8283 287.2C24.3323 287.2 23.9323 287.308 23.6283 287.524C23.3323 287.732 23.1843 288.052 23.1843 288.484C23.1843 288.924 23.3323 289.252 23.6283 289.468C23.9323 289.676 24.3323 289.78 24.8283 289.78ZM32.7579 295.216C32.0939 295.216 31.5259 295.092 31.0539 294.844C30.5819 294.588 30.2219 294.248 29.9739 293.824C29.7339 293.392 29.6139 292.92 29.6139 292.408H30.9939C30.9939 292.896 31.1499 293.284 31.4619 293.572C31.7819 293.86 32.2139 294.004 32.7579 294.004C33.1179 294.004 33.4259 293.94 33.6819 293.812C33.9459 293.676 34.1499 293.488 34.2939 293.248C34.4379 293 34.5099 292.712 34.5099 292.384C34.5099 291.896 34.3539 291.5 34.0419 291.196C33.7299 290.884 33.3019 290.728 32.7579 290.728C32.5179 290.728 32.3059 290.76 32.1219 290.824C31.9459 290.888 31.7899 290.968 31.6539 291.064L30.9699 289.876L34.0899 287.668L33.9699 287.452H29.9619V286.24H35.4939V287.908L32.6259 289.9L31.7379 289.84C31.8819 289.792 32.0379 289.752 32.2059 289.72C32.3819 289.688 32.5779 289.672 32.7939 289.672C33.4499 289.672 34.0059 289.792 34.4619 290.032C34.9259 290.264 35.2819 290.58 35.5299 290.98C35.7779 291.38 35.9019 291.828 35.9019 292.324V292.48C35.9019 292.968 35.7779 293.42 35.5299 293.836C35.2819 294.252 34.9259 294.588 34.4619 294.844C33.9979 295.092 33.4299 295.216 32.7579 295.216ZM40.7913 295.216C40.1113 295.216 39.5313 295.08 39.0513 294.808C38.5793 294.536 38.2193 294.176 37.9713 293.728C37.7233 293.272 37.5993 292.784 37.5993 292.264H38.9793C38.9793 292.6 39.0553 292.9 39.2073 293.164C39.3593 293.42 39.5713 293.624 39.8433 293.776C40.1153 293.928 40.4353 294.004 40.8033 294.004C41.1713 294.004 41.4913 293.928 41.7633 293.776C42.0433 293.624 42.2593 293.412 42.4113 293.14C42.5633 292.868 42.6393 292.56 42.6393 292.216C42.6393 291.872 42.5633 291.564 42.4113 291.292C42.2673 291.02 42.0553 290.804 41.7753 290.644C41.5033 290.476 41.1793 290.392 40.8033 290.392C40.5153 290.392 40.2313 290.448 39.9513 290.56C39.6713 290.664 39.4513 290.808 39.2913 290.992H37.9713L38.4153 286.24H43.2513V287.452H39.1233L39.5673 287.02L39.2553 290.236L38.8953 290.128C39.1273 289.872 39.4113 289.668 39.7473 289.516C40.0833 289.356 40.4833 289.276 40.9473 289.276C41.6113 289.276 42.1673 289.412 42.6153 289.684C43.0713 289.956 43.4193 290.312 43.6593 290.752C43.8993 291.184 44.0193 291.648 44.0193 292.144V292.3C44.0193 292.796 43.8953 293.268 43.6473 293.716C43.3993 294.156 43.0353 294.516 42.5553 294.796C42.0753 295.076 41.4873 295.216 40.7913 295.216Z" fill="white"/>
<line x1="402" y1="291" x2="60" y2="291" stroke="#346AFF" stroke-width="2"/>
</g>
<defs>
<clipPath id="clip0_1816_825">
<rect width="402" height="582" fill="white"/>
</clipPath>
<clipPath id="clip1_1816_825">
<rect x="74" y="-93" width="321" height="256" rx="24" fill="white"/>
</clipPath>
</defs>
</svg>
