<svg width="402" height="582" viewBox="0 0 402 582" fill="none" xmlns="http://www.w3.org/2000/svg">
<g clip-path="url(#clip0_1816_146)">
<g clip-path="url(#clip1_1816_146)">
<rect x="74" y="16" width="321" height="278" rx="24" fill="#D7E1FE"/>
<g opacity="0.15">
<rect x="-812" y="687" width="1398" height="10" transform="rotate(-50 -812 687)" fill="white"/>
<rect x="-140" y="687" width="1398" height="10" transform="rotate(-50 -140 687)" fill="white"/>
<rect x="-476" y="687" width="1398" height="10" transform="rotate(-50 -476 687)" fill="white"/>
<rect x="196" y="687" width="1398" height="10" transform="rotate(-50 196 687)" fill="white"/>
<rect x="-644" y="687" width="1398" height="10" transform="rotate(-50 -644 687)" fill="white"/>
<rect x="28" y="687" width="1398" height="10" transform="rotate(-50 28 687)" fill="white"/>
<rect x="-308" y="687" width="1398" height="10" transform="rotate(-50 -308 687)" fill="white"/>
<rect x="364" y="687" width="1398" height="10" transform="rotate(-50 364 687)" fill="white"/>
<rect x="-728" y="687" width="1398" height="10" transform="rotate(-50 -728 687)" fill="white"/>
<rect x="-56" y="687" width="1398" height="10" transform="rotate(-50 -56 687)" fill="white"/>
<rect x="-392" y="687" width="1398" height="10" transform="rotate(-50 -392 687)" fill="white"/>
<rect x="280" y="687" width="1398" height="10" transform="rotate(-50 280 687)" fill="white"/>
<rect x="-560" y="687" width="1398" height="10" transform="rotate(-50 -560 687)" fill="white"/>
<rect x="112" y="687" width="1398" height="10" transform="rotate(-50 112 687)" fill="white"/>
<rect x="-224" y="687" width="1398" height="10" transform="rotate(-50 -224 687)" fill="white"/>
<rect x="-784" y="687" width="1398" height="10" transform="rotate(-50 -784 687)" fill="white"/>
<rect x="-112" y="687" width="1398" height="10" transform="rotate(-50 -112 687)" fill="white"/>
<rect x="-448" y="687" width="1398" height="10" transform="rotate(-50 -448 687)" fill="white"/>
<rect x="224" y="687" width="1398" height="10" transform="rotate(-50 224 687)" fill="white"/>
<rect x="-616" y="687" width="1398" height="10" transform="rotate(-50 -616 687)" fill="white"/>
<rect x="56" y="687" width="1398" height="10" transform="rotate(-50 56 687)" fill="white"/>
<rect x="-280" y="687" width="1398" height="10" transform="rotate(-50 -280 687)" fill="white"/>
<rect x="392" y="687" width="1398" height="10" transform="rotate(-50 392 687)" fill="white"/>
<rect x="-700" y="687" width="1398" height="10" transform="rotate(-50 -700 687)" fill="white"/>
<rect x="-28" y="687" width="1398" height="10" transform="rotate(-50 -28 687)" fill="white"/>
<rect x="-364" y="687" width="1398" height="10" transform="rotate(-50 -364 687)" fill="white"/>
<rect x="308" y="687" width="1398" height="10" transform="rotate(-50 308 687)" fill="white"/>
<rect x="-532" y="687" width="1398" height="10" transform="rotate(-50 -532 687)" fill="white"/>
<rect x="140" y="687" width="1398" height="10" transform="rotate(-50 140 687)" fill="white"/>
<rect x="-196" y="687" width="1398" height="10" transform="rotate(-50 -196 687)" fill="white"/>
<rect x="-756" y="687" width="1398" height="10" transform="rotate(-50 -756 687)" fill="white"/>
<rect x="-84" y="687" width="1398" height="10" transform="rotate(-50 -84 687)" fill="white"/>
<rect x="-420" y="687" width="1398" height="10" transform="rotate(-50 -420 687)" fill="white"/>
<rect x="252" y="687" width="1398" height="10" transform="rotate(-50 252 687)" fill="white"/>
<rect x="-588" y="687" width="1398" height="10" transform="rotate(-50 -588 687)" fill="white"/>
<rect x="84" y="687" width="1398" height="10" transform="rotate(-50 84 687)" fill="white"/>
<rect x="-252" y="687" width="1398" height="10" transform="rotate(-50 -252 687)" fill="white"/>
<rect x="-672" y="687" width="1398" height="10" transform="rotate(-50 -672 687)" fill="white"/>
<rect y="687" width="1398" height="10" transform="rotate(-50 0 687)" fill="white"/>
<rect x="-336" y="687" width="1398" height="10" transform="rotate(-50 -336 687)" fill="white"/>
<rect x="336" y="687" width="1398" height="10" transform="rotate(-50 336 687)" fill="white"/>
<rect x="-504" y="687" width="1398" height="10" transform="rotate(-50 -504 687)" fill="white"/>
<rect x="168" y="687" width="1398" height="10" transform="rotate(-50 168 687)" fill="white"/>
<rect x="-168" y="687" width="1398" height="10" transform="rotate(-50 -168 687)" fill="white"/>
</g>
<rect x="98" y="44" width="40" height="40" rx="20" fill="#BFD0FD"/>
<path fill-rule="evenodd" clip-rule="evenodd" d="M127 54C126.36 54 125.746 54.2544 125.293 54.7071L122.4 57.5996C122.152 57.848 121.791 57.9479 121.451 57.8627L110 55L108.981 56.0189C108.591 56.4095 108.591 57.0426 108.981 57.4332C109.057 57.5092 109.145 57.5724 109.241 57.6205L118 62L114 66H109.618C109.239 66 108.893 66.214 108.724 66.5528L108 68L112 70L114 74L115.447 73.2764C115.786 73.107 116 72.7607 116 72.382V68L120 64L124.38 72.759C124.627 73.253 125.227 73.4533 125.721 73.2063C125.817 73.1582 125.905 73.0949 125.981 73.0189L127 72L124.137 60.5493C124.052 60.2085 124.152 59.848 124.4 59.5996L127.293 56.7071C127.746 56.2544 128 55.6403 128 55C128 54.4477 127.552 54 127 54Z" fill="#346AFF"/>
<path d="M157.36 59L154.384 47.32H156.736L159.152 57.48L158.528 57.112H160.128L159.424 57.48L161.328 47.768H163.28L160.912 59H157.36ZM164.336 59L161.76 47.768H163.792L165.984 57.48L165.296 57.112H166.864L166.256 57.48L168.384 47.32H170.608L167.952 59H164.336ZM177.309 59V56.424H176.941V53.56C176.941 53.0587 176.819 52.6853 176.573 52.44C176.328 52.1947 175.949 52.072 175.437 52.072C175.171 52.072 174.851 52.0773 174.477 52.088C174.104 52.0987 173.725 52.1147 173.341 52.136C172.968 52.1467 172.632 52.1627 172.333 52.184V50.296C172.579 50.2747 172.856 50.2533 173.165 50.232C173.475 50.2107 173.789 50.2 174.109 50.2C174.44 50.1893 174.749 50.184 175.037 50.184C175.933 50.184 176.675 50.3013 177.261 50.536C177.859 50.7707 178.307 51.1387 178.605 51.64C178.915 52.1413 179.069 52.7973 179.069 53.608V59H177.309ZM174.509 59.224C173.88 59.224 173.325 59.112 172.845 58.888C172.376 58.664 172.008 58.344 171.741 57.928C171.485 57.512 171.357 57.0107 171.357 56.424C171.357 55.784 171.512 55.2613 171.821 54.856C172.141 54.4507 172.584 54.1467 173.149 53.944C173.725 53.7413 174.397 53.64 175.165 53.64H177.181V54.968H175.133C174.621 54.968 174.227 55.096 173.949 55.352C173.683 55.5973 173.549 55.9173 173.549 56.312C173.549 56.7067 173.683 57.0267 173.949 57.272C174.227 57.5173 174.621 57.64 175.133 57.64C175.443 57.64 175.725 57.5867 175.981 57.48C176.248 57.3627 176.467 57.1707 176.637 56.904C176.819 56.6267 176.92 56.2533 176.941 55.784L177.485 56.408C177.432 57.016 177.283 57.528 177.037 57.944C176.803 58.36 176.472 58.68 176.045 58.904C175.629 59.1173 175.117 59.224 174.509 59.224ZM181.452 59V50.312H183.212V53.992H183.164C183.164 52.744 183.43 51.8 183.964 51.16C184.497 50.52 185.281 50.2 186.316 50.2H186.636V52.136H186.028C185.281 52.136 184.7 52.3387 184.284 52.744C183.878 53.1387 183.676 53.7147 183.676 54.472V59H181.452ZM191.275 59.272C190.081 59.272 189.142 59.0213 188.459 58.52C187.787 58.008 187.435 57.304 187.403 56.408H189.403C189.435 56.7067 189.601 56.9787 189.899 57.224C190.198 57.4693 190.667 57.592 191.307 57.592C191.841 57.592 192.262 57.496 192.571 57.304C192.891 57.112 193.051 56.8507 193.051 56.52C193.051 56.232 192.929 56.0027 192.683 55.832C192.449 55.6613 192.043 55.5493 191.467 55.496L190.699 55.416C189.729 55.3093 188.982 55.032 188.459 54.584C187.937 54.136 187.675 53.5387 187.675 52.792C187.675 52.1947 187.825 51.6933 188.123 51.288C188.422 50.8827 188.833 50.5787 189.355 50.376C189.889 50.1627 190.497 50.056 191.179 50.056C192.246 50.056 193.11 50.2907 193.771 50.76C194.433 51.2293 194.779 51.9173 194.811 52.824H192.811C192.79 52.5253 192.641 52.2693 192.363 52.056C192.086 51.8427 191.686 51.736 191.163 51.736C190.694 51.736 190.331 51.8267 190.075 52.008C189.819 52.1893 189.691 52.424 189.691 52.712C189.691 52.9893 189.793 53.2027 189.995 53.352C190.209 53.5013 190.55 53.6027 191.019 53.656L191.787 53.736C192.811 53.8427 193.611 54.1253 194.187 54.584C194.774 55.0427 195.067 55.6613 195.067 56.44C195.067 57.016 194.907 57.5173 194.587 57.944C194.278 58.36 193.841 58.6853 193.275 58.92C192.71 59.1547 192.043 59.272 191.275 59.272ZM202.169 59V56.424H201.801V53.56C201.801 53.0587 201.678 52.6853 201.433 52.44C201.187 52.1947 200.809 52.072 200.297 52.072C200.03 52.072 199.71 52.0773 199.337 52.088C198.963 52.0987 198.585 52.1147 198.201 52.136C197.827 52.1467 197.491 52.1627 197.193 52.184V50.296C197.438 50.2747 197.715 50.2533 198.025 50.232C198.334 50.2107 198.649 50.2 198.969 50.2C199.299 50.1893 199.609 50.184 199.897 50.184C200.793 50.184 201.534 50.3013 202.121 50.536C202.718 50.7707 203.166 51.1387 203.465 51.64C203.774 52.1413 203.929 52.7973 203.929 53.608V59H202.169ZM199.369 59.224C198.739 59.224 198.185 59.112 197.705 58.888C197.235 58.664 196.867 58.344 196.601 57.928C196.345 57.512 196.217 57.0107 196.217 56.424C196.217 55.784 196.371 55.2613 196.681 54.856C197.001 54.4507 197.443 54.1467 198.009 53.944C198.585 53.7413 199.257 53.64 200.025 53.64H202.041V54.968H199.993C199.481 54.968 199.086 55.096 198.809 55.352C198.542 55.5973 198.409 55.9173 198.409 56.312C198.409 56.7067 198.542 57.0267 198.809 57.272C199.086 57.5173 199.481 57.64 199.993 57.64C200.302 57.64 200.585 57.5867 200.841 57.48C201.107 57.3627 201.326 57.1707 201.497 56.904C201.678 56.6267 201.779 56.2533 201.801 55.784L202.345 56.408C202.291 57.016 202.142 57.528 201.897 57.944C201.662 58.36 201.331 58.68 200.905 58.904C200.489 59.1173 199.977 59.224 199.369 59.224ZM209.178 59L210.826 50.6H213.385L215.29 59H213.53L211.594 50.648H212.522L210.81 59H209.178ZM208.522 59L208.506 57.176H210.282V59H208.522ZM207.626 59L205.258 50.312H207.418L209.674 59H207.626ZM214.09 59V57.176H215.866L215.85 59H214.09ZM214.794 59L216.794 50.312H218.81L216.714 59H214.794Z" fill="#346AFF"/>
<path d="M236.78 50.2343C236.487 49.9219 236.013 49.9219 235.72 50.2343C235.427 50.5467 235.427 51.0533 235.72 51.3657L237.439 53.2H228.75C228.336 53.2 228 53.5582 228 54C228 54.4418 228.336 54.8 228.75 54.8H237.439L235.72 56.6343C235.427 56.9467 235.427 57.4533 235.72 57.7657C236.013 58.0781 236.487 58.0781 236.78 57.7657L239.78 54.5657C240.073 54.2533 240.073 53.7467 239.78 53.4343L236.78 50.2343Z" fill="#346AFF"/>
<path d="M249.44 59V47.24H251.712V59H249.44ZM256.576 59L252.992 53.912H255.536L259.232 59H256.576ZM251.04 55.096V53.256H254.016C254.432 53.256 254.789 53.1707 255.088 53C255.397 52.8293 255.637 52.5893 255.808 52.28C255.979 51.9707 256.064 51.6187 256.064 51.224C256.064 50.8187 255.979 50.4613 255.808 50.152C255.637 49.8427 255.397 49.6027 255.088 49.432C254.789 49.2613 254.432 49.176 254.016 49.176H251.04V47.24H253.776C254.715 47.24 255.525 47.3787 256.208 47.656C256.901 47.9333 257.435 48.3547 257.808 48.92C258.181 49.4853 258.368 50.1947 258.368 51.048V51.304C258.368 52.168 258.176 52.8773 257.792 53.432C257.419 53.9867 256.891 54.4027 256.208 54.68C255.525 54.9573 254.715 55.096 253.776 55.096H251.04ZM264.799 59.304C264.031 59.304 263.354 59.1813 262.767 58.936C262.181 58.6907 261.685 58.36 261.279 57.944C260.874 57.5173 260.565 57.0373 260.351 56.504C260.149 55.9707 260.047 55.416 260.047 54.84V54.504C260.047 53.9067 260.154 53.3413 260.367 52.808C260.591 52.264 260.906 51.784 261.311 51.368C261.727 50.9413 262.229 50.6107 262.815 50.376C263.402 50.1307 264.063 50.008 264.799 50.008C265.535 50.008 266.197 50.1307 266.783 50.376C267.37 50.6107 267.866 50.9413 268.271 51.368C268.687 51.784 269.002 52.264 269.215 52.808C269.429 53.3413 269.535 53.9067 269.535 54.504V54.84C269.535 55.416 269.429 55.9707 269.215 56.504C269.013 57.0373 268.709 57.5173 268.303 57.944C267.898 58.36 267.402 58.6907 266.815 58.936C266.229 59.1813 265.557 59.304 264.799 59.304ZM264.799 57.4C265.343 57.4 265.802 57.2827 266.175 57.048C266.549 56.8027 266.831 56.4773 267.023 56.072C267.215 55.656 267.311 55.1867 267.311 54.664C267.311 54.1307 267.21 53.6613 267.007 53.256C266.815 52.84 266.527 52.5147 266.143 52.28C265.77 52.0347 265.322 51.912 264.799 51.912C264.277 51.912 263.823 52.0347 263.439 52.28C263.066 52.5147 262.778 52.84 262.575 53.256C262.373 53.6613 262.271 54.1307 262.271 54.664C262.271 55.1867 262.367 55.656 262.559 56.072C262.762 56.4773 263.05 56.8027 263.423 57.048C263.797 57.2827 264.255 57.4 264.799 57.4ZM271.483 59V50.312H273.243V54.04H273.083C273.083 53.1653 273.195 52.4347 273.419 51.848C273.643 51.2507 273.973 50.8027 274.411 50.504C274.859 50.1947 275.413 50.04 276.075 50.04H276.171C276.843 50.04 277.397 50.1947 277.835 50.504C278.283 50.8027 278.613 51.2507 278.827 51.848C279.051 52.4347 279.163 53.1653 279.163 54.04H278.603C278.603 53.1653 278.715 52.4347 278.939 51.848C279.173 51.2507 279.509 50.8027 279.947 50.504C280.395 50.1947 280.949 50.04 281.611 50.04H281.707C282.379 50.04 282.939 50.1947 283.387 50.504C283.835 50.8027 284.171 51.2507 284.395 51.848C284.629 52.4347 284.747 53.1653 284.747 54.04V59H282.523V53.832C282.523 53.288 282.384 52.856 282.107 52.536C281.829 52.2053 281.435 52.04 280.923 52.04C280.411 52.04 280 52.2107 279.691 52.552C279.381 52.8827 279.227 53.3307 279.227 53.896V59H277.003V53.832C277.003 53.288 276.864 52.856 276.587 52.536C276.309 52.2053 275.915 52.04 275.403 52.04C274.891 52.04 274.48 52.2107 274.171 52.552C273.861 52.8827 273.707 53.3307 273.707 53.896V59H271.483ZM291.011 59.304C290.265 59.304 289.609 59.176 289.043 58.92C288.489 58.664 288.025 58.3227 287.651 57.896C287.289 57.4587 287.011 56.9733 286.819 56.44C286.638 55.9067 286.547 55.3627 286.547 54.808V54.504C286.547 53.928 286.638 53.3733 286.819 52.84C287.011 52.296 287.289 51.816 287.651 51.4C288.025 50.9733 288.483 50.6373 289.027 50.392C289.571 50.136 290.201 50.008 290.915 50.008C291.854 50.008 292.638 50.216 293.267 50.632C293.907 51.0373 294.387 51.576 294.707 52.248C295.027 52.9093 295.187 53.624 295.187 54.392V55.192H287.491V53.832H293.795L293.107 54.504C293.107 53.9493 293.027 53.4747 292.867 53.08C292.707 52.6853 292.462 52.3813 292.131 52.168C291.811 51.9547 291.406 51.848 290.915 51.848C290.425 51.848 290.009 51.96 289.667 52.184C289.326 52.408 289.065 52.7333 288.883 53.16C288.713 53.576 288.627 54.0773 288.627 54.664C288.627 55.208 288.713 55.6933 288.883 56.12C289.054 56.536 289.315 56.8667 289.667 57.112C290.019 57.3467 290.467 57.464 291.011 57.464C291.555 57.464 291.998 57.3573 292.339 57.144C292.681 56.92 292.899 56.648 292.995 56.328H295.043C294.915 56.9253 294.67 57.448 294.307 57.896C293.945 58.344 293.481 58.6907 292.915 58.936C292.361 59.1813 291.726 59.304 291.011 59.304Z" fill="#346AFF"/>
<g opacity="0.64">
<path d="M158.592 81.28C157.808 81.28 157.117 81.154 156.52 80.902C155.923 80.65 155.456 80.2907 155.12 79.824C154.784 79.3573 154.616 78.802 154.616 78.158C154.616 77.7287 154.691 77.3507 154.84 77.024C154.989 76.688 155.195 76.4033 155.456 76.17C155.717 75.9273 156.025 75.7453 156.38 75.624V75.456C156.109 75.3347 155.862 75.176 155.638 74.98C155.423 74.784 155.251 74.546 155.12 74.266C154.999 73.986 154.938 73.664 154.938 73.3C154.938 72.684 155.097 72.1707 155.414 71.76C155.741 71.34 156.179 71.0273 156.73 70.822C157.29 70.6073 157.911 70.5 158.592 70.5C159.283 70.5 159.903 70.6073 160.454 70.822C161.014 71.0273 161.453 71.34 161.77 71.76C162.097 72.1707 162.26 72.684 162.26 73.3C162.26 73.664 162.195 73.986 162.064 74.266C161.943 74.546 161.775 74.784 161.56 74.98C161.345 75.176 161.098 75.3347 160.818 75.456V75.624C161.173 75.7453 161.481 75.9273 161.742 76.17C162.013 76.4127 162.218 76.702 162.358 77.038C162.507 77.3647 162.582 77.738 162.582 78.158C162.582 78.802 162.414 79.3573 162.078 79.824C161.751 80.2907 161.289 80.65 160.692 80.902C160.095 81.154 159.395 81.28 158.592 81.28ZM158.592 79.642C159.021 79.642 159.39 79.5767 159.698 79.446C160.006 79.3153 160.244 79.124 160.412 78.872C160.58 78.62 160.664 78.3167 160.664 77.962C160.664 77.6073 160.58 77.3087 160.412 77.066C160.253 76.814 160.015 76.6227 159.698 76.492C159.39 76.3613 159.021 76.296 158.592 76.296C158.172 76.296 157.808 76.3613 157.5 76.492C157.192 76.6227 156.954 76.814 156.786 77.066C156.618 77.3087 156.534 77.6073 156.534 77.962C156.534 78.3167 156.618 78.62 156.786 78.872C156.954 79.124 157.192 79.3153 157.5 79.446C157.808 79.5767 158.172 79.642 158.592 79.642ZM158.592 74.812C159.133 74.812 159.558 74.7 159.866 74.476C160.183 74.2427 160.342 73.9067 160.342 73.468C160.342 73.0107 160.183 72.6747 159.866 72.46C159.549 72.2453 159.124 72.138 158.592 72.138C158.06 72.138 157.635 72.25 157.318 72.474C157.01 72.6887 156.856 73.02 156.856 73.468C156.856 73.9067 157.015 74.2427 157.332 74.476C157.649 74.7 158.069 74.812 158.592 74.812ZM163.999 81V78.76H166.183V81H163.999ZM163.999 76.17V73.93H166.183V76.17H163.999ZM172.267 81.266C171.464 81.266 170.783 81.1353 170.223 80.874C169.663 80.6033 169.206 80.2393 168.851 79.782C168.496 79.3153 168.235 78.7833 168.067 78.186C167.908 77.5793 167.829 76.9447 167.829 76.282V75.498C167.829 74.5553 167.988 73.706 168.305 72.95C168.622 72.194 169.108 71.5967 169.761 71.158C170.414 70.71 171.25 70.486 172.267 70.486C173.275 70.486 174.106 70.71 174.759 71.158C175.412 71.5967 175.893 72.194 176.201 72.95C176.518 73.706 176.677 74.5553 176.677 75.498V76.282C176.677 76.9447 176.593 77.5793 176.425 78.186C176.266 78.7833 176.01 79.3153 175.655 79.782C175.31 80.2393 174.857 80.6033 174.297 80.874C173.737 81.1353 173.06 81.266 172.267 81.266ZM172.267 79.446C173.098 79.446 173.709 79.1613 174.101 78.592C174.493 78.0133 174.689 77.1173 174.689 75.904C174.689 74.616 174.488 73.6967 174.087 73.146C173.686 72.586 173.079 72.306 172.267 72.306C171.446 72.306 170.83 72.586 170.419 73.146C170.018 73.6967 169.817 74.6067 169.817 75.876C169.817 77.0987 170.018 77.9993 170.419 78.578C170.82 79.1567 171.436 79.446 172.267 79.446ZM182.849 81.266C182.046 81.266 181.365 81.1353 180.805 80.874C180.245 80.6033 179.788 80.2393 179.433 79.782C179.078 79.3153 178.817 78.7833 178.649 78.186C178.49 77.5793 178.411 76.9447 178.411 76.282V75.498C178.411 74.5553 178.57 73.706 178.887 72.95C179.204 72.194 179.69 71.5967 180.343 71.158C180.996 70.71 181.832 70.486 182.849 70.486C183.857 70.486 184.688 70.71 185.341 71.158C185.994 71.5967 186.475 72.194 186.783 72.95C187.1 73.706 187.259 74.5553 187.259 75.498V76.282C187.259 76.9447 187.175 77.5793 187.007 78.186C186.848 78.7833 186.592 79.3153 186.237 79.782C185.892 80.2393 185.439 80.6033 184.879 80.874C184.319 81.1353 183.642 81.266 182.849 81.266ZM182.849 79.446C183.68 79.446 184.291 79.1613 184.683 78.592C185.075 78.0133 185.271 77.1173 185.271 75.904C185.271 74.616 185.07 73.6967 184.669 73.146C184.268 72.586 183.661 72.306 182.849 72.306C182.028 72.306 181.412 72.586 181.001 73.146C180.6 73.6967 180.399 74.6067 180.399 75.876C180.399 77.0987 180.6 77.9993 181.001 78.578C181.402 79.1567 182.018 79.446 182.849 79.446Z" fill="#346AFF"/>
<path d="M198.218 78.858V75.064H201.858V78.858H198.218Z" fill="#346AFF"/>
<path d="M216.508 70.486C217.264 70.486 217.903 70.6167 218.426 70.878C218.958 71.13 219.387 71.48 219.714 71.928C220.041 72.376 220.279 72.8987 220.428 73.496C220.577 74.084 220.652 74.7093 220.652 75.372V75.988C220.652 77.6587 220.227 78.928 219.378 79.796C218.538 80.6547 217.301 81.084 215.668 81.084C215.313 81.084 214.982 81.0747 214.674 81.056C214.366 81.0373 214.058 81.0093 213.75 80.972V79.306C214.058 79.3433 214.371 79.3713 214.688 79.39C215.015 79.4087 215.365 79.418 215.738 79.418C216.522 79.418 217.138 79.2827 217.586 79.012C218.034 78.7413 218.351 78.3447 218.538 77.822C218.734 77.2993 218.832 76.6507 218.832 75.876V74.966L219.28 74.322C219.271 75.0407 219.126 75.638 218.846 76.114C218.575 76.5807 218.197 76.9353 217.712 77.178C217.227 77.4113 216.671 77.528 216.046 77.528C215.318 77.528 214.697 77.3833 214.184 77.094C213.671 76.8047 213.274 76.4033 212.994 75.89C212.723 75.3767 212.588 74.7793 212.588 74.098C212.588 73.3887 212.747 72.7633 213.064 72.222C213.381 71.6713 213.829 71.2467 214.408 70.948C214.996 70.64 215.696 70.486 216.508 70.486ZM216.55 72.152C216.111 72.152 215.738 72.236 215.43 72.404C215.122 72.5627 214.889 72.7867 214.73 73.076C214.571 73.3653 214.492 73.6967 214.492 74.07C214.492 74.4527 214.567 74.7887 214.716 75.078C214.875 75.3673 215.103 75.5913 215.402 75.75C215.701 75.9087 216.06 75.988 216.48 75.988C216.881 75.988 217.245 75.918 217.572 75.778C217.908 75.6287 218.169 75.414 218.356 75.134C218.552 74.8447 218.65 74.49 218.65 74.07C218.65 73.706 218.571 73.3793 218.412 73.09C218.263 72.8007 218.029 72.572 217.712 72.404C217.404 72.236 217.017 72.152 216.55 72.152ZM222.286 81V78.76H224.47V81H222.286ZM222.286 76.17V73.93H224.47V76.17H222.286ZM227.838 81V72.012L228.454 72.488H225.752V70.78H229.812V81H227.838ZM235.717 81.266C234.915 81.266 234.224 81.1073 233.645 80.79C233.076 80.4727 232.637 80.0527 232.329 79.53C232.031 78.998 231.881 78.4193 231.881 77.794H233.799C233.799 78.1487 233.879 78.4613 234.037 78.732C234.205 79.0027 234.434 79.2173 234.723 79.376C235.013 79.5253 235.349 79.6 235.731 79.6C236.133 79.6 236.478 79.516 236.767 79.348C237.057 79.18 237.276 78.9513 237.425 78.662C237.584 78.3727 237.663 78.0413 237.663 77.668C237.663 77.304 237.584 76.9773 237.425 76.688C237.276 76.3893 237.057 76.156 236.767 75.988C236.487 75.8107 236.147 75.722 235.745 75.722C235.409 75.722 235.092 75.7873 234.793 75.918C234.495 76.0487 234.261 76.2213 234.093 76.436H232.259L232.777 70.78H238.699V72.474H233.645L234.345 71.928L234.009 75.456L233.533 75.316C233.804 75.008 234.135 74.7513 234.527 74.546C234.919 74.3407 235.414 74.238 236.011 74.238C236.767 74.238 237.411 74.392 237.943 74.7C238.475 75.008 238.881 75.4187 239.161 75.932C239.441 76.436 239.581 76.9867 239.581 77.584V77.766C239.581 78.3727 239.432 78.942 239.133 79.474C238.835 80.006 238.396 80.44 237.817 80.776C237.248 81.1027 236.548 81.266 235.717 81.266Z" fill="#346AFF"/>
</g>
<path fill-rule="evenodd" clip-rule="evenodd" d="M359 69C360.105 69 361 69.8954 361 71C361 72.1046 360.105 73 359 73C357.895 73 357 72.1046 357 71C357 69.8954 357.895 69 359 69ZM359 62C360.105 62 361 62.8954 361 64C361 65.1046 360.105 66 359 66C357.895 66 357 65.1046 357 64C357 62.8954 357.895 62 359 62ZM359 55C360.105 55 361 55.8954 361 57C361 58.1046 360.105 59 359 59C357.895 59 357 58.1046 357 57C357 55.8954 357.895 55 359 55Z" fill="#346AFF"/>
</g>
<rect x="74" y="352" width="321" height="96" rx="24" fill="#008556" fill-opacity="0.1"/>
<rect x="98" y="380" width="40" height="40" rx="20" fill="#02AF72" fill-opacity="0.15"/>
<path d="M117.286 392.857C116.891 392.857 116.571 393.177 116.571 393.571C116.571 393.966 116.891 394.286 117.286 394.286H118.714C119.109 394.286 119.429 393.966 119.429 393.571C119.429 393.177 119.109 392.857 118.714 392.857H117.286ZM113.571 390C111.283 390 109.429 391.855 109.429 394.143V397.143H108.714C108.32 397.143 108 397.463 108 397.857C108 398.252 108.32 398.571 108.714 398.571H109.429V408.143C109.429 409.169 110.26 410 111.286 410H113.286C114.311 410 115.143 409.169 115.143 408.143V407.143H120.857V408.143C120.857 409.169 121.689 410 122.714 410H124.714C125.74 410 126.571 409.169 126.571 408.143V398.571H127.286C127.68 398.571 128 398.252 128 397.857C128 397.463 127.68 397.143 127.286 397.143H126.571V394.143C126.571 391.855 124.717 390 122.429 390H113.571ZM125.143 394.143V400H110.857V394.143C110.857 392.644 112.072 391.429 113.571 391.429H122.429C123.928 391.429 125.143 392.644 125.143 394.143ZM125.143 407.143V408.143C125.143 408.38 124.951 408.571 124.714 408.571H122.714C122.478 408.571 122.286 408.38 122.286 408.143V407.143H125.143ZM113.714 407.143V408.143C113.714 408.38 113.522 408.571 113.286 408.571H111.286C111.049 408.571 110.857 408.38 110.857 408.143V407.143H113.714ZM115.857 403.214C115.857 403.806 115.377 404.286 114.786 404.286C114.194 404.286 113.714 403.806 113.714 403.214C113.714 402.623 114.194 402.143 114.786 402.143C115.377 402.143 115.857 402.623 115.857 403.214ZM121.214 404.286C120.623 404.286 120.143 403.806 120.143 403.214C120.143 402.623 120.623 402.143 121.214 402.143C121.806 402.143 122.286 402.623 122.286 403.214C122.286 403.806 121.806 404.286 121.214 404.286Z" fill="#02AF72"/>
<path d="M157.344 395.08V393.256H160.272C160.805 393.256 161.211 393.112 161.488 392.824C161.765 392.525 161.904 392.12 161.904 391.608C161.904 391.096 161.765 390.701 161.488 390.424C161.211 390.136 160.805 389.992 160.272 389.992H157.344V388.6H160.112C160.891 388.6 161.584 388.696 162.192 388.888C162.811 389.069 163.291 389.379 163.632 389.816C163.984 390.253 164.16 390.84 164.16 391.576V391.8C164.16 392.493 164.005 393.085 163.696 393.576C163.397 394.056 162.944 394.429 162.336 394.696C161.739 394.952 160.997 395.08 160.112 395.08H157.344ZM155.44 395.08V383.24H157.664V395.08H155.44ZM157.344 389.624V388.232H159.84C160.384 388.232 160.784 388.088 161.04 387.8C161.296 387.512 161.424 387.128 161.424 386.648C161.424 386.168 161.296 385.784 161.04 385.496C160.784 385.208 160.384 385.064 159.84 385.064H157.344V383.24H159.632C160.955 383.24 161.957 383.517 162.64 384.072C163.333 384.627 163.68 385.421 163.68 386.456V386.68C163.68 387.405 163.504 387.987 163.152 388.424C162.811 388.851 162.336 389.16 161.728 389.352C161.12 389.533 160.421 389.624 159.632 389.624H157.344ZM169.24 395.272C168.237 395.272 167.458 394.941 166.904 394.28C166.36 393.619 166.088 392.637 166.088 391.336V386.296H168.312V391.528C168.312 392.061 168.461 392.488 168.76 392.808C169.058 393.117 169.464 393.272 169.976 393.272C170.488 393.272 170.904 393.107 171.224 392.776C171.554 392.445 171.72 391.997 171.72 391.432V386.296H173.944V395H172.184V391.304H172.36C172.36 392.179 172.248 392.909 172.024 393.496C171.8 394.083 171.464 394.525 171.016 394.824C170.568 395.123 170.008 395.272 169.336 395.272H169.24ZM179.65 395.272C178.456 395.272 177.517 395.021 176.834 394.52C176.162 394.008 175.81 393.304 175.778 392.408H177.778C177.81 392.707 177.976 392.979 178.274 393.224C178.573 393.469 179.042 393.592 179.682 393.592C180.216 393.592 180.637 393.496 180.946 393.304C181.266 393.112 181.426 392.851 181.426 392.52C181.426 392.232 181.304 392.003 181.058 391.832C180.824 391.661 180.418 391.549 179.842 391.496L179.074 391.416C178.104 391.309 177.357 391.032 176.834 390.584C176.312 390.136 176.05 389.539 176.05 388.792C176.05 388.195 176.2 387.693 176.498 387.288C176.797 386.883 177.208 386.579 177.73 386.376C178.264 386.163 178.872 386.056 179.554 386.056C180.621 386.056 181.485 386.291 182.146 386.76C182.808 387.229 183.154 387.917 183.186 388.824H181.186C181.165 388.525 181.016 388.269 180.738 388.056C180.461 387.843 180.061 387.736 179.538 387.736C179.069 387.736 178.706 387.827 178.45 388.008C178.194 388.189 178.066 388.424 178.066 388.712C178.066 388.989 178.168 389.203 178.37 389.352C178.584 389.501 178.925 389.603 179.394 389.656L180.162 389.736C181.186 389.843 181.986 390.125 182.562 390.584C183.149 391.043 183.442 391.661 183.442 392.44C183.442 393.016 183.282 393.517 182.962 393.944C182.653 394.36 182.216 394.685 181.65 394.92C181.085 395.155 180.418 395.272 179.65 395.272ZM192.509 395.112C191.709 395.112 191.047 395.011 190.525 394.808C190.013 394.595 189.629 394.243 189.373 393.752C189.117 393.251 188.989 392.579 188.989 391.736L189.005 383.864H191.085L191.069 391.88C191.069 392.307 191.181 392.637 191.405 392.872C191.639 393.096 191.97 393.208 192.397 393.208H193.757V395.112H192.509ZM187.613 387.944V386.312H193.757V387.944H187.613ZM195.623 395V386.312H197.383V389.992H197.335C197.335 388.744 197.602 387.8 198.135 387.16C198.669 386.52 199.453 386.2 200.487 386.2H200.807V388.136H200.199C199.453 388.136 198.871 388.339 198.455 388.744C198.05 389.139 197.847 389.715 197.847 390.472V395H195.623ZM207.512 395V392.424H207.144V389.56C207.144 389.059 207.022 388.685 206.776 388.44C206.531 388.195 206.152 388.072 205.64 388.072C205.374 388.072 205.054 388.077 204.68 388.088C204.307 388.099 203.928 388.115 203.544 388.136C203.171 388.147 202.835 388.163 202.536 388.184V386.296C202.782 386.275 203.059 386.253 203.368 386.232C203.678 386.211 203.992 386.2 204.312 386.2C204.643 386.189 204.952 386.184 205.24 386.184C206.136 386.184 206.878 386.301 207.464 386.536C208.062 386.771 208.51 387.139 208.808 387.64C209.118 388.141 209.272 388.797 209.272 389.608V395H207.512ZM204.712 395.224C204.083 395.224 203.528 395.112 203.048 394.888C202.579 394.664 202.211 394.344 201.944 393.928C201.688 393.512 201.56 393.011 201.56 392.424C201.56 391.784 201.715 391.261 202.024 390.856C202.344 390.451 202.787 390.147 203.352 389.944C203.928 389.741 204.6 389.64 205.368 389.64H207.384V390.968H205.336C204.824 390.968 204.43 391.096 204.152 391.352C203.886 391.597 203.752 391.917 203.752 392.312C203.752 392.707 203.886 393.027 204.152 393.272C204.43 393.517 204.824 393.64 205.336 393.64C205.646 393.64 205.928 393.587 206.184 393.48C206.451 393.363 206.67 393.171 206.84 392.904C207.022 392.627 207.123 392.253 207.144 391.784L207.688 392.408C207.635 393.016 207.486 393.528 207.24 393.944C207.006 394.36 206.675 394.68 206.248 394.904C205.832 395.117 205.32 395.224 204.712 395.224ZM211.655 395V386.312H213.415V390.04H213.255C213.255 389.155 213.372 388.419 213.607 387.832C213.841 387.235 214.188 386.787 214.647 386.488C215.116 386.189 215.697 386.04 216.391 386.04H216.487C217.521 386.04 218.305 386.376 218.839 387.048C219.372 387.709 219.639 388.701 219.639 390.024V395H217.415V389.832C217.415 389.299 217.26 388.867 216.951 388.536C216.652 388.205 216.236 388.04 215.703 388.04C215.159 388.04 214.716 388.211 214.375 388.552C214.044 388.883 213.879 389.331 213.879 389.896V395H211.655ZM225.182 395.272C223.987 395.272 223.048 395.021 222.366 394.52C221.694 394.008 221.342 393.304 221.31 392.408H223.31C223.342 392.707 223.507 392.979 223.806 393.224C224.104 393.469 224.574 393.592 225.214 393.592C225.747 393.592 226.168 393.496 226.478 393.304C226.798 393.112 226.958 392.851 226.958 392.52C226.958 392.232 226.835 392.003 226.59 391.832C226.355 391.661 225.95 391.549 225.374 391.496L224.606 391.416C223.635 391.309 222.888 391.032 222.366 390.584C221.843 390.136 221.582 389.539 221.582 388.792C221.582 388.195 221.731 387.693 222.03 387.288C222.328 386.883 222.739 386.579 223.262 386.376C223.795 386.163 224.403 386.056 225.086 386.056C226.152 386.056 227.016 386.291 227.678 386.76C228.339 387.229 228.686 387.917 228.718 388.824H226.718C226.696 388.525 226.547 388.269 226.27 388.056C225.992 387.843 225.592 387.736 225.07 387.736C224.6 387.736 224.238 387.827 223.982 388.008C223.726 388.189 223.598 388.424 223.598 388.712C223.598 388.989 223.699 389.203 223.902 389.352C224.115 389.501 224.456 389.603 224.926 389.656L225.694 389.736C226.718 389.843 227.518 390.125 228.094 390.584C228.68 391.043 228.974 391.661 228.974 392.44C228.974 393.016 228.814 393.517 228.494 393.944C228.184 394.36 227.747 394.685 227.182 394.92C226.616 395.155 225.95 395.272 225.182 395.272ZM231.019 395V386.104C231.019 385.112 231.291 384.381 231.835 383.912C232.39 383.432 233.206 383.192 234.283 383.192H235.371V384.904H234.123C233.792 384.904 233.536 384.995 233.355 385.176C233.184 385.347 233.099 385.592 233.099 385.912V395H231.019ZM229.931 388.088V386.456H235.515V388.088H229.931ZM240.746 395.304C239.999 395.304 239.343 395.176 238.778 394.92C238.223 394.664 237.759 394.323 237.386 393.896C237.023 393.459 236.746 392.973 236.554 392.44C236.372 391.907 236.282 391.363 236.282 390.808V390.504C236.282 389.928 236.372 389.373 236.554 388.84C236.746 388.296 237.023 387.816 237.386 387.4C237.759 386.973 238.218 386.637 238.762 386.392C239.306 386.136 239.935 386.008 240.65 386.008C241.588 386.008 242.372 386.216 243.002 386.632C243.642 387.037 244.122 387.576 244.442 388.248C244.762 388.909 244.922 389.624 244.922 390.392V391.192H237.226V389.832H243.53L242.842 390.504C242.842 389.949 242.762 389.475 242.602 389.08C242.442 388.685 242.196 388.381 241.866 388.168C241.546 387.955 241.14 387.848 240.65 387.848C240.159 387.848 239.743 387.96 239.402 388.184C239.06 388.408 238.799 388.733 238.618 389.16C238.447 389.576 238.362 390.077 238.362 390.664C238.362 391.208 238.447 391.693 238.618 392.12C238.788 392.536 239.05 392.867 239.402 393.112C239.754 393.347 240.202 393.464 240.746 393.464C241.29 393.464 241.732 393.357 242.074 393.144C242.415 392.92 242.634 392.648 242.73 392.328H244.778C244.65 392.925 244.404 393.448 244.042 393.896C243.679 394.344 243.215 394.691 242.65 394.936C242.095 395.181 241.46 395.304 240.746 395.304ZM246.78 395V386.312H248.54V389.992H248.492C248.492 388.744 248.758 387.8 249.292 387.16C249.825 386.52 250.609 386.2 251.644 386.2H251.964V388.136H251.356C250.609 388.136 250.028 388.339 249.612 388.744C249.206 389.139 249.004 389.715 249.004 390.472V395H246.78Z" fill="#02AF72"/>
<g opacity="0.64">
<path d="M158.508 406.486C159.264 406.486 159.903 406.617 160.426 406.878C160.958 407.13 161.387 407.48 161.714 407.928C162.041 408.376 162.279 408.899 162.428 409.496C162.577 410.084 162.652 410.709 162.652 411.372V411.988C162.652 413.659 162.227 414.928 161.378 415.796C160.538 416.655 159.301 417.084 157.668 417.084C157.313 417.084 156.982 417.075 156.674 417.056C156.366 417.037 156.058 417.009 155.75 416.972V415.306C156.058 415.343 156.371 415.371 156.688 415.39C157.015 415.409 157.365 415.418 157.738 415.418C158.522 415.418 159.138 415.283 159.586 415.012C160.034 414.741 160.351 414.345 160.538 413.822C160.734 413.299 160.832 412.651 160.832 411.876V410.966L161.28 410.322C161.271 411.041 161.126 411.638 160.846 412.114C160.575 412.581 160.197 412.935 159.712 413.178C159.227 413.411 158.671 413.528 158.046 413.528C157.318 413.528 156.697 413.383 156.184 413.094C155.671 412.805 155.274 412.403 154.994 411.89C154.723 411.377 154.588 410.779 154.588 410.098C154.588 409.389 154.747 408.763 155.064 408.222C155.381 407.671 155.829 407.247 156.408 406.948C156.996 406.64 157.696 406.486 158.508 406.486ZM158.55 408.152C158.111 408.152 157.738 408.236 157.43 408.404C157.122 408.563 156.889 408.787 156.73 409.076C156.571 409.365 156.492 409.697 156.492 410.07C156.492 410.453 156.567 410.789 156.716 411.078C156.875 411.367 157.103 411.591 157.402 411.75C157.701 411.909 158.06 411.988 158.48 411.988C158.881 411.988 159.245 411.918 159.572 411.778C159.908 411.629 160.169 411.414 160.356 411.134C160.552 410.845 160.65 410.49 160.65 410.07C160.65 409.706 160.571 409.379 160.412 409.09C160.263 408.801 160.029 408.572 159.712 408.404C159.404 408.236 159.017 408.152 158.55 408.152ZM164.286 417V414.76H166.47V417H164.286ZM164.286 412.17V409.93H166.47V412.17H164.286ZM171.532 417.266C170.748 417.266 170.071 417.117 169.502 416.818C168.942 416.519 168.513 416.123 168.214 415.628C167.915 415.124 167.766 414.564 167.766 413.948H169.684C169.684 414.443 169.847 414.844 170.174 415.152C170.51 415.451 170.963 415.6 171.532 415.6C171.915 415.6 172.241 415.53 172.512 415.39C172.792 415.241 173.007 415.04 173.156 414.788C173.305 414.527 173.38 414.228 173.38 413.892C173.38 413.388 173.217 412.977 172.89 412.66C172.563 412.333 172.115 412.17 171.546 412.17C171.266 412.17 171.019 412.207 170.804 412.282C170.599 412.357 170.417 412.455 170.258 412.576L169.348 411.008L172.708 408.712L172.582 408.474H168.186V406.78H174.864V408.824L171.406 411.12L170.328 410.924C170.505 410.868 170.697 410.826 170.902 410.798C171.107 410.761 171.331 410.742 171.574 410.742C172.349 410.742 173.011 410.877 173.562 411.148C174.122 411.409 174.551 411.773 174.85 412.24C175.149 412.707 175.298 413.243 175.298 413.85V414.032C175.298 414.62 175.149 415.161 174.85 415.656C174.551 416.141 174.122 416.533 173.562 416.832C173.002 417.121 172.325 417.266 171.532 417.266ZM181.318 417.266C180.515 417.266 179.834 417.135 179.274 416.874C178.714 416.603 178.256 416.239 177.902 415.782C177.547 415.315 177.286 414.783 177.118 414.186C176.959 413.579 176.88 412.945 176.88 412.282V411.498C176.88 410.555 177.038 409.706 177.356 408.95C177.673 408.194 178.158 407.597 178.812 407.158C179.465 406.71 180.3 406.486 181.318 406.486C182.326 406.486 183.156 406.71 183.81 407.158C184.463 407.597 184.944 408.194 185.252 408.95C185.569 409.706 185.728 410.555 185.728 411.498V412.282C185.728 412.945 185.644 413.579 185.476 414.186C185.317 414.783 185.06 415.315 184.706 415.782C184.36 416.239 183.908 416.603 183.348 416.874C182.788 417.135 182.111 417.266 181.318 417.266ZM181.318 415.446C182.148 415.446 182.76 415.161 183.152 414.592C183.544 414.013 183.74 413.117 183.74 411.904C183.74 410.616 183.539 409.697 183.138 409.146C182.736 408.586 182.13 408.306 181.318 408.306C180.496 408.306 179.88 408.586 179.47 409.146C179.068 409.697 178.868 410.607 178.868 411.876C178.868 413.099 179.068 413.999 179.47 414.578C179.871 415.157 180.487 415.446 181.318 415.446Z" fill="#02AF72"/>
<path d="M196.218 414.858V411.064H199.858V414.858H196.218Z" fill="#02AF72"/>
<path d="M212.59 417V408.012L213.206 408.488H210.504V406.78H214.564V417H212.59ZM221.253 417.266C220.451 417.266 219.769 417.135 219.209 416.874C218.649 416.603 218.192 416.239 217.837 415.782C217.483 415.315 217.221 414.783 217.053 414.186C216.895 413.579 216.815 412.945 216.815 412.282V411.498C216.815 410.555 216.974 409.706 217.291 408.95C217.609 408.194 218.094 407.597 218.747 407.158C219.401 406.71 220.236 406.486 221.253 406.486C222.261 406.486 223.092 406.71 223.745 407.158C224.399 407.597 224.879 408.194 225.187 408.95C225.505 409.706 225.663 410.555 225.663 411.498V412.282C225.663 412.945 225.579 413.579 225.411 414.186C225.253 414.783 224.996 415.315 224.641 415.782C224.296 416.239 223.843 416.603 223.283 416.874C222.723 417.135 222.047 417.266 221.253 417.266ZM221.253 415.446C222.084 415.446 222.695 415.161 223.087 414.592C223.479 414.013 223.675 413.117 223.675 411.904C223.675 410.616 223.475 409.697 223.073 409.146C222.672 408.586 222.065 408.306 221.253 408.306C220.432 408.306 219.816 408.586 219.405 409.146C219.004 409.697 218.803 410.607 218.803 411.876C218.803 413.099 219.004 413.999 219.405 414.578C219.807 415.157 220.423 415.446 221.253 415.446ZM227.327 417V414.76H229.511V417H227.327ZM227.327 412.17V409.93H229.511V412.17H227.327ZM235.595 417.266C234.792 417.266 234.111 417.135 233.551 416.874C232.991 416.603 232.534 416.239 232.179 415.782C231.824 415.315 231.563 414.783 231.395 414.186C231.236 413.579 231.157 412.945 231.157 412.282V411.498C231.157 410.555 231.316 409.706 231.633 408.95C231.95 408.194 232.436 407.597 233.089 407.158C233.742 406.71 234.578 406.486 235.595 406.486C236.603 406.486 237.434 406.71 238.087 407.158C238.74 407.597 239.221 408.194 239.529 408.95C239.846 409.706 240.005 410.555 240.005 411.498V412.282C240.005 412.945 239.921 413.579 239.753 414.186C239.594 414.783 239.338 415.315 238.983 415.782C238.638 416.239 238.185 416.603 237.625 416.874C237.065 417.135 236.388 417.266 235.595 417.266ZM235.595 415.446C236.426 415.446 237.037 415.161 237.429 414.592C237.821 414.013 238.017 413.117 238.017 411.904C238.017 410.616 237.816 409.697 237.415 409.146C237.014 408.586 236.407 408.306 235.595 408.306C234.774 408.306 234.158 408.586 233.747 409.146C233.346 409.697 233.145 410.607 233.145 411.876C233.145 413.099 233.346 413.999 233.747 414.578C234.148 415.157 234.764 415.446 235.595 415.446ZM246.177 417.266C245.374 417.266 244.693 417.135 244.133 416.874C243.573 416.603 243.116 416.239 242.761 415.782C242.406 415.315 242.145 414.783 241.977 414.186C241.818 413.579 241.739 412.945 241.739 412.282V411.498C241.739 410.555 241.898 409.706 242.215 408.95C242.532 408.194 243.018 407.597 243.671 407.158C244.324 406.71 245.16 406.486 246.177 406.486C247.185 406.486 248.016 406.71 248.669 407.158C249.322 407.597 249.803 408.194 250.111 408.95C250.428 409.706 250.587 410.555 250.587 411.498V412.282C250.587 412.945 250.503 413.579 250.335 414.186C250.176 414.783 249.92 415.315 249.565 415.782C249.22 416.239 248.767 416.603 248.207 416.874C247.647 417.135 246.97 417.266 246.177 417.266ZM246.177 415.446C247.008 415.446 247.619 415.161 248.011 414.592C248.403 414.013 248.599 413.117 248.599 411.904C248.599 410.616 248.398 409.697 247.997 409.146C247.596 408.586 246.989 408.306 246.177 408.306C245.356 408.306 244.74 408.586 244.329 409.146C243.928 409.697 243.727 410.607 243.727 411.876C243.727 413.099 243.928 413.999 244.329 414.578C244.73 415.157 245.346 415.446 246.177 415.446Z" fill="#02AF72"/>
</g>
<path fill-rule="evenodd" clip-rule="evenodd" d="M359 405C360.105 405 361 405.895 361 407C361 408.105 360.105 409 359 409C357.895 409 357 408.105 357 407C357 405.895 357.895 405 359 405ZM359 398C360.105 398 361 398.895 361 400C361 401.105 360.105 402 359 402C357.895 402 357 401.105 357 400C357 398.895 357.895 398 359 398ZM359 391C360.105 391 361 391.895 361 393C361 394.105 360.105 395 359 395C357.895 395 357 394.105 357 393C357 391.895 357.895 391 359 391Z" fill="#02AF72"/>
<rect x="74" y="464" width="321" height="145" rx="24" fill="#FF742C" fill-opacity="0.1"/>
<rect x="98" y="492" width="40" height="40" rx="20" fill="#FF742C" fill-opacity="0.15"/>
<path d="M123.5 511C124.825 511 125.91 512.032 125.995 513.336L126 513.5V518.5C126 518.776 125.776 519 125.5 519C125.255 519 125.05 518.823 125.008 518.59L125 518.5V516H111V518.5C111 518.776 110.776 519 110.5 519C110.255 519 110.05 518.823 110.008 518.59L110 518.5V513.5C110 512.175 111.032 511.09 112.336 511.005L112.5 511H123.5ZM114.5 505H121.5C122.825 505 123.91 506.032 123.995 507.336L124 507.5V510H122V509.5C122 509.255 121.823 509.05 121.59 509.008L121.5 509H119C118.755 509 118.55 509.177 118.508 509.41L118.5 509.5V510H117.5V509.5C117.5 509.255 117.323 509.05 117.09 509.008L117 509H114.5C114.255 509 114.05 509.177 114.008 509.41L114 509.5V510H112V507.5C112 506.175 113.032 505.09 114.336 505.005L114.5 505Z" fill="#FF742C"/>
<path d="M160.704 507.304C159.648 507.304 158.741 507.117 157.984 506.744C157.227 506.371 156.608 505.885 156.128 505.288C155.659 504.691 155.312 504.04 155.088 503.336C154.864 502.632 154.752 501.955 154.752 501.304V500.952C154.752 500.227 154.864 499.512 155.088 498.808C155.323 498.104 155.68 497.464 156.16 496.888C156.64 496.312 157.248 495.853 157.984 495.512C158.731 495.16 159.611 494.984 160.624 494.984C161.68 494.984 162.597 495.176 163.376 495.56C164.165 495.933 164.795 496.467 165.264 497.16C165.733 497.843 166.016 498.643 166.112 499.56H163.824C163.739 499.027 163.547 498.579 163.248 498.216C162.96 497.843 162.592 497.565 162.144 497.384C161.696 497.192 161.189 497.096 160.624 497.096C160.048 497.096 159.536 497.197 159.088 497.4C158.64 497.592 158.267 497.869 157.968 498.232C157.669 498.595 157.44 499.021 157.28 499.512C157.131 500.003 157.056 500.547 157.056 501.144C157.056 501.72 157.131 502.253 157.28 502.744C157.44 503.235 157.675 503.667 157.984 504.04C158.293 504.403 158.672 504.685 159.12 504.888C159.579 505.091 160.107 505.192 160.704 505.192C161.579 505.192 162.315 504.979 162.912 504.552C163.52 504.115 163.888 503.507 164.016 502.728H166.304C166.197 503.56 165.915 504.323 165.456 505.016C164.997 505.709 164.368 506.264 163.568 506.68C162.768 507.096 161.813 507.304 160.704 507.304ZM168.045 507V495.32H170.269V502.136H169.885C169.885 501.261 169.997 500.52 170.221 499.912C170.445 499.304 170.776 498.84 171.213 498.52C171.661 498.2 172.227 498.04 172.909 498.04H173.005C173.997 498.04 174.749 498.381 175.261 499.064C175.773 499.747 176.029 500.739 176.029 502.04V507H173.805V501.832C173.805 501.277 173.645 500.84 173.325 500.52C173.016 500.2 172.605 500.04 172.093 500.04C171.549 500.04 171.107 500.221 170.765 500.584C170.435 500.936 170.269 501.4 170.269 501.976V507H168.045ZM182.308 507.304C181.562 507.304 180.906 507.176 180.34 506.92C179.786 506.664 179.322 506.323 178.948 505.896C178.586 505.459 178.308 504.973 178.116 504.44C177.935 503.907 177.844 503.363 177.844 502.808V502.504C177.844 501.928 177.935 501.373 178.116 500.84C178.308 500.296 178.586 499.816 178.948 499.4C179.322 498.973 179.78 498.637 180.324 498.392C180.868 498.136 181.498 498.008 182.212 498.008C183.151 498.008 183.935 498.216 184.564 498.632C185.204 499.037 185.684 499.576 186.004 500.248C186.324 500.909 186.484 501.624 186.484 502.392V503.192H178.788V501.832H185.092L184.404 502.504C184.404 501.949 184.324 501.475 184.164 501.08C184.004 500.685 183.759 500.381 183.428 500.168C183.108 499.955 182.703 499.848 182.212 499.848C181.722 499.848 181.306 499.96 180.964 500.184C180.623 500.408 180.362 500.733 180.18 501.16C180.01 501.576 179.924 502.077 179.924 502.664C179.924 503.208 180.01 503.693 180.18 504.12C180.351 504.536 180.612 504.867 180.964 505.112C181.316 505.347 181.764 505.464 182.308 505.464C182.852 505.464 183.295 505.357 183.636 505.144C183.978 504.92 184.196 504.648 184.292 504.328H186.34C186.212 504.925 185.967 505.448 185.604 505.896C185.242 506.344 184.778 506.691 184.212 506.936C183.658 507.181 183.023 507.304 182.308 507.304ZM192.198 507.304C191.441 507.304 190.785 507.176 190.23 506.92C189.686 506.664 189.227 506.323 188.854 505.896C188.491 505.469 188.219 504.989 188.038 504.456C187.857 503.923 187.766 503.379 187.766 502.824V502.52C187.766 501.933 187.857 501.373 188.038 500.84C188.23 500.296 188.513 499.816 188.886 499.4C189.259 498.973 189.718 498.637 190.262 498.392C190.817 498.136 191.457 498.008 192.182 498.008C192.939 498.008 193.617 498.157 194.214 498.456C194.811 498.744 195.286 499.149 195.638 499.672C196.001 500.195 196.203 500.803 196.246 501.496H194.086C194.033 501.048 193.841 500.675 193.51 500.376C193.19 500.077 192.747 499.928 192.182 499.928C191.691 499.928 191.281 500.045 190.95 500.28C190.63 500.515 190.39 500.84 190.23 501.256C190.07 501.661 189.99 502.131 189.99 502.664C189.99 503.176 190.065 503.64 190.214 504.056C190.374 504.472 190.614 504.797 190.934 505.032C191.265 505.267 191.686 505.384 192.198 505.384C192.582 505.384 192.913 505.315 193.19 505.176C193.467 505.037 193.686 504.845 193.846 504.6C194.017 504.355 194.123 504.077 194.166 503.768H196.326C196.283 504.472 196.075 505.091 195.702 505.624C195.339 506.147 194.854 506.557 194.246 506.856C193.649 507.155 192.966 507.304 192.198 507.304ZM204.188 507L201.276 502.936H199.98L203.676 498.312H205.996L202.588 502.584L202.636 501.464L206.7 507H204.188ZM198.108 507V495.32H200.332V507H198.108ZM211.852 507V498.312H214.076V507H211.852ZM210.636 499.976V498.312H214.076V499.976H210.636ZM212.668 497.272C212.231 497.272 211.905 497.16 211.692 496.936C211.489 496.701 211.388 496.408 211.388 496.056C211.388 495.704 211.489 495.416 211.692 495.192C211.905 494.968 212.231 494.856 212.668 494.856C213.105 494.856 213.425 494.968 213.628 495.192C213.831 495.416 213.932 495.704 213.932 496.056C213.932 496.408 213.831 496.701 213.628 496.936C213.425 497.16 213.105 497.272 212.668 497.272ZM216.639 507V498.312H218.399V502.04H218.239C218.239 501.155 218.356 500.419 218.591 499.832C218.826 499.235 219.172 498.787 219.631 498.488C220.1 498.189 220.682 498.04 221.375 498.04H221.471C222.506 498.04 223.29 498.376 223.823 499.048C224.356 499.709 224.623 500.701 224.623 502.024V507H222.399V501.832C222.399 501.299 222.244 500.867 221.935 500.536C221.636 500.205 221.22 500.04 220.687 500.04C220.143 500.04 219.7 500.211 219.359 500.552C219.028 500.883 218.863 501.331 218.863 501.896V507H216.639ZM230.79 507.112C229.99 507.112 229.329 507.011 228.806 506.808C228.294 506.595 227.91 506.243 227.654 505.752C227.398 505.251 227.27 504.579 227.27 503.736L227.286 495.864H229.366L229.35 503.88C229.35 504.307 229.462 504.637 229.686 504.872C229.921 505.096 230.251 505.208 230.678 505.208H232.038V507.112H230.79ZM225.894 499.944V498.312H232.038V499.944H225.894ZM238.034 507.304C237.266 507.304 236.588 507.181 236.002 506.936C235.415 506.691 234.919 506.36 234.514 505.944C234.108 505.517 233.799 505.037 233.586 504.504C233.383 503.971 233.282 503.416 233.282 502.84V502.504C233.282 501.907 233.388 501.341 233.602 500.808C233.826 500.264 234.14 499.784 234.546 499.368C234.962 498.941 235.463 498.611 236.05 498.376C236.636 498.131 237.298 498.008 238.034 498.008C238.77 498.008 239.431 498.131 240.018 498.376C240.604 498.611 241.1 498.941 241.506 499.368C241.922 499.784 242.236 500.264 242.45 500.808C242.663 501.341 242.77 501.907 242.77 502.504V502.84C242.77 503.416 242.663 503.971 242.45 504.504C242.247 505.037 241.943 505.517 241.538 505.944C241.132 506.36 240.636 506.691 240.05 506.936C239.463 507.181 238.791 507.304 238.034 507.304ZM238.034 505.4C238.578 505.4 239.036 505.283 239.41 505.048C239.783 504.803 240.066 504.477 240.258 504.072C240.45 503.656 240.546 503.187 240.546 502.664C240.546 502.131 240.444 501.661 240.242 501.256C240.05 500.84 239.762 500.515 239.378 500.28C239.004 500.035 238.556 499.912 238.034 499.912C237.511 499.912 237.058 500.035 236.674 500.28C236.3 500.515 236.012 500.84 235.81 501.256C235.607 501.661 235.506 502.131 235.506 502.664C235.506 503.187 235.602 503.656 235.794 504.072C235.996 504.477 236.284 504.803 236.658 505.048C237.031 505.283 237.49 505.4 238.034 505.4ZM253.434 507V504.424H253.066V501.56C253.066 501.059 252.944 500.685 252.698 500.44C252.453 500.195 252.074 500.072 251.562 500.072C251.296 500.072 250.976 500.077 250.602 500.088C250.229 500.099 249.85 500.115 249.466 500.136C249.093 500.147 248.757 500.163 248.458 500.184V498.296C248.704 498.275 248.981 498.253 249.29 498.232C249.6 498.211 249.914 498.2 250.234 498.2C250.565 498.189 250.874 498.184 251.162 498.184C252.058 498.184 252.8 498.301 253.386 498.536C253.984 498.771 254.432 499.139 254.73 499.64C255.04 500.141 255.194 500.797 255.194 501.608V507H253.434ZM250.634 507.224C250.005 507.224 249.45 507.112 248.97 506.888C248.501 506.664 248.133 506.344 247.866 505.928C247.61 505.512 247.482 505.011 247.482 504.424C247.482 503.784 247.637 503.261 247.946 502.856C248.266 502.451 248.709 502.147 249.274 501.944C249.85 501.741 250.522 501.64 251.29 501.64H253.306V502.968H251.258C250.746 502.968 250.352 503.096 250.074 503.352C249.808 503.597 249.674 503.917 249.674 504.312C249.674 504.707 249.808 505.027 250.074 505.272C250.352 505.517 250.746 505.64 251.258 505.64C251.568 505.64 251.85 505.587 252.106 505.48C252.373 505.363 252.592 505.171 252.762 504.904C252.944 504.627 253.045 504.253 253.066 503.784L253.61 504.408C253.557 505.016 253.408 505.528 253.162 505.944C252.928 506.36 252.597 506.68 252.17 506.904C251.754 507.117 251.242 507.224 250.634 507.224ZM261.03 507V495.32H263.254V502.136H262.87C262.87 501.261 262.982 500.52 263.206 499.912C263.43 499.304 263.76 498.84 264.198 498.52C264.646 498.2 265.211 498.04 265.894 498.04H265.99C266.982 498.04 267.734 498.381 268.246 499.064C268.758 499.747 269.014 500.739 269.014 502.04V507H266.79V501.832C266.79 501.277 266.63 500.84 266.31 500.52C266 500.2 265.59 500.04 265.078 500.04C264.534 500.04 264.091 500.221 263.75 500.584C263.419 500.936 263.254 501.4 263.254 501.976V507H261.03ZM275.581 507.304C274.813 507.304 274.135 507.181 273.549 506.936C272.962 506.691 272.466 506.36 272.061 505.944C271.655 505.517 271.346 505.037 271.133 504.504C270.93 503.971 270.829 503.416 270.829 502.84V502.504C270.829 501.907 270.935 501.341 271.149 500.808C271.373 500.264 271.687 499.784 272.093 499.368C272.509 498.941 273.01 498.611 273.597 498.376C274.183 498.131 274.845 498.008 275.581 498.008C276.317 498.008 276.978 498.131 277.565 498.376C278.151 498.611 278.647 498.941 279.053 499.368C279.469 499.784 279.783 500.264 279.997 500.808C280.21 501.341 280.317 501.907 280.317 502.504V502.84C280.317 503.416 280.21 503.971 279.997 504.504C279.794 505.037 279.49 505.517 279.085 505.944C278.679 506.36 278.183 506.691 277.597 506.936C277.01 507.181 276.338 507.304 275.581 507.304ZM275.581 505.4C276.125 505.4 276.583 505.283 276.957 505.048C277.33 504.803 277.613 504.477 277.805 504.072C277.997 503.656 278.093 503.187 278.093 502.664C278.093 502.131 277.991 501.661 277.789 501.256C277.597 500.84 277.309 500.515 276.925 500.28C276.551 500.035 276.103 499.912 275.581 499.912C275.058 499.912 274.605 500.035 274.221 500.28C273.847 500.515 273.559 500.84 273.357 501.256C273.154 501.661 273.053 502.131 273.053 502.664C273.053 503.187 273.149 503.656 273.341 504.072C273.543 504.477 273.831 504.803 274.205 505.048C274.578 505.283 275.037 505.4 275.581 505.4ZM286.04 507.112C285.24 507.112 284.579 507.011 284.056 506.808C283.544 506.595 283.16 506.243 282.904 505.752C282.648 505.251 282.52 504.579 282.52 503.736L282.536 495.864H284.616L284.6 503.88C284.6 504.307 284.712 504.637 284.936 504.872C285.171 505.096 285.501 505.208 285.928 505.208H287.288V507.112H286.04ZM281.144 499.944V498.312H287.288V499.944H281.144ZM292.996 507.304C292.249 507.304 291.593 507.176 291.028 506.92C290.473 506.664 290.009 506.323 289.636 505.896C289.273 505.459 288.996 504.973 288.804 504.44C288.622 503.907 288.532 503.363 288.532 502.808V502.504C288.532 501.928 288.622 501.373 288.804 500.84C288.996 500.296 289.273 499.816 289.636 499.4C290.009 498.973 290.468 498.637 291.012 498.392C291.556 498.136 292.185 498.008 292.9 498.008C293.838 498.008 294.622 498.216 295.252 498.632C295.892 499.037 296.372 499.576 296.692 500.248C297.012 500.909 297.172 501.624 297.172 502.392V503.192H289.476V501.832H295.78L295.092 502.504C295.092 501.949 295.012 501.475 294.852 501.08C294.692 500.685 294.446 500.381 294.116 500.168C293.796 499.955 293.39 499.848 292.9 499.848C292.409 499.848 291.993 499.96 291.652 500.184C291.31 500.408 291.049 500.733 290.868 501.16C290.697 501.576 290.612 502.077 290.612 502.664C290.612 503.208 290.697 503.693 290.868 504.12C291.038 504.536 291.3 504.867 291.652 505.112C292.004 505.347 292.452 505.464 292.996 505.464C293.54 505.464 293.982 505.357 294.324 505.144C294.665 504.92 294.884 504.648 294.98 504.328H297.028C296.9 504.925 296.654 505.448 296.292 505.896C295.929 506.344 295.465 506.691 294.9 506.936C294.345 507.181 293.71 507.304 292.996 507.304ZM299.142 507V495.32H301.366V507H299.142ZM298.054 496.984V495.32H301.366V496.984H298.054Z" fill="#FF742C"/>
<g opacity="0.64">
<path d="M156.59 529V520.012L157.206 520.488H154.504V518.78H158.564V529H156.59ZM165.253 529.266C164.451 529.266 163.769 529.135 163.209 528.874C162.649 528.603 162.192 528.239 161.837 527.782C161.483 527.315 161.221 526.783 161.053 526.186C160.895 525.579 160.815 524.945 160.815 524.282V523.498C160.815 522.555 160.974 521.706 161.291 520.95C161.609 520.194 162.094 519.597 162.747 519.158C163.401 518.71 164.236 518.486 165.253 518.486C166.261 518.486 167.092 518.71 167.745 519.158C168.399 519.597 168.879 520.194 169.187 520.95C169.505 521.706 169.663 522.555 169.663 523.498V524.282C169.663 524.945 169.579 525.579 169.411 526.186C169.253 526.783 168.996 527.315 168.641 527.782C168.296 528.239 167.843 528.603 167.283 528.874C166.723 529.135 166.047 529.266 165.253 529.266ZM165.253 527.446C166.084 527.446 166.695 527.161 167.087 526.592C167.479 526.013 167.675 525.117 167.675 523.904C167.675 522.616 167.475 521.697 167.073 521.146C166.672 520.586 166.065 520.306 165.253 520.306C164.432 520.306 163.816 520.586 163.405 521.146C163.004 521.697 162.803 522.607 162.803 523.876C162.803 525.099 163.004 525.999 163.405 526.578C163.807 527.157 164.423 527.446 165.253 527.446ZM171.327 529V526.76H173.511V529H171.327ZM171.327 524.17V521.93H173.511V524.17H171.327ZM179.595 529.266C178.792 529.266 178.111 529.135 177.551 528.874C176.991 528.603 176.534 528.239 176.179 527.782C175.824 527.315 175.563 526.783 175.395 526.186C175.236 525.579 175.157 524.945 175.157 524.282V523.498C175.157 522.555 175.316 521.706 175.633 520.95C175.95 520.194 176.436 519.597 177.089 519.158C177.742 518.71 178.578 518.486 179.595 518.486C180.603 518.486 181.434 518.71 182.087 519.158C182.74 519.597 183.221 520.194 183.529 520.95C183.846 521.706 184.005 522.555 184.005 523.498V524.282C184.005 524.945 183.921 525.579 183.753 526.186C183.594 526.783 183.338 527.315 182.983 527.782C182.638 528.239 182.185 528.603 181.625 528.874C181.065 529.135 180.388 529.266 179.595 529.266ZM179.595 527.446C180.426 527.446 181.037 527.161 181.429 526.592C181.821 526.013 182.017 525.117 182.017 523.904C182.017 522.616 181.816 521.697 181.415 521.146C181.014 520.586 180.407 520.306 179.595 520.306C178.774 520.306 178.158 520.586 177.747 521.146C177.346 521.697 177.145 522.607 177.145 523.876C177.145 525.099 177.346 525.999 177.747 526.578C178.148 527.157 178.764 527.446 179.595 527.446ZM190.177 529.266C189.374 529.266 188.693 529.135 188.133 528.874C187.573 528.603 187.116 528.239 186.761 527.782C186.406 527.315 186.145 526.783 185.977 526.186C185.818 525.579 185.739 524.945 185.739 524.282V523.498C185.739 522.555 185.898 521.706 186.215 520.95C186.532 520.194 187.018 519.597 187.671 519.158C188.324 518.71 189.16 518.486 190.177 518.486C191.185 518.486 192.016 518.71 192.669 519.158C193.322 519.597 193.803 520.194 194.111 520.95C194.428 521.706 194.587 522.555 194.587 523.498V524.282C194.587 524.945 194.503 525.579 194.335 526.186C194.176 526.783 193.92 527.315 193.565 527.782C193.22 528.239 192.767 528.603 192.207 528.874C191.647 529.135 190.97 529.266 190.177 529.266ZM190.177 527.446C191.008 527.446 191.619 527.161 192.011 526.592C192.403 526.013 192.599 525.117 192.599 523.904C192.599 522.616 192.398 521.697 191.997 521.146C191.596 520.586 190.989 520.306 190.177 520.306C189.356 520.306 188.74 520.586 188.329 521.146C187.928 521.697 187.727 522.607 187.727 523.876C187.727 525.099 187.928 525.999 188.329 526.578C188.73 527.157 189.346 527.446 190.177 527.446Z" fill="#FF742C"/>
<path d="M205.218 526.858V523.064H208.858V526.858H205.218Z" fill="#FF742C"/>
<path d="M221.59 529V520.012L222.206 520.488H219.504V518.78H223.564V529H221.59ZM230.253 529.266C229.451 529.266 228.769 529.135 228.209 528.874C227.649 528.603 227.192 528.239 226.837 527.782C226.483 527.315 226.221 526.783 226.053 526.186C225.895 525.579 225.815 524.945 225.815 524.282V523.498C225.815 522.555 225.974 521.706 226.291 520.95C226.609 520.194 227.094 519.597 227.747 519.158C228.401 518.71 229.236 518.486 230.253 518.486C231.261 518.486 232.092 518.71 232.745 519.158C233.399 519.597 233.879 520.194 234.187 520.95C234.505 521.706 234.663 522.555 234.663 523.498V524.282C234.663 524.945 234.579 525.579 234.411 526.186C234.253 526.783 233.996 527.315 233.641 527.782C233.296 528.239 232.843 528.603 232.283 528.874C231.723 529.135 231.047 529.266 230.253 529.266ZM230.253 527.446C231.084 527.446 231.695 527.161 232.087 526.592C232.479 526.013 232.675 525.117 232.675 523.904C232.675 522.616 232.475 521.697 232.073 521.146C231.672 520.586 231.065 520.306 230.253 520.306C229.432 520.306 228.816 520.586 228.405 521.146C228.004 521.697 227.803 522.607 227.803 523.876C227.803 525.099 228.004 525.999 228.405 526.578C228.807 527.157 229.423 527.446 230.253 527.446ZM236.327 529V526.76H238.511V529H236.327ZM236.327 524.17V521.93H238.511V524.17H236.327ZM239.821 526.886V524.73L243.825 518.5L245.323 519.522L241.795 525.038L241.963 525.318H248.235V526.886H239.821ZM245.169 529V521.678H247.003V529H245.169ZM253.865 529.266C253.062 529.266 252.381 529.135 251.821 528.874C251.261 528.603 250.803 528.239 250.449 527.782C250.094 527.315 249.833 526.783 249.665 526.186C249.506 525.579 249.427 524.945 249.427 524.282V523.498C249.427 522.555 249.585 521.706 249.903 520.95C250.22 520.194 250.705 519.597 251.359 519.158C252.012 518.71 252.847 518.486 253.865 518.486C254.873 518.486 255.703 518.71 256.357 519.158C257.01 519.597 257.491 520.194 257.799 520.95C258.116 521.706 258.275 522.555 258.275 523.498V524.282C258.275 524.945 258.191 525.579 258.023 526.186C257.864 526.783 257.607 527.315 257.253 527.782C256.907 528.239 256.455 528.603 255.895 528.874C255.335 529.135 254.658 529.266 253.865 529.266ZM253.865 527.446C254.695 527.446 255.307 527.161 255.699 526.592C256.091 526.013 256.287 525.117 256.287 523.904C256.287 522.616 256.086 521.697 255.685 521.146C255.283 520.586 254.677 520.306 253.865 520.306C253.043 520.306 252.427 520.586 252.017 521.146C251.615 521.697 251.415 522.607 251.415 523.876C251.415 525.099 251.615 525.999 252.017 526.578C252.418 527.157 253.034 527.446 253.865 527.446Z" fill="#FF742C"/>
</g>
<path fill-rule="evenodd" clip-rule="evenodd" d="M359 517C360.105 517 361 517.895 361 519C361 520.105 360.105 521 359 521C357.895 521 357 520.105 357 519C357 517.895 357.895 517 359 517ZM359 510C360.105 510 361 510.895 361 512C361 513.105 360.105 514 359 514C357.895 514 357 513.105 357 512C357 510.895 357.895 510 359 510ZM359 503C360.105 503 361 503.895 361 505C361 506.105 360.105 507 359 507C357.895 507 357 506.105 357 505C357 503.895 357.895 503 359 503Z" fill="#FF742C"/>
<path d="M4.522 13.266C3.766 13.266 3.094 13.14 2.506 12.888C1.92733 12.6267 1.47467 12.2627 1.148 11.796C0.821333 11.3293 0.658 10.7787 0.658 10.144C0.658 9.73333 0.732667 9.36467 0.882 9.038C1.04067 8.702 1.25533 8.41267 1.526 8.17C1.79667 7.92733 2.10933 7.74067 2.464 7.61V7.456C2.184 7.344 1.932 7.19 1.708 6.994C1.484 6.78867 1.30667 6.546 1.176 6.266C1.04533 5.986 0.98 5.664 0.98 5.3C0.98 4.69333 1.13867 4.18467 1.456 3.774C1.78267 3.36333 2.212 3.05067 2.744 2.836C3.28533 2.62133 3.878 2.514 4.522 2.514C5.18467 2.514 5.782 2.62133 6.314 2.836C6.846 3.05067 7.27067 3.36333 7.588 3.774C7.90533 4.18467 8.064 4.69333 8.064 5.3C8.064 5.664 7.99867 5.986 7.868 6.266C7.74667 6.546 7.574 6.78867 7.35 6.994C7.126 7.19 6.86933 7.344 6.58 7.456V7.61C6.944 7.74067 7.26133 7.92733 7.532 8.17C7.80267 8.41267 8.01267 8.702 8.162 9.038C8.32067 9.36467 8.4 9.73333 8.4 10.144C8.4 10.7787 8.23667 11.3293 7.91 11.796C7.58333 12.2627 7.126 12.6267 6.538 12.888C5.95933 13.14 5.28733 13.266 4.522 13.266ZM4.522 11.866C4.98867 11.866 5.39 11.796 5.726 11.656C6.062 11.5067 6.32333 11.292 6.51 11.012C6.69667 10.732 6.79 10.4007 6.79 10.018C6.79 9.63533 6.69667 9.30867 6.51 9.038C6.33267 8.76733 6.076 8.55733 5.74 8.408C5.404 8.25867 4.998 8.184 4.522 8.184C4.05533 8.184 3.654 8.25867 3.318 8.408C2.982 8.55733 2.72533 8.76733 2.548 9.038C2.37067 9.30867 2.282 9.63533 2.282 10.018C2.282 10.4007 2.37067 10.732 2.548 11.012C2.72533 11.292 2.982 11.5067 3.318 11.656C3.654 11.796 4.05533 11.866 4.522 11.866ZM4.522 6.91C5.11 6.91 5.57667 6.78867 5.922 6.546C6.26733 6.294 6.44 5.91133 6.44 5.398C6.44 4.88467 6.26267 4.50667 5.908 4.264C5.56267 4.02133 5.10067 3.9 4.522 3.9C3.94333 3.9 3.47667 4.026 3.122 4.278C2.77667 4.52067 2.604 4.894 2.604 5.398C2.604 5.91133 2.77667 6.294 3.122 6.546C3.47667 6.78867 3.94333 6.91 4.522 6.91ZM9.97445 13V11.026H11.8785V13H9.97445ZM9.97445 7.988V6.014H11.8785V7.988H9.97445ZM18.0332 13.252C17.2585 13.252 16.5959 13.1213 16.0452 12.86C15.4945 12.5893 15.0465 12.2253 14.7012 11.768C14.3652 11.3107 14.1179 10.7833 13.9592 10.186C13.8005 9.57933 13.7212 8.94 13.7212 8.268V7.498C13.7212 6.56467 13.8705 5.72 14.1692 4.964C14.4772 4.208 14.9485 3.606 15.5832 3.158C16.2272 2.71 17.0439 2.486 18.0332 2.486C19.0319 2.486 19.8439 2.71 20.4692 3.158C21.1039 3.606 21.5752 4.208 21.8832 4.964C22.1912 5.72 22.3452 6.56467 22.3452 7.498V8.268C22.3452 8.94 22.2659 9.57933 22.1072 10.186C21.9485 10.7833 21.6965 11.3107 21.3512 11.768C21.0152 12.2253 20.5719 12.5893 20.0212 12.86C19.4799 13.1213 18.8172 13.252 18.0332 13.252ZM18.0332 11.726C18.9385 11.726 19.6012 11.4227 20.0212 10.816C20.4505 10.2 20.6652 9.22933 20.6652 7.904C20.6652 6.51333 20.4459 5.51933 20.0072 4.922C19.5779 4.31533 18.9199 4.012 18.0332 4.012C17.1465 4.012 16.4839 4.31533 16.0452 4.922C15.6159 5.51933 15.4012 6.504 15.4012 7.876C15.4012 9.21067 15.6159 10.186 16.0452 10.802C16.4745 11.418 17.1372 11.726 18.0332 11.726ZM28.5332 13.252C27.7585 13.252 27.0959 13.1213 26.5452 12.86C25.9945 12.5893 25.5465 12.2253 25.2012 11.768C24.8652 11.3107 24.6179 10.7833 24.4592 10.186C24.3005 9.57933 24.2212 8.94 24.2212 8.268V7.498C24.2212 6.56467 24.3705 5.72 24.6692 4.964C24.9772 4.208 25.4485 3.606 26.0832 3.158C26.7272 2.71 27.5439 2.486 28.5332 2.486C29.5319 2.486 30.3439 2.71 30.9692 3.158C31.6039 3.606 32.0752 4.208 32.3832 4.964C32.6912 5.72 32.8452 6.56467 32.8452 7.498V8.268C32.8452 8.94 32.7659 9.57933 32.6072 10.186C32.4485 10.7833 32.1965 11.3107 31.8512 11.768C31.5152 12.2253 31.0719 12.5893 30.5212 12.86C29.9799 13.1213 29.3172 13.252 28.5332 13.252ZM28.5332 11.726C29.4385 11.726 30.1012 11.4227 30.5212 10.816C30.9505 10.2 31.1652 9.22933 31.1652 7.904C31.1652 6.51333 30.9459 5.51933 30.5072 4.922C30.0779 4.31533 29.4199 4.012 28.5332 4.012C27.6465 4.012 26.9839 4.31533 26.5452 4.922C26.1159 5.51933 25.9012 6.504 25.9012 7.876C25.9012 9.21067 26.1159 10.186 26.5452 10.802C26.9745 11.418 27.6372 11.726 28.5332 11.726Z" fill="#9AA2AC"/>
<line opacity="0.15" x1="403" y1="8.5" x2="66" y2="8.50004" stroke="#27292C"/>
<path d="M4.424 226.5C5.17067 226.5 5.80067 226.631 6.314 226.892C6.82733 227.144 7.238 227.499 7.546 227.956C7.854 228.404 8.078 228.922 8.218 229.51C8.358 230.098 8.428 230.719 8.428 231.372V232.016C8.428 233.659 8.01267 234.914 7.182 235.782C6.36067 236.65 5.16133 237.084 3.584 237.084C3.22933 237.084 2.912 237.075 2.632 237.056C2.352 237.037 2.058 237.009 1.75 236.972V235.572C2.058 235.6 2.35667 235.628 2.646 235.656C2.94467 235.675 3.28067 235.684 3.654 235.684C4.466 235.684 5.11 235.539 5.586 235.25C6.062 234.951 6.398 234.522 6.594 233.962C6.79933 233.402 6.902 232.721 6.902 231.918V231.134L7.294 230.196C7.28467 230.924 7.14 231.531 6.86 232.016C6.58933 232.492 6.21133 232.851 5.726 233.094C5.25 233.327 4.69467 233.444 4.06 233.444C3.34133 233.444 2.72533 233.299 2.212 233.01C1.69867 232.721 1.31133 232.319 1.05 231.806C0.788667 231.293 0.658 230.7 0.658 230.028C0.658 229.337 0.802667 228.726 1.092 228.194C1.38133 227.662 1.806 227.247 2.366 226.948C2.93533 226.649 3.62133 226.5 4.424 226.5ZM4.438 227.914C3.962 227.914 3.56067 228.007 3.234 228.194C2.90733 228.371 2.66 228.619 2.492 228.936C2.33333 229.244 2.254 229.603 2.254 230.014C2.254 230.434 2.33333 230.803 2.492 231.12C2.65067 231.428 2.884 231.671 3.192 231.848C3.50933 232.025 3.89667 232.114 4.354 232.114C4.79267 232.114 5.18933 232.035 5.544 231.876C5.89867 231.717 6.174 231.484 6.37 231.176C6.57533 230.859 6.678 230.467 6.678 230C6.678 229.617 6.59867 229.267 6.44 228.95C6.28133 228.633 6.034 228.381 5.698 228.194C5.37133 228.007 4.95133 227.914 4.438 227.914ZM10.2616 237V235.026H12.1656V237H10.2616ZM10.2616 231.988V230.014H12.1656V231.988H10.2616ZM18.3203 237.252C17.5456 237.252 16.883 237.121 16.3323 236.86C15.7816 236.589 15.3336 236.225 14.9883 235.768C14.6523 235.311 14.405 234.783 14.2463 234.186C14.0876 233.579 14.0083 232.94 14.0083 232.268V231.498C14.0083 230.565 14.1576 229.72 14.4563 228.964C14.7643 228.208 15.2356 227.606 15.8703 227.158C16.5143 226.71 17.331 226.486 18.3203 226.486C19.319 226.486 20.131 226.71 20.7563 227.158C21.391 227.606 21.8623 228.208 22.1703 228.964C22.4783 229.72 22.6323 230.565 22.6323 231.498V232.268C22.6323 232.94 22.553 233.579 22.3943 234.186C22.2356 234.783 21.9836 235.311 21.6383 235.768C21.3023 236.225 20.859 236.589 20.3083 236.86C19.767 237.121 19.1043 237.252 18.3203 237.252ZM18.3203 235.726C19.2256 235.726 19.8883 235.423 20.3083 234.816C20.7376 234.2 20.9523 233.229 20.9523 231.904C20.9523 230.513 20.733 229.519 20.2943 228.922C19.865 228.315 19.207 228.012 18.3203 228.012C17.4336 228.012 16.771 228.315 16.3323 228.922C15.903 229.519 15.6883 230.504 15.6883 231.876C15.6883 233.211 15.903 234.186 16.3323 234.802C16.7616 235.418 17.4243 235.726 18.3203 235.726ZM28.8203 237.252C28.0456 237.252 27.383 237.121 26.8323 236.86C26.2816 236.589 25.8336 236.225 25.4883 235.768C25.1523 235.311 24.905 234.783 24.7463 234.186C24.5876 233.579 24.5083 232.94 24.5083 232.268V231.498C24.5083 230.565 24.6576 229.72 24.9563 228.964C25.2643 228.208 25.7356 227.606 26.3703 227.158C27.0143 226.71 27.831 226.486 28.8203 226.486C29.819 226.486 30.631 226.71 31.2563 227.158C31.891 227.606 32.3623 228.208 32.6703 228.964C32.9783 229.72 33.1323 230.565 33.1323 231.498V232.268C33.1323 232.94 33.053 233.579 32.8943 234.186C32.7356 234.783 32.4836 235.311 32.1383 235.768C31.8023 236.225 31.359 236.589 30.8083 236.86C30.267 237.121 29.6043 237.252 28.8203 237.252ZM28.8203 235.726C29.7256 235.726 30.3883 235.423 30.8083 234.816C31.2376 234.2 31.4523 233.229 31.4523 231.904C31.4523 230.513 31.233 229.519 30.7943 228.922C30.365 228.315 29.707 228.012 28.8203 228.012C27.9336 228.012 27.271 228.315 26.8323 228.922C26.403 229.519 26.1883 230.504 26.1883 231.876C26.1883 233.211 26.403 234.186 26.8323 234.802C27.2616 235.418 27.9243 235.726 28.8203 235.726Z" fill="#9AA2AC"/>
<line opacity="0.15" x1="403" y1="232.5" x2="66" y2="232.5" stroke="#27292C"/>
<path d="M4.424 338.5C5.17067 338.5 5.80067 338.631 6.314 338.892C6.82733 339.144 7.238 339.499 7.546 339.956C7.854 340.404 8.078 340.922 8.218 341.51C8.358 342.098 8.428 342.719 8.428 343.372V344.016C8.428 345.659 8.01267 346.914 7.182 347.782C6.36067 348.65 5.16133 349.084 3.584 349.084C3.22933 349.084 2.912 349.075 2.632 349.056C2.352 349.037 2.058 349.009 1.75 348.972V347.572C2.058 347.6 2.35667 347.628 2.646 347.656C2.94467 347.675 3.28067 347.684 3.654 347.684C4.466 347.684 5.11 347.539 5.586 347.25C6.062 346.951 6.398 346.522 6.594 345.962C6.79933 345.402 6.902 344.721 6.902 343.918V343.134L7.294 342.196C7.28467 342.924 7.14 343.531 6.86 344.016C6.58933 344.492 6.21133 344.851 5.726 345.094C5.25 345.327 4.69467 345.444 4.06 345.444C3.34133 345.444 2.72533 345.299 2.212 345.01C1.69867 344.721 1.31133 344.319 1.05 343.806C0.788667 343.293 0.658 342.7 0.658 342.028C0.658 341.337 0.802667 340.726 1.092 340.194C1.38133 339.662 1.806 339.247 2.366 338.948C2.93533 338.649 3.62133 338.5 4.424 338.5ZM4.438 339.914C3.962 339.914 3.56067 340.007 3.234 340.194C2.90733 340.371 2.66 340.619 2.492 340.936C2.33333 341.244 2.254 341.603 2.254 342.014C2.254 342.434 2.33333 342.803 2.492 343.12C2.65067 343.428 2.884 343.671 3.192 343.848C3.50933 344.025 3.89667 344.114 4.354 344.114C4.79267 344.114 5.18933 344.035 5.544 343.876C5.89867 343.717 6.174 343.484 6.37 343.176C6.57533 342.859 6.678 342.467 6.678 342C6.678 341.617 6.59867 341.267 6.44 340.95C6.28133 340.633 6.034 340.381 5.698 340.194C5.37133 340.007 4.95133 339.914 4.438 339.914ZM10.2616 349V347.026H12.1656V349H10.2616ZM10.2616 343.988V342.014H12.1656V343.988H10.2616ZM17.3123 349.252C16.5376 349.252 15.875 349.107 15.3243 348.818C14.7736 348.519 14.3536 348.123 14.0643 347.628C13.7843 347.124 13.6443 346.573 13.6443 345.976H15.2543C15.2543 346.545 15.4363 346.998 15.8003 347.334C16.1736 347.67 16.6776 347.838 17.3123 347.838C17.7323 347.838 18.0916 347.763 18.3903 347.614C18.6983 347.455 18.9363 347.236 19.1043 346.956C19.2723 346.667 19.3563 346.331 19.3563 345.948C19.3563 345.379 19.1743 344.917 18.8103 344.562C18.4463 344.198 17.947 344.016 17.3123 344.016C17.0323 344.016 16.785 344.053 16.5703 344.128C16.365 344.203 16.183 344.296 16.0243 344.408L15.2263 343.022L18.8663 340.446L18.7263 340.194H14.0503V338.78H20.5043V340.726L17.1583 343.05L16.1223 342.98C16.2903 342.924 16.4723 342.877 16.6683 342.84C16.8736 342.803 17.1023 342.784 17.3543 342.784C18.1196 342.784 18.7683 342.924 19.3003 343.204C19.8416 343.475 20.257 343.843 20.5463 344.31C20.8356 344.777 20.9803 345.299 20.9803 345.878V346.06C20.9803 346.629 20.8356 347.157 20.5463 347.642C20.257 348.127 19.8416 348.519 19.3003 348.818C18.759 349.107 18.0963 349.252 17.3123 349.252ZM27.002 349.252C26.2273 349.252 25.5646 349.121 25.014 348.86C24.4633 348.589 24.0153 348.225 23.67 347.768C23.334 347.311 23.0866 346.783 22.928 346.186C22.7693 345.579 22.69 344.94 22.69 344.268V343.498C22.69 342.565 22.8393 341.72 23.138 340.964C23.446 340.208 23.9173 339.606 24.552 339.158C25.196 338.71 26.0126 338.486 27.002 338.486C28.0006 338.486 28.8126 338.71 29.438 339.158C30.0726 339.606 30.544 340.208 30.852 340.964C31.16 341.72 31.314 342.565 31.314 343.498V344.268C31.314 344.94 31.2346 345.579 31.076 346.186C30.9173 346.783 30.6653 347.311 30.32 347.768C29.984 348.225 29.5406 348.589 28.99 348.86C28.4486 349.121 27.786 349.252 27.002 349.252ZM27.002 347.726C27.9073 347.726 28.57 347.423 28.99 346.816C29.4193 346.2 29.634 345.229 29.634 343.904C29.634 342.513 29.4146 341.519 28.976 340.922C28.5466 340.315 27.8886 340.012 27.002 340.012C26.1153 340.012 25.4526 340.315 25.014 340.922C24.5846 341.519 24.37 342.504 24.37 343.876C24.37 345.211 24.5846 346.186 25.014 346.802C25.4433 347.418 26.106 347.726 27.002 347.726Z" fill="#9AA2AC"/>
<line opacity="0.15" x1="403" y1="344.5" x2="66" y2="344.5" stroke="#27292C"/>
<path d="M2.73 461V451.732L3.346 452.208H0.546V450.78H4.382V461H2.73ZM11.1699 461.252C10.3953 461.252 9.73259 461.121 9.18192 460.86C8.63126 460.589 8.18326 460.225 7.83792 459.768C7.50192 459.311 7.25459 458.783 7.09592 458.186C6.93726 457.579 6.85792 456.94 6.85792 456.268V455.498C6.85792 454.565 7.00726 453.72 7.30592 452.964C7.61392 452.208 8.08526 451.606 8.71992 451.158C9.36392 450.71 10.1806 450.486 11.1699 450.486C12.1686 450.486 12.9806 450.71 13.6059 451.158C14.2406 451.606 14.7119 452.208 15.0199 452.964C15.3279 453.72 15.4819 454.565 15.4819 455.498V456.268C15.4819 456.94 15.4026 457.579 15.2439 458.186C15.0853 458.783 14.8333 459.311 14.4879 459.768C14.1519 460.225 13.7086 460.589 13.1579 460.86C12.6166 461.121 11.9539 461.252 11.1699 461.252ZM11.1699 459.726C12.0753 459.726 12.7379 459.423 13.1579 458.816C13.5873 458.2 13.8019 457.229 13.8019 455.904C13.8019 454.513 13.5826 453.519 13.1439 452.922C12.7146 452.315 12.0566 452.012 11.1699 452.012C10.2833 452.012 9.62059 452.315 9.18192 452.922C8.75259 453.519 8.53792 454.504 8.53792 455.876C8.53792 457.211 8.75259 458.186 9.18192 458.802C9.61126 459.418 10.2739 459.726 11.1699 459.726ZM17.3299 461V459.026H19.2339V461H17.3299ZM17.3299 455.988V454.014H19.2339V455.988H17.3299ZM25.3887 461.252C24.614 461.252 23.9513 461.121 23.4007 460.86C22.85 460.589 22.402 460.225 22.0567 459.768C21.7207 459.311 21.4733 458.783 21.3147 458.186C21.156 457.579 21.0767 456.94 21.0767 456.268V455.498C21.0767 454.565 21.226 453.72 21.5247 452.964C21.8327 452.208 22.304 451.606 22.9387 451.158C23.5827 450.71 24.3993 450.486 25.3887 450.486C26.3873 450.486 27.1993 450.71 27.8247 451.158C28.4593 451.606 28.9307 452.208 29.2387 452.964C29.5467 453.72 29.7007 454.565 29.7007 455.498V456.268C29.7007 456.94 29.6213 457.579 29.4627 458.186C29.304 458.783 29.052 459.311 28.7067 459.768C28.3707 460.225 27.9273 460.589 27.3767 460.86C26.8353 461.121 26.1727 461.252 25.3887 461.252ZM25.3887 459.726C26.294 459.726 26.9567 459.423 27.3767 458.816C27.806 458.2 28.0207 457.229 28.0207 455.904C28.0207 454.513 27.8013 453.519 27.3627 452.922C26.9333 452.315 26.2753 452.012 25.3887 452.012C24.502 452.012 23.8393 452.315 23.4007 452.922C22.9713 453.519 22.7567 454.504 22.7567 455.876C22.7567 457.211 22.9713 458.186 23.4007 458.802C23.83 459.418 24.4927 459.726 25.3887 459.726ZM35.8887 461.252C35.114 461.252 34.4513 461.121 33.9007 460.86C33.35 460.589 32.902 460.225 32.5567 459.768C32.2207 459.311 31.9733 458.783 31.8147 458.186C31.656 457.579 31.5767 456.94 31.5767 456.268V455.498C31.5767 454.565 31.726 453.72 32.0247 452.964C32.3327 452.208 32.804 451.606 33.4387 451.158C34.0827 450.71 34.8993 450.486 35.8887 450.486C36.8873 450.486 37.6993 450.71 38.3247 451.158C38.9593 451.606 39.4307 452.208 39.7387 452.964C40.0467 453.72 40.2007 454.565 40.2007 455.498V456.268C40.2007 456.94 40.1213 457.579 39.9627 458.186C39.804 458.783 39.552 459.311 39.2067 459.768C38.8707 460.225 38.4273 460.589 37.8767 460.86C37.3353 461.121 36.6727 461.252 35.8887 461.252ZM35.8887 459.726C36.794 459.726 37.4567 459.423 37.8767 458.816C38.306 458.2 38.5207 457.229 38.5207 455.904C38.5207 454.513 38.3013 453.519 37.8627 452.922C37.4333 452.315 36.7753 452.012 35.8887 452.012C35.002 452.012 34.3393 452.315 33.9007 452.922C33.4713 453.519 33.2567 454.504 33.2567 455.876C33.2567 457.211 33.4713 458.186 33.9007 458.802C34.33 459.418 34.9927 459.726 35.8887 459.726Z" fill="#9AA2AC"/>
<line opacity="0.15" x1="403" y1="456.5" x2="66" y2="456.5" stroke="#27292C"/>
<path d="M2.73 573V563.732L3.346 564.208H0.546V562.78H4.382V573H2.73ZM11.1699 573.252C10.3953 573.252 9.73259 573.121 9.18192 572.86C8.63126 572.589 8.18326 572.225 7.83792 571.768C7.50192 571.311 7.25459 570.783 7.09592 570.186C6.93726 569.579 6.85792 568.94 6.85792 568.268V567.498C6.85792 566.565 7.00726 565.72 7.30592 564.964C7.61392 564.208 8.08526 563.606 8.71992 563.158C9.36392 562.71 10.1806 562.486 11.1699 562.486C12.1686 562.486 12.9806 562.71 13.6059 563.158C14.2406 563.606 14.7119 564.208 15.0199 564.964C15.3279 565.72 15.4819 566.565 15.4819 567.498V568.268C15.4819 568.94 15.4026 569.579 15.2439 570.186C15.0853 570.783 14.8333 571.311 14.4879 571.768C14.1519 572.225 13.7086 572.589 13.1579 572.86C12.6166 573.121 11.9539 573.252 11.1699 573.252ZM11.1699 571.726C12.0753 571.726 12.7379 571.423 13.1579 570.816C13.5873 570.2 13.8019 569.229 13.8019 567.904C13.8019 566.513 13.5826 565.519 13.1439 564.922C12.7146 564.315 12.0566 564.012 11.1699 564.012C10.2833 564.012 9.62059 564.315 9.18192 564.922C8.75259 565.519 8.53792 566.504 8.53792 567.876C8.53792 569.211 8.75259 570.186 9.18192 570.802C9.61126 571.418 10.2739 571.726 11.1699 571.726ZM17.3299 573V571.026H19.2339V573H17.3299ZM17.3299 567.988V566.014H19.2339V567.988H17.3299ZM24.3807 573.252C23.606 573.252 22.9433 573.107 22.3927 572.818C21.842 572.519 21.422 572.123 21.1327 571.628C20.8527 571.124 20.7127 570.573 20.7127 569.976H22.3227C22.3227 570.545 22.5047 570.998 22.8687 571.334C23.242 571.67 23.746 571.838 24.3807 571.838C24.8007 571.838 25.16 571.763 25.4587 571.614C25.7667 571.455 26.0047 571.236 26.1727 570.956C26.3407 570.667 26.4247 570.331 26.4247 569.948C26.4247 569.379 26.2427 568.917 25.8787 568.562C25.5147 568.198 25.0153 568.016 24.3807 568.016C24.1007 568.016 23.8533 568.053 23.6387 568.128C23.4333 568.203 23.2513 568.296 23.0927 568.408L22.2947 567.022L25.9347 564.446L25.7947 564.194H21.1187V562.78H27.5727V564.726L24.2267 567.05L23.1907 566.98C23.3587 566.924 23.5407 566.877 23.7367 566.84C23.942 566.803 24.1707 566.784 24.4227 566.784C25.188 566.784 25.8367 566.924 26.3687 567.204C26.91 567.475 27.3253 567.843 27.6147 568.31C27.904 568.777 28.0487 569.299 28.0487 569.878V570.06C28.0487 570.629 27.904 571.157 27.6147 571.642C27.3253 572.127 26.91 572.519 26.3687 572.818C25.8273 573.107 25.1647 573.252 24.3807 573.252ZM34.0703 573.252C33.2956 573.252 32.633 573.121 32.0823 572.86C31.5316 572.589 31.0836 572.225 30.7383 571.768C30.4023 571.311 30.155 570.783 29.9963 570.186C29.8376 569.579 29.7583 568.94 29.7583 568.268V567.498C29.7583 566.565 29.9076 565.72 30.2063 564.964C30.5143 564.208 30.9856 563.606 31.6203 563.158C32.2643 562.71 33.081 562.486 34.0703 562.486C35.069 562.486 35.881 562.71 36.5063 563.158C37.141 563.606 37.6123 564.208 37.9203 564.964C38.2283 565.72 38.3823 566.565 38.3823 567.498V568.268C38.3823 568.94 38.303 569.579 38.1443 570.186C37.9856 570.783 37.7336 571.311 37.3883 571.768C37.0523 572.225 36.609 572.589 36.0583 572.86C35.517 573.121 34.8543 573.252 34.0703 573.252ZM34.0703 571.726C34.9756 571.726 35.6383 571.423 36.0583 570.816C36.4876 570.2 36.7023 569.229 36.7023 567.904C36.7023 566.513 36.483 565.519 36.0443 564.922C35.615 564.315 34.957 564.012 34.0703 564.012C33.1836 564.012 32.521 564.315 32.0823 564.922C31.653 565.519 31.4383 566.504 31.4383 567.876C31.4383 569.211 31.653 570.186 32.0823 570.802C32.5116 571.418 33.1743 571.726 34.0703 571.726Z" fill="#9AA2AC"/>
<line opacity="0.15" x1="403" y1="568.5" x2="66" y2="568.5" stroke="#27292C"/>
<path d="M4.522 125.266C3.766 125.266 3.094 125.14 2.506 124.888C1.92733 124.627 1.47467 124.263 1.148 123.796C0.821333 123.329 0.658 122.779 0.658 122.144C0.658 121.733 0.732667 121.365 0.882 121.038C1.04067 120.702 1.25533 120.413 1.526 120.17C1.79667 119.927 2.10933 119.741 2.464 119.61V119.456C2.184 119.344 1.932 119.19 1.708 118.994C1.484 118.789 1.30667 118.546 1.176 118.266C1.04533 117.986 0.98 117.664 0.98 117.3C0.98 116.693 1.13867 116.185 1.456 115.774C1.78267 115.363 2.212 115.051 2.744 114.836C3.28533 114.621 3.878 114.514 4.522 114.514C5.18467 114.514 5.782 114.621 6.314 114.836C6.846 115.051 7.27067 115.363 7.588 115.774C7.90533 116.185 8.064 116.693 8.064 117.3C8.064 117.664 7.99867 117.986 7.868 118.266C7.74667 118.546 7.574 118.789 7.35 118.994C7.126 119.19 6.86933 119.344 6.58 119.456V119.61C6.944 119.741 7.26133 119.927 7.532 120.17C7.80267 120.413 8.01267 120.702 8.162 121.038C8.32067 121.365 8.4 121.733 8.4 122.144C8.4 122.779 8.23667 123.329 7.91 123.796C7.58333 124.263 7.126 124.627 6.538 124.888C5.95933 125.14 5.28733 125.266 4.522 125.266ZM4.522 123.866C4.98867 123.866 5.39 123.796 5.726 123.656C6.062 123.507 6.32333 123.292 6.51 123.012C6.69667 122.732 6.79 122.401 6.79 122.018C6.79 121.635 6.69667 121.309 6.51 121.038C6.33267 120.767 6.076 120.557 5.74 120.408C5.404 120.259 4.998 120.184 4.522 120.184C4.05533 120.184 3.654 120.259 3.318 120.408C2.982 120.557 2.72533 120.767 2.548 121.038C2.37067 121.309 2.282 121.635 2.282 122.018C2.282 122.401 2.37067 122.732 2.548 123.012C2.72533 123.292 2.982 123.507 3.318 123.656C3.654 123.796 4.05533 123.866 4.522 123.866ZM4.522 118.91C5.11 118.91 5.57667 118.789 5.922 118.546C6.26733 118.294 6.44 117.911 6.44 117.398C6.44 116.885 6.26267 116.507 5.908 116.264C5.56267 116.021 5.10067 115.9 4.522 115.9C3.94333 115.9 3.47667 116.026 3.122 116.278C2.77667 116.521 2.604 116.894 2.604 117.398C2.604 117.911 2.77667 118.294 3.122 118.546C3.47667 118.789 3.94333 118.91 4.522 118.91ZM9.97445 125V123.026H11.8785V125H9.97445ZM9.97445 119.988V118.014H11.8785V119.988H9.97445ZM17.0252 125.252C16.2505 125.252 15.5879 125.107 15.0372 124.818C14.4865 124.519 14.0665 124.123 13.7772 123.628C13.4972 123.124 13.3572 122.573 13.3572 121.976H14.9672C14.9672 122.545 15.1492 122.998 15.5132 123.334C15.8865 123.67 16.3905 123.838 17.0252 123.838C17.4452 123.838 17.8045 123.763 18.1032 123.614C18.4112 123.455 18.6492 123.236 18.8172 122.956C18.9852 122.667 19.0692 122.331 19.0692 121.948C19.0692 121.379 18.8872 120.917 18.5232 120.562C18.1592 120.198 17.6599 120.016 17.0252 120.016C16.7452 120.016 16.4979 120.053 16.2832 120.128C16.0779 120.203 15.8959 120.296 15.7372 120.408L14.9392 119.022L18.5792 116.446L18.4392 116.194H13.7632V114.78H20.2172V116.726L16.8712 119.05L15.8352 118.98C16.0032 118.924 16.1852 118.877 16.3812 118.84C16.5865 118.803 16.8152 118.784 17.0672 118.784C17.8325 118.784 18.4812 118.924 19.0132 119.204C19.5545 119.475 19.9699 119.843 20.2592 120.31C20.5485 120.777 20.6932 121.299 20.6932 121.878V122.06C20.6932 122.629 20.5485 123.157 20.2592 123.642C19.9699 124.127 19.5545 124.519 19.0132 124.818C18.4719 125.107 17.8092 125.252 17.0252 125.252ZM26.7148 125.252C25.9402 125.252 25.2775 125.121 24.7268 124.86C24.1762 124.589 23.7282 124.225 23.3828 123.768C23.0468 123.311 22.7995 122.783 22.6408 122.186C22.4822 121.579 22.4028 120.94 22.4028 120.268V119.498C22.4028 118.565 22.5522 117.72 22.8508 116.964C23.1588 116.208 23.6302 115.606 24.2648 115.158C24.9088 114.71 25.7255 114.486 26.7148 114.486C27.7135 114.486 28.5255 114.71 29.1508 115.158C29.7855 115.606 30.2568 116.208 30.5648 116.964C30.8728 117.72 31.0268 118.565 31.0268 119.498V120.268C31.0268 120.94 30.9475 121.579 30.7888 122.186C30.6302 122.783 30.3782 123.311 30.0328 123.768C29.6968 124.225 29.2535 124.589 28.7028 124.86C28.1615 125.121 27.4988 125.252 26.7148 125.252ZM26.7148 123.726C27.6202 123.726 28.2828 123.423 28.7028 122.816C29.1322 122.2 29.3468 121.229 29.3468 119.904C29.3468 118.513 29.1275 117.519 28.6888 116.922C28.2595 116.315 27.6015 116.012 26.7148 116.012C25.8282 116.012 25.1655 116.315 24.7268 116.922C24.2975 117.519 24.0828 118.504 24.0828 119.876C24.0828 121.211 24.2975 122.186 24.7268 122.802C25.1562 123.418 25.8188 123.726 26.7148 123.726Z" fill="#9AA2AC"/>
<line opacity="0.15" x1="403" y1="120.5" x2="66" y2="120.5" stroke="#27292C"/>
<rect y="277" width="60" height="28" rx="14" fill="#346AFF"/>
<path d="M21.1393 286C21.7793 286 22.3193 286.112 22.7593 286.336C23.1993 286.552 23.5513 286.856 23.8153 287.248C24.0793 287.632 24.2713 288.076 24.3913 288.58C24.5113 289.084 24.5713 289.616 24.5713 290.176V290.728C24.5713 292.136 24.2153 293.212 23.5033 293.956C22.7993 294.7 21.7713 295.072 20.4193 295.072C20.1153 295.072 19.8433 295.064 19.6033 295.048C19.3633 295.032 19.1113 295.008 18.8473 294.976V293.776C19.1113 293.8 19.3673 293.824 19.6153 293.848C19.8713 293.864 20.1593 293.872 20.4793 293.872C21.1753 293.872 21.7273 293.748 22.1353 293.5C22.5433 293.244 22.8313 292.876 22.9993 292.396C23.1753 291.916 23.2633 291.332 23.2633 290.644V289.972L23.5993 289.168C23.5913 289.792 23.4673 290.312 23.2273 290.728C22.9953 291.136 22.6713 291.444 22.2553 291.652C21.8473 291.852 21.3713 291.952 20.8273 291.952C20.2113 291.952 19.6833 291.828 19.2433 291.58C18.8033 291.332 18.4713 290.988 18.2473 290.548C18.0233 290.108 17.9113 289.6 17.9113 289.024C17.9113 288.432 18.0353 287.908 18.2833 287.452C18.5313 286.996 18.8953 286.64 19.3753 286.384C19.8633 286.128 20.4513 286 21.1393 286ZM21.1513 287.212C20.7433 287.212 20.3993 287.292 20.1193 287.452C19.8393 287.604 19.6273 287.816 19.4833 288.088C19.3473 288.352 19.2793 288.66 19.2793 289.012C19.2793 289.372 19.3473 289.688 19.4833 289.96C19.6193 290.224 19.8193 290.432 20.0833 290.584C20.3553 290.736 20.6873 290.812 21.0793 290.812C21.4553 290.812 21.7953 290.744 22.0993 290.608C22.4033 290.472 22.6393 290.272 22.8073 290.008C22.9833 289.736 23.0713 289.4 23.0713 289C23.0713 288.672 23.0033 288.372 22.8673 288.1C22.7313 287.828 22.5193 287.612 22.2313 287.452C21.9513 287.292 21.5913 287.212 21.1513 287.212ZM26.5429 295V293.308H28.1749V295H26.5429ZM26.5429 290.704V289.012H28.1749V290.704H26.5429ZM31.6904 295V287.056L32.2184 287.464H29.8184V286.24H33.1064V295H31.6904ZM35.3406 293.056V291.424L38.8686 286.012L39.9126 286.768L36.7086 291.7L36.8286 291.928H42.3606V293.056H35.3406ZM39.9246 295V288.76H41.2446V295H39.9246Z" fill="white"/>
<line x1="402" y1="291" x2="60" y2="291" stroke="#346AFF" stroke-width="2"/>
</g>
<defs>
<clipPath id="clip0_1816_146">
<rect width="402" height="582" fill="white"/>
</clipPath>
<clipPath id="clip1_1816_146">
<rect x="74" y="16" width="321" height="278" rx="24" fill="white"/>
</clipPath>
</defs>
</svg>
