<svg width="18" height="18" viewBox="0 0 18 18" fill="none" xmlns="http://www.w3.org/2000/svg">
<path d="M12.7964 0C14.2867 0 15.5858 0.986701 15.9482 2.39368L16.3333 3.89257H17.2461C17.6257 3.89257 17.9394 4.16715 17.9891 4.52339L17.9959 4.62243C17.9959 4.99193 17.7138 5.29729 17.3478 5.34562L17.2461 5.35229H16.7102L16.9182 6.15659C17.5668 6.54077 18 7.23536 18 8.02843V16.297C18 17.2375 17.2167 18 16.2504 18H14.7467C13.7804 18 12.9971 17.2375 12.9971 16.297L12.9961 15.0837H5.00287L5.00295 16.297C5.00295 17.2375 4.21962 18 3.25334 18H1.7496C0.783324 18 0 17.2375 0 16.297V8.02843C0 7.23547 0.433058 6.54096 1.08153 6.15675L1.28871 5.35229H0.74983C0.37022 5.35229 0.0564963 5.07771 0.00684511 4.72147L0 4.62243C0 4.25293 0.28209 3.94756 0.648082 3.89923L0.74983 3.89257H1.66262L2.04851 2.39564C2.41013 0.987707 3.70978 0 5.20076 0H12.7964ZM3.50321 15.0837H1.49866L1.49966 16.297C1.49966 16.4314 1.61156 16.5403 1.7496 16.5403H3.25334C3.39138 16.5403 3.50329 16.4314 3.50329 16.297L3.50321 15.0837ZM16.5003 15.0837H14.4957L14.4967 16.297C14.4967 16.4314 14.6086 16.5403 14.7467 16.5403H16.2504C16.3884 16.5403 16.5003 16.4314 16.5003 16.297L16.5003 15.0837ZM15.7505 7.29857H2.24949C1.83537 7.29857 1.49966 7.62534 1.49966 8.02843V13.624H16.5003V8.02843C16.5003 7.62534 16.1646 7.29857 15.7505 7.29857ZM7.24735 10.7046H10.7483C11.1624 10.7046 11.4981 11.0313 11.4981 11.4344C11.4981 11.8039 11.2161 12.1093 10.8501 12.1576L10.7483 12.1643H7.24735C6.83323 12.1643 6.49752 11.8375 6.49752 11.4344C6.49752 11.0649 6.77961 10.7596 7.1456 10.7112L7.24735 10.7046H10.7483H7.24735ZM13.9968 8.75828C14.5489 8.75828 14.9965 9.19396 14.9965 9.7314C14.9965 10.2688 14.5489 10.7045 13.9968 10.7045C13.4447 10.7045 12.9971 10.2688 12.9971 9.7314C12.9971 9.19396 13.4447 8.75828 13.9968 8.75828ZM3.99907 8.75828C4.55121 8.75828 4.99882 9.19396 4.99882 9.7314C4.99882 10.2688 4.55121 10.7045 3.99907 10.7045C3.44692 10.7045 2.99932 10.2688 2.99932 9.7314C2.99932 9.19396 3.44692 8.75828 3.99907 8.75828ZM12.7964 1.45971H5.20076C4.39793 1.45971 3.69811 1.99156 3.5034 2.74968L2.70997 5.83886H15.2894L14.4935 2.74862C14.2984 1.99102 13.5989 1.45971 12.7964 1.45971Z" fill="black"/>
</svg>
