<svg width="22" height="20" viewBox="0 0 22 20" fill="none" xmlns="http://www.w3.org/2000/svg">
<path d="M8.46921 7.6432L7.76898 1.76843L7.76712 1.69484C7.76712 0.806216 8.48749 0.0858459 9.37611 0.0858459C10.1789 0.0858459 10.9218 0.505508 11.3545 1.22026L11.4408 1.38093L14.3857 7.46995L18.3428 7.35414C19.7765 7.31203 20.9728 8.44009 21.0151 9.88473L21.016 9.94996C21.016 11.3843 19.8532 12.5471 18.3969 12.5468L14.4327 12.4307L11.4409 18.619C11.058 19.411 10.2558 19.9142 9.37611 19.9142C8.48749 19.9142 7.76712 19.1938 7.76745 18.2828L7.77396 18.1648L8.48083 12.2566L6.34875 12.1943L6.07985 12.93C5.79933 13.6973 5.06936 14.2077 4.25238 14.2077C3.37644 14.2077 2.66636 13.4976 2.66636 12.6213L2.66672 11.8617L2.51168 11.8295C1.62169 11.6437 0.984009 10.8591 0.984009 9.94996C0.984009 9.04066 1.62216 8.25619 2.51223 8.07113L2.66672 8.03897L2.66636 7.27827C2.66636 6.47624 3.26448 5.80342 4.10101 5.70021L4.25238 5.69225C4.99732 5.69225 5.67525 6.11741 6.01684 6.81929L6.07966 6.96943L6.34929 7.70533L8.46921 7.6432ZM9.37611 1.58585C9.31591 1.58585 9.26712 1.63464 9.26678 1.67246L10.1532 9.09448L5.31273 9.23636L4.68532 7.52109L4.65277 7.44202C4.57841 7.28973 4.42298 7.19225 4.29887 7.19081L4.24064 7.19296C4.19905 7.19817 4.16636 7.23493 4.16636 7.27791L4.1673 9.25873L2.81776 9.53968C2.62336 9.5801 2.48401 9.7514 2.48401 9.94996C2.48401 10.1488 2.6235 10.3205 2.81779 10.361L4.1673 10.642L4.16636 12.6217C4.16636 12.6692 4.20487 12.7077 4.25238 12.7077C4.43954 12.7077 4.60677 12.5908 4.67102 12.415L5.31127 10.6634L10.1652 10.8051L9.26831 18.2763L9.26712 18.3052C9.26712 18.3654 9.31591 18.4142 9.37611 18.4142C9.68043 18.4142 9.95794 18.2401 10.0904 17.9661L13.5053 10.9029L18.4189 11.0471C19.0248 11.0471 19.5161 10.5559 19.5161 9.96097L19.5155 9.91776C19.4978 9.31219 18.9924 8.83571 18.3868 8.8535L13.4583 8.99774L10.1066 2.06557L10.0542 1.96738C9.91088 1.73107 9.65378 1.58585 9.37611 1.58585Z" fill="black"/>
</svg>
