<svg width="765" height="330" viewBox="0 0 765 330" fill="none" xmlns="http://www.w3.org/2000/svg">
<g clip-path="url(#clip0_2023_6)">
<rect y="0.5" width="765" height="329" rx="16" fill="#FEECCF"/>
<path d="M0 43.5C0 34.6634 7.16344 27.5 16 27.5H749C757.837 27.5 765 34.6634 765 43.5V313.5C765 322.337 757.837 329.5 749 329.5H16C7.16344 329.5 0 322.337 0 313.5V43.5Z" fill="#FEECCF"/>
<mask id="mask0_2023_6" style="mask-type:luminance" maskUnits="userSpaceOnUse" x="263" y="0" width="502" height="330">
<path d="M749 0.5H279C270.163 0.5 263 7.66344 263 16.5V313.5C263 322.337 270.163 329.5 279 329.5H749C757.837 329.5 765 322.337 765 313.5V16.5C765 7.66344 757.837 0.5 749 0.5Z" fill="white"/>
</mask>
<g mask="url(#mask0_2023_6)">
<path opacity="0.4" d="M846.123 60.435C725.117 30.858 597.594 29.9572 476.08 57.3292C441.997 65.0163 408.465 74.9581 375.706 87.0886C370.396 89.0504 366.785 94.1789 368.38 99.965C369.787 105.066 375.944 109.255 381.282 107.276C495.565 65.0053 619.046 49.8963 740.206 62.9108C774.01 66.5891 807.531 72.508 840.547 80.6283C853.659 83.8336 859.257 63.6458 846.123 60.435Z" fill="white"/>
<path opacity="0.4" d="M838.657 124.165C718.14 110.18 596.078 118.244 478.459 147.961C445.213 156.374 412.428 166.51 380.239 178.329C371.441 181.556 375.256 195.731 384.143 192.465C529.311 139.151 685.034 120.772 838.657 138.821C842.627 139.285 845.961 135.124 845.999 131.493C846.044 127.155 842.572 124.624 838.657 124.165Z" fill="white"/>
<path opacity="0.4" d="M802.321 177.233C732.684 161.722 661.365 155.038 590.051 157.338C518.731 159.627 447.973 170.766 379.409 190.497C340.752 201.677 302.943 215.596 266.272 232.149C258.896 235.464 265.292 246.302 272.623 242.997C336.69 214.26 404.133 193.7 473.354 181.804C542.251 169.919 612.359 166.598 682.075 171.917C721.41 174.926 760.478 180.751 798.977 189.347C806.868 191.104 810.24 178.996 802.321 177.233Z" fill="white"/>
<path opacity="0.4" d="M817.14 232.563C673.566 213.051 526.353 225.033 388.07 268.615C348.915 281.018 310.571 295.846 273.26 313.012C265.946 316.363 264.144 326.93 267.919 333.382C272.309 340.883 280.96 342.084 288.303 338.719C414.338 280.99 553.258 251.89 691.834 253.047C731.096 253.309 770.303 256.058 809.218 261.278C817.182 262.357 825.212 259.356 827.55 250.875C829.459 243.938 825.169 233.649 817.14 232.563Z" fill="white"/>
<path d="M556.89 61.7636C620.217 45.2825 685.966 40.113 751.098 46.4943C737.343 43.5212 723.473 41.2885 709.425 40.4706C707.055 36.1988 704.441 31.7777 700.216 29.2908C695.991 26.804 689.74 27.0803 687.065 31.1864C687.41 28.2103 687.146 25.1953 686.288 22.3244C685.429 19.4535 683.995 16.7867 682.073 14.486C680.15 12.1852 677.779 10.2985 675.103 8.9405C672.427 7.58248 669.503 6.78146 666.507 6.58611C663.512 6.39075 660.508 6.80514 657.678 7.80409C654.848 8.80304 652.251 10.3657 650.045 12.3972C647.838 14.4287 646.069 16.8865 644.843 19.6215C643.618 22.3565 642.963 25.3116 642.917 28.3072C637.9 19.8021 630.297 12.43 620.884 9.31864C611.471 6.20731 600.064 8.2631 593.752 15.8452C587.954 22.7808 587.339 32.5845 587.627 41.6201C583.879 40.4043 578.729 42.6149 577.001 46.1517C576.337 47.5167 576.043 49.0807 575.135 50.3075C574.316 51.4128 573.081 52.1312 571.879 52.8165C566.652 55.7897 562.106 58.7905 556.89 61.7636Z" fill="white"/>
<path d="M357.568 145.022C404.812 123.445 454.543 107.766 505.634 98.3406C495.113 99.4458 484.719 100.12 474.176 101.22C470.444 93.4829 466.424 84.9171 458.777 80.9215C451.579 77.1581 442.343 78.1584 435.765 82.911C429.186 87.6637 425.338 95.71 425.122 103.801C423.239 96.1576 416.141 90.0289 408.344 88.8463C400.548 87.6637 392.148 91.8692 388.704 98.9485C386.289 103.911 386.295 109.686 386.345 115.179C385.083 115.439 383.886 115.945 382.822 116.669C381.757 117.393 380.847 118.32 380.143 119.396C379.446 120.449 378.968 121.631 378.739 122.872C378.51 124.113 378.533 125.387 378.809 126.619C371.123 133.057 365.259 138.583 357.568 145.022Z" fill="white"/>
<path d="M319 321.5C344.443 304.99 373.954 291.493 401.73 279.041C429.693 266.511 459.418 258.43 489 250.342C479.95 250.342 471.158 250.946 462.33 252.993C456.977 242.254 446.529 234.827 434.76 232.304C429.871 231.259 424.626 231.017 420.001 232.901C415.933 234.557 412.671 237.719 409.802 241.038C404.236 247.478 399.518 255.701 400.995 264.073C400.196 263.128 398.497 263.256 397.256 263.142C396.012 263.078 394.766 263.215 393.566 263.547C391.714 263.891 389.963 264.644 388.442 265.751C387.693 266.314 387.103 267.06 386.729 267.916C386.354 268.773 386.206 269.711 386.301 270.64C382.732 264.819 373.604 262.19 366.838 263.149C360.073 264.109 354.106 268.835 351.187 275.018C348.268 281.202 348.283 288.522 350.723 294.869C339.975 301.863 329.049 313.561 319 321.5Z" fill="white"/>
<path d="M822.228 406.135C817.798 406.29 815.234 406.505 810.827 406.505H456C459.428 391.186 463.791 374.027 467.207 358.708C462.312 348.379 460.114 318.366 481.051 297.692C481.792 296.946 482.573 296.227 483.382 295.52C483.651 295.258 483.934 295.01 484.229 294.774C484.229 294.586 484.229 294.404 484.273 294.221C484.807 287.886 485.947 281.616 487.679 275.498C484.218 269.927 483.116 263.848 483.382 257.311C484.163 239.997 490.318 223.353 500.996 209.685C500.996 209.403 500.996 209.132 500.996 208.839C501.383 197.361 502.563 185.949 505.747 174.907C505.747 174.907 502.17 140.81 529.978 101.44C556.285 64.2147 623.612 7.02256 630.789 0.965683L631.342 0.484886L631.403 0.440674C635.778 0.440674 638.901 2.70095 641.11 6.45886L648.065 9.90178L654.71 13.1789C654.82 15.0579 655.668 16.7323 656.714 18.3295C657.268 19.1639 657.822 19.9542 658.431 20.7389C658.464 20.7832 658.486 20.8329 658.519 20.8771C666.233 31.3772 671.343 43.6512 674.057 56.3949C674.716 59.4289 675.131 62.4131 676.925 64.9773C677.18 64.7673 677.601 64.7231 677.872 64.5186V64.5629C679.851 63.0209 682.087 61.8403 684.478 61.0757L684.738 60.9873C691.014 64.9 697.158 69.0023 703.172 73.2945C706.106 80.9264 704.728 89.2546 704.179 97.4004C703.626 105.69 704.257 114.046 704.866 122.352C705.032 124.479 705.348 126.9 707.081 128.138C707.114 128.282 707.157 128.424 707.208 128.563C707.33 129.072 707.463 129.58 707.612 130.072C711.267 143.545 715.282 156.904 719.656 170.149C720.038 171.332 720.431 172.509 720.841 173.692C720.91 173.674 720.98 173.663 721.051 173.658C734.562 171.249 747.63 165.242 760.172 159.627C774.447 170.834 785.516 183.506 796.961 197.576C799.232 197.284 801.945 197.284 803.75 198.682C804.858 199.549 805.489 200.892 806.38 201.97C807.092 202.815 807.974 203.501 808.969 203.984C809.964 204.467 811.05 204.735 812.156 204.772C815.245 204.933 818.306 205.432 821.287 206.258L821.364 225.048L821.73 297.095L822.228 406.135Z" fill="#FEC268"/>
<g style="mix-blend-mode:multiply">
<path d="M797 197.571C785.56 183.49 774.48 170.818 760.205 159.622C747.674 165.231 734.601 171.227 721.085 173.648C721.013 173.648 720.941 173.648 720.874 173.681C715.85 158.782 711.306 143.741 707.241 128.558C707.203 128.415 707.158 128.277 707.125 128.133C705.375 126.895 705.054 124.469 704.91 122.341C704.29 114.052 703.664 105.707 704.218 97.3899C704.772 89.2496 706.14 80.9158 703.21 73.2895C697.193 69.0121 691.043 64.9079 684.76 60.9768L684.5 61.0652C683.088 68.1113 681.82 75.1187 679.616 81.9658C682.938 87.2325 682.136 94.0851 684.018 100.037C685.225 103.823 687.529 107.221 688.747 110.99C690.15 115.386 690.046 120.122 688.454 124.452C688.764 124.651 689.079 124.828 689.389 125.005L688.775 124.85C690.275 126.32 690.868 128.111 692.02 129.874C693.232 131.611 693.846 133.694 693.769 135.809C693.675 136.914 693.337 137.953 693.288 139.053C693.272 140.363 693.459 141.668 693.841 142.921C696.883 154.803 699.919 166.685 702.95 178.566L704.932 184.242L760.82 169.785L794.774 202.667L797.022 197.571H797Z" fill="#C3A178"/>
</g>
<g style="mix-blend-mode:multiply">
<path d="M700.962 106.663C694.55 102.066 688.382 97.3626 683.016 91.5931C640.817 109.703 598.401 128.912 562.11 157.025C525.819 185.138 476.521 238.014 487.69 275.488C484.223 269.923 483.116 263.844 483.393 257.301C484.165 239.987 490.319 223.344 501.001 209.68C501.001 209.393 501.001 209.127 501.001 208.834C526.14 173.532 577.277 129.194 679.422 82.3475C687.091 88.3712 694.373 94.5331 700.929 101.69C700.907 103.298 700.962 105.072 700.962 106.663Z" fill="#C3A178"/>
</g>
<g style="mix-blend-mode:multiply">
<path d="M628.02 206.308V166.121C628.02 166.121 626.359 144.281 645.185 135.334C664.012 126.386 662.971 149.768 662.971 149.768V190.995L628.02 206.308Z" fill="#C3A178"/>
</g>
<g style="mix-blend-mode:multiply">
<path d="M645.523 198.644V166.121C645.523 166.121 644.039 146.569 659.843 136.887C657.379 133.466 652.999 131.626 645.191 135.334C626.364 144.281 628.026 166.121 628.026 166.121V206.309L645.523 198.644Z" fill="#C3A178"/>
</g>
<g style="mix-blend-mode:multiply">
<path d="M604.47 215.146V172.189C604.47 172.189 604.271 156.097 594.165 162.026C582.283 169.001 581.984 190.388 581.984 190.388V227.138L604.47 215.146Z" fill="#C3A178"/>
</g>
<g style="mix-blend-mode:multiply">
<path d="M594.287 192.658C594.287 192.658 594.548 174.852 603.623 166.441C602.516 162.518 600.002 158.599 594.165 162.02C582.283 168.995 581.984 190.381 581.984 190.381V227.137L594.293 220.577L594.287 192.658Z" fill="#C3A178"/>
</g>
<g style="mix-blend-mode:multiply">
<path d="M565.355 233.609V197.097C565.355 197.097 564.558 183.563 553.959 189.592C543.361 195.621 544.269 210.83 544.269 210.83V248.851L565.355 233.609Z" fill="#C3A178"/>
</g>
<g style="mix-blend-mode:multiply">
<path d="M561.872 236.118V215.035C561.872 215.035 561.385 206.812 565.355 200.058V197.091C565.355 197.091 564.558 183.557 553.959 189.586C543.361 195.615 544.269 210.824 544.269 210.824V248.845L561.872 236.118Z" fill="#C3A178"/>
</g>
<g style="mix-blend-mode:multiply">
<path d="M532.857 255.564V224.512C532.857 224.512 533.084 212.68 525.659 215.184C518.233 217.687 518.366 235.2 518.366 235.2V266.147L532.857 255.564Z" fill="#C3A178"/>
</g>
<g style="mix-blend-mode:multiply">
<path d="M510.403 270.121V249.309C510.403 249.309 510.06 241.23 505.73 242.258C501.4 243.285 501.854 255.449 501.854 255.449V278.201L510.403 270.121Z" fill="#C3A178"/>
</g>
<g style="mix-blend-mode:multiply">
<path d="M733.56 264.777V336.211C726.86 336.686 712.657 338.294 700.464 339.759C689.002 341.118 679.312 342.351 679.312 342.351V278.195C679.312 278.195 678.846 244.523 706.893 242.164C710.62 241.776 714.386 242.015 718.033 242.871C734.529 247.032 733.56 264.777 733.56 264.777Z" fill="#C3A178"/>
</g>
<g style="mix-blend-mode:multiply">
<path d="M651.05 283.43V345.325L628.961 350.182L610.688 354.2V292.178C610.688 292.178 611.375 266.596 631.437 263.872C636.625 263.164 640.435 264.132 643.242 265.944C651.299 271.167 651.05 283.43 651.05 283.43Z" fill="#C3A178"/>
</g>
<g style="mix-blend-mode:multiply">
<path d="M586.314 304.357V356.233L580.106 358.112L557.813 364.876V316.874C557.813 316.874 555.992 284.822 572.637 282.296C577.858 281.511 581.153 283.401 583.196 286.352C587.703 292.802 586.314 304.357 586.314 304.357Z" fill="#C3A178"/>
</g>
<g style="mix-blend-mode:multiply">
<path d="M543.992 368.971V320.533C543.992 320.533 546.501 301.882 535.332 303.7C524.164 305.518 524.618 327.131 524.618 327.131V376.614L543.992 368.971Z" fill="#C3A178"/>
</g>
<g style="mix-blend-mode:multiply">
<path d="M540.914 370.182V326.209C540.914 326.209 540.731 317.168 543.616 310.287C542.68 306.297 540.438 302.849 535.31 303.656C524.141 305.474 524.595 327.087 524.595 327.087V376.57L540.914 370.182Z" fill="#C3A178"/>
</g>
<g style="mix-blend-mode:multiply">
<path d="M507.214 380.571V338.256C507.214 338.256 507.413 319.146 501.843 320.511C496.272 321.876 496.499 340.074 496.499 340.074V384.666L507.214 380.571Z" fill="#C3A178"/>
</g>
<g style="mix-blend-mode:multiply">
<path d="M505.957 381.052V340.637C505.949 337.065 506.215 333.498 506.754 329.966C506.201 324.992 504.85 319.776 501.843 320.511C496.272 321.876 496.499 340.074 496.499 340.074V384.666L505.957 381.052Z" fill="#C3A178"/>
</g>
<g style="mix-blend-mode:multiply">
<path d="M774.768 204.778L774.508 215.56L755.897 198.345C703.692 208.348 597.327 239.876 530.47 272.967C454.333 310.657 467.207 358.709 467.207 358.709C462.312 348.386 460.147 318.322 481.056 297.692C481.815 296.952 482.59 296.233 483.387 295.52C483.664 295.261 483.941 295.001 484.234 294.763C503.338 277.737 532.685 261.909 565.355 244.523C627.793 211.271 758.871 184.242 758.871 184.242C758.871 184.242 773.556 203.468 774.768 204.778Z" fill="#C3A178"/>
</g>
<g style="mix-blend-mode:multiply">
<path d="M736.522 215.714C735.913 215.864 670.269 233.305 670.269 233.305V277.593H671.93V242.711L736.511 226.784L736.522 215.714Z" fill="#C3A178"/>
</g>
<g style="mix-blend-mode:multiply">
<path d="M657.655 238.008V247.563L608.723 262.877V281.042H606.934V253.858L657.655 238.008Z" fill="#C3A178"/>
</g>
<g style="mix-blend-mode:multiply">
<path d="M591.397 259.521L553.406 275.315V300.604H555.532V280.063L591.397 267.617V259.521Z" fill="#C3A178"/>
</g>
<g style="mix-blend-mode:multiply">
<path d="M513.366 298.101V304.418L495.929 316.587V310.784L513.366 298.101Z" fill="#C3A178"/>
</g>
<g style="mix-blend-mode:multiply">
<path d="M762.83 221.141C767.332 223.727 771.213 227.021 774.978 230.591C775.787 230.132 776.512 229.452 777.321 228.994C771.684 222.655 766.169 216.233 759.939 210.475C756.681 211.187 753.464 212.078 750.304 213.144C750.304 213.796 749.895 213.995 749.895 214.653V225.12C753.998 225.12 758.821 222.008 762.83 221.141Z" fill="#C3A178"/>
</g>
<g style="mix-blend-mode:multiply">
<path d="M773.904 251.199C775.327 254.023 776.75 256.841 777.98 259.754C779.209 262.666 780.267 265.722 781.38 268.723C789.53 290.69 801.424 311.055 813.252 331.292C815.079 323.473 812.327 315.266 808.606 308.176C804.885 301.085 800.134 294.41 797.498 286.822C795.472 280.969 794.769 274.758 793.257 268.751C791.745 262.744 789.242 256.698 784.48 252.724C784.037 252.354 784.021 248.381 783.833 247.59C783.443 245.911 782.887 244.274 782.171 242.705C780.662 239.421 778.532 236.458 775.898 233.979C773.378 231.603 770.261 229.442 766.933 228.359C761.445 226.574 765.931 234.637 766.839 236.648C769.037 241.567 771.473 246.386 773.904 251.199Z" fill="#C3A178"/>
</g>
<g style="mix-blend-mode:multiply">
<path d="M633.95 14.0028C512.076 97.1134 505.774 174.891 505.774 174.891C505.774 174.891 502.197 140.794 530.005 101.435C556.313 64.2041 624.266 6.4814 631.442 0.430054L633.95 14.0028Z" fill="#C3A178"/>
</g>
<g style="mix-blend-mode:multiply">
<path d="M518.682 188.591L517.923 188.121C518.017 187.972 527.602 172.819 552.869 149.674C576.164 128.332 617.959 95.6101 684.782 60.8936L685.192 61.6838C557.514 128.006 519.053 187.994 518.682 188.591Z" fill="#C3A178"/>
</g>
<g style="mix-blend-mode:multiply">
<path d="M567.083 108.791L577.57 99.993V80.7337C577.57 80.7337 577.293 74.6879 572.327 76.9371C567.083 79.3134 567.083 86.0445 567.083 86.0445V108.791Z" fill="#C3A178"/>
</g>
<g style="mix-blend-mode:multiply">
<path d="M718.034 242.871C712.496 244.943 707.125 247.844 704.19 252.818C701.455 257.488 701.322 263.18 701.261 268.59C700.999 292.306 700.737 316.021 700.475 339.736C689.013 341.096 679.323 342.328 679.323 342.328V278.195C679.323 278.195 678.858 244.523 706.904 242.163C710.627 241.777 714.389 242.016 718.034 242.871Z" fill="#C3A178"/>
</g>
<g style="mix-blend-mode:multiply">
<path d="M643.247 265.944C641.097 266.71 639.21 268.074 637.81 269.873C635.628 272.637 634.543 276.113 633.718 279.55C631.47 289.033 630.994 298.831 630.567 308.574C629.958 322.435 629.423 336.298 628.961 350.166L610.688 354.183V292.178C610.688 292.178 611.375 266.596 631.437 263.872C636.63 263.164 640.44 264.132 643.247 265.944Z" fill="#C3A178"/>
</g>
<g style="mix-blend-mode:multiply">
<path d="M578.091 297.521C577.061 302.81 577.376 308.253 577.681 313.614C578.489 327.651 579.298 341.682 580.106 355.708C580.173 356.508 580.173 357.312 580.106 358.112L557.813 364.876V316.874C557.813 316.874 555.992 284.822 572.637 282.296C577.858 281.511 581.153 283.401 583.196 286.352C582.476 287.458 581.59 288.48 580.981 289.513C579.59 292.009 578.614 294.713 578.091 297.521Z" fill="#C3A178"/>
</g>
<g style="mix-blend-mode:multiply">
<path d="M760.266 163.733C765.851 168.56 771.109 173.749 776.008 179.268C782.099 186.126 787.747 193.598 795.389 198.693C794.843 199.944 794.624 201.313 794.752 202.672C783.273 191.857 771.894 181.02 760.82 169.785C760.389 167.798 760.203 165.765 760.266 163.733Z" fill="#ECD2AA"/>
</g>
<g style="mix-blend-mode:multiply">
<path d="M677.894 64.558C677.7 65.0559 677.402 65.5069 677.02 65.8813C676.638 66.2557 676.181 66.5449 675.679 66.7299C674.67 67.0947 673.615 67.3179 672.545 67.3931C670.211 62.4229 667.513 57.6314 664.472 53.0577C663.768 51.854 662.837 50.7975 661.731 49.9464C659.206 48.2443 655.739 48.808 652.976 47.5258C653.314 42.624 652.329 37.6945 650.717 33.0524C649.964 30.9081 649.084 28.8026 648.137 26.7357C647.672 25.7189 647.192 24.7131 646.697 23.7184C646.359 23.0276 645.08 21.3365 645.147 20.607C645.263 19.137 649.322 20.082 650.512 20.1594L657.456 20.6512C657.788 20.6512 658.115 20.6955 658.436 20.7397C658.475 20.7839 658.503 20.8281 658.536 20.8723C666.238 31.3723 671.349 43.6574 674.068 56.3901C674.721 59.4351 675.286 62.6293 677.08 65.1936C677.351 64.967 677.617 64.757 677.894 64.558Z" fill="#C3A178"/>
</g>
<g style="mix-blend-mode:multiply">
<path d="M634.205 15.7549C630.334 17.8337 626.574 20.1137 622.942 22.5854C619.459 24.9673 615.744 27.1999 612.737 30.1731C613.408 29.8321 614.13 29.6008 614.875 29.4879C615.248 29.4351 615.628 29.4717 615.985 29.5947C616.341 29.7177 616.663 29.9235 616.923 30.1952C617.134 30.4439 617.278 30.7479 617.477 30.991C618.297 31.8421 619.72 31.4 620.799 30.9026C620.945 32.0569 621.521 33.1141 622.413 33.863C623.305 34.6119 624.447 34.9973 625.611 34.9424C626.946 34.8263 628.38 34.141 629.532 34.8263C630.346 35.3126 630.639 36.3184 631.337 36.9816C632.821 38.4461 634.476 37.4237 636.193 37.7387C638.275 38.1255 638.53 40.5295 638.33 42.2261C638.225 43.0827 638.109 44.0111 638.541 44.7571C638.927 45.2734 639.399 45.7201 639.936 46.0779C641.824 47.6695 642.771 50.604 643.53 52.8643C644.466 55.6275 645.235 58.468 646.055 61.2809C647.666 66.8073 649.488 72.3999 652.976 77.0586C647.749 56.6443 640.662 35.821 634.205 15.7549Z" fill="#FEF1CB"/>
</g>
<g style="mix-blend-mode:multiply">
<path d="M544.23 279.107L519.291 295.145V300.605V322.937L520.52 322.179L520.808 299.754L544.23 286.623V279.107Z" fill="#C3A178"/>
</g>
<g style="mix-blend-mode:multiply">
<path d="M654.278 19.7169C649.117 19.1201 644.178 17.3516 639.294 15.5887C637.555 14.9698 635.822 14.3435 634.094 13.7098C633.33 9.33844 632.361 4.82894 631.387 0.446555L631.448 0.402344C635.822 0.402344 638.945 2.66262 641.154 6.42053L648.109 9.86344C648.172 10.0758 648.251 10.2828 648.347 10.4824C648.721 10.9939 649.176 11.4417 649.693 11.8087C649.95 11.9964 650.153 12.2486 650.281 12.5397C650.41 12.8308 650.459 13.1505 650.424 13.4666C650.313 13.403 650.188 13.3656 650.06 13.3572C649.933 13.3488 649.804 13.3696 649.686 13.4181C649.567 13.4666 649.461 13.5415 649.376 13.6371C649.291 13.7326 649.229 13.8463 649.194 13.9695C649.145 14.2229 649.171 14.4851 649.27 14.7237C649.368 14.9624 649.535 15.167 649.748 15.3124C650.184 15.5997 650.684 15.7726 651.205 15.8153C651.716 15.8663 652.221 15.9719 652.711 16.1303C652.417 17.4787 653.397 18.7166 654.278 19.7169Z" fill="#FEE1B4"/>
</g>
<g style="mix-blend-mode:multiply">
<path d="M594.01 147.812C577.723 124.794 563.853 100.164 552.619 74.3116C543.793 83.817 535.875 93.1012 530.005 101.424C502.197 140.783 505.774 174.88 505.774 174.88C502.596 185.933 501.411 197.334 501.023 208.823C501.023 209.105 501.023 209.376 501.023 209.668C490.335 223.334 484.177 239.982 483.404 257.3C483.127 263.843 484.234 269.922 487.701 275.487C485.961 281.606 484.819 287.878 484.29 294.216C484.29 294.398 484.29 294.575 484.245 294.769C483.958 295.012 483.692 295.26 483.398 295.52C482.586 296.22 481.809 296.944 481.067 297.692C460.147 318.322 462.312 348.385 467.207 358.708C463.791 374.027 459.422 391.187 456.005 406.506H810.827C815.256 406.506 817.82 406.29 822.228 406.136L821.779 305.401C763.085 289.878 707.817 261.273 661.615 221.909C636.084 200.108 613.374 175.218 594.01 147.812Z" fill="#FDF1DA"/>
</g>
</g>
</g>
<defs>
<clipPath id="clip0_2023_6">
<rect y="0.5" width="765" height="329" rx="16" fill="white"/>
</clipPath>
</defs>
</svg>
