<svg width="765" height="329" viewBox="0 0 765 329" fill="none" xmlns="http://www.w3.org/2000/svg">
<path d="M0 43C0 34.1634 7.16344 27 16 27H749C757.837 27 765 34.1634 765 43V313C765 321.837 757.837 329 749 329H16C7.16344 329 0 321.837 0 313V43Z" fill="#FEECCF"/>
<g clip-path="url(#clip0_1816_622)">
<path opacity="0.4" d="M846.123 59.935C725.117 30.358 597.594 29.4572 476.08 56.8292C441.997 64.5163 408.465 74.4581 375.706 86.5886C370.396 88.5504 366.785 93.6789 368.38 99.465C369.787 104.566 375.944 108.755 381.282 106.776C495.565 64.5053 619.046 49.3963 740.206 62.4108C774.01 66.0891 807.531 72.008 840.547 80.1283C853.659 83.3336 859.257 63.1458 846.123 59.935Z" fill="white"/>
<path opacity="0.4" d="M838.657 123.665C718.14 109.68 596.078 117.744 478.459 147.461C445.213 155.874 412.428 166.01 380.239 177.829C371.441 181.056 375.256 195.231 384.143 191.965C529.311 138.651 685.034 120.272 838.657 138.321C842.627 138.785 845.961 134.624 845.999 130.993C846.044 126.655 842.572 124.124 838.657 123.665Z" fill="white"/>
<path opacity="0.4" d="M802.321 176.733C732.684 161.222 661.365 154.538 590.051 156.838C518.731 159.127 447.973 170.266 379.409 189.997C340.752 201.177 302.943 215.096 266.272 231.649C258.896 234.964 265.292 245.802 272.623 242.497C336.69 213.76 404.133 193.2 473.354 181.304C542.251 169.419 612.359 166.098 682.075 171.417C721.41 174.426 760.478 180.251 798.977 188.847C806.868 190.604 810.24 178.496 802.321 176.733Z" fill="white"/>
<path opacity="0.4" d="M817.14 232.063C673.566 212.551 526.353 224.533 388.07 268.115C348.915 280.518 310.571 295.346 273.26 312.512C265.946 315.863 264.144 326.43 267.919 332.882C272.309 340.383 280.96 341.584 288.303 338.219C414.338 280.49 553.258 251.39 691.834 252.547C731.096 252.809 770.303 255.558 809.218 260.778C817.182 261.857 825.212 258.856 827.55 250.375C829.459 243.438 825.169 233.149 817.14 232.063Z" fill="white"/>
<path d="M556.89 61.2636C620.217 44.7825 685.966 39.613 751.098 45.9943C737.343 43.0212 723.473 40.7885 709.425 39.9706C707.055 35.6988 704.441 31.2777 700.216 28.7908C695.991 26.304 689.74 26.5803 687.065 30.6864C687.41 27.7103 687.146 24.6953 686.288 21.8244C685.429 18.9535 683.995 16.2867 682.073 13.986C680.15 11.6852 677.779 9.79852 675.103 8.4405C672.427 7.08248 669.503 6.28146 666.507 6.08611C663.512 5.89075 660.508 6.30514 657.678 7.30409C654.848 8.30304 652.251 9.8657 650.045 11.8972C647.838 13.9287 646.069 16.3865 644.843 19.1215C643.618 21.8565 642.963 24.8116 642.917 27.8072C637.9 19.3021 630.297 11.93 620.884 8.81864C611.471 5.70731 600.064 7.7631 593.752 15.3452C587.954 22.2808 587.339 32.0845 587.627 41.1201C583.879 39.9043 578.729 42.1149 577.001 45.6517C576.337 47.0167 576.043 48.5807 575.135 49.8075C574.316 50.9128 573.081 51.6312 571.879 52.3165C566.652 55.2897 562.106 58.2905 556.89 61.2636Z" fill="white"/>
<path d="M357.568 144.522C404.812 122.945 454.543 107.266 505.634 97.8406C495.113 98.9458 484.719 99.62 474.176 100.72C470.444 92.9829 466.424 84.4171 458.777 80.4215C451.579 76.6581 442.343 77.6584 435.765 82.411C429.186 87.1637 425.338 95.21 425.122 103.301C423.239 95.6577 416.141 89.5289 408.344 88.3463C400.548 87.1637 392.148 91.3692 388.704 98.4485C386.289 103.411 386.295 109.186 386.345 114.679C385.083 114.939 383.886 115.445 382.822 116.169C381.757 116.893 380.847 117.82 380.143 118.896C379.446 119.949 378.968 121.131 378.739 122.372C378.51 123.613 378.533 124.887 378.809 126.119C371.123 132.557 365.259 138.083 357.568 144.522Z" fill="white"/>
<path d="M319 321C344.443 304.49 373.954 290.993 401.73 278.541C429.693 266.011 459.418 257.93 489 249.842C479.95 249.842 471.158 250.446 462.33 252.493C456.977 241.754 446.529 234.327 434.76 231.804C429.871 230.759 424.626 230.517 420.001 232.401C415.933 234.057 412.671 237.219 409.802 240.538C404.236 246.978 399.518 255.201 400.995 263.573C400.196 262.628 398.497 262.756 397.256 262.642C396.012 262.578 394.766 262.715 393.566 263.047C391.714 263.391 389.963 264.144 388.442 265.251C387.693 265.814 387.103 266.56 386.729 267.416C386.354 268.273 386.206 269.211 386.301 270.14C382.732 264.319 373.604 261.69 366.838 262.649C360.073 263.609 354.106 268.335 351.187 274.518C348.268 280.702 348.283 288.022 350.723 294.369C339.975 301.363 329.049 313.061 319 321Z" fill="white"/>
<path d="M822.228 405.635C817.798 405.79 815.234 406.005 810.827 406.005H456C459.428 390.686 463.791 373.527 467.207 358.208C462.312 347.879 460.114 317.866 481.051 297.192C481.792 296.446 482.573 295.727 483.382 295.02C483.651 294.758 483.934 294.51 484.229 294.274C484.229 294.086 484.229 293.904 484.273 293.721C484.807 287.386 485.947 281.116 487.679 274.998C484.218 269.427 483.116 263.348 483.382 256.811C484.163 239.497 490.318 222.853 500.996 209.185C500.996 208.903 500.996 208.632 500.996 208.339C501.383 196.861 502.563 185.449 505.747 174.407C505.747 174.407 502.17 140.31 529.978 100.94C556.285 63.7147 623.612 6.52256 630.789 0.465683L631.342 -0.0151144L631.403 -0.0593262C635.778 -0.0593262 638.901 2.20095 641.11 5.95886L648.065 9.40178L654.71 12.6789C654.82 14.5579 655.668 16.2323 656.714 17.8295C657.268 18.6639 657.822 19.4542 658.431 20.2389C658.464 20.2832 658.486 20.3329 658.519 20.3771C666.233 30.8772 671.343 43.1512 674.057 55.8949C674.716 58.9289 675.131 61.9131 676.925 64.4773C677.18 64.2673 677.601 64.2231 677.872 64.0186V64.0629C679.851 62.5209 682.087 61.3403 684.478 60.5757L684.738 60.4873C691.014 64.4 697.158 68.5023 703.172 72.7945C706.106 80.4264 704.728 88.7546 704.179 96.9004C703.626 105.19 704.257 113.546 704.866 121.852C705.032 123.979 705.348 126.4 707.081 127.638C707.114 127.782 707.157 127.924 707.208 128.063C707.33 128.572 707.463 129.08 707.612 129.572C711.267 143.045 715.282 156.404 719.656 169.649C720.038 170.832 720.431 172.009 720.841 173.192C720.91 173.174 720.98 173.163 721.051 173.158C734.562 170.749 747.63 164.742 760.172 159.127C774.447 170.334 785.516 183.006 796.961 197.076C799.232 196.784 801.945 196.784 803.75 198.182C804.858 199.049 805.489 200.392 806.38 201.47C807.092 202.315 807.974 203.001 808.969 203.484C809.964 203.967 811.05 204.235 812.156 204.272C815.245 204.433 818.306 204.932 821.287 205.758L821.364 224.548L821.73 296.595L822.228 405.635Z" fill="#FEC268"/>
<g style="mix-blend-mode:multiply">
<path d="M797 197.071C785.56 182.99 774.48 170.318 760.205 159.122C747.674 164.731 734.601 170.727 721.085 173.148C721.013 173.148 720.941 173.148 720.874 173.181C715.85 158.282 711.306 143.241 707.241 128.058C707.203 127.915 707.158 127.777 707.125 127.633C705.375 126.395 705.054 123.969 704.91 121.841C704.29 113.552 703.664 105.207 704.218 96.8899C704.772 88.7496 706.14 80.4158 703.21 72.7895C697.193 68.5121 691.043 64.4079 684.76 60.4768L684.5 60.5652C683.088 67.6113 681.82 74.6187 679.616 81.4658C682.938 86.7325 682.136 93.5851 684.018 99.537C685.225 103.323 687.529 106.721 688.747 110.49C690.15 114.886 690.046 119.622 688.454 123.952C688.764 124.151 689.079 124.328 689.389 124.505L688.775 124.35C690.275 125.82 690.868 127.611 692.02 129.374C693.232 131.111 693.846 133.194 693.769 135.309C693.675 136.414 693.337 137.453 693.288 138.553C693.272 139.863 693.459 141.168 693.841 142.421C696.883 154.303 699.919 166.185 702.95 178.066L704.932 183.742L760.82 169.285L794.774 202.167L797.022 197.071H797Z" fill="#C3A178"/>
</g>
<g style="mix-blend-mode:multiply">
<path d="M700.962 106.163C694.55 101.566 688.382 96.8626 683.016 91.0931C640.817 109.203 598.401 128.412 562.11 156.525C525.819 184.638 476.521 237.514 487.69 274.988C484.223 269.423 483.116 263.344 483.393 256.801C484.165 239.487 490.319 222.844 501.001 209.18C501.001 208.893 501.001 208.627 501.001 208.334C526.14 173.032 577.277 128.694 679.422 81.8475C687.091 87.8712 694.373 94.0331 700.929 101.19C700.907 102.798 700.962 104.572 700.962 106.163Z" fill="#C3A178"/>
</g>
<g style="mix-blend-mode:multiply">
<path d="M628.02 205.808V165.621C628.02 165.621 626.359 143.781 645.185 134.834C664.012 125.886 662.971 149.268 662.971 149.268V190.495L628.02 205.808Z" fill="#C3A178"/>
</g>
<g style="mix-blend-mode:multiply">
<path d="M645.523 198.144V165.621C645.523 165.621 644.039 146.069 659.843 136.387C657.379 132.966 652.999 131.126 645.191 134.834C626.364 143.781 628.026 165.621 628.026 165.621V205.809L645.523 198.144Z" fill="#C3A178"/>
</g>
<g style="mix-blend-mode:multiply">
<path d="M604.47 214.646V171.689C604.47 171.689 604.271 155.597 594.165 161.526C582.283 168.501 581.984 189.888 581.984 189.888V226.638L604.47 214.646Z" fill="#C3A178"/>
</g>
<g style="mix-blend-mode:multiply">
<path d="M594.287 192.158C594.287 192.158 594.548 174.352 603.623 165.941C602.516 162.018 600.002 158.099 594.165 161.52C582.283 168.495 581.984 189.881 581.984 189.881V226.637L594.293 220.077L594.287 192.158Z" fill="#C3A178"/>
</g>
<g style="mix-blend-mode:multiply">
<path d="M565.355 233.109V196.597C565.355 196.597 564.558 183.063 553.959 189.092C543.361 195.121 544.269 210.33 544.269 210.33V248.351L565.355 233.109Z" fill="#C3A178"/>
</g>
<g style="mix-blend-mode:multiply">
<path d="M561.872 235.618V214.535C561.872 214.535 561.385 206.312 565.355 199.558V196.591C565.355 196.591 564.558 183.057 553.959 189.086C543.361 195.115 544.269 210.324 544.269 210.324V248.345L561.872 235.618Z" fill="#C3A178"/>
</g>
<g style="mix-blend-mode:multiply">
<path d="M532.857 255.064V224.012C532.857 224.012 533.084 212.18 525.659 214.684C518.233 217.187 518.366 234.7 518.366 234.7V265.647L532.857 255.064Z" fill="#C3A178"/>
</g>
<g style="mix-blend-mode:multiply">
<path d="M510.403 269.621V248.809C510.403 248.809 510.06 240.73 505.73 241.758C501.4 242.785 501.854 254.949 501.854 254.949V277.701L510.403 269.621Z" fill="#C3A178"/>
</g>
<g style="mix-blend-mode:multiply">
<path d="M733.56 264.277V335.711C726.86 336.186 712.657 337.794 700.464 339.259C689.002 340.618 679.312 341.851 679.312 341.851V277.695C679.312 277.695 678.846 244.023 706.893 241.664C710.62 241.276 714.386 241.515 718.033 242.371C734.529 246.532 733.56 264.277 733.56 264.277Z" fill="#C3A178"/>
</g>
<g style="mix-blend-mode:multiply">
<path d="M651.05 282.93V344.825L628.961 349.682L610.688 353.7V291.678C610.688 291.678 611.375 266.096 631.437 263.372C636.625 262.664 640.435 263.632 643.242 265.444C651.299 270.667 651.05 282.93 651.05 282.93Z" fill="#C3A178"/>
</g>
<g style="mix-blend-mode:multiply">
<path d="M586.314 303.857V355.733L580.106 357.612L557.813 364.376V316.374C557.813 316.374 555.992 284.322 572.637 281.796C577.858 281.011 581.153 282.901 583.196 285.852C587.703 292.302 586.314 303.857 586.314 303.857Z" fill="#C3A178"/>
</g>
<g style="mix-blend-mode:multiply">
<path d="M543.992 368.471V320.033C543.992 320.033 546.501 301.382 535.332 303.2C524.164 305.018 524.618 326.631 524.618 326.631V376.114L543.992 368.471Z" fill="#C3A178"/>
</g>
<g style="mix-blend-mode:multiply">
<path d="M540.914 369.682V325.709C540.914 325.709 540.731 316.668 543.616 309.787C542.68 305.797 540.438 302.349 535.31 303.156C524.141 304.974 524.595 326.587 524.595 326.587V376.07L540.914 369.682Z" fill="#C3A178"/>
</g>
<g style="mix-blend-mode:multiply">
<path d="M507.214 380.071V337.756C507.214 337.756 507.413 318.646 501.843 320.011C496.272 321.376 496.499 339.574 496.499 339.574V384.166L507.214 380.071Z" fill="#C3A178"/>
</g>
<g style="mix-blend-mode:multiply">
<path d="M505.957 380.552V340.137C505.949 336.565 506.215 332.998 506.754 329.466C506.201 324.492 504.85 319.276 501.843 320.011C496.272 321.376 496.499 339.574 496.499 339.574V384.166L505.957 380.552Z" fill="#C3A178"/>
</g>
<g style="mix-blend-mode:multiply">
<path d="M774.768 204.278L774.508 215.06L755.897 197.845C703.692 207.848 597.327 239.376 530.47 272.467C454.333 310.157 467.207 358.209 467.207 358.209C462.312 347.886 460.147 317.822 481.056 297.192C481.815 296.452 482.59 295.733 483.387 295.02C483.664 294.761 483.941 294.501 484.234 294.263C503.338 277.237 532.685 261.409 565.355 244.023C627.793 210.771 758.871 183.742 758.871 183.742C758.871 183.742 773.556 202.968 774.768 204.278Z" fill="#C3A178"/>
</g>
<g style="mix-blend-mode:multiply">
<path d="M736.522 215.214C735.913 215.364 670.269 232.805 670.269 232.805V277.093H671.93V242.211L736.511 226.284L736.522 215.214Z" fill="#C3A178"/>
</g>
<g style="mix-blend-mode:multiply">
<path d="M657.655 237.508V247.063L608.723 262.377V280.542H606.934V253.358L657.655 237.508Z" fill="#C3A178"/>
</g>
<g style="mix-blend-mode:multiply">
<path d="M591.397 259.021L553.406 274.815V300.104H555.532V279.563L591.397 267.117V259.021Z" fill="#C3A178"/>
</g>
<g style="mix-blend-mode:multiply">
<path d="M513.366 297.601V303.918L495.929 316.087V310.284L513.366 297.601Z" fill="#C3A178"/>
</g>
<g style="mix-blend-mode:multiply">
<path d="M762.83 220.641C767.332 223.227 771.213 226.521 774.978 230.091C775.787 229.632 776.512 228.952 777.321 228.494C771.684 222.155 766.169 215.733 759.939 209.975C756.681 210.687 753.464 211.578 750.304 212.644C750.304 213.296 749.895 213.495 749.895 214.153V224.62C753.998 224.62 758.821 221.508 762.83 220.641Z" fill="#C3A178"/>
</g>
<g style="mix-blend-mode:multiply">
<path d="M773.904 250.699C775.327 253.523 776.75 256.341 777.98 259.254C779.209 262.166 780.267 265.222 781.38 268.223C789.53 290.19 801.424 310.555 813.252 330.792C815.079 322.973 812.327 314.766 808.606 307.676C804.885 300.585 800.134 293.91 797.498 286.322C795.472 280.469 794.769 274.258 793.257 268.251C791.745 262.244 789.242 256.198 784.48 252.224C784.037 251.854 784.021 247.881 783.833 247.09C783.443 245.411 782.887 243.774 782.171 242.205C780.662 238.921 778.532 235.958 775.898 233.479C773.378 231.103 770.261 228.942 766.933 227.859C761.445 226.074 765.931 234.137 766.839 236.148C769.037 241.067 771.473 245.886 773.904 250.699Z" fill="#C3A178"/>
</g>
<g style="mix-blend-mode:multiply">
<path d="M633.95 13.5028C512.076 96.6134 505.774 174.391 505.774 174.391C505.774 174.391 502.197 140.294 530.005 100.935C556.313 63.7041 624.266 5.9814 631.442 -0.0699463L633.95 13.5028Z" fill="#C3A178"/>
</g>
<g style="mix-blend-mode:multiply">
<path d="M518.682 188.091L517.923 187.621C518.017 187.472 527.602 172.319 552.869 149.174C576.164 127.832 617.959 95.1101 684.782 60.3936L685.192 61.1838C557.514 127.506 519.053 187.494 518.682 188.091Z" fill="#C3A178"/>
</g>
<g style="mix-blend-mode:multiply">
<path d="M567.083 108.291L577.57 99.493V80.2337C577.57 80.2337 577.293 74.1879 572.327 76.4371C567.083 78.8134 567.083 85.5445 567.083 85.5445V108.291Z" fill="#C3A178"/>
</g>
<g style="mix-blend-mode:multiply">
<path d="M718.034 242.371C712.496 244.443 707.125 247.344 704.19 252.318C701.455 256.988 701.322 262.68 701.261 268.09C700.999 291.806 700.737 315.521 700.475 339.236C689.013 340.596 679.323 341.828 679.323 341.828V277.695C679.323 277.695 678.858 244.023 706.904 241.663C710.627 241.277 714.389 241.516 718.034 242.371Z" fill="#C3A178"/>
</g>
<g style="mix-blend-mode:multiply">
<path d="M643.247 265.444C641.097 266.21 639.21 267.574 637.81 269.373C635.628 272.137 634.543 275.613 633.718 279.05C631.47 288.533 630.994 298.331 630.567 308.074C629.958 321.935 629.423 335.798 628.961 349.666L610.688 353.683V291.678C610.688 291.678 611.375 266.096 631.437 263.372C636.63 262.664 640.44 263.632 643.247 265.444Z" fill="#C3A178"/>
</g>
<g style="mix-blend-mode:multiply">
<path d="M578.091 297.021C577.061 302.31 577.376 307.753 577.681 313.114C578.489 327.151 579.298 341.182 580.106 355.208C580.173 356.008 580.173 356.812 580.106 357.612L557.813 364.376V316.374C557.813 316.374 555.992 284.322 572.637 281.796C577.858 281.011 581.153 282.901 583.196 285.852C582.476 286.958 581.59 287.98 580.981 289.013C579.59 291.509 578.614 294.213 578.091 297.021Z" fill="#C3A178"/>
</g>
<g style="mix-blend-mode:multiply">
<path d="M760.266 163.233C765.851 168.06 771.109 173.249 776.008 178.768C782.099 185.626 787.747 193.098 795.389 198.193C794.843 199.444 794.624 200.813 794.752 202.172C783.273 191.357 771.894 180.52 760.82 169.285C760.389 167.298 760.203 165.265 760.266 163.233Z" fill="#ECD2AA"/>
</g>
<g style="mix-blend-mode:multiply">
<path d="M677.894 64.058C677.7 64.5559 677.402 65.0069 677.02 65.3813C676.638 65.7557 676.181 66.0449 675.679 66.2299C674.67 66.5947 673.615 66.8179 672.545 66.8931C670.211 61.9229 667.513 57.1314 664.472 52.5577C663.768 51.354 662.837 50.2975 661.731 49.4464C659.206 47.7443 655.739 48.308 652.976 47.0258C653.314 42.124 652.329 37.1945 650.717 32.5524C649.964 30.4081 649.084 28.3026 648.137 26.2357C647.672 25.2189 647.192 24.2131 646.697 23.2184C646.359 22.5276 645.08 20.8365 645.147 20.107C645.263 18.637 649.322 19.582 650.512 19.6594L657.456 20.1512C657.788 20.1512 658.115 20.1955 658.436 20.2397C658.475 20.2839 658.503 20.3281 658.536 20.3723C666.238 30.8723 671.349 43.1574 674.068 55.8901C674.721 58.9351 675.286 62.1293 677.08 64.6936C677.351 64.467 677.617 64.257 677.894 64.058Z" fill="#C3A178"/>
</g>
<g style="mix-blend-mode:multiply">
<path d="M634.205 15.2549C630.334 17.3337 626.574 19.6137 622.942 22.0854C619.459 24.4673 615.744 26.6999 612.737 29.6731C613.408 29.3321 614.13 29.1008 614.875 28.9879C615.248 28.9351 615.628 28.9717 615.985 29.0947C616.341 29.2177 616.663 29.4235 616.923 29.6952C617.134 29.9439 617.278 30.2479 617.477 30.491C618.297 31.3421 619.72 30.9 620.799 30.4026C620.945 31.5569 621.521 32.6141 622.413 33.363C623.305 34.1119 624.447 34.4973 625.611 34.4424C626.946 34.3263 628.38 33.641 629.532 34.3263C630.346 34.8126 630.639 35.8184 631.337 36.4816C632.821 37.9461 634.476 36.9237 636.193 37.2387C638.275 37.6255 638.53 40.0295 638.33 41.7261C638.225 42.5827 638.109 43.5111 638.541 44.2571C638.927 44.7734 639.399 45.2201 639.936 45.5779C641.824 47.1695 642.771 50.104 643.53 52.3643C644.466 55.1275 645.235 57.968 646.055 60.7809C647.666 66.3073 649.488 71.8999 652.976 76.5586C647.749 56.1443 640.662 35.321 634.205 15.2549Z" fill="#FEF1CB"/>
</g>
<g style="mix-blend-mode:multiply">
<path d="M544.23 278.607L519.291 294.645V300.105V322.437L520.52 321.679L520.808 299.254L544.23 286.123V278.607Z" fill="#C3A178"/>
</g>
<g style="mix-blend-mode:multiply">
<path d="M654.278 19.2169C649.117 18.6201 644.178 16.8516 639.294 15.0887C637.555 14.4698 635.822 13.8435 634.094 13.2098C633.33 8.83844 632.361 4.32894 631.387 -0.0534445L631.448 -0.0976562C635.822 -0.0976562 638.945 2.16262 641.154 5.92053L648.109 9.36344C648.172 9.57581 648.251 9.78281 648.347 9.98239C648.721 10.4939 649.176 10.9417 649.693 11.3087C649.95 11.4964 650.153 11.7486 650.281 12.0397C650.41 12.3308 650.459 12.6505 650.424 12.9666C650.313 12.903 650.188 12.8656 650.06 12.8572C649.933 12.8488 649.804 12.8696 649.686 12.9181C649.567 12.9666 649.461 13.0415 649.376 13.1371C649.291 13.2326 649.229 13.3463 649.194 13.4695C649.145 13.7229 649.171 13.9851 649.27 14.2237C649.368 14.4624 649.535 14.667 649.748 14.8124C650.184 15.0997 650.684 15.2726 651.205 15.3153C651.716 15.3663 652.221 15.4719 652.711 15.6303C652.417 16.9787 653.397 18.2166 654.278 19.2169Z" fill="#FEE1B4"/>
</g>
<g style="mix-blend-mode:multiply">
<path d="M594.01 147.312C577.723 124.294 563.853 99.6645 552.619 73.8116C543.793 83.317 535.875 92.6012 530.005 100.924C502.197 140.283 505.774 174.38 505.774 174.38C502.596 185.433 501.411 196.834 501.023 208.323C501.023 208.605 501.023 208.876 501.023 209.168C490.335 222.834 484.177 239.482 483.404 256.8C483.127 263.343 484.234 269.422 487.701 274.987C485.961 281.106 484.819 287.378 484.29 293.716C484.29 293.898 484.29 294.075 484.245 294.269C483.958 294.512 483.692 294.76 483.398 295.02C482.586 295.72 481.809 296.444 481.067 297.192C460.147 317.822 462.312 347.885 467.207 358.208C463.791 373.527 459.422 390.687 456.005 406.006H810.827C815.256 406.006 817.82 405.79 822.228 405.636L821.779 304.901C763.085 289.378 707.817 260.773 661.615 221.409C636.084 199.608 613.374 174.718 594.01 147.312Z" fill="#FDF1DA"/>
</g>
</g>
<path d="M45.904 169V116.008H57.712V169H45.904ZM77.8 169L62.392 146.392H75.352L91.48 169H77.8ZM54.544 152.152V142.864H67.504C69.232 142.864 70.72 142.528 71.968 141.856C73.264 141.136 74.248 140.152 74.92 138.904C75.64 137.608 76 136.12 76 134.44C76 132.76 75.64 131.296 74.92 130.048C74.248 128.752 73.264 127.768 71.968 127.096C70.72 126.376 69.232 126.016 67.504 126.016H54.544V116.008H66.568C70.936 116.008 74.728 116.68 77.944 118.024C81.16 119.32 83.632 121.264 85.36 123.856C87.088 126.448 87.952 129.712 87.952 133.648V134.8C87.952 138.688 87.064 141.928 85.288 144.52C83.56 147.064 81.088 148.984 77.872 150.28C74.704 151.528 70.936 152.152 66.568 152.152H54.544ZM116.371 170.368C112.915 170.368 109.843 169.84 107.155 168.784C104.467 167.68 102.187 166.192 100.315 164.32C98.4906 162.448 97.0986 160.312 96.1386 157.912C95.1786 155.464 94.6986 152.896 94.6986 150.208V148.552C94.6986 145.816 95.1786 143.224 96.1386 140.776C97.1466 138.28 98.5866 136.096 100.459 134.224C102.379 132.352 104.683 130.888 107.371 129.832C110.059 128.728 113.059 128.176 116.371 128.176C119.779 128.176 122.803 128.728 125.443 129.832C128.131 130.888 130.411 132.352 132.283 134.224C134.155 136.096 135.595 138.28 136.603 140.776C137.611 143.224 138.115 145.816 138.115 148.552V150.208C138.115 152.896 137.635 155.464 136.675 157.912C135.715 160.312 134.299 162.448 132.427 164.32C130.603 166.192 128.347 167.68 125.659 168.784C122.971 169.84 119.875 170.368 116.371 170.368ZM116.371 160.648C118.627 160.648 120.499 160.168 121.987 159.208C123.475 158.248 124.603 156.904 125.371 155.176C126.187 153.448 126.595 151.528 126.595 149.416C126.595 147.16 126.187 145.192 125.371 143.512C124.555 141.784 123.379 140.416 121.843 139.408C120.355 138.4 118.531 137.896 116.371 137.896C114.259 137.896 112.435 138.4 110.899 139.408C109.363 140.416 108.187 141.784 107.371 143.512C106.603 145.192 106.219 147.16 106.219 149.416C106.219 151.528 106.603 153.448 107.371 155.176C108.139 156.904 109.291 158.248 110.827 159.208C112.363 160.168 114.211 160.648 116.371 160.648ZM146.154 169V129.544H155.298V146.536H154.65C154.65 142.504 155.154 139.144 156.162 136.456C157.17 133.768 158.682 131.752 160.698 130.408C162.714 129.016 165.186 128.32 168.114 128.32H168.618C171.594 128.32 174.066 129.016 176.034 130.408C178.05 131.752 179.562 133.768 180.57 136.456C181.626 139.144 182.154 142.504 182.154 146.536H179.346C179.346 142.504 179.85 139.144 180.858 136.456C181.914 133.768 183.45 131.752 185.466 130.408C187.482 129.016 189.954 128.32 192.882 128.32H193.386C196.362 128.32 198.858 129.016 200.874 130.408C202.938 131.752 204.498 133.768 205.554 136.456C206.61 139.144 207.138 142.504 207.138 146.536V169H195.618V145.888C195.618 143.728 195.042 141.976 193.89 140.632C192.786 139.288 191.202 138.616 189.138 138.616C187.074 138.616 185.442 139.312 184.242 140.704C183.042 142.048 182.442 143.848 182.442 146.104V169H170.85V145.888C170.85 143.728 170.274 141.976 169.122 140.632C168.018 139.288 166.458 138.616 164.442 138.616C162.33 138.616 160.674 139.312 159.474 140.704C158.274 142.048 157.674 143.848 157.674 146.104V169H146.154ZM235.031 170.368C231.671 170.368 228.695 169.792 226.103 168.64C223.559 167.488 221.423 165.952 219.695 164.032C218.015 162.064 216.719 159.88 215.807 157.48C214.943 155.032 214.511 152.536 214.511 149.992V148.552C214.511 145.912 214.943 143.392 215.807 140.992C216.719 138.544 218.015 136.36 219.695 134.44C221.375 132.52 223.463 131.008 225.959 129.904C228.503 128.752 231.383 128.176 234.599 128.176C238.823 128.176 242.375 129.136 245.255 131.056C248.183 132.928 250.415 135.4 251.951 138.472C253.487 141.496 254.255 144.808 254.255 148.408V152.296H219.335V145.744H247.271L243.527 148.768C243.527 146.416 243.191 144.4 242.519 142.72C241.847 141.04 240.839 139.768 239.495 138.904C238.199 137.992 236.567 137.536 234.599 137.536C232.583 137.536 230.879 137.992 229.487 138.904C228.095 139.816 227.039 141.16 226.319 142.936C225.599 144.664 225.239 146.8 225.239 149.344C225.239 151.696 225.575 153.76 226.247 155.536C226.919 157.264 227.975 158.608 229.415 159.568C230.855 160.528 232.727 161.008 235.031 161.008C237.143 161.008 238.871 160.6 240.215 159.784C241.559 158.968 242.471 157.96 242.951 156.76H253.535C252.959 159.4 251.831 161.752 250.151 163.816C248.471 165.88 246.359 167.488 243.815 168.64C241.271 169.792 238.343 170.368 235.031 170.368Z" fill="#27292C"/>
<path d="M41.44 84V72.32H45.168L50.08 82.112H50.608L50.288 82.4V72.32H52.432V84H48.688L43.776 74.208H43.232L43.552 73.92V84H41.44ZM59.027 84.304C58.2803 84.304 57.6243 84.176 57.059 83.92C56.5043 83.664 56.0403 83.3227 55.667 82.896C55.3043 82.4587 55.027 81.9733 54.835 81.44C54.6537 80.9067 54.563 80.3627 54.563 79.808V79.504C54.563 78.928 54.6537 78.3733 54.835 77.84C55.027 77.296 55.3043 76.816 55.667 76.4C56.0403 75.9733 56.499 75.6373 57.043 75.392C57.587 75.136 58.2163 75.008 58.931 75.008C59.8697 75.008 60.6537 75.216 61.283 75.632C61.923 76.0373 62.403 76.576 62.723 77.248C63.043 77.9093 63.203 78.624 63.203 79.392V80.192H55.507V78.832H61.811L61.123 79.504C61.123 78.9493 61.043 78.4747 60.883 78.08C60.723 77.6853 60.4777 77.3813 60.147 77.168C59.827 76.9547 59.4217 76.848 58.931 76.848C58.4403 76.848 58.0243 76.96 57.683 77.184C57.3417 77.408 57.0803 77.7333 56.899 78.16C56.7283 78.576 56.643 79.0773 56.643 79.664C56.643 80.208 56.7283 80.6933 56.899 81.12C57.0697 81.536 57.331 81.8667 57.683 82.112C58.035 82.3467 58.483 82.464 59.027 82.464C59.571 82.464 60.0137 82.3573 60.355 82.144C60.6963 81.92 60.915 81.648 61.011 81.328H63.059C62.931 81.9253 62.6857 82.448 62.323 82.896C61.9603 83.344 61.4963 83.6907 60.931 83.936C60.3763 84.1813 59.7417 84.304 59.027 84.304ZM70.3249 84V81.424H69.9569V78.56C69.9569 78.0587 69.8342 77.6853 69.5889 77.44C69.3435 77.1947 68.9649 77.072 68.4529 77.072C68.1862 77.072 67.8662 77.0773 67.4929 77.088C67.1195 77.0987 66.7409 77.1147 66.3569 77.136C65.9835 77.1467 65.6475 77.1627 65.3489 77.184V75.296C65.5942 75.2747 65.8715 75.2533 66.1809 75.232C66.4902 75.2107 66.8049 75.2 67.1249 75.2C67.4555 75.1893 67.7649 75.184 68.0529 75.184C68.9489 75.184 69.6902 75.3013 70.2769 75.536C70.8742 75.7707 71.3222 76.1387 71.6209 76.64C71.9302 77.1413 72.0849 77.7973 72.0849 78.608V84H70.3249ZM67.5249 84.224C66.8955 84.224 66.3409 84.112 65.8609 83.888C65.3915 83.664 65.0235 83.344 64.7569 82.928C64.5009 82.512 64.3729 82.0107 64.3729 81.424C64.3729 80.784 64.5275 80.2613 64.8369 79.856C65.1569 79.4507 65.5995 79.1467 66.1649 78.944C66.7409 78.7413 67.4129 78.64 68.1809 78.64H70.1969V79.968H68.1489C67.6369 79.968 67.2422 80.096 66.9649 80.352C66.6982 80.5973 66.5649 80.9173 66.5649 81.312C66.5649 81.7067 66.6982 82.0267 66.9649 82.272C67.2422 82.5173 67.6369 82.64 68.1489 82.64C68.4582 82.64 68.7409 82.5867 68.9969 82.48C69.2635 82.3627 69.4822 82.1707 69.6529 81.904C69.8342 81.6267 69.9355 81.2533 69.9569 80.784L70.5009 81.408C70.4475 82.016 70.2982 82.528 70.0529 82.944C69.8182 83.36 69.4875 83.68 69.0609 83.904C68.6449 84.1173 68.1329 84.224 67.5249 84.224ZM74.4671 84V75.312H76.2271V78.992H76.1791C76.1791 77.744 76.4458 76.8 76.9791 76.16C77.5125 75.52 78.2965 75.2 79.3311 75.2H79.6511V77.136H79.0431C78.2965 77.136 77.7151 77.3387 77.2991 77.744C76.8938 78.1387 76.6911 78.7147 76.6911 79.472V84H74.4671ZM84.9645 84.304C84.2178 84.304 83.5618 84.176 82.9965 83.92C82.4418 83.664 81.9778 83.3227 81.6045 82.896C81.2418 82.4587 80.9645 81.9733 80.7725 81.44C80.5912 80.9067 80.5005 80.3627 80.5005 79.808V79.504C80.5005 78.928 80.5912 78.3733 80.7725 77.84C80.9645 77.296 81.2418 76.816 81.6045 76.4C81.9778 75.9733 82.4365 75.6373 82.9805 75.392C83.5245 75.136 84.1538 75.008 84.8685 75.008C85.8072 75.008 86.5912 75.216 87.2205 75.632C87.8605 76.0373 88.3405 76.576 88.6605 77.248C88.9805 77.9093 89.1405 78.624 89.1405 79.392V80.192H81.4445V78.832H87.7485L87.0605 79.504C87.0605 78.9493 86.9805 78.4747 86.8205 78.08C86.6605 77.6853 86.4152 77.3813 86.0845 77.168C85.7645 76.9547 85.3592 76.848 84.8685 76.848C84.3778 76.848 83.9618 76.96 83.6205 77.184C83.2792 77.408 83.0178 77.7333 82.8365 78.16C82.6658 78.576 82.5805 79.0773 82.5805 79.664C82.5805 80.208 82.6658 80.6933 82.8365 81.12C83.0072 81.536 83.2685 81.8667 83.6205 82.112C83.9725 82.3467 84.4205 82.464 84.9645 82.464C85.5085 82.464 85.9512 82.3573 86.2925 82.144C86.6338 81.92 86.8525 81.648 86.9485 81.328H88.9965C88.8685 81.9253 88.6232 82.448 88.2605 82.896C87.8978 83.344 87.4338 83.6907 86.8685 83.936C86.3138 84.1813 85.6792 84.304 84.9645 84.304ZM94.1504 84.272C92.9557 84.272 92.017 84.0213 91.3344 83.52C90.6624 83.008 90.3104 82.304 90.2784 81.408H92.2784C92.3104 81.7067 92.4757 81.9787 92.7744 82.224C93.073 82.4693 93.5424 82.592 94.1824 82.592C94.7157 82.592 95.137 82.496 95.4464 82.304C95.7664 82.112 95.9264 81.8507 95.9264 81.52C95.9264 81.232 95.8037 81.0027 95.5584 80.832C95.3237 80.6613 94.9184 80.5493 94.3424 80.496L93.5744 80.416C92.6037 80.3093 91.857 80.032 91.3344 79.584C90.8117 79.136 90.5504 78.5387 90.5504 77.792C90.5504 77.1947 90.6997 76.6933 90.9984 76.288C91.297 75.8827 91.7077 75.5787 92.2304 75.376C92.7637 75.1627 93.3717 75.056 94.0544 75.056C95.121 75.056 95.985 75.2907 96.6464 75.76C97.3077 76.2293 97.6544 76.9173 97.6864 77.824H95.6864C95.665 77.5253 95.5157 77.2693 95.2384 77.056C94.961 76.8427 94.561 76.736 94.0384 76.736C93.569 76.736 93.2064 76.8267 92.9504 77.008C92.6944 77.1893 92.5664 77.424 92.5664 77.712C92.5664 77.9893 92.6677 78.2027 92.8704 78.352C93.0837 78.5013 93.425 78.6027 93.8944 78.656L94.6624 78.736C95.6864 78.8427 96.4864 79.1253 97.0624 79.584C97.649 80.0427 97.9424 80.6613 97.9424 81.44C97.9424 82.016 97.7824 82.5173 97.4624 82.944C97.153 83.36 96.7157 83.6853 96.1504 83.92C95.585 84.1547 94.9184 84.272 94.1504 84.272ZM103.556 84.112C102.756 84.112 102.094 84.0107 101.572 83.808C101.06 83.5947 100.676 83.2427 100.42 82.752C100.164 82.2507 100.036 81.5787 100.036 80.736L100.052 72.864H102.132L102.116 80.88C102.116 81.3067 102.228 81.6373 102.452 81.872C102.686 82.096 103.017 82.208 103.444 82.208H104.804V84.112H103.556ZM98.6596 76.944V75.312H104.804V76.944H98.6596ZM113.899 84.112C113.099 84.112 112.438 84.0107 111.915 83.808C111.403 83.5947 111.019 83.2427 110.763 82.752C110.507 82.2507 110.379 81.5787 110.379 80.736L110.395 72.864H112.475L112.459 80.88C112.459 81.3067 112.571 81.6373 112.795 81.872C113.03 82.096 113.361 82.208 113.787 82.208H115.147V84.112H113.899ZM109.003 76.944V75.312H115.147V76.944H109.003ZM117.014 84V75.312H118.774V78.992H118.726C118.726 77.744 118.993 76.8 119.526 76.16C120.059 75.52 120.843 75.2 121.878 75.2H122.198V77.136H121.59C120.843 77.136 120.262 77.3387 119.846 77.744C119.441 78.1387 119.238 78.7147 119.238 79.472V84H117.014ZM124.102 84V75.312H126.326V84H124.102ZM122.886 76.976V75.312H126.326V76.976H122.886ZM124.918 74.272C124.481 74.272 124.155 74.16 123.942 73.936C123.739 73.7013 123.638 73.408 123.638 73.056C123.638 72.704 123.739 72.416 123.942 72.192C124.155 71.968 124.481 71.856 124.918 71.856C125.355 71.856 125.675 71.968 125.878 72.192C126.081 72.416 126.182 72.704 126.182 73.056C126.182 73.408 126.081 73.7013 125.878 73.936C125.675 74.16 125.355 74.272 124.918 74.272ZM128.889 87.2V75.312H130.649V79.056L130.377 79.04C130.42 78.1547 130.601 77.4133 130.921 76.816C131.252 76.2187 131.689 75.776 132.233 75.488C132.777 75.1893 133.385 75.04 134.057 75.04C134.676 75.04 135.23 75.152 135.721 75.376C136.222 75.6 136.649 75.9147 137.001 76.32C137.364 76.7253 137.641 77.2 137.833 77.744C138.025 78.2773 138.121 78.8533 138.121 79.472V79.808C138.121 80.4373 138.025 81.024 137.833 81.568C137.652 82.1013 137.38 82.576 137.017 82.992C136.665 83.3973 136.238 83.7173 135.737 83.952C135.236 84.176 134.676 84.288 134.057 84.288C133.406 84.288 132.809 84.1547 132.265 83.888C131.732 83.6107 131.3 83.1893 130.969 82.624C130.638 82.048 130.452 81.3067 130.409 80.4L131.113 81.472V87.2H128.889ZM133.497 82.416C133.977 82.416 134.393 82.2987 134.745 82.064C135.108 81.8293 135.39 81.504 135.593 81.088C135.796 80.6613 135.897 80.1813 135.897 79.648C135.897 79.0933 135.796 78.6133 135.593 78.208C135.39 77.8027 135.108 77.488 134.745 77.264C134.393 77.0293 133.977 76.912 133.497 76.912C133.06 76.912 132.654 77.008 132.281 77.2C131.918 77.392 131.62 77.6747 131.385 78.048C131.161 78.4213 131.049 78.8693 131.049 79.392V80.032C131.049 80.5333 131.166 80.96 131.401 81.312C131.636 81.664 131.94 81.936 132.313 82.128C132.686 82.32 133.081 82.416 133.497 82.416Z" fill="#27292C"/>
<path d="M58.2954 268.716C58.6888 269.104 59.322 269.099 59.7096 268.706C60.0972 268.312 60.0925 267.679 59.6991 267.291L54.3288 262H67.9999C68.5522 262 68.9999 261.552 68.9999 261C68.9999 260.448 68.5522 260 67.9999 260H54.3354L59.6991 254.715C60.0925 254.327 60.0972 253.694 59.7096 253.301C59.322 252.908 58.6888 252.903 58.2954 253.29L51.3712 260.113C50.8743 260.602 50.8743 261.404 51.3712 261.894L58.2954 268.716Z" fill="#212121"/>
<rect x="96" y="233" width="56" height="56" rx="28" fill="white"/>
<path d="M125.705 253.284C125.311 252.896 124.678 252.901 124.29 253.294C123.903 253.688 123.907 254.321 124.301 254.709L129.671 260H116C115.448 260 115 260.448 115 261C115 261.552 115.448 262 116 262H129.665L124.301 267.285C123.907 267.673 123.903 268.306 124.29 268.699C124.678 269.092 125.311 269.097 125.705 268.71L132.629 261.887C133.126 261.398 133.126 260.596 132.629 260.106L125.705 253.284Z" fill="#27292C"/>
<defs>
<clipPath id="clip0_1816_622">
<rect x="263" width="502" height="329" rx="16" fill="white"/>
</clipPath>
</defs>
</svg>
