<svg width="765" height="329" viewBox="0 0 765 329" fill="none" xmlns="http://www.w3.org/2000/svg">
<path d="M0 43C0 34.1634 7.16344 27 16 27H749C757.837 27 765 34.1634 765 43V313C765 321.837 757.837 329 749 329H16C7.16344 329 0 321.837 0 313V43Z" fill="#CFEDFE"/>
<path d="M64.192 170.368C59.44 170.368 55.432 169.624 52.168 168.136C48.904 166.6 46.432 164.536 44.752 161.944C43.072 159.304 42.232 156.28 42.232 152.872H53.68C53.68 154.216 54.04 155.464 54.76 156.616C55.528 157.768 56.68 158.704 58.216 159.424C59.752 160.096 61.744 160.432 64.192 160.432C66.4 160.432 68.248 160.144 69.736 159.568C71.224 158.992 72.352 158.2 73.12 157.192C73.888 156.136 74.272 154.936 74.272 153.592C74.272 151.912 73.552 150.592 72.112 149.632C70.672 148.624 68.344 147.976 65.128 147.688L61.168 147.328C55.936 146.896 51.76 145.264 48.64 142.432C45.52 139.6 43.96 135.856 43.96 131.2C43.96 127.84 44.752 124.936 46.336 122.488C47.968 120.04 50.224 118.168 53.104 116.872C55.984 115.528 59.392 114.856 63.328 114.856C67.456 114.856 70.984 115.576 73.912 117.016C76.888 118.408 79.168 120.4 80.752 122.992C82.336 125.536 83.128 128.536 83.128 131.992H71.608C71.608 130.696 71.296 129.52 70.672 128.464C70.048 127.36 69.112 126.472 67.864 125.8C66.664 125.128 65.152 124.792 63.328 124.792C61.6 124.792 60.136 125.08 58.936 125.656C57.784 126.232 56.92 127.024 56.344 128.032C55.768 128.992 55.48 130.048 55.48 131.2C55.48 132.688 56.008 133.984 57.064 135.088C58.12 136.192 59.848 136.84 62.248 137.032L66.28 137.392C70.12 137.728 73.504 138.568 76.432 139.912C79.36 141.208 81.64 143.008 83.272 145.312C84.952 147.568 85.792 150.328 85.792 153.592C85.792 156.952 84.904 159.904 83.128 162.448C81.4 164.944 78.928 166.888 75.712 168.28C72.496 169.672 68.656 170.368 64.192 170.368ZM117.111 169V157.336H115.167V144.664C115.167 142.648 114.687 141.136 113.727 140.128C112.767 139.12 111.231 138.616 109.119 138.616C108.063 138.616 106.671 138.64 104.943 138.688C103.215 138.736 101.439 138.808 99.6154 138.904C97.7914 139 96.1354 139.096 94.6474 139.192V129.472C95.7514 129.376 97.0474 129.28 98.5354 129.184C100.023 129.088 101.559 129.016 103.143 128.968C104.727 128.92 106.215 128.896 107.607 128.896C111.639 128.896 115.023 129.472 117.759 130.624C120.543 131.776 122.655 133.528 124.095 135.88C125.535 138.184 126.255 141.16 126.255 144.808V169H117.111ZM104.511 170.008C101.679 170.008 99.1834 169.504 97.0234 168.496C94.9114 167.488 93.2554 166.048 92.0554 164.176C90.8554 162.256 90.2554 159.976 90.2554 157.336C90.2554 154.456 90.9994 152.104 92.4874 150.28C93.9754 148.408 96.0634 147.04 98.7514 146.176C101.439 145.264 104.535 144.808 108.039 144.808H116.463V151.216H107.967C105.951 151.216 104.391 151.72 103.287 152.728C102.231 153.688 101.703 155.008 101.703 156.688C101.703 158.272 102.231 159.568 103.287 160.576C104.391 161.536 105.951 162.016 107.967 162.016C109.263 162.016 110.415 161.8 111.423 161.368C112.479 160.888 113.343 160.096 114.015 158.992C114.687 157.888 115.071 156.352 115.167 154.384L117.903 157.264C117.663 160 116.991 162.304 115.887 164.176C114.831 166.048 113.343 167.488 111.423 168.496C109.551 169.504 107.247 170.008 104.511 170.008ZM136.029 169V129.544H145.173V146.464H144.525C144.525 142.432 145.029 139.072 146.037 136.384C147.093 133.696 148.677 131.68 150.789 130.336C152.901 128.992 155.469 128.32 158.493 128.32H158.997C163.605 128.32 167.109 129.832 169.509 132.856C171.957 135.832 173.181 140.368 173.181 146.464V169H161.661V145.816C161.661 143.704 161.037 141.976 159.789 140.632C158.541 139.288 156.861 138.616 154.749 138.616C152.589 138.616 150.837 139.312 149.493 140.704C148.197 142.048 147.549 143.824 147.549 146.032V169H136.029ZM200.926 169.504C196.942 169.504 193.726 169.024 191.278 168.064C188.83 167.056 187.03 165.4 185.878 163.096C184.774 160.744 184.222 157.576 184.222 153.592V118.888H194.95V154.024C194.95 155.896 195.43 157.336 196.39 158.344C197.398 159.304 198.814 159.784 200.638 159.784H206.47V169.504H200.926ZM178.246 137.968V129.544H206.47V137.968H178.246ZM233.3 170.368C229.844 170.368 226.772 169.84 224.084 168.784C221.396 167.68 219.116 166.192 217.244 164.32C215.42 162.448 214.028 160.312 213.068 157.912C212.108 155.464 211.628 152.896 211.628 150.208V148.552C211.628 145.816 212.108 143.224 213.068 140.776C214.076 138.28 215.516 136.096 217.388 134.224C219.308 132.352 221.612 130.888 224.3 129.832C226.988 128.728 229.988 128.176 233.3 128.176C236.708 128.176 239.732 128.728 242.372 129.832C245.06 130.888 247.34 132.352 249.212 134.224C251.084 136.096 252.524 138.28 253.532 140.776C254.54 143.224 255.044 145.816 255.044 148.552V150.208C255.044 152.896 254.564 155.464 253.604 157.912C252.644 160.312 251.228 162.448 249.356 164.32C247.532 166.192 245.276 167.68 242.588 168.784C239.9 169.84 236.804 170.368 233.3 170.368ZM233.3 160.648C235.556 160.648 237.428 160.168 238.916 159.208C240.404 158.248 241.532 156.904 242.3 155.176C243.116 153.448 243.524 151.528 243.524 149.416C243.524 147.16 243.116 145.192 242.3 143.512C241.484 141.784 240.308 140.416 238.772 139.408C237.284 138.4 235.46 137.896 233.3 137.896C231.188 137.896 229.364 138.4 227.828 139.408C226.292 140.416 225.116 141.784 224.3 143.512C223.532 145.192 223.148 147.16 223.148 149.416C223.148 151.528 223.532 153.448 224.3 155.176C225.068 156.904 226.22 158.248 227.756 159.208C229.292 160.168 231.14 160.648 233.3 160.648ZM263.084 169V129.544H272.228V146.464H272.012C272.012 140.896 273.188 136.6 275.54 133.576C277.94 130.552 281.396 129.04 285.908 129.04H287.42V138.976H284.54C281.372 138.976 278.924 139.84 277.196 141.568C275.468 143.248 274.604 145.696 274.604 148.912V169H263.084ZM295.261 169V129.544H306.781V169H295.261ZM290.005 138.04V129.544H306.781V138.04H290.005ZM299.725 125.656C297.565 125.656 295.957 125.104 294.901 124C293.893 122.848 293.389 121.408 293.389 119.68C293.389 117.904 293.893 116.464 294.901 115.36C295.957 114.208 297.565 113.632 299.725 113.632C301.885 113.632 303.469 114.208 304.477 115.36C305.533 116.464 306.061 117.904 306.061 119.68C306.061 121.408 305.533 122.848 304.477 124C303.469 125.104 301.885 125.656 299.725 125.656ZM317.436 169V129.544H326.58V146.464H325.932C325.932 142.432 326.436 139.072 327.444 136.384C328.5 133.696 330.084 131.68 332.196 130.336C334.308 128.992 336.876 128.32 339.9 128.32H340.404C345.012 128.32 348.516 129.832 350.916 132.856C353.364 135.832 354.588 140.368 354.588 146.464V169H343.068V145.816C343.068 143.704 342.444 141.976 341.196 140.632C339.948 139.288 338.268 138.616 336.156 138.616C333.996 138.616 332.244 139.312 330.9 140.704C329.604 142.048 328.956 143.824 328.956 146.032V169H317.436ZM366.276 169V129.544H377.796V169H366.276ZM361.02 138.04V129.544H377.796V138.04H361.02ZM370.74 125.656C368.58 125.656 366.972 125.104 365.916 124C364.908 122.848 364.404 121.408 364.404 119.68C364.404 117.904 364.908 116.464 365.916 115.36C366.972 114.208 368.58 113.632 370.74 113.632C372.9 113.632 374.484 114.208 375.492 115.36C376.548 116.464 377.076 117.904 377.076 119.68C377.076 121.408 376.548 122.848 375.492 124C374.484 125.104 372.9 125.656 370.74 125.656Z" fill="#27292C"/>
<path d="M41.44 84V72.32H45.168L50.08 82.112H50.608L50.288 82.4V72.32H52.432V84H48.688L43.776 74.208H43.232L43.552 73.92V84H41.44ZM59.027 84.304C58.2803 84.304 57.6243 84.176 57.059 83.92C56.5043 83.664 56.0403 83.3227 55.667 82.896C55.3043 82.4587 55.027 81.9733 54.835 81.44C54.6537 80.9067 54.563 80.3627 54.563 79.808V79.504C54.563 78.928 54.6537 78.3733 54.835 77.84C55.027 77.296 55.3043 76.816 55.667 76.4C56.0403 75.9733 56.499 75.6373 57.043 75.392C57.587 75.136 58.2163 75.008 58.931 75.008C59.8697 75.008 60.6537 75.216 61.283 75.632C61.923 76.0373 62.403 76.576 62.723 77.248C63.043 77.9093 63.203 78.624 63.203 79.392V80.192H55.507V78.832H61.811L61.123 79.504C61.123 78.9493 61.043 78.4747 60.883 78.08C60.723 77.6853 60.4777 77.3813 60.147 77.168C59.827 76.9547 59.4217 76.848 58.931 76.848C58.4403 76.848 58.0243 76.96 57.683 77.184C57.3417 77.408 57.0803 77.7333 56.899 78.16C56.7283 78.576 56.643 79.0773 56.643 79.664C56.643 80.208 56.7283 80.6933 56.899 81.12C57.0697 81.536 57.331 81.8667 57.683 82.112C58.035 82.3467 58.483 82.464 59.027 82.464C59.571 82.464 60.0137 82.3573 60.355 82.144C60.6963 81.92 60.915 81.648 61.011 81.328H63.059C62.931 81.9253 62.6857 82.448 62.323 82.896C61.9603 83.344 61.4963 83.6907 60.931 83.936C60.3763 84.1813 59.7417 84.304 59.027 84.304ZM70.3249 84V81.424H69.9569V78.56C69.9569 78.0587 69.8342 77.6853 69.5889 77.44C69.3435 77.1947 68.9649 77.072 68.4529 77.072C68.1862 77.072 67.8662 77.0773 67.4929 77.088C67.1195 77.0987 66.7409 77.1147 66.3569 77.136C65.9835 77.1467 65.6475 77.1627 65.3489 77.184V75.296C65.5942 75.2747 65.8715 75.2533 66.1809 75.232C66.4902 75.2107 66.8049 75.2 67.1249 75.2C67.4555 75.1893 67.7649 75.184 68.0529 75.184C68.9489 75.184 69.6902 75.3013 70.2769 75.536C70.8742 75.7707 71.3222 76.1387 71.6209 76.64C71.9302 77.1413 72.0849 77.7973 72.0849 78.608V84H70.3249ZM67.5249 84.224C66.8955 84.224 66.3409 84.112 65.8609 83.888C65.3915 83.664 65.0235 83.344 64.7569 82.928C64.5009 82.512 64.3729 82.0107 64.3729 81.424C64.3729 80.784 64.5275 80.2613 64.8369 79.856C65.1569 79.4507 65.5995 79.1467 66.1649 78.944C66.7409 78.7413 67.4129 78.64 68.1809 78.64H70.1969V79.968H68.1489C67.6369 79.968 67.2422 80.096 66.9649 80.352C66.6982 80.5973 66.5649 80.9173 66.5649 81.312C66.5649 81.7067 66.6982 82.0267 66.9649 82.272C67.2422 82.5173 67.6369 82.64 68.1489 82.64C68.4582 82.64 68.7409 82.5867 68.9969 82.48C69.2635 82.3627 69.4822 82.1707 69.6529 81.904C69.8342 81.6267 69.9355 81.2533 69.9569 80.784L70.5009 81.408C70.4475 82.016 70.2982 82.528 70.0529 82.944C69.8182 83.36 69.4875 83.68 69.0609 83.904C68.6449 84.1173 68.1329 84.224 67.5249 84.224ZM74.4671 84V75.312H76.2271V78.992H76.1791C76.1791 77.744 76.4458 76.8 76.9791 76.16C77.5125 75.52 78.2965 75.2 79.3311 75.2H79.6511V77.136H79.0431C78.2965 77.136 77.7151 77.3387 77.2991 77.744C76.8938 78.1387 76.6911 78.7147 76.6911 79.472V84H74.4671ZM84.9645 84.304C84.2178 84.304 83.5618 84.176 82.9965 83.92C82.4418 83.664 81.9778 83.3227 81.6045 82.896C81.2418 82.4587 80.9645 81.9733 80.7725 81.44C80.5912 80.9067 80.5005 80.3627 80.5005 79.808V79.504C80.5005 78.928 80.5912 78.3733 80.7725 77.84C80.9645 77.296 81.2418 76.816 81.6045 76.4C81.9778 75.9733 82.4365 75.6373 82.9805 75.392C83.5245 75.136 84.1538 75.008 84.8685 75.008C85.8072 75.008 86.5912 75.216 87.2205 75.632C87.8605 76.0373 88.3405 76.576 88.6605 77.248C88.9805 77.9093 89.1405 78.624 89.1405 79.392V80.192H81.4445V78.832H87.7485L87.0605 79.504C87.0605 78.9493 86.9805 78.4747 86.8205 78.08C86.6605 77.6853 86.4152 77.3813 86.0845 77.168C85.7645 76.9547 85.3592 76.848 84.8685 76.848C84.3778 76.848 83.9618 76.96 83.6205 77.184C83.2792 77.408 83.0178 77.7333 82.8365 78.16C82.6658 78.576 82.5805 79.0773 82.5805 79.664C82.5805 80.208 82.6658 80.6933 82.8365 81.12C83.0072 81.536 83.2685 81.8667 83.6205 82.112C83.9725 82.3467 84.4205 82.464 84.9645 82.464C85.5085 82.464 85.9512 82.3573 86.2925 82.144C86.6338 81.92 86.8525 81.648 86.9485 81.328H88.9965C88.8685 81.9253 88.6232 82.448 88.2605 82.896C87.8978 83.344 87.4338 83.6907 86.8685 83.936C86.3138 84.1813 85.6792 84.304 84.9645 84.304ZM94.1504 84.272C92.9557 84.272 92.017 84.0213 91.3344 83.52C90.6624 83.008 90.3104 82.304 90.2784 81.408H92.2784C92.3104 81.7067 92.4757 81.9787 92.7744 82.224C93.073 82.4693 93.5424 82.592 94.1824 82.592C94.7157 82.592 95.137 82.496 95.4464 82.304C95.7664 82.112 95.9264 81.8507 95.9264 81.52C95.9264 81.232 95.8037 81.0027 95.5584 80.832C95.3237 80.6613 94.9184 80.5493 94.3424 80.496L93.5744 80.416C92.6037 80.3093 91.857 80.032 91.3344 79.584C90.8117 79.136 90.5504 78.5387 90.5504 77.792C90.5504 77.1947 90.6997 76.6933 90.9984 76.288C91.297 75.8827 91.7077 75.5787 92.2304 75.376C92.7637 75.1627 93.3717 75.056 94.0544 75.056C95.121 75.056 95.985 75.2907 96.6464 75.76C97.3077 76.2293 97.6544 76.9173 97.6864 77.824H95.6864C95.665 77.5253 95.5157 77.2693 95.2384 77.056C94.961 76.8427 94.561 76.736 94.0384 76.736C93.569 76.736 93.2064 76.8267 92.9504 77.008C92.6944 77.1893 92.5664 77.424 92.5664 77.712C92.5664 77.9893 92.6677 78.2027 92.8704 78.352C93.0837 78.5013 93.425 78.6027 93.8944 78.656L94.6624 78.736C95.6864 78.8427 96.4864 79.1253 97.0624 79.584C97.649 80.0427 97.9424 80.6613 97.9424 81.44C97.9424 82.016 97.7824 82.5173 97.4624 82.944C97.153 83.36 96.7157 83.6853 96.1504 83.92C95.585 84.1547 94.9184 84.272 94.1504 84.272ZM103.556 84.112C102.756 84.112 102.094 84.0107 101.572 83.808C101.06 83.5947 100.676 83.2427 100.42 82.752C100.164 82.2507 100.036 81.5787 100.036 80.736L100.052 72.864H102.132L102.116 80.88C102.116 81.3067 102.228 81.6373 102.452 81.872C102.686 82.096 103.017 82.208 103.444 82.208H104.804V84.112H103.556ZM98.6596 76.944V75.312H104.804V76.944H98.6596ZM113.899 84.112C113.099 84.112 112.438 84.0107 111.915 83.808C111.403 83.5947 111.019 83.2427 110.763 82.752C110.507 82.2507 110.379 81.5787 110.379 80.736L110.395 72.864H112.475L112.459 80.88C112.459 81.3067 112.571 81.6373 112.795 81.872C113.03 82.096 113.361 82.208 113.787 82.208H115.147V84.112H113.899ZM109.003 76.944V75.312H115.147V76.944H109.003ZM117.014 84V75.312H118.774V78.992H118.726C118.726 77.744 118.993 76.8 119.526 76.16C120.059 75.52 120.843 75.2 121.878 75.2H122.198V77.136H121.59C120.843 77.136 120.262 77.3387 119.846 77.744C119.441 78.1387 119.238 78.7147 119.238 79.472V84H117.014ZM124.102 84V75.312H126.326V84H124.102ZM122.886 76.976V75.312H126.326V76.976H122.886ZM124.918 74.272C124.481 74.272 124.155 74.16 123.942 73.936C123.739 73.7013 123.638 73.408 123.638 73.056C123.638 72.704 123.739 72.416 123.942 72.192C124.155 71.968 124.481 71.856 124.918 71.856C125.355 71.856 125.675 71.968 125.878 72.192C126.081 72.416 126.182 72.704 126.182 73.056C126.182 73.408 126.081 73.7013 125.878 73.936C125.675 74.16 125.355 74.272 124.918 74.272ZM128.889 87.2V75.312H130.649V79.056L130.377 79.04C130.42 78.1547 130.601 77.4133 130.921 76.816C131.252 76.2187 131.689 75.776 132.233 75.488C132.777 75.1893 133.385 75.04 134.057 75.04C134.676 75.04 135.23 75.152 135.721 75.376C136.222 75.6 136.649 75.9147 137.001 76.32C137.364 76.7253 137.641 77.2 137.833 77.744C138.025 78.2773 138.121 78.8533 138.121 79.472V79.808C138.121 80.4373 138.025 81.024 137.833 81.568C137.652 82.1013 137.38 82.576 137.017 82.992C136.665 83.3973 136.238 83.7173 135.737 83.952C135.236 84.176 134.676 84.288 134.057 84.288C133.406 84.288 132.809 84.1547 132.265 83.888C131.732 83.6107 131.3 83.1893 130.969 82.624C130.638 82.048 130.452 81.3067 130.409 80.4L131.113 81.472V87.2H128.889ZM133.497 82.416C133.977 82.416 134.393 82.2987 134.745 82.064C135.108 81.8293 135.39 81.504 135.593 81.088C135.796 80.6613 135.897 80.1813 135.897 79.648C135.897 79.0933 135.796 78.6133 135.593 78.208C135.39 77.8027 135.108 77.488 134.745 77.264C134.393 77.0293 133.977 76.912 133.497 76.912C133.06 76.912 132.654 77.008 132.281 77.2C131.918 77.392 131.62 77.6747 131.385 78.048C131.161 78.4213 131.049 78.8693 131.049 79.392V80.032C131.049 80.5333 131.166 80.96 131.401 81.312C131.636 81.664 131.94 81.936 132.313 82.128C132.686 82.32 133.081 82.416 133.497 82.416Z" fill="#27292C"/>
<path d="M58.2954 268.716C58.6888 269.104 59.322 269.099 59.7096 268.706C60.0972 268.312 60.0925 267.679 59.6991 267.291L54.3288 262H67.9999C68.5522 262 68.9999 261.552 68.9999 261C68.9999 260.448 68.5522 260 67.9999 260H54.3354L59.6991 254.715C60.0925 254.328 60.0972 253.694 59.7096 253.301C59.322 252.908 58.6888 252.903 58.2954 253.29L51.3712 260.113C50.8743 260.602 50.8743 261.404 51.3712 261.894L58.2954 268.716Z" fill="#212121"/>
<rect x="96" y="233" width="56" height="56" rx="28" fill="white"/>
<path d="M125.705 253.284C125.311 252.896 124.678 252.901 124.29 253.294C123.903 253.688 123.907 254.321 124.301 254.709L129.671 260H116C115.448 260 115 260.448 115 261C115 261.552 115.448 262 116 262H129.665L124.301 267.285C123.907 267.673 123.903 268.306 124.29 268.699C124.678 269.093 125.311 269.097 125.705 268.71L132.629 261.887C133.126 261.398 133.126 260.596 132.629 260.106L125.705 253.284Z" fill="#27292C"/>
<g clip-path="url(#clip0_1816_1212)">
<path fill-rule="evenodd" clip-rule="evenodd" d="M349.622 339.64C334.416 307.185 362.812 257.46 403.447 237.933C482.062 200.152 487.921 174.426 481.328 154.933C464.873 106.284 452.456 75.8813 496.584 74.9957C590.032 73.1198 519.742 37.6786 581.758 8.22425C641.396 -20.1009 762.234 29.491 762.234 84.6034C762.234 162.777 810.475 155.826 884.727 206.343C971.33 265.27 797.398 295.801 900.306 339.64H349.622Z" fill="#9ED8F5"/>
<path fill-rule="evenodd" clip-rule="evenodd" d="M713.529 174.593C719.648 175.716 725.181 178.948 729.164 183.728C733.148 188.507 735.331 194.531 735.334 200.753V248.196H757.133V328.284H616.722V248.196H638.522V200.753C638.525 194.532 640.707 188.508 644.69 183.729C648.672 178.95 654.203 175.717 660.322 174.593V127.926C660.322 120.869 663.125 114.101 668.115 109.111C673.104 104.121 679.872 101.318 686.928 101.318C693.984 101.318 700.752 104.121 705.741 109.111C710.731 114.101 713.534 120.869 713.534 127.926L713.529 174.593Z" fill="#FBF8F3"/>
<path fill-rule="evenodd" clip-rule="evenodd" d="M643.321 260.271C647.827 260.27 652.15 262.059 655.337 265.246C658.524 268.432 660.316 272.754 660.317 277.261V328.284H626.327V277.261C626.327 275.029 626.767 272.819 627.621 270.758C628.476 268.696 629.728 266.823 631.306 265.246C632.884 263.668 634.757 262.417 636.818 261.563C638.88 260.709 641.089 260.27 643.321 260.271Z" fill="#B4B5B5"/>
<path fill-rule="evenodd" clip-rule="evenodd" d="M646.466 260.562C650.359 261.294 653.873 263.364 656.403 266.413C658.932 269.462 660.316 273.299 660.317 277.261V328.284H632.612V277.261C632.613 273.299 633.999 269.462 636.528 266.413C639.058 263.364 642.573 261.294 646.466 260.562Z" fill="#01283D"/>
<path fill-rule="evenodd" clip-rule="evenodd" d="M686.923 260.271C691.43 260.27 695.752 262.059 698.939 265.246C702.126 268.432 703.918 272.754 703.919 277.261V328.284H669.927V277.261C669.928 272.754 671.719 268.432 674.907 265.246C678.094 262.059 682.416 260.27 686.923 260.271Z" fill="#B4B5B5"/>
<path fill-rule="evenodd" clip-rule="evenodd" d="M690.065 260.562C693.958 261.294 697.473 263.364 700.003 266.413C702.533 269.462 703.918 273.299 703.919 277.261V328.284H676.214V277.261C676.215 273.299 677.6 269.463 680.129 266.414C682.658 263.365 686.173 261.295 690.065 260.562Z" fill="#01283D"/>
<path fill-rule="evenodd" clip-rule="evenodd" d="M730.522 260.271C732.754 260.27 734.963 260.709 737.025 261.563C739.086 262.417 740.959 263.668 742.537 265.246C744.115 266.823 745.367 268.696 746.222 270.758C747.076 272.819 747.516 275.029 747.516 277.261V328.284H713.529V277.261C713.53 272.754 715.321 268.432 718.509 265.246C721.696 262.059 726.018 260.27 730.525 260.271" fill="#B4B5B5"/>
<path fill-rule="evenodd" clip-rule="evenodd" d="M733.665 260.562C737.558 261.294 741.073 263.364 743.603 266.413C746.132 269.462 747.517 273.299 747.519 277.261V328.284H719.814V277.261C719.815 273.299 721.2 269.463 723.729 266.414C726.258 263.365 729.772 261.295 733.665 260.562Z" fill="#01283D"/>
<path fill-rule="evenodd" clip-rule="evenodd" d="M665.123 183.766C669.629 183.765 673.951 185.554 677.138 188.74C680.324 191.926 682.115 196.247 682.117 200.753V248.196H648.127V200.753C648.128 198.522 648.568 196.312 649.422 194.251C650.277 192.189 651.529 190.317 653.107 188.739C654.685 187.162 656.559 185.911 658.621 185.057C660.682 184.204 662.892 183.765 665.123 183.766Z" fill="#B4B5B5"/>
<path fill-rule="evenodd" clip-rule="evenodd" d="M668.266 184.057C672.158 184.789 675.673 186.858 678.202 189.907C680.731 192.956 682.116 196.792 682.117 200.753V248.196H654.412V200.753C654.413 196.792 655.798 192.955 658.328 189.907C660.858 186.858 664.373 184.789 668.266 184.057Z" fill="#00507A"/>
<path fill-rule="evenodd" clip-rule="evenodd" d="M708.723 183.766C713.228 183.766 717.548 185.556 720.734 188.742C723.92 191.927 725.71 196.248 725.711 200.753V248.196H691.729V200.753C691.73 196.247 693.521 191.926 696.708 188.74C699.895 185.554 704.217 183.765 708.723 183.766Z" fill="#B4B5B5"/>
<path fill-rule="evenodd" clip-rule="evenodd" d="M711.865 184.057C715.757 184.791 719.27 186.86 721.798 189.909C724.326 192.957 725.71 196.793 725.711 200.753V248.196H698.014V200.753C698.015 196.792 699.4 192.956 701.929 189.907C704.458 186.859 707.973 184.79 711.865 184.057Z" fill="#00507A"/>
<path fill-rule="evenodd" clip-rule="evenodd" d="M686.923 110.938C689.154 110.938 691.364 111.376 693.426 112.23C695.487 113.083 697.361 114.334 698.939 115.912C700.517 117.489 701.769 119.362 702.624 121.423C703.478 123.485 703.918 125.694 703.919 127.926V171.519H669.927V127.926C669.927 125.694 670.368 123.485 671.222 121.423C672.077 119.362 673.329 117.489 674.907 115.912C676.485 114.334 678.359 113.083 680.42 112.23C682.482 111.376 684.692 110.938 686.923 110.938Z" fill="#B4B5B5"/>
<path fill-rule="evenodd" clip-rule="evenodd" d="M690.065 111.229C693.958 111.962 697.473 114.031 700.002 117.08C702.532 120.128 703.917 123.964 703.919 127.926V171.519H676.214V127.926C676.216 123.965 677.601 120.129 680.13 117.08C682.659 114.032 686.173 111.962 690.065 111.229Z" fill="#00507A"/>
<path d="M703.916 128.587H673.213V131.377H703.916V128.587Z" fill="#956C26"/>
<path fill-rule="evenodd" clip-rule="evenodd" d="M688.566 151.371H680.995V150.138C682.474 149.568 683.426 146.301 683.426 144.146V140.043C683.426 138.68 683.967 137.372 684.931 136.408C685.895 135.444 687.203 134.903 688.566 134.903C689.929 134.903 691.237 135.444 692.201 136.408C693.165 137.372 693.707 138.68 693.707 140.043V144.146C693.707 146.301 694.659 149.568 696.137 150.138V151.371H688.566Z" fill="#D9B500"/>
<path fill-rule="evenodd" clip-rule="evenodd" d="M688.566 134.915C689.241 134.915 689.909 135.047 690.533 135.306C691.157 135.564 691.723 135.942 692.201 136.419C692.678 136.896 693.057 137.463 693.315 138.087C693.574 138.71 693.707 139.378 693.707 140.053V144.146C693.707 146.301 694.659 149.568 696.137 150.138V151.371H688.566V134.915Z" fill="#C5A405"/>
<path fill-rule="evenodd" clip-rule="evenodd" d="M690.949 151.371C691.067 151.745 691.096 152.143 691.032 152.53C690.969 152.918 690.815 153.285 690.582 153.602C690.35 153.919 690.047 154.177 689.697 154.354C689.346 154.532 688.959 154.625 688.566 154.625C688.173 154.625 687.786 154.532 687.436 154.354C687.085 154.177 686.782 153.919 686.55 153.602C686.318 153.285 686.164 152.918 686.1 152.53C686.036 152.143 686.065 151.745 686.183 151.371H690.949Z" fill="#B2871C"/>
<path d="M689.708 131.377H687.427V135.161H689.708V131.377Z" fill="#B2871C"/>
<path d="M682.117 203.007H651.414V205.8H682.117V203.007Z" fill="#956C26"/>
<path fill-rule="evenodd" clip-rule="evenodd" d="M666.766 225.794H659.195V224.561C660.674 223.988 661.623 220.724 661.623 218.569V214.476C661.653 213.132 662.208 211.854 663.169 210.914C664.13 209.974 665.421 209.447 666.765 209.447C668.109 209.447 669.4 209.974 670.361 210.914C671.322 211.854 671.877 213.132 671.907 214.476V218.569C671.907 220.724 672.859 223.988 674.338 224.561V225.794H666.766Z" fill="#D9B500"/>
<path fill-rule="evenodd" clip-rule="evenodd" d="M666.766 209.338C667.441 209.338 668.11 209.471 668.733 209.729C669.357 209.987 669.924 210.365 670.401 210.842C670.878 211.319 671.257 211.886 671.515 212.51C671.774 213.133 671.907 213.802 671.907 214.477V218.569C671.907 220.724 672.859 223.988 674.338 224.561V225.794H666.766V209.338Z" fill="#C5A405"/>
<path fill-rule="evenodd" clip-rule="evenodd" d="M669.149 225.794C669.268 226.168 669.296 226.566 669.233 226.953C669.169 227.341 669.015 227.708 668.783 228.025C668.551 228.342 668.247 228.6 667.897 228.777C667.546 228.955 667.159 229.048 666.766 229.048C666.374 229.048 665.986 228.955 665.636 228.777C665.286 228.6 664.982 228.342 664.75 228.025C664.518 227.708 664.364 227.341 664.3 226.953C664.236 226.566 664.265 226.168 664.384 225.794H669.149Z" fill="#B2871C"/>
<path d="M667.906 205.801H665.625V209.584H667.906V205.801Z" fill="#B2871C"/>
<path d="M725.719 203.007H695.016V205.8H725.719V203.007Z" fill="#956C26"/>
<path fill-rule="evenodd" clip-rule="evenodd" d="M710.366 225.794H702.795V224.561C704.273 223.988 705.226 220.724 705.226 218.569V214.476C705.255 213.132 705.81 211.854 706.771 210.914C707.732 209.974 709.023 209.447 710.367 209.447C711.711 209.447 713.002 209.974 713.963 210.914C714.924 211.854 715.479 213.132 715.509 214.476V218.569C715.509 220.724 716.458 223.988 717.937 224.561V225.794H710.366Z" fill="#D9B500"/>
<path fill-rule="evenodd" clip-rule="evenodd" d="M710.366 209.338C711.041 209.338 711.71 209.471 712.334 209.729C712.957 209.987 713.524 210.365 714.002 210.842C714.479 211.319 714.858 211.886 715.117 212.509C715.375 213.133 715.509 213.801 715.509 214.477V218.569C715.509 220.724 716.459 223.988 717.938 224.561V225.794H710.366V209.338Z" fill="#C5A405"/>
<path fill-rule="evenodd" clip-rule="evenodd" d="M712.749 225.794C712.867 226.168 712.896 226.566 712.832 226.953C712.769 227.341 712.614 227.708 712.382 228.025C712.15 228.342 711.847 228.6 711.496 228.777C711.146 228.955 710.759 229.048 710.366 229.048C709.973 229.048 709.586 228.955 709.236 228.777C708.885 228.6 708.582 228.342 708.35 228.025C708.118 227.708 707.963 227.341 707.9 226.953C707.836 226.566 707.865 226.168 707.983 225.794H712.749Z" fill="#B2871C"/>
<path d="M711.508 205.801H709.227V209.584H711.508V205.801Z" fill="#B2871C"/>
<path d="M791.288 233.462H763.026V278.866H791.288V233.462Z" fill="#FBF8F3"/>
<path d="M863.319 278.866H747.519V328.284H863.319V278.866Z" fill="#ECE8DB"/>
<path fill-rule="evenodd" clip-rule="evenodd" d="M319.36 328.284H943.97C944.86 328.284 945.714 328.638 946.344 329.267C946.974 329.897 947.327 330.751 947.327 331.642C947.327 332.533 946.974 333.387 946.344 334.016C945.714 334.646 944.86 335 943.97 335H319.36C318.47 335 317.616 334.646 316.986 334.016C316.356 333.387 316.003 332.533 316.003 331.642C316.003 330.751 316.356 329.897 316.986 329.267C317.616 328.638 318.47 328.284 319.36 328.284Z" fill="#B4B5B5"/>
<path d="M526.563 266.574H391.607V328.281H526.563V266.574Z" fill="#FBF8F3"/>
<path fill-rule="evenodd" clip-rule="evenodd" d="M424.422 328.284H396.777V292.07C396.827 288.435 398.305 284.966 400.893 282.412C403.481 279.859 406.969 278.428 410.605 278.428C414.24 278.428 417.729 279.859 420.316 282.412C422.904 284.966 424.383 288.435 424.432 292.07L424.422 328.284Z" fill="#B4B5B5"/>
<path fill-rule="evenodd" clip-rule="evenodd" d="M424.422 328.284H401.632V292.07C401.643 288.829 402.789 285.694 404.871 283.209C406.952 280.724 409.838 279.046 413.027 278.466C416.216 279.046 419.101 280.724 421.183 283.209C423.264 285.694 424.41 288.829 424.422 292.07V328.284Z" fill="#01283D"/>
<path fill-rule="evenodd" clip-rule="evenodd" d="M456.748 328.284H429.094V292.07C429.143 288.435 430.621 284.966 433.209 282.412C435.797 279.859 439.286 278.428 442.921 278.428C446.556 278.428 450.045 279.859 452.632 282.412C455.22 284.966 456.699 288.435 456.748 292.07V328.284Z" fill="#B4B5B5"/>
<path fill-rule="evenodd" clip-rule="evenodd" d="M489.074 328.284H461.422V292.07C461.422 288.403 462.879 284.886 465.472 282.293C468.064 279.7 471.581 278.243 475.248 278.243C478.915 278.243 482.431 279.7 485.024 282.293C487.617 284.886 489.074 288.403 489.074 292.07V328.284Z" fill="#B4B5B5"/>
<path fill-rule="evenodd" clip-rule="evenodd" d="M521.403 328.284H493.761V292.07C493.81 288.435 495.289 284.966 497.876 282.412C500.464 279.859 503.953 278.428 507.588 278.428C511.223 278.428 514.712 279.859 517.3 282.412C519.888 284.966 521.366 288.435 521.415 292.07L521.403 328.284Z" fill="#B4B5B5"/>
<path fill-rule="evenodd" clip-rule="evenodd" d="M456.748 328.284H433.958V292.07C433.969 288.829 435.115 285.693 437.196 283.208C439.278 280.723 442.164 279.045 445.353 278.466C448.542 279.045 451.428 280.723 453.509 283.208C455.591 285.693 456.737 288.829 456.748 292.07V328.284Z" fill="#01283D"/>
<path fill-rule="evenodd" clip-rule="evenodd" d="M489.074 328.284H466.284V292.07C466.295 288.828 467.44 285.693 469.522 283.208C471.603 280.722 474.489 279.045 477.679 278.466C480.868 279.045 483.754 280.723 485.835 283.208C487.917 285.693 489.063 288.829 489.074 292.07V328.284Z" fill="#01283D"/>
<path fill-rule="evenodd" clip-rule="evenodd" d="M521.403 328.284H498.613V292.07C498.624 288.829 499.77 285.693 501.851 283.208C503.933 280.723 506.818 279.045 510.008 278.466C513.197 279.045 516.083 280.723 518.164 283.208C520.246 285.693 521.391 288.829 521.403 292.07V328.284Z" fill="#01283D"/>
<path d="M526.563 261.514H391.607V266.576H526.563V261.514Z" fill="#B4B5B5"/>
<path d="M639.272 169.037H526.563V328.284H639.272V169.037Z" fill="#ECE8DB"/>
<path d="M526.563 169.037H505.298V261.514H526.563V169.037Z" fill="#FBF8F3"/>
<path fill-rule="evenodd" clip-rule="evenodd" d="M572.513 118.518C601.633 118.518 625.603 140.666 628.452 169.04H516.563C519.415 140.664 543.372 118.518 572.513 118.518Z" fill="#0073B6"/>
<path fill-rule="evenodd" clip-rule="evenodd" d="M524.284 169.037C525.565 159.269 529.388 150.009 535.371 142.182C541.353 134.355 549.286 128.237 558.375 124.439C550.816 129.418 544.436 135.99 539.683 143.693C534.93 151.397 531.918 160.047 530.858 169.037H524.284Z" fill="#00507A"/>
<path d="M585.108 102.161H559.902V119.966H585.108V102.161Z" fill="#ECE8DB"/>
<path fill-rule="evenodd" clip-rule="evenodd" d="M572.513 90.8636C575.627 90.8627 578.63 92.0176 580.941 94.1048C583.252 96.1919 584.706 99.0626 585.022 102.161H560.004C560.319 99.0626 561.773 96.1919 564.084 94.1048C566.395 92.0176 569.399 90.8627 572.513 90.8636Z" fill="#0073B6"/>
<path fill-rule="evenodd" clip-rule="evenodd" d="M561.72 102.161C562.006 99.975 562.86 97.9025 564.198 96.151C565.536 94.3994 567.311 93.0302 569.345 92.1804C567.654 93.2938 566.228 94.7632 565.165 96.4859C564.102 98.2086 563.429 100.143 563.192 102.153L561.72 102.161Z" fill="#00507A"/>
<path fill-rule="evenodd" clip-rule="evenodd" d="M554.577 181.322C553.624 181.322 552.679 181.509 551.799 181.874C550.918 182.238 550.117 182.773 549.443 183.447C548.768 184.121 548.233 184.921 547.868 185.802C547.503 186.682 547.315 187.627 547.315 188.58V200.138H561.837V188.582C561.837 187.629 561.649 186.685 561.284 185.804C560.919 184.923 560.385 184.123 559.71 183.449C559.036 182.774 558.236 182.24 557.355 181.875C556.474 181.51 555.53 181.322 554.577 181.322Z" fill="#B4B5B5"/>
<path fill-rule="evenodd" clip-rule="evenodd" d="M553.232 181.449C551.569 181.761 550.068 182.646 548.987 183.948C547.906 185.251 547.315 186.89 547.315 188.582V200.14H559.15V188.582C559.15 186.89 558.558 185.251 557.478 183.948C556.397 182.646 554.896 181.761 553.232 181.449Z" fill="#272423"/>
<path fill-rule="evenodd" clip-rule="evenodd" d="M591.914 181.322C589.991 181.325 588.148 182.092 586.789 183.453C585.43 184.814 584.667 186.659 584.667 188.583V200.141H599.189V188.583C599.189 187.628 599.001 186.682 598.635 185.801C598.27 184.919 597.733 184.118 597.058 183.443C596.382 182.769 595.58 182.234 594.697 181.87C593.815 181.506 592.869 181.32 591.914 181.322Z" fill="#B4B5B5"/>
<path fill-rule="evenodd" clip-rule="evenodd" d="M590.572 181.449C588.911 181.764 587.413 182.649 586.335 183.952C585.257 185.254 584.667 186.892 584.667 188.582V200.14H596.503V188.582C596.502 186.89 595.911 185.251 594.83 183.948C593.75 182.646 592.248 181.761 590.585 181.449" fill="#272423"/>
<path fill-rule="evenodd" clip-rule="evenodd" d="M590.332 234.389H590.408V328.284H537.274V234.389L550.538 221.985L563.802 209.579L577.068 221.985L590.332 234.389Z" fill="#FBF8F3"/>
<path d="M639.272 234.389H590.408V328.281H639.272V234.389Z" fill="#ECE8DB"/>
<path fill-rule="evenodd" clip-rule="evenodd" d="M639.272 234.389L626.008 221.985L612.742 209.579H612.668H563.802L577.068 221.985L590.332 234.389H590.408H639.272Z" fill="#0073B6"/>
<path fill-rule="evenodd" clip-rule="evenodd" d="M563.84 274.946C565.59 274.945 567.323 275.289 568.94 275.959C570.557 276.628 572.026 277.609 573.264 278.846C574.502 280.083 575.484 281.552 576.154 283.169C576.824 284.786 577.169 286.519 577.169 288.269V328.281H550.51V288.269C550.511 286.519 550.856 284.786 551.526 283.169C552.196 281.552 553.178 280.083 554.416 278.846C555.653 277.609 557.123 276.628 558.74 275.959C560.357 275.289 562.09 274.945 563.84 274.946Z" fill="#B4B5B5"/>
<path fill-rule="evenodd" clip-rule="evenodd" d="M566.304 275.174C569.357 275.748 572.114 277.37 574.098 279.762C576.082 282.153 577.168 285.162 577.169 288.269V328.281H555.44V288.269C555.441 285.162 556.527 282.153 558.511 279.762C560.494 277.371 563.251 275.748 566.304 275.174Z" fill="#272423"/>
<path fill-rule="evenodd" clip-rule="evenodd" d="M614.839 249.66C613.297 249.659 611.77 249.963 610.346 250.552C608.921 251.142 607.627 252.006 606.537 253.096C605.446 254.186 604.581 255.48 603.991 256.905C603.401 258.329 603.097 259.856 603.097 261.397V280.087H626.58V261.397C626.58 259.856 626.276 258.329 625.686 256.905C625.096 255.48 624.231 254.186 623.14 253.096C622.05 252.006 620.756 251.142 619.331 250.552C617.907 249.963 616.38 249.659 614.839 249.66Z" fill="#B4B5B5"/>
<path fill-rule="evenodd" clip-rule="evenodd" d="M612.668 249.862C609.979 250.368 607.55 251.798 605.803 253.904C604.055 256.01 603.098 258.66 603.097 261.397V280.087H622.238V261.397C622.237 258.661 621.28 256.01 619.533 253.904C617.786 251.798 615.358 250.368 612.668 249.862Z" fill="#272423"/>
<path fill-rule="evenodd" clip-rule="evenodd" d="M563.84 240.834C564.793 240.834 565.737 241.021 566.618 241.386C567.499 241.75 568.3 242.285 568.974 242.959C569.648 243.633 570.183 244.433 570.549 245.314C570.914 246.195 571.102 247.139 571.102 248.092V259.65H556.58V248.097C556.58 247.143 556.767 246.199 557.132 245.318C557.497 244.437 558.031 243.636 558.705 242.962C559.38 242.287 560.18 241.752 561.061 241.387C561.942 241.022 562.886 240.834 563.84 240.834Z" fill="#B4B5B5"/>
<path fill-rule="evenodd" clip-rule="evenodd" d="M565.184 240.966C566.847 241.278 568.349 242.162 569.43 243.464C570.51 244.766 571.102 246.405 571.102 248.097V259.655H559.264V248.097C559.265 246.405 559.857 244.765 560.938 243.463C562.019 242.161 563.521 241.278 565.184 240.966Z" fill="#272423"/>
<path d="M576.992 86.0748H568.015V91.6917H576.992V86.0748Z" fill="#ECE8DB"/>
<path d="M573.579 64.7137H571.431V86.0748H573.579V64.7137Z" fill="#ECE8DB"/>
<path fill-rule="evenodd" clip-rule="evenodd" d="M451.823 248.33H480.15L500.319 230.591H471.989L451.823 248.33Z" fill="#F39F1E"/>
<path fill-rule="evenodd" clip-rule="evenodd" d="M452.489 177.604L491.664 200.759H476.099L452.489 177.604Z" fill="#0073B6"/>
<path fill-rule="evenodd" clip-rule="evenodd" d="M428.982 200.71C428.982 203.691 427.149 206.13 424.908 206.13H417.352C415.111 206.13 413.277 203.691 413.277 200.71H428.982Z" fill="#00507A"/>
<path fill-rule="evenodd" clip-rule="evenodd" d="M428.982 200.71L452.489 177.604L413.277 200.71H428.982Z" fill="#0073B6"/>
<path fill-rule="evenodd" clip-rule="evenodd" d="M444.689 200.759L452.489 177.604L428.982 200.759H444.689Z" fill="#00507A"/>
<path fill-rule="evenodd" clip-rule="evenodd" d="M460.394 200.759L452.489 177.604L444.689 200.759H460.394Z" fill="#0073B6"/>
<path fill-rule="evenodd" clip-rule="evenodd" d="M476.099 200.759L452.489 177.604L460.376 200.71L476.099 200.759Z" fill="#00507A"/>
<path fill-rule="evenodd" clip-rule="evenodd" d="M444.689 200.71C444.689 203.691 442.856 206.13 440.615 206.13H433.056C430.815 206.13 428.982 203.691 428.982 200.71H444.689Z" fill="#0073B6"/>
<path fill-rule="evenodd" clip-rule="evenodd" d="M460.394 200.71C460.394 203.691 458.561 206.13 456.32 206.13H448.761C446.523 206.13 444.689 203.691 444.689 200.71H460.394Z" fill="#00507A"/>
<path fill-rule="evenodd" clip-rule="evenodd" d="M476.084 200.71C476.084 203.691 474.25 206.13 472.009 206.13H464.451C462.21 206.13 460.376 203.691 460.376 200.71H476.084Z" fill="#0073B6"/>
<path fill-rule="evenodd" clip-rule="evenodd" d="M491.788 200.71C491.788 203.691 489.955 206.13 487.717 206.13H480.158C477.917 206.13 476.084 203.691 476.084 200.71H491.788Z" fill="#00507A"/>
<path d="M453.615 206.13H451.45V261.514H453.615V206.13Z" fill="#745D38"/>
<path d="M452.532 206.13H451.45V261.514H452.532V206.13Z" fill="#C8A44F"/>
<path d="M428.622 248.33H425.204V261.511H428.622V248.33Z" fill="#F39F1E"/>
<path d="M475.509 248.33H472.09V261.511H475.509V248.33Z" fill="#F39F1E"/>
<path fill-rule="evenodd" clip-rule="evenodd" d="M407.089 248.33H478.315C478.951 248.329 479.561 248.076 480.011 247.626C480.462 247.176 480.716 246.566 480.718 245.929C480.715 245.293 480.461 244.684 480.011 244.234C479.56 243.784 478.951 243.531 478.315 243.529H407.089C406.453 243.531 405.843 243.784 405.393 244.234C404.944 244.684 404.69 245.293 404.688 245.929C404.69 246.566 404.944 247.175 405.393 247.625C405.843 248.075 406.453 248.328 407.089 248.33Z" fill="#F7B300"/>
<path d="M413.401 248.33H409.983V261.511H413.401V248.33Z" fill="#F39F1E"/>
<path d="M460.288 248.33H456.869V261.511H460.288V248.33Z" fill="#F39F1E"/>
<path fill-rule="evenodd" clip-rule="evenodd" d="M356.13 263.745C359.149 294.699 371.926 314.366 385.322 328.284H374.532C363.021 316.344 351.704 290.191 352.464 263.745H356.13Z" fill="#B75720"/>
<path fill-rule="evenodd" clip-rule="evenodd" d="M379.926 328.284H374.529C363.021 316.344 351.704 290.191 352.464 263.745H354.624C354.768 264.882 354.877 266.085 354.923 267.371C356.424 305.669 379.915 328.284 379.915 328.284" fill="#904324"/>
<path fill-rule="evenodd" clip-rule="evenodd" d="M353.753 265.619C354.279 250.47 358.969 238.575 376.626 234.44C375.01 237.896 373.182 241.248 371.151 244.478L370.392 244.344L365.327 243.445L368.447 246.547L369.262 247.36C368.277 248.814 367.259 250.234 366.209 251.62L364.877 251.078L360.699 249.378L364.244 253.785L364.393 253.967C363.863 254.629 363.327 255.284 362.785 255.932L362.339 255.522L359.349 252.681L361.243 257.429L361.329 257.644C358.916 260.417 356.381 263.071 353.753 265.632" fill="#009844"/>
<path fill-rule="evenodd" clip-rule="evenodd" d="M354.49 265.535C368.46 259.64 381.227 258.89 392.409 273.163C388.593 273.15 384.78 272.901 380.994 272.419L380.797 271.659L379.485 266.7L377.983 270.831L377.588 271.912C375.856 271.632 374.14 271.307 372.438 270.937L372.37 269.501L372.154 264.996L369.642 270.061L369.539 270.274C368.716 270.071 367.897 269.86 367.08 269.64L367.277 269.061L368.599 265.156L365.084 268.868L364.925 269.038C361.395 268.025 357.921 266.835 354.49 265.528" fill="#40A437"/>
<path fill-rule="evenodd" clip-rule="evenodd" d="M354.49 265.535C362.714 252.8 372.843 244.992 390.123 250.493C386.963 252.635 383.673 254.581 380.273 256.317L379.688 255.811L375.808 252.45L376.895 256.712L377.178 257.827C375.588 258.57 373.984 259.267 372.367 259.918L371.501 258.771L368.784 255.17L369.561 260.764L369.594 260.997C368.802 261.296 368.007 261.584 367.206 261.861L367.042 261.271L365.94 257.295L365.125 262.332L365.089 262.562C361.595 263.704 358.057 264.685 354.487 265.535" fill="#6CB82D"/>
<path fill-rule="evenodd" clip-rule="evenodd" d="M354.49 265.535C365.378 268.007 373.334 273.039 373.889 286.375C371.612 284.728 369.438 282.943 367.381 281.029L367.584 280.5L368.931 276.969L366.257 278.795L365.555 279.274C364.642 278.36 363.756 277.432 362.897 276.488L363.471 275.599L365.279 272.814L361.603 274.761L361.451 274.842C361.046 274.371 360.645 273.892 360.253 273.411L360.618 273.158L363.086 271.385L359.389 272.099L359.222 272.132C357.549 270.005 355.979 267.807 354.49 265.548" fill="#009844"/>
<path fill-rule="evenodd" clip-rule="evenodd" d="M354.49 265.535C353.294 250.425 348.083 238.748 330.259 235.4C332.029 238.779 334.005 242.047 336.174 245.185L336.934 245.018L341.943 243.898L338.96 247.132L338.18 247.978C339.228 249.386 340.308 250.76 341.418 252.101L342.727 251.498L346.827 249.617L343.487 254.175L343.348 254.365C343.905 255.001 344.469 255.631 345.039 256.254L345.465 255.814L348.326 252.843L346.64 257.67L346.561 257.89C349.093 260.554 351.745 263.092 354.485 265.535" fill="#40A437"/>
<path fill-rule="evenodd" clip-rule="evenodd" d="M354.49 265.535C343.994 254.593 332.566 248.852 316.646 257.548C320.156 259.046 323.755 260.326 327.423 261.382L327.899 260.774L331.069 256.738L330.816 261.126L330.748 262.276C332.451 262.705 334.157 263.086 335.865 263.418L336.498 262.127L338.478 258.075L338.79 263.702V263.937C339.626 264.076 340.461 264.207 341.297 264.33L341.347 263.72L341.679 259.61L343.434 264.421L343.515 264.641C347.164 265.097 350.823 265.401 354.49 265.546" fill="#009844"/>
<path fill-rule="evenodd" clip-rule="evenodd" d="M354.49 265.535C343.285 271.107 335.949 278.704 338.874 293.362C340.918 290.967 342.812 288.449 344.546 285.82L344.186 285.296L341.783 281.806L345.181 283.088L346.07 283.424C346.825 282.189 347.544 280.939 348.227 279.676L347.367 278.861L344.66 276.303L349.18 277.456L349.369 277.501C349.683 276.881 349.992 276.253 350.294 275.625L349.825 275.435L346.668 274.168L350.884 273.966H351.076C352.342 271.205 353.462 268.394 354.49 265.548" fill="#40A437"/>
<path fill-rule="evenodd" clip-rule="evenodd" d="M354.49 265.535C342.548 261.797 332.001 262.193 323.946 274.802C327.079 274.486 330.191 273.978 333.262 273.282L333.366 272.652L334.05 268.473L335.614 271.75L336.022 272.606C337.423 272.238 338.808 271.834 340.175 271.395L340.117 270.213L339.939 266.495L342.401 270.453L342.505 270.618C343.163 270.387 343.819 270.149 344.472 269.906L344.267 269.443L342.872 266.341L346.05 269.126L346.197 269.253C349.015 268.134 351.767 266.885 354.49 265.543" fill="#6CB82D"/>
<path fill-rule="evenodd" clip-rule="evenodd" d="M353.831 262.917C353.255 262.917 352.693 263.089 352.214 263.409C351.735 263.729 351.363 264.184 351.143 264.716C350.923 265.249 350.865 265.834 350.978 266.399C351.091 266.964 351.368 267.482 351.775 267.889C352.183 268.296 352.702 268.574 353.266 268.686C353.831 268.798 354.417 268.74 354.949 268.52C355.481 268.299 355.935 267.926 356.255 267.447C356.575 266.968 356.746 266.405 356.746 265.829C356.746 265.447 356.67 265.068 356.524 264.714C356.377 264.361 356.163 264.039 355.892 263.769C355.621 263.499 355.3 263.284 354.946 263.138C354.593 262.992 354.214 262.917 353.831 262.917Z" fill="#6D2E1B"/>
<path fill-rule="evenodd" clip-rule="evenodd" d="M356.705 264.743C356.129 264.743 355.566 264.915 355.088 265.235C354.609 265.555 354.236 266.011 354.016 266.543C353.797 267.075 353.739 267.661 353.852 268.226C353.965 268.791 354.243 269.309 354.65 269.716C355.058 270.123 355.577 270.4 356.142 270.512C356.707 270.624 357.293 270.566 357.825 270.345C358.356 270.124 358.811 269.75 359.13 269.271C359.45 268.792 359.62 268.229 359.62 267.653C359.62 267.27 359.544 266.891 359.398 266.538C359.251 266.185 359.037 265.864 358.766 265.593C358.495 265.323 358.174 265.109 357.82 264.963C357.467 264.817 357.088 264.742 356.705 264.743Z" fill="#9F4B24"/>
<path fill-rule="evenodd" clip-rule="evenodd" d="M353.183 266.194C352.607 266.194 352.044 266.365 351.565 266.685C351.086 267.005 350.713 267.46 350.493 267.992C350.272 268.524 350.214 269.109 350.327 269.674C350.439 270.239 350.717 270.758 351.124 271.165C351.531 271.573 352.05 271.85 352.615 271.963C353.18 272.075 353.765 272.017 354.297 271.797C354.829 271.576 355.284 271.203 355.604 270.724C355.924 270.245 356.095 269.682 356.095 269.106C356.095 268.334 355.788 267.593 355.242 267.047C354.696 266.501 353.955 266.194 353.183 266.194Z" fill="#C8642F"/>
</g>
<defs>
<clipPath id="clip0_1816_1212">
<path d="M326 0H765V313C765 321.837 757.837 329 749 329H326V0Z" fill="white"/>
</clipPath>
</defs>
</svg>
