<svg width="36" height="42" viewBox="0 0 36 42" fill="none" xmlns="http://www.w3.org/2000/svg">
<path d="M31.2359 0H4.61317C2.06946 0 0 2.08696 0 4.65217V23.8478C0 23.8913 0 23.913 0 23.9565C0.0215569 28.2826 5.25988 30.3696 8.27784 27.3043L18.9269 16.4348L11.7916 12L13.5808 10.1957L22.1389 13.0435L25.6096 9.41304C26.1701 8.82609 27.0754 8.67391 27.7437 9.13043C28.6491 9.73913 28.7353 11 27.9808 11.7174L24.3377 15.2609L27.1617 23.8913L25.3725 25.6957L20.9748 18.4783L12.0072 27.8696C6.98443 33.1304 10.606 41.9348 17.8275 42C17.8922 42 17.9353 42 18 42C27.9377 42 36 33.8696 36 23.8478V4.80435C36 2.15217 33.8659 0 31.2359 0Z" fill="#FF742C"/>
</svg>
