<svg width="765" height="330" viewBox="0 0 765 330" fill="none" xmlns="http://www.w3.org/2000/svg">
<g clip-path="url(#clip0_2023_92)">
<rect y="0.5" width="765" height="329" rx="16" fill="#CFEDFE"/>
<path d="M0 43.5C0 34.6634 7.16344 27.5 16 27.5H749C757.837 27.5 765 34.6634 765 43.5V313.5C765 322.337 757.837 329.5 749 329.5H16C7.16344 329.5 0 322.337 0 313.5V43.5Z" fill="#CFEDFE"/>
<mask id="mask0_2023_92" style="mask-type:luminance" maskUnits="userSpaceOnUse" x="334" y="1" width="439" height="330">
<path d="M334 1.5H773V314.5C773 323.337 765.837 330.5 757 330.5H334V1.5Z" fill="white"/>
</mask>
<g mask="url(#mask0_2023_92)">
<path fill-rule="evenodd" clip-rule="evenodd" d="M357.622 341.14C342.416 308.685 370.812 258.96 411.447 239.433C490.062 201.652 495.921 175.926 489.328 156.433C472.873 107.784 460.456 77.3813 504.584 76.4957C598.032 74.6198 527.742 39.1786 589.758 9.72425C649.396 -18.6009 770.234 30.991 770.234 86.1034C770.234 164.277 818.475 157.326 892.727 207.843C979.33 266.77 805.398 297.301 908.306 341.14H357.622Z" fill="#9ED8F5"/>
<path fill-rule="evenodd" clip-rule="evenodd" d="M721.529 176.093C727.648 177.216 733.181 180.448 737.164 185.228C741.148 190.007 743.331 196.031 743.334 202.253V249.696H765.133V329.784H624.722V249.696H646.522V202.253C646.525 196.032 648.707 190.008 652.69 185.229C656.672 180.45 662.203 177.217 668.322 176.093V129.426C668.322 122.369 671.125 115.601 676.115 110.611C681.104 105.621 687.872 102.818 694.928 102.818C701.984 102.818 708.752 105.621 713.741 110.611C718.731 115.601 721.534 122.369 721.534 129.426L721.529 176.093Z" fill="#FBF8F3"/>
<path fill-rule="evenodd" clip-rule="evenodd" d="M651.321 261.771C655.827 261.77 660.15 263.559 663.337 266.746C666.524 269.932 668.316 274.254 668.317 278.761V329.784H634.327V278.761C634.327 276.529 634.767 274.319 635.621 272.258C636.476 270.196 637.728 268.323 639.306 266.746C640.884 265.168 642.757 263.917 644.818 263.063C646.88 262.209 649.089 261.77 651.321 261.771Z" fill="#B4B5B5"/>
<path fill-rule="evenodd" clip-rule="evenodd" d="M654.466 262.062C658.359 262.794 661.873 264.864 664.403 267.913C666.932 270.962 668.316 274.799 668.317 278.761V329.784H640.612V278.761C640.613 274.799 641.999 270.962 644.528 267.913C647.058 264.864 650.573 262.794 654.466 262.062Z" fill="#01283D"/>
<path fill-rule="evenodd" clip-rule="evenodd" d="M694.923 261.771C699.43 261.77 703.752 263.559 706.939 266.746C710.126 269.932 711.918 274.254 711.919 278.761V329.784H677.927V278.761C677.928 274.254 679.719 269.932 682.907 266.746C686.094 263.559 690.416 261.77 694.923 261.771Z" fill="#B4B5B5"/>
<path fill-rule="evenodd" clip-rule="evenodd" d="M698.065 262.062C701.958 262.794 705.473 264.864 708.003 267.913C710.533 270.962 711.918 274.799 711.919 278.761V329.784H684.214V278.761C684.215 274.799 685.6 270.963 688.129 267.914C690.658 264.865 694.173 262.795 698.065 262.062Z" fill="#01283D"/>
<path fill-rule="evenodd" clip-rule="evenodd" d="M738.522 261.771C740.754 261.77 742.963 262.209 745.025 263.063C747.086 263.917 748.959 265.168 750.537 266.746C752.115 268.323 753.367 270.196 754.222 272.258C755.076 274.319 755.516 276.529 755.516 278.761V329.784H721.529V278.761C721.53 274.254 723.321 269.932 726.509 266.746C729.696 263.559 734.018 261.77 738.525 261.771" fill="#B4B5B5"/>
<path fill-rule="evenodd" clip-rule="evenodd" d="M741.665 262.062C745.558 262.794 749.073 264.864 751.603 267.913C754.132 270.962 755.517 274.799 755.519 278.761V329.784H727.814V278.761C727.815 274.799 729.2 270.963 731.729 267.914C734.258 264.865 737.772 262.795 741.665 262.062Z" fill="#01283D"/>
<path fill-rule="evenodd" clip-rule="evenodd" d="M673.123 185.266C677.629 185.265 681.951 187.054 685.138 190.24C688.324 193.426 690.115 197.747 690.117 202.253V249.696H656.127V202.253C656.128 200.022 656.568 197.812 657.422 195.751C658.277 193.689 659.529 191.817 661.107 190.239C662.685 188.662 664.559 187.411 666.621 186.557C668.682 185.704 670.892 185.265 673.123 185.266Z" fill="#B4B5B5"/>
<path fill-rule="evenodd" clip-rule="evenodd" d="M676.266 185.557C680.158 186.289 683.673 188.358 686.202 191.407C688.731 194.456 690.116 198.292 690.117 202.253V249.696H662.412V202.253C662.413 198.292 663.798 194.455 666.328 191.407C668.858 188.358 672.373 186.289 676.266 185.557Z" fill="#00507A"/>
<path fill-rule="evenodd" clip-rule="evenodd" d="M716.723 185.266C721.228 185.266 725.548 187.056 728.734 190.242C731.92 193.427 733.71 197.748 733.711 202.253V249.696H699.729V202.253C699.73 197.747 701.521 193.426 704.708 190.24C707.895 187.054 712.217 185.265 716.723 185.266Z" fill="#B4B5B5"/>
<path fill-rule="evenodd" clip-rule="evenodd" d="M719.865 185.557C723.757 186.291 727.27 188.36 729.798 191.409C732.326 194.457 733.71 198.293 733.711 202.253V249.696H706.014V202.253C706.015 198.292 707.4 194.456 709.929 191.407C712.458 188.359 715.973 186.29 719.865 185.557Z" fill="#00507A"/>
<path fill-rule="evenodd" clip-rule="evenodd" d="M694.923 112.438C697.154 112.438 699.364 112.876 701.426 113.73C703.487 114.583 705.361 115.834 706.939 117.412C708.517 118.989 709.769 120.862 710.624 122.923C711.478 124.985 711.918 127.194 711.919 129.426V173.019H677.927V129.426C677.927 127.194 678.368 124.985 679.222 122.923C680.077 120.862 681.329 118.989 682.907 117.412C684.485 115.834 686.359 114.583 688.42 113.73C690.482 112.876 692.692 112.438 694.923 112.438Z" fill="#B4B5B5"/>
<path fill-rule="evenodd" clip-rule="evenodd" d="M698.065 112.729C701.958 113.462 705.473 115.531 708.002 118.58C710.532 121.628 711.917 125.464 711.919 129.426V173.019H684.214V129.426C684.216 125.465 685.601 121.629 688.13 118.58C690.659 115.532 694.173 113.462 698.065 112.729Z" fill="#00507A"/>
<path d="M711.916 130.087H681.213V132.877H711.916V130.087Z" fill="#956C26"/>
<path fill-rule="evenodd" clip-rule="evenodd" d="M696.566 152.871H688.995V151.638C690.474 151.068 691.426 147.801 691.426 145.646V141.543C691.426 140.18 691.967 138.872 692.931 137.908C693.895 136.944 695.203 136.403 696.566 136.403C697.929 136.403 699.237 136.944 700.201 137.908C701.165 138.872 701.707 140.18 701.707 141.543V145.646C701.707 147.801 702.659 151.068 704.137 151.638V152.871H696.566Z" fill="#D9B500"/>
<path fill-rule="evenodd" clip-rule="evenodd" d="M696.566 136.415C697.241 136.415 697.909 136.547 698.533 136.806C699.157 137.064 699.723 137.442 700.201 137.919C700.678 138.396 701.057 138.963 701.315 139.587C701.574 140.21 701.707 140.878 701.707 141.553V145.646C701.707 147.801 702.659 151.068 704.137 151.638V152.871H696.566V136.415Z" fill="#C5A405"/>
<path fill-rule="evenodd" clip-rule="evenodd" d="M698.949 152.871C699.067 153.245 699.096 153.643 699.032 154.03C698.969 154.418 698.815 154.785 698.582 155.102C698.35 155.419 698.047 155.677 697.697 155.854C697.346 156.032 696.959 156.125 696.566 156.125C696.173 156.125 695.786 156.032 695.436 155.854C695.085 155.677 694.782 155.419 694.55 155.102C694.318 154.785 694.164 154.418 694.1 154.03C694.036 153.643 694.065 153.245 694.183 152.871H698.949Z" fill="#B2871C"/>
<path d="M697.708 132.877H695.427V136.661H697.708V132.877Z" fill="#B2871C"/>
<path d="M690.117 204.507H659.414V207.3H690.117V204.507Z" fill="#956C26"/>
<path fill-rule="evenodd" clip-rule="evenodd" d="M674.766 227.294H667.195V226.061C668.674 225.488 669.623 222.224 669.623 220.069V215.976C669.653 214.632 670.208 213.354 671.169 212.414C672.13 211.474 673.421 210.947 674.765 210.947C676.109 210.947 677.4 211.474 678.361 212.414C679.322 213.354 679.877 214.632 679.907 215.976V220.069C679.907 222.224 680.859 225.488 682.338 226.061V227.294H674.766Z" fill="#D9B500"/>
<path fill-rule="evenodd" clip-rule="evenodd" d="M674.766 210.838C675.441 210.838 676.11 210.971 676.733 211.229C677.357 211.487 677.924 211.865 678.401 212.342C678.878 212.819 679.257 213.386 679.515 214.01C679.774 214.633 679.907 215.302 679.907 215.977V220.069C679.907 222.224 680.859 225.488 682.338 226.061V227.294H674.766V210.838Z" fill="#C5A405"/>
<path fill-rule="evenodd" clip-rule="evenodd" d="M677.149 227.294C677.268 227.668 677.296 228.066 677.233 228.453C677.169 228.841 677.015 229.208 676.783 229.525C676.551 229.842 676.247 230.1 675.897 230.277C675.546 230.455 675.159 230.548 674.766 230.548C674.374 230.548 673.986 230.455 673.636 230.277C673.286 230.1 672.982 229.842 672.75 229.525C672.518 229.208 672.364 228.841 672.3 228.453C672.236 228.066 672.265 227.668 672.384 227.294H677.149Z" fill="#B2871C"/>
<path d="M675.906 207.301H673.625V211.084H675.906V207.301Z" fill="#B2871C"/>
<path d="M733.719 204.507H703.016V207.3H733.719V204.507Z" fill="#956C26"/>
<path fill-rule="evenodd" clip-rule="evenodd" d="M718.366 227.294H710.795V226.061C712.273 225.488 713.226 222.224 713.226 220.069V215.976C713.255 214.632 713.81 213.354 714.771 212.414C715.732 211.474 717.023 210.947 718.367 210.947C719.711 210.947 721.002 211.474 721.963 212.414C722.924 213.354 723.479 214.632 723.509 215.976V220.069C723.509 222.224 724.458 225.488 725.937 226.061V227.294H718.366Z" fill="#D9B500"/>
<path fill-rule="evenodd" clip-rule="evenodd" d="M718.366 210.838C719.041 210.838 719.71 210.971 720.334 211.229C720.957 211.487 721.524 211.865 722.002 212.342C722.479 212.819 722.858 213.386 723.117 214.009C723.375 214.633 723.509 215.301 723.509 215.977V220.069C723.509 222.224 724.459 225.488 725.938 226.061V227.294H718.366V210.838Z" fill="#C5A405"/>
<path fill-rule="evenodd" clip-rule="evenodd" d="M720.749 227.294C720.867 227.668 720.896 228.066 720.832 228.453C720.769 228.841 720.614 229.208 720.382 229.525C720.15 229.842 719.847 230.1 719.496 230.277C719.146 230.455 718.759 230.548 718.366 230.548C717.973 230.548 717.586 230.455 717.236 230.277C716.885 230.1 716.582 229.842 716.35 229.525C716.118 229.208 715.963 228.841 715.9 228.453C715.836 228.066 715.865 227.668 715.983 227.294H720.749Z" fill="#B2871C"/>
<path d="M719.508 207.301H717.227V211.084H719.508V207.301Z" fill="#B2871C"/>
<path d="M871.319 280.366H755.519V329.784H871.319V280.366Z" fill="#ECE8DB"/>
<path d="M534.563 268.074H399.607V329.781H534.563V268.074Z" fill="#FBF8F3"/>
<path fill-rule="evenodd" clip-rule="evenodd" d="M432.422 329.784H404.777V293.57C404.827 289.935 406.305 286.466 408.893 283.912C411.481 281.359 414.969 279.928 418.605 279.928C422.24 279.928 425.729 281.359 428.316 283.912C430.904 286.466 432.383 289.935 432.432 293.57L432.422 329.784Z" fill="#B4B5B5"/>
<path fill-rule="evenodd" clip-rule="evenodd" d="M432.422 329.784H409.632V293.57C409.643 290.329 410.789 287.194 412.871 284.709C414.952 282.224 417.838 280.546 421.027 279.966C424.216 280.546 427.101 282.224 429.183 284.709C431.264 287.194 432.41 290.329 432.422 293.57V329.784Z" fill="#01283D"/>
<path fill-rule="evenodd" clip-rule="evenodd" d="M464.748 329.784H437.094V293.57C437.143 289.935 438.621 286.466 441.209 283.912C443.797 281.359 447.286 279.928 450.921 279.928C454.556 279.928 458.045 281.359 460.632 283.912C463.22 286.466 464.699 289.935 464.748 293.57V329.784Z" fill="#B4B5B5"/>
<path fill-rule="evenodd" clip-rule="evenodd" d="M497.074 329.784H469.422V293.57C469.422 289.903 470.879 286.386 473.472 283.793C476.064 281.2 479.581 279.743 483.248 279.743C486.915 279.743 490.431 281.2 493.024 283.793C495.617 286.386 497.074 289.903 497.074 293.57V329.784Z" fill="#B4B5B5"/>
<path fill-rule="evenodd" clip-rule="evenodd" d="M529.403 329.784H501.761V293.57C501.81 289.935 503.289 286.466 505.876 283.912C508.464 281.359 511.953 279.928 515.588 279.928C519.223 279.928 522.712 281.359 525.3 283.912C527.888 286.466 529.366 289.935 529.415 293.57L529.403 329.784Z" fill="#B4B5B5"/>
<path fill-rule="evenodd" clip-rule="evenodd" d="M464.748 329.784H441.958V293.57C441.969 290.329 443.115 287.193 445.196 284.708C447.278 282.223 450.164 280.545 453.353 279.966C456.542 280.545 459.428 282.223 461.509 284.708C463.591 287.193 464.737 290.329 464.748 293.57V329.784Z" fill="#01283D"/>
<path fill-rule="evenodd" clip-rule="evenodd" d="M497.074 329.784H474.284V293.57C474.295 290.328 475.44 287.193 477.522 284.708C479.603 282.222 482.489 280.545 485.679 279.966C488.868 280.545 491.754 282.223 493.835 284.708C495.917 287.193 497.063 290.329 497.074 293.57V329.784Z" fill="#01283D"/>
<path fill-rule="evenodd" clip-rule="evenodd" d="M529.403 329.784H506.613V293.57C506.624 290.329 507.77 287.193 509.851 284.708C511.933 282.223 514.818 280.545 518.008 279.966C521.197 280.545 524.083 282.223 526.164 284.708C528.246 287.193 529.391 290.329 529.403 293.57V329.784Z" fill="#01283D"/>
<path d="M534.563 263.014H399.607V268.076H534.563V263.014Z" fill="#B4B5B5"/>
<path d="M647.272 170.537H534.563V329.784H647.272V170.537Z" fill="#ECE8DB"/>
<path d="M534.563 170.537H513.298V263.014H534.563V170.537Z" fill="#FBF8F3"/>
<path fill-rule="evenodd" clip-rule="evenodd" d="M580.513 120.018C609.633 120.018 633.603 142.166 636.452 170.54H524.563C527.415 142.164 551.372 120.018 580.513 120.018Z" fill="#0073B6"/>
<path fill-rule="evenodd" clip-rule="evenodd" d="M532.284 170.537C533.565 160.769 537.388 151.509 543.371 143.682C549.353 135.855 557.286 129.737 566.375 125.939C558.816 130.918 552.436 137.49 547.683 145.193C542.93 152.897 539.918 161.547 538.858 170.537H532.284Z" fill="#00507A"/>
<path d="M593.108 103.661H567.902V121.466H593.108V103.661Z" fill="#ECE8DB"/>
<path fill-rule="evenodd" clip-rule="evenodd" d="M580.513 92.3636C583.627 92.3627 586.63 93.5176 588.941 95.6048C591.252 97.6919 592.706 100.563 593.022 103.661H568.004C568.319 100.563 569.773 97.6919 572.084 95.6048C574.395 93.5176 577.399 92.3627 580.513 92.3636Z" fill="#0073B6"/>
<path fill-rule="evenodd" clip-rule="evenodd" d="M569.72 103.661C570.006 101.475 570.86 99.4025 572.198 97.651C573.536 95.8994 575.311 94.5302 577.345 93.6804C575.654 94.7938 574.228 96.2632 573.165 97.9859C572.102 99.7086 571.429 101.643 571.192 103.653L569.72 103.661Z" fill="#00507A"/>
<path fill-rule="evenodd" clip-rule="evenodd" d="M562.577 182.822C561.624 182.822 560.679 183.009 559.799 183.374C558.918 183.738 558.117 184.273 557.443 184.947C556.768 185.621 556.233 186.421 555.868 187.302C555.503 188.182 555.315 189.127 555.315 190.08V201.638H569.837V190.082C569.837 189.129 569.649 188.185 569.284 187.304C568.919 186.423 568.385 185.623 567.71 184.949C567.036 184.274 566.236 183.74 565.355 183.375C564.474 183.01 563.53 182.822 562.577 182.822Z" fill="#B4B5B5"/>
<path fill-rule="evenodd" clip-rule="evenodd" d="M561.232 182.949C559.569 183.261 558.068 184.146 556.987 185.448C555.906 186.751 555.315 188.39 555.315 190.082V201.64H567.15V190.082C567.15 188.39 566.558 186.751 565.478 185.448C564.397 184.146 562.896 183.261 561.232 182.949Z" fill="#272423"/>
<path fill-rule="evenodd" clip-rule="evenodd" d="M599.914 182.822C597.991 182.825 596.148 183.592 594.789 184.953C593.43 186.314 592.667 188.159 592.667 190.083V201.641H607.189V190.083C607.189 189.128 607.001 188.182 606.635 187.301C606.27 186.419 605.733 185.618 605.058 184.943C604.382 184.269 603.58 183.734 602.697 183.37C601.815 183.006 600.869 182.82 599.914 182.822Z" fill="#B4B5B5"/>
<path fill-rule="evenodd" clip-rule="evenodd" d="M598.572 182.949C596.911 183.264 595.413 184.149 594.335 185.452C593.257 186.754 592.667 188.392 592.667 190.082V201.64H604.503V190.082C604.502 188.39 603.911 186.751 602.83 185.448C601.75 184.146 600.248 183.261 598.585 182.949" fill="#272423"/>
<path fill-rule="evenodd" clip-rule="evenodd" d="M598.332 235.889H598.408V329.784H545.274V235.889L558.538 223.485L571.802 211.079L585.068 223.485L598.332 235.889Z" fill="#FBF8F3"/>
<path d="M647.272 235.889H598.408V329.781H647.272V235.889Z" fill="#ECE8DB"/>
<path fill-rule="evenodd" clip-rule="evenodd" d="M647.272 235.889L634.008 223.485L620.742 211.079H620.668H571.802L585.068 223.485L598.332 235.889H598.408H647.272Z" fill="#0073B6"/>
<path fill-rule="evenodd" clip-rule="evenodd" d="M571.84 276.446C573.59 276.445 575.323 276.789 576.94 277.459C578.557 278.128 580.026 279.109 581.264 280.346C582.502 281.583 583.484 283.052 584.154 284.669C584.824 286.286 585.169 288.019 585.169 289.769V329.781H558.51V289.769C558.511 288.019 558.856 286.286 559.526 284.669C560.196 283.052 561.178 281.583 562.416 280.346C563.653 279.109 565.123 278.128 566.74 277.459C568.357 276.789 570.09 276.445 571.84 276.446Z" fill="#B4B5B5"/>
<path fill-rule="evenodd" clip-rule="evenodd" d="M574.304 276.674C577.357 277.248 580.114 278.87 582.098 281.262C584.082 283.653 585.168 286.662 585.169 289.769V329.781H563.44V289.769C563.441 286.662 564.527 283.653 566.511 281.262C568.494 278.871 571.251 277.248 574.304 276.674Z" fill="#272423"/>
<path fill-rule="evenodd" clip-rule="evenodd" d="M622.839 251.16C621.297 251.159 619.77 251.463 618.346 252.052C616.921 252.642 615.627 253.506 614.537 254.596C613.446 255.686 612.581 256.98 611.991 258.405C611.401 259.829 611.097 261.356 611.097 262.897V281.587H634.58V262.897C634.58 261.356 634.276 259.829 633.686 258.405C633.096 256.98 632.231 255.686 631.14 254.596C630.05 253.506 628.756 252.642 627.331 252.052C625.907 251.463 624.38 251.159 622.839 251.16Z" fill="#B4B5B5"/>
<path fill-rule="evenodd" clip-rule="evenodd" d="M620.668 251.362C617.979 251.868 615.55 253.298 613.803 255.404C612.055 257.51 611.098 260.16 611.097 262.897V281.587H630.238V262.897C630.237 260.161 629.28 257.51 627.533 255.404C625.786 253.298 623.358 251.868 620.668 251.362Z" fill="#272423"/>
<path fill-rule="evenodd" clip-rule="evenodd" d="M571.84 242.334C572.793 242.334 573.737 242.521 574.618 242.886C575.499 243.25 576.3 243.785 576.974 244.459C577.648 245.133 578.183 245.933 578.549 246.814C578.914 247.695 579.102 248.639 579.102 249.592V261.15H564.58V249.597C564.58 248.643 564.767 247.699 565.132 246.818C565.497 245.937 566.031 245.136 566.705 244.462C567.38 243.787 568.18 243.252 569.061 242.887C569.942 242.522 570.886 242.334 571.84 242.334Z" fill="#B4B5B5"/>
<path fill-rule="evenodd" clip-rule="evenodd" d="M573.184 242.466C574.847 242.778 576.349 243.662 577.43 244.964C578.51 246.266 579.102 247.905 579.102 249.597V261.155H567.264V249.597C567.265 247.905 567.857 246.265 568.938 244.963C570.019 243.661 571.521 242.778 573.184 242.466Z" fill="#272423"/>
<path d="M584.992 87.5748H576.015V93.1917H584.992V87.5748Z" fill="#ECE8DB"/>
<path d="M581.579 66.2137H579.431V87.5748H581.579V66.2137Z" fill="#ECE8DB"/>
<path fill-rule="evenodd" clip-rule="evenodd" d="M459.823 249.83H488.15L508.319 232.091H479.989L459.823 249.83Z" fill="#F39F1E"/>
<path fill-rule="evenodd" clip-rule="evenodd" d="M460.489 179.104L499.664 202.259H484.099L460.489 179.104Z" fill="#0073B6"/>
<path fill-rule="evenodd" clip-rule="evenodd" d="M436.982 202.21C436.982 205.191 435.149 207.63 432.908 207.63H425.352C423.111 207.63 421.277 205.191 421.277 202.21H436.982Z" fill="#00507A"/>
<path fill-rule="evenodd" clip-rule="evenodd" d="M436.982 202.21L460.489 179.104L421.277 202.21H436.982Z" fill="#0073B6"/>
<path fill-rule="evenodd" clip-rule="evenodd" d="M452.689 202.259L460.489 179.104L436.982 202.259H452.689Z" fill="#00507A"/>
<path fill-rule="evenodd" clip-rule="evenodd" d="M468.394 202.259L460.489 179.104L452.689 202.259H468.394Z" fill="#0073B6"/>
<path fill-rule="evenodd" clip-rule="evenodd" d="M484.099 202.259L460.489 179.104L468.376 202.21L484.099 202.259Z" fill="#00507A"/>
<path fill-rule="evenodd" clip-rule="evenodd" d="M452.689 202.21C452.689 205.191 450.856 207.63 448.615 207.63H441.056C438.815 207.63 436.982 205.191 436.982 202.21H452.689Z" fill="#0073B6"/>
<path fill-rule="evenodd" clip-rule="evenodd" d="M468.394 202.21C468.394 205.191 466.561 207.63 464.32 207.63H456.761C454.523 207.63 452.689 205.191 452.689 202.21H468.394Z" fill="#00507A"/>
<path fill-rule="evenodd" clip-rule="evenodd" d="M484.084 202.21C484.084 205.191 482.25 207.63 480.009 207.63H472.451C470.21 207.63 468.376 205.191 468.376 202.21H484.084Z" fill="#0073B6"/>
<path fill-rule="evenodd" clip-rule="evenodd" d="M499.788 202.21C499.788 205.191 497.955 207.63 495.717 207.63H488.158C485.917 207.63 484.084 205.191 484.084 202.21H499.788Z" fill="#00507A"/>
<path d="M461.615 207.63H459.45V263.014H461.615V207.63Z" fill="#745D38"/>
<path d="M460.532 207.63H459.45V263.014H460.532V207.63Z" fill="#C8A44F"/>
<path d="M436.622 249.83H433.204V263.011H436.622V249.83Z" fill="#F39F1E"/>
<path d="M483.509 249.83H480.09V263.011H483.509V249.83Z" fill="#F39F1E"/>
<path fill-rule="evenodd" clip-rule="evenodd" d="M415.089 249.83H486.315C486.951 249.829 487.561 249.576 488.011 249.126C488.462 248.676 488.716 248.066 488.718 247.429C488.715 246.793 488.461 246.184 488.011 245.734C487.56 245.284 486.951 245.031 486.315 245.029H415.089C414.453 245.031 413.843 245.284 413.393 245.734C412.944 246.184 412.69 246.793 412.688 247.429C412.69 248.066 412.944 248.675 413.393 249.125C413.843 249.575 414.453 249.828 415.089 249.83Z" fill="#F7B300"/>
<path d="M421.401 249.83H417.983V263.011H421.401V249.83Z" fill="#F39F1E"/>
<path d="M468.288 249.83H464.869V263.011H468.288V249.83Z" fill="#F39F1E"/>
<path fill-rule="evenodd" clip-rule="evenodd" d="M364.13 265.245C367.149 296.199 379.926 315.866 393.322 329.784H382.532C371.021 317.844 359.704 291.691 360.464 265.245H364.13Z" fill="#B75720"/>
<path fill-rule="evenodd" clip-rule="evenodd" d="M387.926 329.784H382.529C371.021 317.844 359.704 291.691 360.464 265.245H362.624C362.768 266.382 362.877 267.585 362.923 268.871C364.424 307.169 387.915 329.784 387.915 329.784" fill="#904324"/>
<path fill-rule="evenodd" clip-rule="evenodd" d="M361.753 267.119C362.279 251.97 366.969 240.075 384.626 235.94C383.01 239.396 381.182 242.748 379.151 245.978L378.392 245.844L373.327 244.945L376.447 248.047L377.262 248.86C376.277 250.314 375.259 251.734 374.209 253.12L372.877 252.578L368.699 250.878L372.244 255.285L372.393 255.467C371.863 256.129 371.327 256.784 370.785 257.432L370.339 257.022L367.349 254.181L369.243 258.929L369.329 259.144C366.916 261.917 364.381 264.571 361.753 267.132" fill="#009844"/>
<path fill-rule="evenodd" clip-rule="evenodd" d="M362.49 267.035C376.46 261.14 389.227 260.39 400.409 274.663C396.593 274.65 392.78 274.401 388.994 273.919L388.797 273.159L387.485 268.2L385.983 272.331L385.588 273.412C383.856 273.132 382.14 272.807 380.438 272.437L380.37 271.001L380.154 266.496L377.642 271.561L377.539 271.774C376.716 271.571 375.897 271.36 375.08 271.14L375.277 270.561L376.599 266.656L373.084 270.368L372.925 270.538C369.395 269.525 365.921 268.335 362.49 267.028" fill="#40A437"/>
<path fill-rule="evenodd" clip-rule="evenodd" d="M362.49 267.035C370.714 254.3 380.843 246.492 398.123 251.993C394.963 254.135 391.673 256.081 388.273 257.817L387.688 257.311L383.808 253.95L384.895 258.212L385.178 259.327C383.588 260.07 381.984 260.767 380.367 261.418L379.501 260.271L376.784 256.67L377.561 262.264L377.594 262.497C376.802 262.796 376.007 263.084 375.206 263.361L375.042 262.771L373.94 258.795L373.125 263.832L373.089 264.062C369.595 265.204 366.057 266.185 362.487 267.035" fill="#6CB82D"/>
<path fill-rule="evenodd" clip-rule="evenodd" d="M362.49 267.035C373.378 269.507 381.334 274.539 381.889 287.875C379.612 286.228 377.438 284.443 375.381 282.529L375.584 282L376.931 278.469L374.257 280.295L373.555 280.774C372.642 279.86 371.756 278.932 370.897 277.988L371.471 277.099L373.279 274.314L369.603 276.261L369.451 276.342C369.046 275.871 368.645 275.392 368.253 274.911L368.618 274.658L371.086 272.885L367.389 273.599L367.222 273.632C365.549 271.505 363.979 269.307 362.49 267.048" fill="#009844"/>
<path fill-rule="evenodd" clip-rule="evenodd" d="M362.49 267.035C361.294 251.925 356.083 240.248 338.259 236.9C340.029 240.279 342.005 243.547 344.174 246.685L344.934 246.518L349.943 245.398L346.96 248.632L346.18 249.478C347.228 250.886 348.308 252.26 349.418 253.601L350.727 252.998L354.827 251.117L351.487 255.675L351.348 255.865C351.905 256.501 352.469 257.131 353.039 257.754L353.465 257.314L356.326 254.343L354.64 259.17L354.561 259.39C357.093 262.054 359.745 264.592 362.485 267.035" fill="#40A437"/>
<path fill-rule="evenodd" clip-rule="evenodd" d="M362.49 267.035C351.994 256.093 340.566 250.352 324.646 259.048C328.156 260.546 331.755 261.826 335.423 262.882L335.899 262.274L339.069 258.238L338.816 262.626L338.748 263.776C340.451 264.205 342.157 264.586 343.865 264.918L344.498 263.627L346.478 259.575L346.79 265.202V265.437C347.626 265.576 348.461 265.707 349.297 265.83L349.347 265.22L349.679 261.11L351.434 265.921L351.515 266.141C355.164 266.597 358.823 266.901 362.49 267.046" fill="#009844"/>
<path fill-rule="evenodd" clip-rule="evenodd" d="M362.49 267.035C351.285 272.607 343.949 280.204 346.874 294.862C348.918 292.467 350.812 289.949 352.546 287.32L352.186 286.796L349.783 283.306L353.181 284.588L354.07 284.924C354.825 283.689 355.544 282.439 356.227 281.176L355.367 280.361L352.66 277.803L357.18 278.956L357.369 279.001C357.683 278.381 357.992 277.753 358.294 277.125L357.825 276.935L354.668 275.668L358.884 275.466H359.076C360.342 272.705 361.462 269.894 362.49 267.048" fill="#40A437"/>
<path fill-rule="evenodd" clip-rule="evenodd" d="M362.49 267.035C350.548 263.297 340.001 263.693 331.946 276.302C335.079 275.986 338.191 275.478 341.262 274.782L341.366 274.152L342.05 269.973L343.614 273.25L344.022 274.106C345.423 273.738 346.808 273.334 348.175 272.895L348.117 271.713L347.939 267.995L350.401 271.953L350.505 272.118C351.163 271.887 351.819 271.649 352.472 271.406L352.267 270.943L350.872 267.841L354.05 270.626L354.197 270.753C357.015 269.634 359.767 268.385 362.49 267.043" fill="#6CB82D"/>
<path fill-rule="evenodd" clip-rule="evenodd" d="M361.831 264.417C361.255 264.417 360.693 264.589 360.214 264.909C359.735 265.229 359.363 265.684 359.143 266.216C358.923 266.749 358.865 267.334 358.978 267.899C359.091 268.464 359.368 268.982 359.775 269.389C360.183 269.796 360.702 270.074 361.266 270.186C361.831 270.298 362.417 270.24 362.949 270.02C363.481 269.799 363.935 269.426 364.255 268.947C364.575 268.468 364.746 267.905 364.746 267.329C364.746 266.947 364.67 266.568 364.524 266.214C364.377 265.861 364.163 265.539 363.892 265.269C363.621 264.999 363.3 264.784 362.946 264.638C362.593 264.492 362.214 264.417 361.831 264.417Z" fill="#6D2E1B"/>
<path fill-rule="evenodd" clip-rule="evenodd" d="M364.705 266.243C364.129 266.243 363.566 266.415 363.088 266.735C362.609 267.055 362.236 267.511 362.016 268.043C361.797 268.575 361.739 269.161 361.852 269.726C361.965 270.291 362.243 270.809 362.65 271.216C363.058 271.623 363.577 271.9 364.142 272.012C364.707 272.124 365.293 272.066 365.825 271.845C366.356 271.624 366.811 271.25 367.13 270.771C367.45 270.292 367.62 269.729 367.62 269.153C367.62 268.77 367.544 268.391 367.398 268.038C367.251 267.685 367.037 267.364 366.766 267.093C366.495 266.823 366.174 266.609 365.82 266.463C365.467 266.317 365.088 266.242 364.705 266.243Z" fill="#9F4B24"/>
<path fill-rule="evenodd" clip-rule="evenodd" d="M361.183 267.694C360.607 267.694 360.044 267.865 359.565 268.185C359.086 268.505 358.713 268.96 358.493 269.492C358.272 270.024 358.214 270.609 358.327 271.174C358.439 271.739 358.717 272.258 359.124 272.665C359.531 273.073 360.05 273.35 360.615 273.463C361.18 273.575 361.765 273.517 362.297 273.297C362.829 273.076 363.284 272.703 363.604 272.224C363.924 271.745 364.095 271.182 364.095 270.606C364.095 269.834 363.788 269.093 363.242 268.547C362.696 268.001 361.955 267.694 361.183 267.694Z" fill="#C8642F"/>
</g>
</g>
<defs>
<clipPath id="clip0_2023_92">
<rect y="0.5" width="765" height="329" rx="16" fill="white"/>
</clipPath>
</defs>
</svg>
