<svg width="22" height="22" viewBox="0 0 22 22" fill="none" xmlns="http://www.w3.org/2000/svg">
<path d="M11.75 1.25C11.75 0.835786 11.4142 0.5 11 0.5C10.5858 0.5 10.25 0.835786 10.25 1.25V2.75C10.25 3.16421 10.5858 3.5 11 3.5C11.4142 3.5 11.75 3.16421 11.75 2.75V1.25ZM4.63604 3.57538C4.34315 3.28249 3.86827 3.28249 3.57538 3.57538C3.28249 3.86827 3.28249 4.34315 3.57538 4.63604L4.63604 5.6967C4.92893 5.98959 5.40381 5.98959 5.6967 5.6967C5.98959 5.40381 5.98959 4.92893 5.6967 4.63604L4.63604 3.57538ZM18.4246 4.63604C18.7175 4.34315 18.7175 3.86827 18.4246 3.57538C18.1317 3.28249 17.6569 3.28249 17.364 3.57538L16.3033 4.63604C16.0104 4.92893 16.0104 5.40381 16.3033 5.6967C16.5962 5.98959 17.0711 5.98959 17.364 5.6967L18.4246 4.63604ZM1.25 10.25C0.835786 10.25 0.5 10.5858 0.5 11C0.5 11.4142 0.835786 11.75 1.25 11.75H2.75C3.16421 11.75 3.5 11.4142 3.5 11C3.5 10.5858 3.16421 10.25 2.75 10.25H1.25ZM19.25 10.25C18.8358 10.25 18.5 10.5858 18.5 11C18.5 11.4142 18.8358 11.75 19.25 11.75H20.75C21.1642 11.75 21.5 11.4142 21.5 11C21.5 10.5858 21.1642 10.25 20.75 10.25H19.25ZM5.6967 17.364C5.98959 17.0711 5.98959 16.5962 5.6967 16.3033C5.40381 16.0104 4.92893 16.0104 4.63604 16.3033L3.57538 17.364C3.28249 17.6569 3.28249 18.1317 3.57538 18.4246C3.86827 18.7175 4.34315 18.7175 4.63604 18.4246L5.6967 17.364ZM17.364 16.3033C17.0711 16.0104 16.5962 16.0104 16.3033 16.3033C16.0104 16.5962 16.0104 17.0711 16.3033 17.364L17.364 18.4246C17.6569 18.7175 18.1317 18.7175 18.4246 18.4246C18.7175 18.1317 18.7175 17.6569 18.4246 17.364L17.364 16.3033ZM11.75 19.25C11.75 18.8358 11.4142 18.5 11 18.5C10.5858 18.5 10.25 18.8358 10.25 19.25V20.75C10.25 21.1642 10.5858 21.5 11 21.5C11.4142 21.5 11.75 21.1642 11.75 20.75V19.25ZM11 5C7.68629 5 5 7.68629 5 11C5 14.3137 7.68629 17 11 17C14.3137 17 17 14.3137 17 11C17 7.68629 14.3137 5 11 5ZM6.5 11C6.5 8.51472 8.51472 6.5 11 6.5C13.4853 6.5 15.5 8.51472 15.5 11C15.5 13.4853 13.4853 15.5 11 15.5C8.51472 15.5 6.5 13.4853 6.5 11Z" fill="#212121"/>
</svg>
