<svg width="20" height="16" viewBox="0 0 20 16" fill="none" xmlns="http://www.w3.org/2000/svg">
<path d="M11.0018 4.0089C14.1703 4.0089 15.9678 6.1062 16.2292 8.63903L16.3092 8.63903C18.3482 8.63903 20.0012 10.2878 20.0012 12.3216C20.0012 14.3554 18.3482 16.0041 16.3092 16.0041H5.69443C3.65535 16.0041 2.00235 14.3554 2.00235 12.3216C2.00235 10.2878 3.65535 8.63903 5.69445 8.63903L5.77439 8.63903C6.03733 6.08955 7.83326 4.0089 11.0018 4.0089ZM11.0018 5.50649C8.93047 5.50649 7.12508 7.13974 7.12508 9.39571C7.12508 9.75317 6.80613 10.0337 6.44092 10.0336L5.75037 10.0336C4.48937 10.0336 3.46714 11.0349 3.46714 12.2701C3.46714 13.5052 4.48937 14.5065 5.75037 14.5065H16.2532C17.5142 14.5065 18.5364 13.5052 18.5364 12.2701C18.5364 11.0349 17.5142 10.0336 16.2532 10.0336L15.5627 10.0336C15.1975 10.0337 14.8785 9.75317 14.8785 9.39571C14.8785 7.1108 13.0731 5.50649 11.0018 5.50649ZM2.36742 8.16434C2.51272 8.51513 2.37213 8.91302 2.05293 9.09899L1.96152 9.14426L1.03526 9.52794C0.652572 9.68645 0.213846 9.50472 0.0553335 9.12204C-0.0899698 8.77125 0.0506222 8.37336 0.369827 8.18739L0.461231 8.14212L1.3875 7.75844C1.77018 7.59993 2.20891 7.78166 2.36742 8.16434ZM8.85441 3.33113L8.68283 3.38871C8.14874 3.57739 7.66002 3.83279 7.22254 4.14679C6.68912 3.97292 6.09283 3.98126 5.53334 4.21301C4.28755 4.72904 3.69595 6.15727 4.21198 7.40306C4.27258 7.54938 4.34578 7.68667 4.42978 7.81421C3.93756 7.95162 3.4766 8.17007 3.06324 8.4535C2.97442 8.30332 2.89523 8.14383 2.82616 7.97708C1.99311 5.96593 2.94815 3.66024 4.95931 2.82719C6.30161 2.2712 7.77511 2.51172 8.85441 3.33113ZM0.94067 3.36222L1.04618 3.39712L1.97244 3.78079C2.35512 3.9393 2.53685 4.37803 2.37834 4.76071C2.23424 5.1086 1.85855 5.29042 1.50392 5.20151L1.39842 5.16661L0.47215 4.78294C0.0894666 4.62442 -0.0922598 4.1857 0.0662528 3.80301C0.210355 3.45512 0.586039 3.2733 0.94067 3.36222ZM4.75589 0.375792L4.80117 0.467195L5.18484 1.39346C5.34335 1.77614 5.16162 2.21487 4.77894 2.37338C4.42815 2.51869 4.03026 2.37809 3.84429 2.05889L3.79902 1.96749L3.41535 1.04122C3.25683 0.658537 3.43856 0.219811 3.82124 0.0612983C4.17204 -0.084005 4.56992 0.056587 4.75589 0.375792ZM9.10924 0.0572867C9.45713 0.201389 9.63894 0.577073 9.55003 0.931704L9.51513 1.03721L9.13146 1.96347C8.97295 2.34616 8.53422 2.52788 8.15154 2.36937C7.80364 2.22527 7.62183 1.84959 7.71074 1.49495L7.74564 1.38945L8.12931 0.463184C8.28783 0.0805001 8.72655 -0.101226 9.10924 0.0572867Z" fill="#212121"/>
</svg>
