<svg width="5" height="19" viewBox="0 0 5 19" fill="none" xmlns="http://www.w3.org/2000/svg">
<path fill-rule="evenodd" clip-rule="evenodd" d="M2.24712 14.7083C3.32718 14.7083 4.20274 15.6411 4.20274 16.7917C4.20274 17.9423 3.32718 18.875 2.24712 18.875C1.16706 18.875 0.291504 17.9423 0.291504 16.7917C0.291504 15.6411 1.16706 14.7083 2.24712 14.7083ZM2.24712 7.41667C3.32718 7.41667 4.20274 8.34941 4.20274 9.5C4.20274 10.6506 3.32718 11.5833 2.24712 11.5833C1.16706 11.5833 0.291504 10.6506 0.291504 9.5C0.291504 8.34941 1.16706 7.41667 2.24712 7.41667ZM2.24712 0.125C3.32718 0.125 4.20274 1.05774 4.20274 2.20833C4.20274 3.35893 3.32718 4.29167 2.24712 4.29167C1.16706 4.29167 0.291504 3.35893 0.291504 2.20833C0.291504 1.05774 1.16706 0.125 2.24712 0.125Z" fill="#6B7178"/>
</svg>
