<svg width="55" height="55" viewBox="0 0 55 55" fill="none" xmlns="http://www.w3.org/2000/svg">
<path d="M16.7544 20.0955H20.8638C22.3988 17.2793 25.0223 15.144 28.1711 14.2563C27.5376 12.7183 26.0249 11.6356 24.2589 11.6356C23.8174 11.6356 23.3921 11.7036 22.9924 11.8287C22.9945 11.7645 22.9973 11.7003 22.9973 11.6356C22.9973 8.4941 20.4499 5.9469 17.3082 5.9469C14.5987 5.9469 12.3336 7.84097 11.7607 10.3769C11.4204 10.2634 11.0573 10.2014 10.6791 10.2014C9.51526 10.2014 8.48787 10.784 7.8718 11.6734C7.52805 11.5847 7.16711 11.5367 6.79554 11.5367C4.43225 11.5367 2.51648 13.4526 2.51648 15.816C2.51648 18.179 4.43236 20.0953 6.79554 20.0953H13.6369" fill="#9FDEF7"/>
<path d="M40.1261 17.5053C37.9274 15.1535 34.7972 13.6835 31.3238 13.6835C25.5866 13.6835 20.7893 17.6952 19.5759 23.0657C18.8557 22.8255 18.0865 22.6934 17.2859 22.6934C14.8208 22.6934 12.6456 23.9277 11.341 25.811C10.6128 25.6229 9.84912 25.5218 9.06193 25.5218C4.05713 25.5218 0 29.579 0 34.5838C0 39.5884 4.05713 43.646 9.06193 43.646H19.0534C19.0744 40.5657 21.5766 38.0753 24.6615 38.0753C25.2465 38.0753 25.8106 38.165 26.3408 38.3312C26.3383 38.2463 26.3345 38.1613 26.3345 38.0753C26.3345 33.9087 29.712 30.531 33.8785 30.531C37.471 30.531 40.4753 33.0433 41.2351 36.4061C41.686 36.2556 42.1673 36.173 42.6688 36.173C44.2122 36.173 45.5747 36.9458 46.3915 38.1254C46.8475 38.0074 47.3256 37.944 47.8185 37.944C49.8843 37.944 51.6918 39.0482 52.6842 40.698C54.1232 39.1089 54.9999 37.0012 54.9999 34.6888C54.9999 29.7414 50.9896 25.7315 46.0426 25.7315C45.1084 25.7315 44.2078 25.8747 43.361 26.1401C43.3654 26.0044 43.3713 25.8684 43.3713 25.7315C43.3713 23.7085 42.8728 21.8021 41.9915 20.1281" fill="#BEEAFC"/>
<path d="M47.8186 37.7043C47.3258 37.7043 46.8474 37.7674 46.3916 37.8856C45.5748 36.7059 44.2123 35.9332 42.6689 35.9332C42.1674 35.9332 41.6861 36.0158 41.2352 36.1663C40.4753 32.8034 37.4712 30.2913 33.8786 30.2913C29.7122 30.2913 26.3346 33.6689 26.3346 37.8355C26.3346 37.9215 26.3383 38.0065 26.3409 38.0914C25.8107 37.9252 25.2466 37.8355 24.6616 37.8355C21.5641 37.8355 19.0529 40.3463 19.0529 43.4447C19.0529 46.5422 21.5642 49.0532 24.6616 49.0532H41.4548H44.5715H47.8188C50.9529 49.0532 53.4936 46.5126 53.4936 43.3787C53.4934 40.2447 50.9527 37.7043 47.8186 37.7043Z" fill="#E4F2F9"/>
</svg>
