<svg width="20" height="20" viewBox="0 0 20 20" fill="none" xmlns="http://www.w3.org/2000/svg">
<path d="M8.46437 13.748L10.7003 11.2603C10.9772 10.9522 11.4514 10.927 11.7595 11.2039C12.0395 11.4556 12.0859 11.8704 11.884 12.1751L11.8159 12.263L10.7047 13.4994H12.9812C13.5745 13.4994 13.9195 14.1469 13.6263 14.6328L13.5678 14.7167L10.3563 18.7482C10.0982 19.0721 9.62635 19.1256 9.30237 18.8675C9.00784 18.6328 8.93692 18.2215 9.12036 17.9053L9.18305 17.8135L11.4249 14.9994H9.02217C8.40914 14.9994 8.06948 14.3138 8.39916 13.8309L8.46437 13.748L10.7003 11.2603L8.46437 13.748ZM11.0017 3.0089C14.1702 3.0089 15.9677 5.1062 16.2291 7.63903L16.3091 7.63903C18.3481 7.63903 20.0011 9.28775 20.0011 11.3216C20.0011 13.3554 18.3481 15.0041 16.3091 15.0041L14.521 15.0051C14.6652 14.7915 14.7494 14.534 14.7494 14.2569C14.7494 13.9784 14.6644 13.7198 14.5189 13.5056L16.2531 13.5065C17.5141 13.5065 18.5363 12.5052 18.5363 11.2701C18.5363 10.0349 17.5141 9.03363 16.2531 9.03363L15.5626 9.03365C15.1973 9.03366 14.8784 8.75317 14.8784 8.39571C14.8784 6.1108 13.073 4.50649 11.0017 4.50649C8.93037 4.50649 7.12498 6.13974 7.12498 8.39571C7.12498 8.75317 6.80603 9.03366 6.44082 9.03365L5.75026 9.03363C4.48927 9.03363 3.46703 10.0349 3.46703 11.2701C3.46703 12.5052 4.48927 13.5065 5.75026 13.5065L7.51196 13.5056C7.36645 13.7198 7.28141 13.9784 7.28141 14.2569C7.28141 14.534 7.36564 14.7915 7.5099 15.0051L5.69432 15.0041C3.65524 15.0041 2.00224 13.3554 2.00224 11.3216C2.00224 9.28775 3.65524 7.63903 5.69435 7.63903L5.77429 7.63903C6.03723 5.08955 7.83316 3.0089 11.0017 3.0089ZM8 0C9.61671 0 11.0491 0.815136 11.9001 2.06187C11.6099 2.02684 11.3101 2.0089 11.0017 2.0089C10.6075 2.0089 10.2275 2.03798 9.86301 2.09426C9.33476 1.71902 8.68983 1.5 8 1.5C6.43321 1.5 5.09808 2.62984 4.83063 4.1563L4.75814 4.57003C4.67432 5.04846 4.25883 5.39747 3.77312 5.39745L3.28207 5.39744C2.29785 5.39744 1.5 6.19529 1.5 7.17949C1.5 7.67011 1.69827 8.11443 2.01905 8.43668C1.70415 8.83747 1.45435 9.29186 1.284 9.78384C0.503632 9.18423 0 8.24067 0 7.17949C0 5.42936 1.36983 3.99918 3.09583 3.90263L3.35314 3.89744C3.74233 1.67611 5.6817 0 8 0Z" fill="#212121"/>
</svg>
